%TF.GenerationSoftware,KiCad,Pcbnew,5.1.6-c6e7f7d~87~ubuntu19.10.1*%
%TF.CreationDate,2021-01-18T21:02:38-03:00*%
%TF.ProjectId,VLTUnivesp,564c5455-6e69-4766-9573-702e6b696361,rev?*%
%TF.SameCoordinates,Original*%
%TF.FileFunction,Copper,L1,Top*%
%TF.FilePolarity,Positive*%
%FSLAX46Y46*%
G04 Gerber Fmt 4.6, Leading zero omitted, Abs format (unit mm)*
G04 Created by KiCad (PCBNEW 5.1.6-c6e7f7d~87~ubuntu19.10.1) date 2021-01-18 21:02:38*
%MOMM*%
%LPD*%
G01*
G04 APERTURE LIST*
%TA.AperFunction,ComponentPad*%
%ADD10O,1.400000X1.400000*%
%TD*%
%TA.AperFunction,ComponentPad*%
%ADD11C,1.400000*%
%TD*%
%TA.AperFunction,ComponentPad*%
%ADD12O,1.600000X1.600000*%
%TD*%
%TA.AperFunction,ComponentPad*%
%ADD13R,1.600000X1.600000*%
%TD*%
%TA.AperFunction,ComponentPad*%
%ADD14C,8.600000*%
%TD*%
%TA.AperFunction,ComponentPad*%
%ADD15C,0.900000*%
%TD*%
%TA.AperFunction,ComponentPad*%
%ADD16R,2.000000X2.000000*%
%TD*%
%TA.AperFunction,ComponentPad*%
%ADD17C,2.000000*%
%TD*%
%TA.AperFunction,ComponentPad*%
%ADD18R,1.700000X1.700000*%
%TD*%
%TA.AperFunction,ComponentPad*%
%ADD19O,1.700000X1.700000*%
%TD*%
%TA.AperFunction,ComponentPad*%
%ADD20R,3.500000X3.500000*%
%TD*%
%TA.AperFunction,ComponentPad*%
%ADD21C,2.600000*%
%TD*%
%TA.AperFunction,ComponentPad*%
%ADD22R,2.600000X2.600000*%
%TD*%
%TA.AperFunction,SMDPad,CuDef*%
%ADD23R,2.000000X3.800000*%
%TD*%
%TA.AperFunction,SMDPad,CuDef*%
%ADD24R,2.000000X1.500000*%
%TD*%
%TA.AperFunction,ComponentPad*%
%ADD25C,1.800000*%
%TD*%
%TA.AperFunction,ComponentPad*%
%ADD26C,1.600000*%
%TD*%
%TA.AperFunction,ComponentPad*%
%ADD27R,1.800000X1.800000*%
%TD*%
%TA.AperFunction,ViaPad*%
%ADD28C,0.800000*%
%TD*%
%TA.AperFunction,Conductor*%
%ADD29C,1.000000*%
%TD*%
%TA.AperFunction,Conductor*%
%ADD30C,0.500000*%
%TD*%
G04 APERTURE END LIST*
D10*
%TO.P,R19,2*%
%TO.N,Net-(BZ1-Pad1)*%
X105845000Y-68300000D03*
D11*
%TO.P,R19,1*%
%TO.N,Buzzer*%
X98225000Y-68300000D03*
%TD*%
D10*
%TO.P,R18,2*%
%TO.N,CH02*%
X105460000Y-95680000D03*
D11*
%TO.P,R18,1*%
%TO.N,3V3*%
X105460000Y-88060000D03*
%TD*%
D10*
%TO.P,R17,2*%
%TO.N,CH01*%
X102616000Y-95656400D03*
D11*
%TO.P,R17,1*%
%TO.N,3V3*%
X102616000Y-88036400D03*
%TD*%
D10*
%TO.P,R16,2*%
%TO.N,Net-(D16-Pad2)*%
X125831600Y-120345200D03*
D11*
%TO.P,R16,1*%
%TO.N,VLT2*%
X118211600Y-120345200D03*
%TD*%
%TO.P,R15,1*%
%TO.N,VLT1*%
X118211600Y-117170200D03*
D10*
%TO.P,R15,2*%
%TO.N,Net-(D15-Pad2)*%
X125831600Y-117170200D03*
%TD*%
%TO.P,R14,2*%
%TO.N,Net-(D14-Pad2)*%
X100765426Y-107670600D03*
D11*
%TO.P,R14,1*%
%TO.N,S6VD*%
X100765426Y-100050600D03*
%TD*%
%TO.P,R13,1*%
%TO.N,S6VM*%
X97848055Y-100050600D03*
D10*
%TO.P,R13,2*%
%TO.N,Net-(D13-Pad2)*%
X97848055Y-107670600D03*
%TD*%
%TO.P,R12,2*%
%TO.N,Net-(D12-Pad2)*%
X100765426Y-120472200D03*
D11*
%TO.P,R12,1*%
%TO.N,S5VD*%
X100765426Y-112852200D03*
%TD*%
%TO.P,R11,1*%
%TO.N,S5VM*%
X97848055Y-112852200D03*
D10*
%TO.P,R11,2*%
%TO.N,Net-(D11-Pad2)*%
X97848055Y-120472200D03*
%TD*%
%TO.P,R10,2*%
%TO.N,Net-(D10-Pad2)*%
X94930684Y-120472200D03*
D11*
%TO.P,R10,1*%
%TO.N,S4VD*%
X94930684Y-112852200D03*
%TD*%
%TO.P,R9,1*%
%TO.N,S4VM*%
X92013313Y-112852200D03*
D10*
%TO.P,R9,2*%
%TO.N,Net-(D9-Pad2)*%
X92013313Y-120472200D03*
%TD*%
%TO.P,R8,2*%
%TO.N,Net-(D8-Pad2)*%
X94930684Y-107670600D03*
D11*
%TO.P,R8,1*%
%TO.N,S3VD*%
X94930684Y-100050600D03*
%TD*%
%TO.P,R7,1*%
%TO.N,S3VM*%
X89095942Y-112852200D03*
D10*
%TO.P,R7,2*%
%TO.N,Net-(D7-Pad2)*%
X89095942Y-120472200D03*
%TD*%
%TO.P,R6,2*%
%TO.N,Net-(D6-Pad2)*%
X86178571Y-120472200D03*
D11*
%TO.P,R6,1*%
%TO.N,S2VD*%
X86178571Y-112852200D03*
%TD*%
%TO.P,R5,1*%
%TO.N,S2AM*%
X83261200Y-112852200D03*
D10*
%TO.P,R5,2*%
%TO.N,Net-(D5-Pad2)*%
X83261200Y-120472200D03*
%TD*%
D11*
%TO.P,R4,1*%
%TO.N,S2VM*%
X92013313Y-100050600D03*
D10*
%TO.P,R4,2*%
%TO.N,Net-(D4-Pad2)*%
X92013313Y-107670600D03*
%TD*%
D11*
%TO.P,R3,1*%
%TO.N,S1VD*%
X89095942Y-100050600D03*
D10*
%TO.P,R3,2*%
%TO.N,Net-(D3-Pad2)*%
X89095942Y-107670600D03*
%TD*%
D11*
%TO.P,R2,1*%
%TO.N,S1AM*%
X86178571Y-100050600D03*
D10*
%TO.P,R2,2*%
%TO.N,Net-(D2-Pad2)*%
X86178571Y-107670600D03*
%TD*%
D11*
%TO.P,R1,1*%
%TO.N,S1VM*%
X83261200Y-100050600D03*
D10*
%TO.P,R1,2*%
%TO.N,Net-(D1-Pad2)*%
X83261200Y-107670600D03*
%TD*%
D12*
%TO.P,U1,16*%
%TO.N,3V3*%
X74371200Y-95808800D03*
%TO.P,U1,8*%
%TO.N,GND*%
X66751200Y-113588800D03*
%TO.P,U1,15*%
%TO.N,S1VD*%
X74371200Y-98348800D03*
%TO.P,U1,7*%
%TO.N,S3VM*%
X66751200Y-111048800D03*
%TO.P,U1,14*%
%TO.N,DATA*%
X74371200Y-100888800D03*
%TO.P,U1,6*%
%TO.N,S3VD*%
X66751200Y-108508800D03*
%TO.P,U1,13*%
%TO.N,GND*%
X74371200Y-103428800D03*
%TO.P,U1,5*%
%TO.N,S2VM*%
X66751200Y-105968800D03*
%TO.P,U1,12*%
%TO.N,CS*%
X74371200Y-105968800D03*
%TO.P,U1,4*%
%TO.N,S2AM*%
X66751200Y-103428800D03*
%TO.P,U1,11*%
%TO.N,CLK*%
X74371200Y-108508800D03*
%TO.P,U1,3*%
%TO.N,S2VD*%
X66751200Y-100888800D03*
%TO.P,U1,10*%
%TO.N,3V3*%
X74371200Y-111048800D03*
%TO.P,U1,2*%
%TO.N,S1VM*%
X66751200Y-98348800D03*
%TO.P,U1,9*%
%TO.N,DATA1*%
X74371200Y-113588800D03*
D13*
%TO.P,U1,1*%
%TO.N,S1AM*%
X66751200Y-95808800D03*
%TD*%
D12*
%TO.P,U2,16*%
%TO.N,3V3*%
X112630000Y-112675000D03*
%TO.P,U2,8*%
%TO.N,GND*%
X120250000Y-94895000D03*
%TO.P,U2,15*%
%TO.N,S4VD*%
X112630000Y-110135000D03*
%TO.P,U2,7*%
%TO.N,VLT2*%
X120250000Y-97435000D03*
%TO.P,U2,14*%
%TO.N,DATA1*%
X112630000Y-107595000D03*
%TO.P,U2,6*%
%TO.N,VLT1*%
X120250000Y-99975000D03*
%TO.P,U2,13*%
%TO.N,GND*%
X112630000Y-105055000D03*
%TO.P,U2,5*%
%TO.N,S6VM*%
X120250000Y-102515000D03*
%TO.P,U2,12*%
%TO.N,CS*%
X112630000Y-102515000D03*
%TO.P,U2,4*%
%TO.N,S6VD*%
X120250000Y-105055000D03*
%TO.P,U2,11*%
%TO.N,CLK*%
X112630000Y-99975000D03*
%TO.P,U2,3*%
%TO.N,S5VM*%
X120250000Y-107595000D03*
%TO.P,U2,10*%
%TO.N,3V3*%
X112630000Y-97435000D03*
%TO.P,U2,2*%
%TO.N,S5VD*%
X120250000Y-110135000D03*
%TO.P,U2,9*%
%TO.N,N/C*%
X112630000Y-94895000D03*
D13*
%TO.P,U2,1*%
%TO.N,S4VM*%
X120250000Y-112675000D03*
%TD*%
D14*
%TO.P,REF\u002A\u002A,1*%
%TO.N,N/C*%
X134518400Y-59639200D03*
D15*
X137743400Y-59639200D03*
X136798819Y-61919619D03*
X134518400Y-62864200D03*
X132237981Y-61919619D03*
X131293400Y-59639200D03*
X132237981Y-57358781D03*
X134518400Y-56414200D03*
X136798819Y-57358781D03*
%TD*%
D14*
%TO.P,REF\u002A\u002A,1*%
%TO.N,N/C*%
X134518400Y-144627600D03*
D15*
X137743400Y-144627600D03*
X136798819Y-146908019D03*
X134518400Y-147852600D03*
X132237981Y-146908019D03*
X131293400Y-144627600D03*
X132237981Y-142347181D03*
X134518400Y-141402600D03*
X136798819Y-142347181D03*
%TD*%
D14*
%TO.P,REF\u002A\u002A,1*%
%TO.N,N/C*%
X51714400Y-144627600D03*
D15*
X54939400Y-144627600D03*
X53994819Y-146908019D03*
X51714400Y-147852600D03*
X49433981Y-146908019D03*
X48489400Y-144627600D03*
X49433981Y-142347181D03*
X51714400Y-141402600D03*
X53994819Y-142347181D03*
%TD*%
%TO.P,REF\u002A\u002A,1*%
%TO.N,N/C*%
X53994819Y-57358781D03*
X51714400Y-56414200D03*
X49433981Y-57358781D03*
X48489400Y-59639200D03*
X49433981Y-61919619D03*
X51714400Y-62864200D03*
X53994819Y-61919619D03*
X54939400Y-59639200D03*
D14*
X51714400Y-59639200D03*
%TD*%
D16*
%TO.P,BZ1,1*%
%TO.N,Net-(BZ1-Pad1)*%
X101275000Y-76875000D03*
D17*
%TO.P,BZ1,2*%
%TO.N,GND*%
X108875000Y-76875000D03*
%TD*%
D16*
%TO.P,C3,1*%
%TO.N,5V*%
X105968800Y-58674000D03*
D17*
%TO.P,C3,2*%
%TO.N,GND*%
X113468800Y-58674000D03*
%TD*%
D18*
%TO.P,I2C1,1*%
%TO.N,3V3*%
X62025000Y-56175000D03*
D19*
%TO.P,I2C1,2*%
%TO.N,GND*%
X62025000Y-58715000D03*
%TO.P,I2C1,3*%
%TO.N,SCL*%
X62025000Y-61255000D03*
%TO.P,I2C1,4*%
%TO.N,SDA*%
X62025000Y-63795000D03*
%TD*%
%TO.P,OLED1,4*%
%TO.N,SDA*%
X97020000Y-95875000D03*
%TO.P,OLED1,3*%
%TO.N,SCL*%
X94480000Y-95875000D03*
%TO.P,OLED1,2*%
%TO.N,Net-(J2-Pad2)*%
X91940000Y-95875000D03*
D18*
%TO.P,OLED1,1*%
%TO.N,Net-(J1-Pad2)*%
X89400000Y-95875000D03*
%TD*%
D20*
%TO.P,P3,1*%
%TO.N,5V*%
X121000000Y-68000000D03*
%TO.P,P3,2*%
%TO.N,GND*%
%TA.AperFunction,ComponentPad*%
G36*
G01*
X120000000Y-60500000D02*
X122000000Y-60500000D01*
G75*
G02*
X122750000Y-61250000I0J-750000D01*
G01*
X122750000Y-62750000D01*
G75*
G02*
X122000000Y-63500000I-750000J0D01*
G01*
X120000000Y-63500000D01*
G75*
G02*
X119250000Y-62750000I0J750000D01*
G01*
X119250000Y-61250000D01*
G75*
G02*
X120000000Y-60500000I750000J0D01*
G01*
G37*
%TD.AperFunction*%
%TO.P,P3,3*%
%TA.AperFunction,ComponentPad*%
G36*
G01*
X115425000Y-63250000D02*
X117175000Y-63250000D01*
G75*
G02*
X118050000Y-64125000I0J-875000D01*
G01*
X118050000Y-65875000D01*
G75*
G02*
X117175000Y-66750000I-875000J0D01*
G01*
X115425000Y-66750000D01*
G75*
G02*
X114550000Y-65875000I0J875000D01*
G01*
X114550000Y-64125000D01*
G75*
G02*
X115425000Y-63250000I875000J0D01*
G01*
G37*
%TD.AperFunction*%
%TD*%
D21*
%TO.P,S1,4*%
%TO.N,GND*%
X52806600Y-83097400D03*
%TO.P,S1,3*%
%TO.N,S1VM*%
X52806600Y-78097400D03*
%TO.P,S1,2*%
%TO.N,S1AM*%
X52806600Y-73097400D03*
D22*
%TO.P,S1,1*%
%TO.N,S1VD*%
X52806600Y-68097400D03*
%TD*%
%TO.P,S2,1*%
%TO.N,S2VD*%
X52950000Y-91250000D03*
D21*
%TO.P,S2,2*%
%TO.N,S2AM*%
X52950000Y-96250000D03*
%TO.P,S2,3*%
%TO.N,S2VM*%
X52950000Y-101250000D03*
%TO.P,S2,4*%
%TO.N,GND*%
X52950000Y-106250000D03*
%TD*%
D22*
%TO.P,S3,1*%
%TO.N,S3VD*%
X53009800Y-116916200D03*
D21*
%TO.P,S3,2*%
%TO.N,S3VM*%
X53009800Y-121916200D03*
%TO.P,S3,3*%
%TO.N,GND*%
X53009800Y-126916200D03*
%TD*%
%TO.P,S4,3*%
%TO.N,GND*%
X134874000Y-126194800D03*
%TO.P,S4,2*%
%TO.N,S4VM*%
X134874000Y-131194800D03*
D22*
%TO.P,S4,1*%
%TO.N,S4VD*%
X134874000Y-136194800D03*
%TD*%
%TO.P,S5,1*%
%TO.N,S5VD*%
X134874000Y-117650000D03*
D21*
%TO.P,S5,2*%
%TO.N,S5VM*%
X134874000Y-112650000D03*
%TO.P,S5,3*%
%TO.N,GND*%
X134874000Y-107650000D03*
%TD*%
%TO.P,S6,3*%
%TO.N,GND*%
X134874000Y-87790000D03*
%TO.P,S6,2*%
%TO.N,S6VM*%
X134874000Y-92790000D03*
D22*
%TO.P,S6,1*%
%TO.N,S6VD*%
X134874000Y-97790000D03*
%TD*%
D17*
%TO.P,SW1,2*%
%TO.N,CH01*%
X66294000Y-142820000D03*
%TO.P,SW1,1*%
%TO.N,GND*%
X66294000Y-147320000D03*
%TO.P,SW1,2*%
%TO.N,CH01*%
X59794000Y-142820000D03*
%TO.P,SW1,1*%
%TO.N,GND*%
X59794000Y-147320000D03*
%TD*%
%TO.P,SW2,2*%
%TO.N,CH02*%
X79502000Y-142820000D03*
%TO.P,SW2,1*%
%TO.N,GND*%
X79502000Y-147320000D03*
%TO.P,SW2,2*%
%TO.N,CH02*%
X73002000Y-142820000D03*
%TO.P,SW2,1*%
%TO.N,GND*%
X73002000Y-147320000D03*
%TD*%
%TO.P,SW3,1*%
%TO.N,GND*%
X86210000Y-147320000D03*
%TO.P,SW3,2*%
%TO.N,CH03*%
X86210000Y-142820000D03*
%TO.P,SW3,1*%
%TO.N,GND*%
X92710000Y-147320000D03*
%TO.P,SW3,2*%
%TO.N,CH03*%
X92710000Y-142820000D03*
%TD*%
D23*
%TO.P,U3,2*%
%TO.N,3V3*%
X117100000Y-77550000D03*
D24*
X123400000Y-77550000D03*
%TO.P,U3,3*%
%TO.N,5V*%
X123400000Y-75250000D03*
%TO.P,U3,1*%
%TO.N,GND*%
X123400000Y-79850000D03*
%TD*%
D22*
%TO.P,VLT1,1*%
%TO.N,VLT1*%
X134900000Y-77850000D03*
D21*
%TO.P,VLT1,2*%
%TO.N,VLT2*%
X134900000Y-72850000D03*
%TO.P,VLT1,3*%
%TO.N,GND*%
X134900000Y-67850000D03*
%TD*%
D25*
%TO.P,WEMOS-D1,16*%
%TO.N,N/C*%
X93755000Y-63885000D03*
%TO.P,WEMOS-D1,1*%
%TO.N,5V*%
X70895000Y-63885000D03*
%TO.P,WEMOS-D1,15*%
%TO.N,CS*%
X93755000Y-66425000D03*
%TO.P,WEMOS-D1,2*%
%TO.N,GND*%
X70895000Y-66425000D03*
%TO.P,WEMOS-D1,14*%
%TO.N,DATA*%
X93755000Y-68965000D03*
%TO.P,WEMOS-D1,3*%
%TO.N,CH03*%
X70895000Y-68965000D03*
%TO.P,WEMOS-D1,13*%
%TO.N,Buzzer*%
X93755000Y-71505000D03*
%TO.P,WEMOS-D1,4*%
%TO.N,CH02*%
X70895000Y-71505000D03*
%TO.P,WEMOS-D1,12*%
%TO.N,CLK*%
X93755000Y-74045000D03*
%TO.P,WEMOS-D1,5*%
%TO.N,SDA*%
X70895000Y-74045000D03*
%TO.P,WEMOS-D1,11*%
%TO.N,CH01*%
X93755000Y-76585000D03*
%TO.P,WEMOS-D1,6*%
%TO.N,SCL*%
X70895000Y-76585000D03*
%TO.P,WEMOS-D1,10*%
%TO.N,N/C*%
X93755000Y-79125000D03*
%TO.P,WEMOS-D1,7*%
X70895000Y-79125000D03*
%TO.P,WEMOS-D1,9*%
X93755000Y-81665000D03*
%TO.P,WEMOS-D1,8*%
X70895000Y-81665000D03*
%TD*%
D26*
%TO.P,C1,1*%
%TO.N,3V3*%
X109575600Y-70104000D03*
%TO.P,C1,2*%
%TO.N,GND*%
X109575600Y-65104000D03*
%TD*%
%TO.P,C2,2*%
%TO.N,GND*%
X73224400Y-92456000D03*
%TO.P,C2,1*%
%TO.N,3V3*%
X68224400Y-92456000D03*
%TD*%
%TO.P,C4,1*%
%TO.N,3V3*%
X113690400Y-91389200D03*
%TO.P,C4,2*%
%TO.N,GND*%
X118690400Y-91389200D03*
%TD*%
D27*
%TO.P,D1,1*%
%TO.N,GND*%
X64950000Y-120850000D03*
D25*
%TO.P,D1,2*%
%TO.N,Net-(D1-Pad2)*%
X67490000Y-120850000D03*
%TD*%
D27*
%TO.P,D2,1*%
%TO.N,GND*%
X64950000Y-127600000D03*
D25*
%TO.P,D2,2*%
%TO.N,Net-(D2-Pad2)*%
X67490000Y-127600000D03*
%TD*%
%TO.P,D3,2*%
%TO.N,Net-(D3-Pad2)*%
X67490000Y-134500000D03*
D27*
%TO.P,D3,1*%
%TO.N,GND*%
X64950000Y-134500000D03*
%TD*%
D25*
%TO.P,D4,2*%
%TO.N,Net-(D4-Pad2)*%
X76758800Y-120853200D03*
D27*
%TO.P,D4,1*%
%TO.N,GND*%
X74218800Y-120853200D03*
%TD*%
D25*
%TO.P,D5,2*%
%TO.N,Net-(D5-Pad2)*%
X76758800Y-127609600D03*
D27*
%TO.P,D5,1*%
%TO.N,GND*%
X74218800Y-127609600D03*
%TD*%
%TO.P,D6,1*%
%TO.N,GND*%
X74218800Y-134493000D03*
D25*
%TO.P,D6,2*%
%TO.N,Net-(D6-Pad2)*%
X76758800Y-134493000D03*
%TD*%
D27*
%TO.P,D7,1*%
%TO.N,GND*%
X83870800Y-127635000D03*
D25*
%TO.P,D7,2*%
%TO.N,Net-(D7-Pad2)*%
X86410800Y-127635000D03*
%TD*%
%TO.P,D8,2*%
%TO.N,Net-(D8-Pad2)*%
X86385400Y-134467600D03*
D27*
%TO.P,D8,1*%
%TO.N,GND*%
X83845400Y-134467600D03*
%TD*%
D25*
%TO.P,D9,2*%
%TO.N,Net-(D9-Pad2)*%
X95230000Y-127660400D03*
D27*
%TO.P,D9,1*%
%TO.N,GND*%
X92690000Y-127660400D03*
%TD*%
%TO.P,D10,1*%
%TO.N,GND*%
X92684600Y-134467600D03*
D25*
%TO.P,D10,2*%
%TO.N,Net-(D10-Pad2)*%
X95224600Y-134467600D03*
%TD*%
%TO.P,D11,2*%
%TO.N,Net-(D11-Pad2)*%
X103301800Y-127660400D03*
D27*
%TO.P,D11,1*%
%TO.N,GND*%
X100761800Y-127660400D03*
%TD*%
D25*
%TO.P,D12,2*%
%TO.N,Net-(D12-Pad2)*%
X103301800Y-134467600D03*
D27*
%TO.P,D12,1*%
%TO.N,GND*%
X100761800Y-134467600D03*
%TD*%
%TO.P,D13,1*%
%TO.N,GND*%
X109321600Y-127685800D03*
D25*
%TO.P,D13,2*%
%TO.N,Net-(D13-Pad2)*%
X111861600Y-127685800D03*
%TD*%
D27*
%TO.P,D14,1*%
%TO.N,GND*%
X109296200Y-134467600D03*
D25*
%TO.P,D14,2*%
%TO.N,Net-(D14-Pad2)*%
X111836200Y-134467600D03*
%TD*%
D27*
%TO.P,D15,1*%
%TO.N,GND*%
X120490000Y-126410000D03*
D25*
%TO.P,D15,2*%
%TO.N,Net-(D15-Pad2)*%
X123030000Y-126410000D03*
%TD*%
D27*
%TO.P,D16,1*%
%TO.N,GND*%
X120490000Y-135980000D03*
D25*
%TO.P,D16,2*%
%TO.N,Net-(D16-Pad2)*%
X123030000Y-135980000D03*
%TD*%
D28*
%TO.N,GND*%
X106908600Y-104952800D03*
X106832400Y-101168200D03*
X104648000Y-97739200D03*
%TO.N,S2VD*%
X69316600Y-107213400D03*
%TO.N,S3VD*%
X81153000Y-103174800D03*
X70815200Y-102158800D03*
%TO.N,S4VM*%
X99161600Y-118567200D03*
%TO.N,S4VD*%
X97790000Y-116611400D03*
X102285800Y-116484400D03*
%TO.N,S5VM*%
X103530400Y-114223800D03*
%TO.N,S6VD*%
X102336600Y-103694600D03*
%TO.N,CH02*%
X100126800Y-86588600D03*
%TO.N,3V3*%
X71170800Y-113792000D03*
%TO.N,CLK*%
X105054400Y-104978200D03*
%TD*%
D29*
%TO.N,GND*%
X119380000Y-88087200D02*
X119380000Y-84683600D01*
X123400000Y-80663600D02*
X123400000Y-79850000D01*
X119380000Y-84683600D02*
X123400000Y-80663600D01*
X123400000Y-79850000D02*
X125280400Y-79850000D01*
X125280400Y-79850000D02*
X126390400Y-78740000D01*
X126390400Y-78740000D02*
X126390400Y-71526400D01*
X130066800Y-67850000D02*
X134900000Y-67850000D01*
X126390400Y-71526400D02*
X130066800Y-67850000D01*
X110090000Y-105055000D02*
X107010800Y-105055000D01*
X107010800Y-105055000D02*
X106908600Y-104952800D01*
X106832400Y-101168200D02*
X106832400Y-99923600D01*
X106832400Y-99923600D02*
X104648000Y-97739200D01*
X110090000Y-105055000D02*
X112630000Y-105055000D01*
X118690400Y-88776800D02*
X119380000Y-88087200D01*
X118690400Y-88776800D02*
X118690400Y-91389200D01*
%TO.N,5V*%
X123400000Y-75250000D02*
X123400000Y-73565200D01*
X123400000Y-73565200D02*
X123444000Y-73521200D01*
X123444000Y-70444000D02*
X121000000Y-68000000D01*
X123444000Y-73521200D02*
X123444000Y-70444000D01*
D30*
%TO.N,SDA*%
X70895000Y-74045000D02*
X73960800Y-74045000D01*
X73960800Y-74045000D02*
X75057000Y-72948800D01*
X75057000Y-72948800D02*
X75057000Y-63017400D01*
X75057000Y-63017400D02*
X73583800Y-61544200D01*
X64275800Y-61544200D02*
X62025000Y-63795000D01*
X73583800Y-61544200D02*
X64275800Y-61544200D01*
X97020000Y-95875000D02*
X97020000Y-89400000D01*
X81665000Y-74045000D02*
X70895000Y-74045000D01*
X97020000Y-89400000D02*
X81665000Y-74045000D01*
%TO.N,SCL*%
X94480000Y-95875000D02*
X94480000Y-89552400D01*
X94480000Y-89552400D02*
X92938600Y-88011000D01*
X92938600Y-88011000D02*
X68910200Y-88011000D01*
X68910200Y-88011000D02*
X65989200Y-85090000D01*
X65989200Y-85090000D02*
X65989200Y-78613000D01*
X68017200Y-76585000D02*
X70895000Y-76585000D01*
X65989200Y-78613000D02*
X68017200Y-76585000D01*
%TO.N,S1VM*%
X79984600Y-100050600D02*
X83261200Y-100050600D01*
X69666799Y-99638799D02*
X79572799Y-99638799D01*
X79572799Y-99638799D02*
X79984600Y-100050600D01*
X68376800Y-98348800D02*
X69666799Y-99638799D01*
X66751200Y-98348800D02*
X68376800Y-98348800D01*
%TO.N,S1AM*%
X69850000Y-95859600D02*
X66852800Y-95859600D01*
X86178571Y-98319771D02*
X84917601Y-97058801D01*
X86178571Y-100050600D02*
X86178571Y-98319771D01*
X84917601Y-97058801D02*
X71455601Y-97058801D01*
X71455601Y-97058801D02*
X70256400Y-95859600D01*
X70256400Y-95859600D02*
X69850000Y-95859600D01*
%TO.N,S1VD*%
X83947000Y-98399600D02*
X84607400Y-99060000D01*
X84607400Y-99060000D02*
X84607400Y-101142800D01*
X84607400Y-101142800D02*
X85394800Y-101930200D01*
X87216342Y-101930200D02*
X89095942Y-100050600D01*
X85394800Y-101930200D02*
X87216342Y-101930200D01*
X80010000Y-98348800D02*
X74371200Y-98348800D01*
X80060800Y-98399600D02*
X80010000Y-98348800D01*
X83947000Y-98399600D02*
X80060800Y-98399600D01*
%TO.N,S2VM*%
X67640200Y-105232200D02*
X66852800Y-106019600D01*
X68153601Y-104718799D02*
X67640200Y-105232200D01*
X74971201Y-104718799D02*
X68153601Y-104718799D01*
X90621799Y-104729601D02*
X74982003Y-104729601D01*
X92013313Y-103338087D02*
X90621799Y-104729601D01*
X74982003Y-104729601D02*
X74971201Y-104718799D01*
X92013313Y-100050600D02*
X92013313Y-103338087D01*
%TO.N,S2AM*%
X81457800Y-112852200D02*
X83261200Y-112852200D01*
X65354200Y-103479600D02*
X64439800Y-104394000D01*
X78364401Y-109758801D02*
X81457800Y-112852200D01*
X64439800Y-104394000D02*
X64439800Y-109194600D01*
X64439800Y-109194600D02*
X65004001Y-109758801D01*
X66852800Y-103479600D02*
X65354200Y-103479600D01*
X65004001Y-109758801D02*
X78364401Y-109758801D01*
%TO.N,S2VD*%
X69361999Y-107258799D02*
X69316600Y-107213400D01*
X80029999Y-107258799D02*
X69361999Y-107258799D01*
X84785200Y-109702600D02*
X82473800Y-109702600D01*
X86178571Y-112852200D02*
X86178571Y-111095971D01*
X86178571Y-111095971D02*
X84785200Y-109702600D01*
X82473800Y-109702600D02*
X80029999Y-107258799D01*
%TO.N,S3VM*%
X89095942Y-114561258D02*
X89095942Y-112852200D01*
X87579200Y-116078000D02*
X89095942Y-114561258D01*
X81203800Y-116078000D02*
X87579200Y-116078000D01*
X79959200Y-114833400D02*
X81203800Y-116078000D01*
X66852800Y-111099600D02*
X71729600Y-111099600D01*
X72928801Y-112298801D02*
X78251999Y-112298801D01*
X79959200Y-114006002D02*
X79959200Y-114833400D01*
X71729600Y-111099600D02*
X72928801Y-112298801D01*
X78251999Y-112298801D02*
X79959200Y-114006002D01*
%TO.N,S3VD*%
X79115599Y-102178799D02*
X70835199Y-102178799D01*
X70835199Y-102178799D02*
X70815200Y-102158800D01*
X81153000Y-103174800D02*
X80111600Y-103174800D01*
X80111600Y-103174800D02*
X79115599Y-102178799D01*
%TO.N,S4VM*%
X117856000Y-129006600D02*
X121517400Y-132668000D01*
X117906800Y-126436802D02*
X117856000Y-126487602D01*
X108178600Y-118567200D02*
X112547400Y-122936000D01*
X99161600Y-118567200D02*
X108178600Y-118567200D01*
X117856000Y-126487602D02*
X117856000Y-129006600D01*
X114655600Y-122936000D02*
X117906800Y-126187200D01*
X112547400Y-122936000D02*
X114655600Y-122936000D01*
X117906800Y-126187200D02*
X117906800Y-126436802D01*
X133400800Y-132668000D02*
X121517400Y-132668000D01*
X134874000Y-131194800D02*
X133400800Y-132668000D01*
%TO.N,S4VD*%
X97790000Y-116611400D02*
X102158800Y-116611400D01*
X102158800Y-116611400D02*
X102285800Y-116484400D01*
%TO.N,S5VM*%
X103530400Y-114223800D02*
X98501200Y-114223800D01*
X97848055Y-113570655D02*
X97848055Y-112852200D01*
X98501200Y-114223800D02*
X97848055Y-113570655D01*
%TO.N,S5VD*%
X119126600Y-110135000D02*
X120250000Y-110135000D01*
X107294401Y-106344999D02*
X115336599Y-106344999D01*
X115336599Y-106344999D02*
X119126600Y-110135000D01*
X100765426Y-112852200D02*
X100787200Y-112852200D01*
X100787200Y-112852200D02*
X107294401Y-106344999D01*
%TO.N,S6VD*%
X102446999Y-103804999D02*
X102336600Y-103694600D01*
X120250000Y-105055000D02*
X118999999Y-103804999D01*
X118999999Y-103804999D02*
X102446999Y-103804999D01*
%TO.N,VLT1*%
X118211600Y-117170200D02*
X120497600Y-117170200D01*
X120497600Y-117170200D02*
X122809000Y-114858800D01*
X122809000Y-114858800D02*
X122809000Y-100863400D01*
X121920600Y-99975000D02*
X120250000Y-99975000D01*
X122809000Y-100863400D02*
X121920600Y-99975000D01*
%TO.N,VLT2*%
X118211600Y-120345200D02*
X120218200Y-120345200D01*
X120218200Y-120345200D02*
X124917200Y-115646200D01*
X124917200Y-115646200D02*
X124917200Y-99415600D01*
X122936600Y-97435000D02*
X120250000Y-97435000D01*
X124917200Y-99415600D02*
X122936600Y-97435000D01*
%TO.N,CH01*%
X102616000Y-95656400D02*
X102616000Y-94081600D01*
X102616000Y-94081600D02*
X98399600Y-89865200D01*
X98399600Y-89865200D02*
X98399600Y-79121000D01*
X95863600Y-76585000D02*
X93755000Y-76585000D01*
X98399600Y-79121000D02*
X95863600Y-76585000D01*
X60401200Y-142212800D02*
X60401200Y-91135200D01*
X99136200Y-97586800D02*
X101066600Y-95656400D01*
X59794000Y-142820000D02*
X60401200Y-142212800D01*
X62560200Y-88976200D02*
X79502000Y-88976200D01*
X101066600Y-95656400D02*
X102616000Y-95656400D01*
X88112600Y-97586800D02*
X99136200Y-97586800D01*
X60401200Y-91135200D02*
X62560200Y-88976200D01*
X79502000Y-88976200D02*
X88112600Y-97586800D01*
%TO.N,CH02*%
X61366400Y-92735400D02*
X61366400Y-136779000D01*
X63703200Y-90398600D02*
X61366400Y-92735400D01*
X104421200Y-95680000D02*
X101701600Y-98399600D01*
X70390000Y-140208000D02*
X73002000Y-142820000D01*
X64795400Y-140208000D02*
X70390000Y-140208000D01*
X101701600Y-98399600D02*
X87630000Y-98399600D01*
X61366400Y-136779000D02*
X64795400Y-140208000D01*
X105460000Y-95680000D02*
X104421200Y-95680000D01*
X87630000Y-98399600D02*
X79629000Y-90398600D01*
X79629000Y-90398600D02*
X63703200Y-90398600D01*
X100126800Y-88849200D02*
X100126800Y-86588600D01*
X105460000Y-95680000D02*
X105460000Y-94182400D01*
X105460000Y-94182400D02*
X100126800Y-88849200D01*
%TO.N,CH03*%
X70895000Y-68965000D02*
X61616400Y-68965000D01*
X61616400Y-68965000D02*
X59486800Y-71094600D01*
X59486800Y-126426798D02*
X59563000Y-126502998D01*
X59486800Y-71094600D02*
X59486800Y-126426798D01*
X59563000Y-126502998D02*
X59563000Y-137185400D01*
X59563000Y-137185400D02*
X57048400Y-139700000D01*
X57048400Y-139700000D02*
X57048400Y-149961600D01*
X57048400Y-149961600D02*
X57632600Y-150545800D01*
X57632600Y-150545800D02*
X96926400Y-150545800D01*
X96926400Y-150545800D02*
X99187000Y-148285200D01*
X99187000Y-148285200D02*
X99187000Y-144145000D01*
X97862000Y-142820000D02*
X92710000Y-142820000D01*
X99187000Y-144145000D02*
X97862000Y-142820000D01*
%TO.N,DATA1*%
X77012800Y-115341400D02*
X79248000Y-117576600D01*
X79248000Y-117576600D02*
X103149400Y-117576600D01*
X103149400Y-117576600D02*
X106299000Y-114427000D01*
X106299000Y-114427000D02*
X106299000Y-108585000D01*
X107289000Y-107595000D02*
X110090000Y-107595000D01*
X106299000Y-108585000D02*
X107289000Y-107595000D01*
X77012800Y-114604800D02*
X75996800Y-113588800D01*
X77012800Y-115341400D02*
X77012800Y-114604800D01*
X74371200Y-113588800D02*
X75996800Y-113588800D01*
X110090000Y-107595000D02*
X112630000Y-107595000D01*
D29*
%TO.N,3V3*%
X117100000Y-77550000D02*
X116259600Y-77550000D01*
X116259600Y-77550000D02*
X115265200Y-76555600D01*
X115265200Y-76555600D02*
X115265200Y-72999600D01*
X117100000Y-77550000D02*
X123400000Y-77550000D01*
X62025000Y-56175000D02*
X93411400Y-56175000D01*
X93411400Y-56175000D02*
X97231200Y-59994800D01*
X97231200Y-59994800D02*
X97231200Y-63093600D01*
X97231200Y-63093600D02*
X99161600Y-65024000D01*
X67082398Y-92770000D02*
X62560200Y-97292198D01*
X69460000Y-92770000D02*
X67082398Y-92770000D01*
X62560200Y-97292198D02*
X62560200Y-114655600D01*
X62560200Y-114655600D02*
X63500000Y-115595400D01*
X99161600Y-65024000D02*
X106476800Y-65024000D01*
X111633000Y-119176800D02*
X113563400Y-119176800D01*
X110090000Y-112675000D02*
X110090000Y-117633800D01*
X113563400Y-119176800D02*
X117500400Y-123113800D01*
X110090000Y-117633800D02*
X111633000Y-119176800D01*
X117500400Y-123113800D02*
X125069600Y-123113800D01*
X63500000Y-115595400D02*
X71094600Y-115595400D01*
X140081000Y-136067800D02*
X140131800Y-136067800D01*
X75400598Y-138734800D02*
X137414000Y-138734800D01*
X74867198Y-138201400D02*
X75400598Y-138734800D01*
X137414000Y-138734800D02*
X140081000Y-136067800D01*
X71018400Y-138201400D02*
X74867198Y-138201400D01*
X140131800Y-125069600D02*
X140131800Y-136067800D01*
X71094600Y-115595400D02*
X71094600Y-138125200D01*
X71094600Y-138125200D02*
X71018400Y-138201400D01*
X140131800Y-125069600D02*
X140792200Y-124409200D01*
X140792200Y-123317000D02*
X125272800Y-123317000D01*
X125272800Y-123317000D02*
X125069600Y-123113800D01*
X140792200Y-124409200D02*
X140792200Y-123317000D01*
X109575600Y-70104000D02*
X108153200Y-68681600D01*
X108153200Y-66700400D02*
X106476800Y-65024000D01*
X108153200Y-68681600D02*
X108153200Y-66700400D01*
X112471200Y-72999600D02*
X109575600Y-70104000D01*
X115265200Y-72999600D02*
X112471200Y-72999600D01*
X93909600Y-55676800D02*
X93411400Y-56175000D01*
X126390400Y-57759600D02*
X124307600Y-55676800D01*
X129997200Y-65227200D02*
X126390400Y-61620400D01*
X140792200Y-68630800D02*
X137363200Y-65201800D01*
X124307600Y-55676800D02*
X93909600Y-55676800D01*
X140792200Y-123317000D02*
X140792200Y-68630800D01*
X126390400Y-61620400D02*
X126390400Y-57759600D01*
X131826000Y-65227200D02*
X129997200Y-65227200D01*
X137363200Y-65201800D02*
X131851400Y-65201800D01*
X131851400Y-65201800D02*
X131826000Y-65227200D01*
X72390000Y-95859600D02*
X74472800Y-95859600D01*
X72143200Y-95612800D02*
X72390000Y-95859600D01*
X69460000Y-92770000D02*
X72143200Y-95453200D01*
X72143200Y-95453200D02*
X72143200Y-95612800D01*
X71170800Y-115519200D02*
X71094600Y-115595400D01*
X71170800Y-113792000D02*
X71170800Y-115519200D01*
X112630000Y-112675000D02*
X110090000Y-112675000D01*
X115794800Y-77550000D02*
X117100000Y-77550000D01*
X115214400Y-78130400D02*
X115794800Y-77550000D01*
X115214400Y-86004400D02*
X115214400Y-78130400D01*
X113690400Y-91389200D02*
X113690400Y-87528400D01*
X113690400Y-87528400D02*
X115214400Y-86004400D01*
D30*
%TO.N,CLK*%
X108509400Y-99975000D02*
X107950000Y-99415600D01*
X107950000Y-99415600D02*
X107950000Y-83108800D01*
X107950000Y-83108800D02*
X104698800Y-79857600D01*
X104698800Y-79857600D02*
X104698800Y-75057000D01*
X103686800Y-74045000D02*
X93755000Y-74045000D01*
X104698800Y-75057000D02*
X103686800Y-74045000D01*
X105054400Y-107111800D02*
X105054400Y-104978200D01*
X81813400Y-111048800D02*
X84023200Y-111048800D01*
X88976200Y-110286800D02*
X101879400Y-110286800D01*
X74371200Y-108508800D02*
X79324200Y-108559600D01*
X101879400Y-110286800D02*
X105054400Y-107111800D01*
X79324200Y-108559600D02*
X81813400Y-111048800D01*
X84709000Y-111734600D02*
X84709000Y-113792000D01*
X85623400Y-114706400D02*
X86969600Y-114706400D01*
X84709000Y-113792000D02*
X85623400Y-114706400D01*
X86969600Y-114706400D02*
X87807800Y-113868200D01*
X84023200Y-111048800D02*
X84709000Y-111734600D01*
X87807800Y-113868200D02*
X87807800Y-111455200D01*
X87807800Y-111455200D02*
X88976200Y-110286800D01*
X109473400Y-99975000D02*
X112630000Y-99975000D01*
X109473400Y-99975000D02*
X108509400Y-99975000D01*
%TO.N,CS*%
X74422000Y-106019600D02*
X74371200Y-105968800D01*
X92379800Y-106019600D02*
X74422000Y-106019600D01*
X95554800Y-102844600D02*
X92379800Y-106019600D01*
X109760400Y-102844600D02*
X95554800Y-102844600D01*
X110090000Y-102515000D02*
X109760400Y-102844600D01*
X100355400Y-66979800D02*
X100355400Y-68402200D01*
X100355400Y-68402200D02*
X106857800Y-74904600D01*
X106857800Y-79121000D02*
X109651800Y-81915000D01*
X109651800Y-81915000D02*
X109651800Y-91567000D01*
X93755000Y-66425000D02*
X99800600Y-66425000D01*
X106857800Y-74904600D02*
X106857800Y-79121000D01*
X111607000Y-102515000D02*
X110090000Y-102515000D01*
X99800600Y-66425000D02*
X100355400Y-66979800D01*
X111729799Y-93644999D02*
X113761799Y-93644999D01*
X111099600Y-93014800D02*
X111729799Y-93644999D01*
X109651800Y-91567000D02*
X111099600Y-93014800D01*
X113761799Y-93644999D02*
X115366800Y-95250000D01*
X115366800Y-95250000D02*
X115366800Y-101904800D01*
X114756600Y-102515000D02*
X112630000Y-102515000D01*
X115366800Y-101904800D02*
X114756600Y-102515000D01*
X111607000Y-102515000D02*
X112630000Y-102515000D01*
%TD*%
M02*
