%TF.GenerationSoftware,KiCad,Pcbnew,5.1.6-c6e7f7d~87~ubuntu19.10.1*%
%TF.CreationDate,2021-01-18T21:02:38-03:00*%
%TF.ProjectId,VLTUnivesp,564c5455-6e69-4766-9573-702e6b696361,rev?*%
%TF.SameCoordinates,Original*%
%TF.FileFunction,Legend,Bot*%
%TF.FilePolarity,Positive*%
%FSLAX46Y46*%
G04 Gerber Fmt 4.6, Leading zero omitted, Abs format (unit mm)*
G04 Created by KiCad (PCBNEW 5.1.6-c6e7f7d~87~ubuntu19.10.1) date 2021-01-18 21:02:38*
%MOMM*%
%LPD*%
G01*
G04 APERTURE LIST*
%ADD10C,0.100000*%
%ADD11C,0.150000*%
%ADD12C,0.010000*%
%ADD13C,0.120000*%
G04 APERTURE END LIST*
D10*
X80504561Y-84666400D02*
X80599800Y-84618780D01*
X80742657Y-84618780D01*
X80885514Y-84666400D01*
X80980752Y-84761638D01*
X81028371Y-84856876D01*
X81075990Y-85047352D01*
X81075990Y-85190209D01*
X81028371Y-85380685D01*
X80980752Y-85475923D01*
X80885514Y-85571161D01*
X80742657Y-85618780D01*
X80647419Y-85618780D01*
X80504561Y-85571161D01*
X80456942Y-85523542D01*
X80456942Y-85190209D01*
X80647419Y-85190209D01*
X80028371Y-85618780D02*
X80028371Y-84618780D01*
X79456942Y-85618780D01*
X79456942Y-84618780D01*
X78980752Y-85618780D02*
X78980752Y-84618780D01*
X78742657Y-84618780D01*
X78599800Y-84666400D01*
X78504561Y-84761638D01*
X78456942Y-84856876D01*
X78409323Y-85047352D01*
X78409323Y-85190209D01*
X78456942Y-85380685D01*
X78504561Y-85475923D01*
X78599800Y-85571161D01*
X78742657Y-85618780D01*
X78980752Y-85618780D01*
X74314085Y-84618780D02*
X73980752Y-85618780D01*
X73647419Y-84618780D01*
X72742657Y-85523542D02*
X72790276Y-85571161D01*
X72933133Y-85618780D01*
X73028371Y-85618780D01*
X73171228Y-85571161D01*
X73266466Y-85475923D01*
X73314085Y-85380685D01*
X73361704Y-85190209D01*
X73361704Y-85047352D01*
X73314085Y-84856876D01*
X73266466Y-84761638D01*
X73171228Y-84666400D01*
X73028371Y-84618780D01*
X72933133Y-84618780D01*
X72790276Y-84666400D01*
X72742657Y-84714019D01*
X71742657Y-85523542D02*
X71790276Y-85571161D01*
X71933133Y-85618780D01*
X72028371Y-85618780D01*
X72171228Y-85571161D01*
X72266466Y-85475923D01*
X72314085Y-85380685D01*
X72361704Y-85190209D01*
X72361704Y-85047352D01*
X72314085Y-84856876D01*
X72266466Y-84761638D01*
X72171228Y-84666400D01*
X72028371Y-84618780D01*
X71933133Y-84618780D01*
X71790276Y-84666400D01*
X71742657Y-84714019D01*
X86075990Y-86218780D02*
X86075990Y-86933066D01*
X86123609Y-87075923D01*
X86218847Y-87171161D01*
X86361704Y-87218780D01*
X86456942Y-87218780D01*
X85075990Y-87218780D02*
X85647419Y-87218780D01*
X85361704Y-87218780D02*
X85361704Y-86218780D01*
X85456942Y-86361638D01*
X85552180Y-86456876D01*
X85647419Y-86504495D01*
X82837895Y-87599733D02*
X82885514Y-87552114D01*
X82980752Y-87409257D01*
X83028371Y-87314019D01*
X83075990Y-87171161D01*
X83123609Y-86933066D01*
X83123609Y-86742590D01*
X83075990Y-86504495D01*
X83028371Y-86361638D01*
X82980752Y-86266400D01*
X82885514Y-86123542D01*
X82837895Y-86075923D01*
X81933133Y-87218780D02*
X82504561Y-87218780D01*
X82218847Y-87218780D02*
X82218847Y-86218780D01*
X82314085Y-86361638D01*
X82409323Y-86456876D01*
X82504561Y-86504495D01*
X81504561Y-86837828D02*
X80742657Y-86837828D01*
X80314085Y-86314019D02*
X80266466Y-86266400D01*
X80171228Y-86218780D01*
X79933133Y-86218780D01*
X79837895Y-86266400D01*
X79790276Y-86314019D01*
X79742657Y-86409257D01*
X79742657Y-86504495D01*
X79790276Y-86647352D01*
X80361704Y-87218780D01*
X79742657Y-87218780D01*
X79409323Y-87599733D02*
X79361704Y-87552114D01*
X79266466Y-87409257D01*
X79218847Y-87314019D01*
X79171228Y-87171161D01*
X79123609Y-86933066D01*
X79123609Y-86742590D01*
X79171228Y-86504495D01*
X79218847Y-86361638D01*
X79266466Y-86266400D01*
X79361704Y-86123542D01*
X79409323Y-86075923D01*
X74552180Y-87599733D02*
X74599800Y-87552114D01*
X74695038Y-87409257D01*
X74742657Y-87314019D01*
X74790276Y-87171161D01*
X74837895Y-86933066D01*
X74837895Y-86742590D01*
X74790276Y-86504495D01*
X74742657Y-86361638D01*
X74695038Y-86266400D01*
X74599800Y-86123542D01*
X74552180Y-86075923D01*
X74218847Y-86314019D02*
X74171228Y-86266400D01*
X74075990Y-86218780D01*
X73837895Y-86218780D01*
X73742657Y-86266400D01*
X73695038Y-86314019D01*
X73647419Y-86409257D01*
X73647419Y-86504495D01*
X73695038Y-86647352D01*
X74266466Y-87218780D01*
X73647419Y-87218780D01*
X73218847Y-86837828D02*
X72456942Y-86837828D01*
X72075990Y-86218780D02*
X71456942Y-86218780D01*
X71790276Y-86599733D01*
X71647419Y-86599733D01*
X71552180Y-86647352D01*
X71504561Y-86694971D01*
X71456942Y-86790209D01*
X71456942Y-87028304D01*
X71504561Y-87123542D01*
X71552180Y-87171161D01*
X71647419Y-87218780D01*
X71933133Y-87218780D01*
X72028371Y-87171161D01*
X72075990Y-87123542D01*
X71123609Y-87599733D02*
X71075990Y-87552114D01*
X70980752Y-87409257D01*
X70933133Y-87314019D01*
X70885514Y-87171161D01*
X70837895Y-86933066D01*
X70837895Y-86742590D01*
X70885514Y-86504495D01*
X70933133Y-86361638D01*
X70980752Y-86266400D01*
X71075990Y-86123542D01*
X71123609Y-86075923D01*
X86075990Y-87818780D02*
X86075990Y-88533066D01*
X86123609Y-88675923D01*
X86218847Y-88771161D01*
X86361704Y-88818780D01*
X86456942Y-88818780D01*
X85647419Y-87914019D02*
X85599800Y-87866400D01*
X85504561Y-87818780D01*
X85266466Y-87818780D01*
X85171228Y-87866400D01*
X85123609Y-87914019D01*
X85075990Y-88009257D01*
X85075990Y-88104495D01*
X85123609Y-88247352D01*
X85695038Y-88818780D01*
X85075990Y-88818780D01*
X82837895Y-89199733D02*
X82885514Y-89152114D01*
X82980752Y-89009257D01*
X83028371Y-88914019D01*
X83075990Y-88771161D01*
X83123609Y-88533066D01*
X83123609Y-88342590D01*
X83075990Y-88104495D01*
X83028371Y-87961638D01*
X82980752Y-87866400D01*
X82885514Y-87723542D01*
X82837895Y-87675923D01*
X81933133Y-88818780D02*
X82504561Y-88818780D01*
X82218847Y-88818780D02*
X82218847Y-87818780D01*
X82314085Y-87961638D01*
X82409323Y-88056876D01*
X82504561Y-88104495D01*
X81504561Y-88437828D02*
X80742657Y-88437828D01*
X80314085Y-87914019D02*
X80266466Y-87866400D01*
X80171228Y-87818780D01*
X79933133Y-87818780D01*
X79837895Y-87866400D01*
X79790276Y-87914019D01*
X79742657Y-88009257D01*
X79742657Y-88104495D01*
X79790276Y-88247352D01*
X80361704Y-88818780D01*
X79742657Y-88818780D01*
X79409323Y-89199733D02*
X79361704Y-89152114D01*
X79266466Y-89009257D01*
X79218847Y-88914019D01*
X79171228Y-88771161D01*
X79123609Y-88533066D01*
X79123609Y-88342590D01*
X79171228Y-88104495D01*
X79218847Y-87961638D01*
X79266466Y-87866400D01*
X79361704Y-87723542D01*
X79409323Y-87675923D01*
X74552180Y-89199733D02*
X74599800Y-89152114D01*
X74695038Y-89009257D01*
X74742657Y-88914019D01*
X74790276Y-88771161D01*
X74837895Y-88533066D01*
X74837895Y-88342590D01*
X74790276Y-88104495D01*
X74742657Y-87961638D01*
X74695038Y-87866400D01*
X74599800Y-87723542D01*
X74552180Y-87675923D01*
X74218847Y-87914019D02*
X74171228Y-87866400D01*
X74075990Y-87818780D01*
X73837895Y-87818780D01*
X73742657Y-87866400D01*
X73695038Y-87914019D01*
X73647419Y-88009257D01*
X73647419Y-88104495D01*
X73695038Y-88247352D01*
X74266466Y-88818780D01*
X73647419Y-88818780D01*
X73218847Y-88437828D02*
X72456942Y-88437828D01*
X72075990Y-87818780D02*
X71456942Y-87818780D01*
X71790276Y-88199733D01*
X71647419Y-88199733D01*
X71552180Y-88247352D01*
X71504561Y-88294971D01*
X71456942Y-88390209D01*
X71456942Y-88628304D01*
X71504561Y-88723542D01*
X71552180Y-88771161D01*
X71647419Y-88818780D01*
X71933133Y-88818780D01*
X72028371Y-88771161D01*
X72075990Y-88723542D01*
X71123609Y-89199733D02*
X71075990Y-89152114D01*
X70980752Y-89009257D01*
X70933133Y-88914019D01*
X70885514Y-88771161D01*
X70837895Y-88533066D01*
X70837895Y-88342590D01*
X70885514Y-88104495D01*
X70933133Y-87961638D01*
X70980752Y-87866400D01*
X71075990Y-87723542D01*
X71123609Y-87675923D01*
D11*
X123761547Y-67584628D02*
X124523452Y-67584628D01*
X124142500Y-67965580D02*
X124142500Y-67203676D01*
D12*
%TO.C,REF\u002A\u002A*%
G36*
X85822091Y-79007960D02*
G01*
X85769588Y-79033899D01*
X85704842Y-79079100D01*
X85657653Y-79128391D01*
X85625335Y-79190285D01*
X85605203Y-79273296D01*
X85594570Y-79385938D01*
X85590753Y-79536724D01*
X85590530Y-79601549D01*
X85591182Y-79743621D01*
X85593888Y-79845157D01*
X85599776Y-79915415D01*
X85609973Y-79963656D01*
X85625606Y-79999138D01*
X85641872Y-80023343D01*
X85745705Y-80126329D01*
X85867979Y-80188274D01*
X85999886Y-80206906D01*
X86132616Y-80179949D01*
X86174667Y-80160886D01*
X86275334Y-80108415D01*
X86275334Y-80930659D01*
X86201865Y-80892667D01*
X86105059Y-80863272D01*
X85986072Y-80855742D01*
X85867255Y-80869645D01*
X85777527Y-80900876D01*
X85703101Y-80960354D01*
X85639510Y-81045466D01*
X85634729Y-81054205D01*
X85614563Y-81095366D01*
X85599835Y-81136854D01*
X85589697Y-81187113D01*
X85583301Y-81254584D01*
X85579799Y-81347709D01*
X85578342Y-81474931D01*
X85578079Y-81618101D01*
X85578079Y-82074871D01*
X85852000Y-82074871D01*
X85852000Y-81232631D01*
X85928617Y-81168163D01*
X86008207Y-81116594D01*
X86083578Y-81107218D01*
X86159367Y-81131347D01*
X86199759Y-81154974D01*
X86229821Y-81188627D01*
X86251203Y-81239487D01*
X86265550Y-81314734D01*
X86274510Y-81421546D01*
X86279730Y-81567104D01*
X86281569Y-81663988D01*
X86287785Y-82062420D01*
X86418520Y-82069947D01*
X86549255Y-82077473D01*
X86549255Y-79604982D01*
X86275334Y-79604982D01*
X86268350Y-79742823D01*
X86244818Y-79838507D01*
X86200865Y-79898041D01*
X86132618Y-79927429D01*
X86063667Y-79933302D01*
X85985614Y-79926554D01*
X85933811Y-79899994D01*
X85901417Y-79864899D01*
X85875916Y-79827152D01*
X85860735Y-79785100D01*
X85853981Y-79726179D01*
X85853759Y-79637828D01*
X85856032Y-79563848D01*
X85861251Y-79452400D01*
X85869021Y-79379233D01*
X85882105Y-79332822D01*
X85903268Y-79301644D01*
X85923240Y-79283623D01*
X86006686Y-79244325D01*
X86105449Y-79237979D01*
X86162159Y-79251516D01*
X86218308Y-79299633D01*
X86255501Y-79393233D01*
X86273528Y-79531654D01*
X86275334Y-79604982D01*
X86549255Y-79604982D01*
X86549255Y-78987028D01*
X86412295Y-78987028D01*
X86330065Y-78990279D01*
X86287640Y-79001826D01*
X86275339Y-79024352D01*
X86275334Y-79025020D01*
X86269626Y-79047081D01*
X86244453Y-79044576D01*
X86194402Y-79020335D01*
X86077781Y-78983251D01*
X85946571Y-78979353D01*
X85822091Y-79007960D01*
G37*
X85822091Y-79007960D02*
X85769588Y-79033899D01*
X85704842Y-79079100D01*
X85657653Y-79128391D01*
X85625335Y-79190285D01*
X85605203Y-79273296D01*
X85594570Y-79385938D01*
X85590753Y-79536724D01*
X85590530Y-79601549D01*
X85591182Y-79743621D01*
X85593888Y-79845157D01*
X85599776Y-79915415D01*
X85609973Y-79963656D01*
X85625606Y-79999138D01*
X85641872Y-80023343D01*
X85745705Y-80126329D01*
X85867979Y-80188274D01*
X85999886Y-80206906D01*
X86132616Y-80179949D01*
X86174667Y-80160886D01*
X86275334Y-80108415D01*
X86275334Y-80930659D01*
X86201865Y-80892667D01*
X86105059Y-80863272D01*
X85986072Y-80855742D01*
X85867255Y-80869645D01*
X85777527Y-80900876D01*
X85703101Y-80960354D01*
X85639510Y-81045466D01*
X85634729Y-81054205D01*
X85614563Y-81095366D01*
X85599835Y-81136854D01*
X85589697Y-81187113D01*
X85583301Y-81254584D01*
X85579799Y-81347709D01*
X85578342Y-81474931D01*
X85578079Y-81618101D01*
X85578079Y-82074871D01*
X85852000Y-82074871D01*
X85852000Y-81232631D01*
X85928617Y-81168163D01*
X86008207Y-81116594D01*
X86083578Y-81107218D01*
X86159367Y-81131347D01*
X86199759Y-81154974D01*
X86229821Y-81188627D01*
X86251203Y-81239487D01*
X86265550Y-81314734D01*
X86274510Y-81421546D01*
X86279730Y-81567104D01*
X86281569Y-81663988D01*
X86287785Y-82062420D01*
X86418520Y-82069947D01*
X86549255Y-82077473D01*
X86549255Y-79604982D01*
X86275334Y-79604982D01*
X86268350Y-79742823D01*
X86244818Y-79838507D01*
X86200865Y-79898041D01*
X86132618Y-79927429D01*
X86063667Y-79933302D01*
X85985614Y-79926554D01*
X85933811Y-79899994D01*
X85901417Y-79864899D01*
X85875916Y-79827152D01*
X85860735Y-79785100D01*
X85853981Y-79726179D01*
X85853759Y-79637828D01*
X85856032Y-79563848D01*
X85861251Y-79452400D01*
X85869021Y-79379233D01*
X85882105Y-79332822D01*
X85903268Y-79301644D01*
X85923240Y-79283623D01*
X86006686Y-79244325D01*
X86105449Y-79237979D01*
X86162159Y-79251516D01*
X86218308Y-79299633D01*
X86255501Y-79393233D01*
X86273528Y-79531654D01*
X86275334Y-79604982D01*
X86549255Y-79604982D01*
X86549255Y-78987028D01*
X86412295Y-78987028D01*
X86330065Y-78990279D01*
X86287640Y-79001826D01*
X86275339Y-79024352D01*
X86275334Y-79025020D01*
X86269626Y-79047081D01*
X86244453Y-79044576D01*
X86194402Y-79020335D01*
X86077781Y-78983251D01*
X85946571Y-78979353D01*
X85822091Y-79007960D01*
G36*
X84783280Y-80864322D02*
G01*
X84666130Y-80895580D01*
X84576949Y-80952237D01*
X84514016Y-81026445D01*
X84494452Y-81058116D01*
X84480008Y-81091291D01*
X84469911Y-81133729D01*
X84463385Y-81193188D01*
X84459658Y-81277429D01*
X84457954Y-81394210D01*
X84457500Y-81551290D01*
X84457491Y-81592965D01*
X84457491Y-82074871D01*
X84577020Y-82074871D01*
X84653261Y-82069531D01*
X84709634Y-82056004D01*
X84723758Y-82047662D01*
X84762370Y-82033264D01*
X84801808Y-82047662D01*
X84866738Y-82065637D01*
X84961055Y-82072872D01*
X85065593Y-82069733D01*
X85161189Y-82056586D01*
X85217000Y-82039718D01*
X85325002Y-81970386D01*
X85392497Y-81874172D01*
X85422841Y-81746244D01*
X85423123Y-81742959D01*
X85420460Y-81686208D01*
X85179647Y-81686208D01*
X85158595Y-81750758D01*
X85124303Y-81787086D01*
X85055468Y-81814562D01*
X84964610Y-81825529D01*
X84871958Y-81820131D01*
X84797744Y-81798510D01*
X84776951Y-81784639D01*
X84740619Y-81720543D01*
X84731412Y-81647678D01*
X84731412Y-81551930D01*
X84869173Y-81551930D01*
X85000047Y-81562005D01*
X85099259Y-81590548D01*
X85160977Y-81635039D01*
X85179647Y-81686208D01*
X85420460Y-81686208D01*
X85416564Y-81603190D01*
X85370466Y-81492682D01*
X85283800Y-81409112D01*
X85271821Y-81401510D01*
X85220345Y-81376757D01*
X85156632Y-81361768D01*
X85067565Y-81354482D01*
X84961755Y-81352807D01*
X84731412Y-81352714D01*
X84731412Y-81256155D01*
X84741183Y-81181236D01*
X84766116Y-81131044D01*
X84769035Y-81128372D01*
X84824519Y-81106415D01*
X84908273Y-81097905D01*
X85000833Y-81102087D01*
X85082730Y-81118209D01*
X85131327Y-81142390D01*
X85157659Y-81161759D01*
X85185465Y-81165457D01*
X85223839Y-81149588D01*
X85281875Y-81110255D01*
X85368669Y-81043564D01*
X85376635Y-81037316D01*
X85372553Y-81014200D01*
X85338499Y-80975752D01*
X85286740Y-80933027D01*
X85229545Y-80897079D01*
X85211575Y-80888591D01*
X85146028Y-80871652D01*
X85049980Y-80859570D01*
X84942671Y-80854723D01*
X84937653Y-80854713D01*
X84783280Y-80864322D01*
G37*
X84783280Y-80864322D02*
X84666130Y-80895580D01*
X84576949Y-80952237D01*
X84514016Y-81026445D01*
X84494452Y-81058116D01*
X84480008Y-81091291D01*
X84469911Y-81133729D01*
X84463385Y-81193188D01*
X84459658Y-81277429D01*
X84457954Y-81394210D01*
X84457500Y-81551290D01*
X84457491Y-81592965D01*
X84457491Y-82074871D01*
X84577020Y-82074871D01*
X84653261Y-82069531D01*
X84709634Y-82056004D01*
X84723758Y-82047662D01*
X84762370Y-82033264D01*
X84801808Y-82047662D01*
X84866738Y-82065637D01*
X84961055Y-82072872D01*
X85065593Y-82069733D01*
X85161189Y-82056586D01*
X85217000Y-82039718D01*
X85325002Y-81970386D01*
X85392497Y-81874172D01*
X85422841Y-81746244D01*
X85423123Y-81742959D01*
X85420460Y-81686208D01*
X85179647Y-81686208D01*
X85158595Y-81750758D01*
X85124303Y-81787086D01*
X85055468Y-81814562D01*
X84964610Y-81825529D01*
X84871958Y-81820131D01*
X84797744Y-81798510D01*
X84776951Y-81784639D01*
X84740619Y-81720543D01*
X84731412Y-81647678D01*
X84731412Y-81551930D01*
X84869173Y-81551930D01*
X85000047Y-81562005D01*
X85099259Y-81590548D01*
X85160977Y-81635039D01*
X85179647Y-81686208D01*
X85420460Y-81686208D01*
X85416564Y-81603190D01*
X85370466Y-81492682D01*
X85283800Y-81409112D01*
X85271821Y-81401510D01*
X85220345Y-81376757D01*
X85156632Y-81361768D01*
X85067565Y-81354482D01*
X84961755Y-81352807D01*
X84731412Y-81352714D01*
X84731412Y-81256155D01*
X84741183Y-81181236D01*
X84766116Y-81131044D01*
X84769035Y-81128372D01*
X84824519Y-81106415D01*
X84908273Y-81097905D01*
X85000833Y-81102087D01*
X85082730Y-81118209D01*
X85131327Y-81142390D01*
X85157659Y-81161759D01*
X85185465Y-81165457D01*
X85223839Y-81149588D01*
X85281875Y-81110255D01*
X85368669Y-81043564D01*
X85376635Y-81037316D01*
X85372553Y-81014200D01*
X85338499Y-80975752D01*
X85286740Y-80933027D01*
X85229545Y-80897079D01*
X85211575Y-80888591D01*
X85146028Y-80871652D01*
X85049980Y-80859570D01*
X84942671Y-80854723D01*
X84937653Y-80854713D01*
X84783280Y-80864322D01*
G36*
X84009236Y-80857321D02*
G01*
X83971970Y-80868491D01*
X83959957Y-80893033D01*
X83959451Y-80904112D01*
X83957296Y-80934972D01*
X83942449Y-80939817D01*
X83902343Y-80918660D01*
X83878520Y-80904206D01*
X83803362Y-80873250D01*
X83713594Y-80857944D01*
X83619471Y-80856767D01*
X83531246Y-80868199D01*
X83459174Y-80890720D01*
X83413508Y-80922809D01*
X83404502Y-80962945D01*
X83409047Y-80973815D01*
X83442179Y-81018934D01*
X83493555Y-81074426D01*
X83502848Y-81083396D01*
X83551818Y-81124645D01*
X83594069Y-81137972D01*
X83653159Y-81128671D01*
X83676831Y-81122490D01*
X83750496Y-81107646D01*
X83802290Y-81114321D01*
X83846031Y-81137865D01*
X83886098Y-81169461D01*
X83915608Y-81209198D01*
X83936116Y-81264652D01*
X83949176Y-81343403D01*
X83956344Y-81453029D01*
X83959176Y-81601106D01*
X83959451Y-81690511D01*
X83959451Y-82074871D01*
X84208471Y-82074871D01*
X84208471Y-80854675D01*
X84083961Y-80854675D01*
X84009236Y-80857321D01*
G37*
X84009236Y-80857321D02*
X83971970Y-80868491D01*
X83959957Y-80893033D01*
X83959451Y-80904112D01*
X83957296Y-80934972D01*
X83942449Y-80939817D01*
X83902343Y-80918660D01*
X83878520Y-80904206D01*
X83803362Y-80873250D01*
X83713594Y-80857944D01*
X83619471Y-80856767D01*
X83531246Y-80868199D01*
X83459174Y-80890720D01*
X83413508Y-80922809D01*
X83404502Y-80962945D01*
X83409047Y-80973815D01*
X83442179Y-81018934D01*
X83493555Y-81074426D01*
X83502848Y-81083396D01*
X83551818Y-81124645D01*
X83594069Y-81137972D01*
X83653159Y-81128671D01*
X83676831Y-81122490D01*
X83750496Y-81107646D01*
X83802290Y-81114321D01*
X83846031Y-81137865D01*
X83886098Y-81169461D01*
X83915608Y-81209198D01*
X83936116Y-81264652D01*
X83949176Y-81343403D01*
X83956344Y-81453029D01*
X83959176Y-81601106D01*
X83959451Y-81690511D01*
X83959451Y-82074871D01*
X84208471Y-82074871D01*
X84208471Y-80854675D01*
X84083961Y-80854675D01*
X84009236Y-80857321D01*
G36*
X82440432Y-82074871D02*
G01*
X82577393Y-82074871D01*
X82656889Y-82072540D01*
X82698292Y-82062888D01*
X82713199Y-82041925D01*
X82714353Y-82027751D01*
X82716867Y-81999327D01*
X82732720Y-81993875D01*
X82774379Y-82011398D01*
X82806776Y-82027751D01*
X82931151Y-82066503D01*
X83066354Y-82068746D01*
X83176274Y-82039844D01*
X83278634Y-81970019D01*
X83356660Y-81866955D01*
X83399386Y-81745389D01*
X83400474Y-81738592D01*
X83406822Y-81664432D01*
X83409979Y-81557970D01*
X83409725Y-81477452D01*
X83137711Y-81477452D01*
X83131410Y-81584470D01*
X83117075Y-81672678D01*
X83097669Y-81722490D01*
X83024254Y-81790562D01*
X82937086Y-81814964D01*
X82847196Y-81795231D01*
X82770383Y-81736368D01*
X82741292Y-81696779D01*
X82724283Y-81649538D01*
X82716316Y-81580581D01*
X82714353Y-81477007D01*
X82717866Y-81374439D01*
X82727143Y-81284321D01*
X82740294Y-81224013D01*
X82742486Y-81218608D01*
X82795522Y-81154340D01*
X82872933Y-81119056D01*
X82959546Y-81113359D01*
X83040193Y-81137853D01*
X83099703Y-81193142D01*
X83105876Y-81204143D01*
X83125199Y-81271227D01*
X83135726Y-81367684D01*
X83137711Y-81477452D01*
X83409725Y-81477452D01*
X83409596Y-81436625D01*
X83407806Y-81371318D01*
X83395627Y-81209755D01*
X83370315Y-81088453D01*
X83328207Y-80998779D01*
X83265641Y-80932099D01*
X83204900Y-80892957D01*
X83120036Y-80865440D01*
X83014485Y-80856003D01*
X82906402Y-80863690D01*
X82813942Y-80887546D01*
X82765090Y-80916085D01*
X82714353Y-80962001D01*
X82714353Y-80381537D01*
X82440432Y-80381537D01*
X82440432Y-82074871D01*
G37*
X82440432Y-82074871D02*
X82577393Y-82074871D01*
X82656889Y-82072540D01*
X82698292Y-82062888D01*
X82713199Y-82041925D01*
X82714353Y-82027751D01*
X82716867Y-81999327D01*
X82732720Y-81993875D01*
X82774379Y-82011398D01*
X82806776Y-82027751D01*
X82931151Y-82066503D01*
X83066354Y-82068746D01*
X83176274Y-82039844D01*
X83278634Y-81970019D01*
X83356660Y-81866955D01*
X83399386Y-81745389D01*
X83400474Y-81738592D01*
X83406822Y-81664432D01*
X83409979Y-81557970D01*
X83409725Y-81477452D01*
X83137711Y-81477452D01*
X83131410Y-81584470D01*
X83117075Y-81672678D01*
X83097669Y-81722490D01*
X83024254Y-81790562D01*
X82937086Y-81814964D01*
X82847196Y-81795231D01*
X82770383Y-81736368D01*
X82741292Y-81696779D01*
X82724283Y-81649538D01*
X82716316Y-81580581D01*
X82714353Y-81477007D01*
X82717866Y-81374439D01*
X82727143Y-81284321D01*
X82740294Y-81224013D01*
X82742486Y-81218608D01*
X82795522Y-81154340D01*
X82872933Y-81119056D01*
X82959546Y-81113359D01*
X83040193Y-81137853D01*
X83099703Y-81193142D01*
X83105876Y-81204143D01*
X83125199Y-81271227D01*
X83135726Y-81367684D01*
X83137711Y-81477452D01*
X83409725Y-81477452D01*
X83409596Y-81436625D01*
X83407806Y-81371318D01*
X83395627Y-81209755D01*
X83370315Y-81088453D01*
X83328207Y-80998779D01*
X83265641Y-80932099D01*
X83204900Y-80892957D01*
X83120036Y-80865440D01*
X83014485Y-80856003D01*
X82906402Y-80863690D01*
X82813942Y-80887546D01*
X82765090Y-80916085D01*
X82714353Y-80962001D01*
X82714353Y-80381537D01*
X82440432Y-80381537D01*
X82440432Y-82074871D01*
G36*
X81484472Y-80859732D02*
G01*
X81385986Y-80867126D01*
X81257224Y-81253106D01*
X81128463Y-81639086D01*
X81088089Y-81502126D01*
X81063793Y-81417483D01*
X81031833Y-81303097D01*
X80997321Y-81177363D01*
X80979072Y-81109920D01*
X80910429Y-80854675D01*
X80627227Y-80854675D01*
X80711878Y-81122371D01*
X80753565Y-81254038D01*
X80803926Y-81412858D01*
X80856519Y-81578528D01*
X80903470Y-81726243D01*
X81010411Y-82062420D01*
X81241339Y-82077444D01*
X81303950Y-81870716D01*
X81342562Y-81742296D01*
X81384700Y-81600722D01*
X81421528Y-81475685D01*
X81422982Y-81470709D01*
X81450489Y-81385986D01*
X81474758Y-81328178D01*
X81491757Y-81306318D01*
X81495250Y-81308846D01*
X81507510Y-81342736D01*
X81530805Y-81415330D01*
X81562300Y-81517501D01*
X81599158Y-81640120D01*
X81619101Y-81707567D01*
X81727105Y-82074871D01*
X81956321Y-82074871D01*
X82139561Y-81495900D01*
X82191037Y-81333491D01*
X82237930Y-81186002D01*
X82278023Y-81060360D01*
X82309103Y-80963495D01*
X82328955Y-80902334D01*
X82334989Y-80884465D01*
X82330212Y-80866168D01*
X82292703Y-80858155D01*
X82214645Y-80858957D01*
X82202426Y-80859563D01*
X82057674Y-80867126D01*
X81962870Y-81215753D01*
X81928023Y-81342897D01*
X81896883Y-81454665D01*
X81872191Y-81541353D01*
X81856688Y-81593256D01*
X81853824Y-81601718D01*
X81841954Y-81591987D01*
X81818017Y-81541572D01*
X81784761Y-81457335D01*
X81744936Y-81346141D01*
X81711270Y-81245697D01*
X81582959Y-80852339D01*
X81484472Y-80859732D01*
G37*
X81484472Y-80859732D02*
X81385986Y-80867126D01*
X81257224Y-81253106D01*
X81128463Y-81639086D01*
X81088089Y-81502126D01*
X81063793Y-81417483D01*
X81031833Y-81303097D01*
X80997321Y-81177363D01*
X80979072Y-81109920D01*
X80910429Y-80854675D01*
X80627227Y-80854675D01*
X80711878Y-81122371D01*
X80753565Y-81254038D01*
X80803926Y-81412858D01*
X80856519Y-81578528D01*
X80903470Y-81726243D01*
X81010411Y-82062420D01*
X81241339Y-82077444D01*
X81303950Y-81870716D01*
X81342562Y-81742296D01*
X81384700Y-81600722D01*
X81421528Y-81475685D01*
X81422982Y-81470709D01*
X81450489Y-81385986D01*
X81474758Y-81328178D01*
X81491757Y-81306318D01*
X81495250Y-81308846D01*
X81507510Y-81342736D01*
X81530805Y-81415330D01*
X81562300Y-81517501D01*
X81599158Y-81640120D01*
X81619101Y-81707567D01*
X81727105Y-82074871D01*
X81956321Y-82074871D01*
X82139561Y-81495900D01*
X82191037Y-81333491D01*
X82237930Y-81186002D01*
X82278023Y-81060360D01*
X82309103Y-80963495D01*
X82328955Y-80902334D01*
X82334989Y-80884465D01*
X82330212Y-80866168D01*
X82292703Y-80858155D01*
X82214645Y-80858957D01*
X82202426Y-80859563D01*
X82057674Y-80867126D01*
X81962870Y-81215753D01*
X81928023Y-81342897D01*
X81896883Y-81454665D01*
X81872191Y-81541353D01*
X81856688Y-81593256D01*
X81853824Y-81601718D01*
X81841954Y-81591987D01*
X81818017Y-81541572D01*
X81784761Y-81457335D01*
X81744936Y-81346141D01*
X81711270Y-81245697D01*
X81582959Y-80852339D01*
X81484472Y-80859732D01*
G36*
X79985541Y-80862069D02*
G01*
X79880580Y-80887563D01*
X79850239Y-80901069D01*
X79791427Y-80936446D01*
X79746291Y-80976290D01*
X79712894Y-81027520D01*
X79689299Y-81097054D01*
X79673567Y-81191809D01*
X79663761Y-81318705D01*
X79657943Y-81484658D01*
X79655734Y-81595508D01*
X79647604Y-82074871D01*
X79786469Y-82074871D01*
X79870713Y-82071338D01*
X79914116Y-82059266D01*
X79925334Y-82038994D01*
X79931256Y-82017074D01*
X79957734Y-82021265D01*
X79993814Y-82038841D01*
X80084138Y-82065782D01*
X80200223Y-82073042D01*
X80322320Y-82061167D01*
X80430679Y-82030705D01*
X80440398Y-82026477D01*
X80539432Y-81956905D01*
X80604719Y-81860189D01*
X80634760Y-81747138D01*
X80632465Y-81706522D01*
X80387367Y-81706522D01*
X80365771Y-81761182D01*
X80301741Y-81800352D01*
X80198435Y-81821374D01*
X80143226Y-81824166D01*
X80051218Y-81817020D01*
X79990059Y-81789248D01*
X79975138Y-81776047D01*
X79934713Y-81704229D01*
X79925334Y-81639086D01*
X79925334Y-81551930D01*
X80046731Y-81551930D01*
X80187847Y-81559122D01*
X80286827Y-81581745D01*
X80349367Y-81621364D01*
X80363369Y-81639028D01*
X80387367Y-81706522D01*
X80632465Y-81706522D01*
X80628059Y-81628557D01*
X80583120Y-81515255D01*
X80521804Y-81438685D01*
X80484668Y-81405581D01*
X80448313Y-81383825D01*
X80401010Y-81370561D01*
X80331027Y-81362928D01*
X80226636Y-81358070D01*
X80185230Y-81356673D01*
X79925334Y-81348180D01*
X79925715Y-81269516D01*
X79935781Y-81186828D01*
X79972171Y-81136831D01*
X80045689Y-81104889D01*
X80047661Y-81104320D01*
X80151895Y-81091761D01*
X80253892Y-81108166D01*
X80329695Y-81148057D01*
X80360110Y-81167754D01*
X80392868Y-81165029D01*
X80443279Y-81136491D01*
X80472881Y-81116350D01*
X80530782Y-81073319D01*
X80566648Y-81041062D01*
X80572403Y-81031827D01*
X80548705Y-80984036D01*
X80478687Y-80926962D01*
X80448275Y-80907705D01*
X80360845Y-80874540D01*
X80243017Y-80855750D01*
X80112134Y-80851529D01*
X79985541Y-80862069D01*
G37*
X79985541Y-80862069D02*
X79880580Y-80887563D01*
X79850239Y-80901069D01*
X79791427Y-80936446D01*
X79746291Y-80976290D01*
X79712894Y-81027520D01*
X79689299Y-81097054D01*
X79673567Y-81191809D01*
X79663761Y-81318705D01*
X79657943Y-81484658D01*
X79655734Y-81595508D01*
X79647604Y-82074871D01*
X79786469Y-82074871D01*
X79870713Y-82071338D01*
X79914116Y-82059266D01*
X79925334Y-82038994D01*
X79931256Y-82017074D01*
X79957734Y-82021265D01*
X79993814Y-82038841D01*
X80084138Y-82065782D01*
X80200223Y-82073042D01*
X80322320Y-82061167D01*
X80430679Y-82030705D01*
X80440398Y-82026477D01*
X80539432Y-81956905D01*
X80604719Y-81860189D01*
X80634760Y-81747138D01*
X80632465Y-81706522D01*
X80387367Y-81706522D01*
X80365771Y-81761182D01*
X80301741Y-81800352D01*
X80198435Y-81821374D01*
X80143226Y-81824166D01*
X80051218Y-81817020D01*
X79990059Y-81789248D01*
X79975138Y-81776047D01*
X79934713Y-81704229D01*
X79925334Y-81639086D01*
X79925334Y-81551930D01*
X80046731Y-81551930D01*
X80187847Y-81559122D01*
X80286827Y-81581745D01*
X80349367Y-81621364D01*
X80363369Y-81639028D01*
X80387367Y-81706522D01*
X80632465Y-81706522D01*
X80628059Y-81628557D01*
X80583120Y-81515255D01*
X80521804Y-81438685D01*
X80484668Y-81405581D01*
X80448313Y-81383825D01*
X80401010Y-81370561D01*
X80331027Y-81362928D01*
X80226636Y-81358070D01*
X80185230Y-81356673D01*
X79925334Y-81348180D01*
X79925715Y-81269516D01*
X79935781Y-81186828D01*
X79972171Y-81136831D01*
X80045689Y-81104889D01*
X80047661Y-81104320D01*
X80151895Y-81091761D01*
X80253892Y-81108166D01*
X80329695Y-81148057D01*
X80360110Y-81167754D01*
X80392868Y-81165029D01*
X80443279Y-81136491D01*
X80472881Y-81116350D01*
X80530782Y-81073319D01*
X80566648Y-81041062D01*
X80572403Y-81031827D01*
X80548705Y-80984036D01*
X80478687Y-80926962D01*
X80448275Y-80907705D01*
X80360845Y-80874540D01*
X80243017Y-80855750D01*
X80112134Y-80851529D01*
X79985541Y-80862069D01*
G36*
X78803554Y-80854283D02*
G01*
X78707823Y-80873155D01*
X78653323Y-80901099D01*
X78595992Y-80947523D01*
X78677559Y-81050511D01*
X78727850Y-81112879D01*
X78761999Y-81143307D01*
X78795937Y-81147955D01*
X78845594Y-81132986D01*
X78868904Y-81124517D01*
X78963937Y-81112022D01*
X79050968Y-81138806D01*
X79114862Y-81199315D01*
X79125241Y-81218608D01*
X79136544Y-81269714D01*
X79145268Y-81363900D01*
X79151003Y-81494489D01*
X79153340Y-81654805D01*
X79153373Y-81677611D01*
X79153373Y-82074871D01*
X79427295Y-82074871D01*
X79427295Y-80854675D01*
X79290334Y-80854675D01*
X79211362Y-80856737D01*
X79170221Y-80865913D01*
X79155008Y-80886690D01*
X79153373Y-80906286D01*
X79153373Y-80957897D01*
X79087760Y-80906286D01*
X79012525Y-80871075D01*
X78911456Y-80853665D01*
X78803554Y-80854283D01*
G37*
X78803554Y-80854283D02*
X78707823Y-80873155D01*
X78653323Y-80901099D01*
X78595992Y-80947523D01*
X78677559Y-81050511D01*
X78727850Y-81112879D01*
X78761999Y-81143307D01*
X78795937Y-81147955D01*
X78845594Y-81132986D01*
X78868904Y-81124517D01*
X78963937Y-81112022D01*
X79050968Y-81138806D01*
X79114862Y-81199315D01*
X79125241Y-81218608D01*
X79136544Y-81269714D01*
X79145268Y-81363900D01*
X79151003Y-81494489D01*
X79153340Y-81654805D01*
X79153373Y-81677611D01*
X79153373Y-82074871D01*
X79427295Y-82074871D01*
X79427295Y-80854675D01*
X79290334Y-80854675D01*
X79211362Y-80856737D01*
X79170221Y-80865913D01*
X79155008Y-80886690D01*
X79153373Y-80906286D01*
X79153373Y-80957897D01*
X79087760Y-80906286D01*
X79012525Y-80871075D01*
X78911456Y-80853665D01*
X78803554Y-80854283D01*
G36*
X78016693Y-80861184D02*
G01*
X77897663Y-80892131D01*
X77797979Y-80956000D01*
X77749712Y-81003713D01*
X77670592Y-81116506D01*
X77625248Y-81247350D01*
X77609670Y-81408192D01*
X77609590Y-81421194D01*
X77609451Y-81551930D01*
X78361909Y-81551930D01*
X78345870Y-81620410D01*
X78316909Y-81682431D01*
X78266222Y-81747054D01*
X78255621Y-81757371D01*
X78164506Y-81813205D01*
X78060600Y-81822675D01*
X77941000Y-81785940D01*
X77920726Y-81776047D01*
X77858544Y-81745974D01*
X77816894Y-81728840D01*
X77809627Y-81727255D01*
X77784260Y-81742642D01*
X77735880Y-81780287D01*
X77711321Y-81800859D01*
X77660430Y-81848114D01*
X77643719Y-81879317D01*
X77655317Y-81908020D01*
X77661517Y-81915868D01*
X77703507Y-81950219D01*
X77772794Y-81991965D01*
X77821118Y-82016335D01*
X77958289Y-82059273D01*
X78110153Y-82073186D01*
X78253976Y-82056700D01*
X78294255Y-82044896D01*
X78418922Y-81978089D01*
X78511329Y-81875292D01*
X78572010Y-81735505D01*
X78601502Y-81557730D01*
X78604740Y-81464773D01*
X78595286Y-81329433D01*
X78356510Y-81329433D01*
X78333416Y-81339438D01*
X78271338Y-81347288D01*
X78181086Y-81351921D01*
X78119942Y-81352714D01*
X78009960Y-81351949D01*
X77940543Y-81348370D01*
X77902462Y-81340049D01*
X77886485Y-81325057D01*
X77883373Y-81303303D01*
X77904722Y-81236292D01*
X77958471Y-81170064D01*
X78029178Y-81119232D01*
X78099911Y-81098438D01*
X78195984Y-81116884D01*
X78279151Y-81170211D01*
X78336814Y-81247077D01*
X78356510Y-81329433D01*
X78595286Y-81329433D01*
X78590972Y-81267691D01*
X78548480Y-81110671D01*
X78476365Y-80992469D01*
X78373727Y-80911840D01*
X78239668Y-80867539D01*
X78167043Y-80859007D01*
X78016693Y-80861184D01*
G37*
X78016693Y-80861184D02*
X77897663Y-80892131D01*
X77797979Y-80956000D01*
X77749712Y-81003713D01*
X77670592Y-81116506D01*
X77625248Y-81247350D01*
X77609670Y-81408192D01*
X77609590Y-81421194D01*
X77609451Y-81551930D01*
X78361909Y-81551930D01*
X78345870Y-81620410D01*
X78316909Y-81682431D01*
X78266222Y-81747054D01*
X78255621Y-81757371D01*
X78164506Y-81813205D01*
X78060600Y-81822675D01*
X77941000Y-81785940D01*
X77920726Y-81776047D01*
X77858544Y-81745974D01*
X77816894Y-81728840D01*
X77809627Y-81727255D01*
X77784260Y-81742642D01*
X77735880Y-81780287D01*
X77711321Y-81800859D01*
X77660430Y-81848114D01*
X77643719Y-81879317D01*
X77655317Y-81908020D01*
X77661517Y-81915868D01*
X77703507Y-81950219D01*
X77772794Y-81991965D01*
X77821118Y-82016335D01*
X77958289Y-82059273D01*
X78110153Y-82073186D01*
X78253976Y-82056700D01*
X78294255Y-82044896D01*
X78418922Y-81978089D01*
X78511329Y-81875292D01*
X78572010Y-81735505D01*
X78601502Y-81557730D01*
X78604740Y-81464773D01*
X78595286Y-81329433D01*
X78356510Y-81329433D01*
X78333416Y-81339438D01*
X78271338Y-81347288D01*
X78181086Y-81351921D01*
X78119942Y-81352714D01*
X78009960Y-81351949D01*
X77940543Y-81348370D01*
X77902462Y-81340049D01*
X77886485Y-81325057D01*
X77883373Y-81303303D01*
X77904722Y-81236292D01*
X77958471Y-81170064D01*
X78029178Y-81119232D01*
X78099911Y-81098438D01*
X78195984Y-81116884D01*
X78279151Y-81170211D01*
X78336814Y-81247077D01*
X78356510Y-81329433D01*
X78595286Y-81329433D01*
X78590972Y-81267691D01*
X78548480Y-81110671D01*
X78476365Y-80992469D01*
X78373727Y-80911840D01*
X78239668Y-80867539D01*
X78167043Y-80859007D01*
X78016693Y-80861184D01*
G36*
X87068753Y-78999968D02*
G01*
X86938478Y-79057563D01*
X86839581Y-79153734D01*
X86771918Y-79288629D01*
X86735345Y-79462396D01*
X86732724Y-79489526D01*
X86730670Y-79680808D01*
X86757301Y-79848473D01*
X86810999Y-79984367D01*
X86839753Y-80028081D01*
X86939909Y-80120598D01*
X87067463Y-80180519D01*
X87210163Y-80205385D01*
X87355760Y-80192739D01*
X87466438Y-80153791D01*
X87561616Y-80088155D01*
X87639406Y-80002099D01*
X87640751Y-80000085D01*
X87672343Y-79946970D01*
X87692873Y-79893560D01*
X87705305Y-79826154D01*
X87712603Y-79731053D01*
X87715818Y-79653066D01*
X87717156Y-79582344D01*
X87468186Y-79582344D01*
X87465753Y-79652748D01*
X87456920Y-79746468D01*
X87441336Y-79806614D01*
X87413234Y-79849406D01*
X87386914Y-79874402D01*
X87293608Y-79926738D01*
X87195980Y-79933733D01*
X87105058Y-79896076D01*
X87059598Y-79853879D01*
X87026838Y-79811356D01*
X87007677Y-79770667D01*
X86999267Y-79717714D01*
X86998763Y-79638397D01*
X87001355Y-79565350D01*
X87006929Y-79461001D01*
X87015766Y-79393320D01*
X87031693Y-79349174D01*
X87058538Y-79315431D01*
X87079811Y-79296146D01*
X87168794Y-79245486D01*
X87264789Y-79242960D01*
X87345281Y-79272967D01*
X87413947Y-79335631D01*
X87454856Y-79438568D01*
X87468186Y-79582344D01*
X87717156Y-79582344D01*
X87718754Y-79497982D01*
X87713740Y-79382000D01*
X87698717Y-79294767D01*
X87671624Y-79225930D01*
X87630400Y-79165137D01*
X87615115Y-79147086D01*
X87519546Y-79057146D01*
X87417039Y-79004611D01*
X87291679Y-78982601D01*
X87230550Y-78980802D01*
X87068753Y-78999968D01*
G37*
X87068753Y-78999968D02*
X86938478Y-79057563D01*
X86839581Y-79153734D01*
X86771918Y-79288629D01*
X86735345Y-79462396D01*
X86732724Y-79489526D01*
X86730670Y-79680808D01*
X86757301Y-79848473D01*
X86810999Y-79984367D01*
X86839753Y-80028081D01*
X86939909Y-80120598D01*
X87067463Y-80180519D01*
X87210163Y-80205385D01*
X87355760Y-80192739D01*
X87466438Y-80153791D01*
X87561616Y-80088155D01*
X87639406Y-80002099D01*
X87640751Y-80000085D01*
X87672343Y-79946970D01*
X87692873Y-79893560D01*
X87705305Y-79826154D01*
X87712603Y-79731053D01*
X87715818Y-79653066D01*
X87717156Y-79582344D01*
X87468186Y-79582344D01*
X87465753Y-79652748D01*
X87456920Y-79746468D01*
X87441336Y-79806614D01*
X87413234Y-79849406D01*
X87386914Y-79874402D01*
X87293608Y-79926738D01*
X87195980Y-79933733D01*
X87105058Y-79896076D01*
X87059598Y-79853879D01*
X87026838Y-79811356D01*
X87007677Y-79770667D01*
X86999267Y-79717714D01*
X86998763Y-79638397D01*
X87001355Y-79565350D01*
X87006929Y-79461001D01*
X87015766Y-79393320D01*
X87031693Y-79349174D01*
X87058538Y-79315431D01*
X87079811Y-79296146D01*
X87168794Y-79245486D01*
X87264789Y-79242960D01*
X87345281Y-79272967D01*
X87413947Y-79335631D01*
X87454856Y-79438568D01*
X87468186Y-79582344D01*
X87717156Y-79582344D01*
X87718754Y-79497982D01*
X87713740Y-79382000D01*
X87698717Y-79294767D01*
X87671624Y-79225930D01*
X87630400Y-79165137D01*
X87615115Y-79147086D01*
X87519546Y-79057146D01*
X87417039Y-79004611D01*
X87291679Y-78982601D01*
X87230550Y-78980802D01*
X87068753Y-78999968D01*
G36*
X84728796Y-79014754D02*
G01*
X84703981Y-79026437D01*
X84618094Y-79089351D01*
X84536879Y-79181169D01*
X84476236Y-79282268D01*
X84458988Y-79328749D01*
X84443251Y-79411776D01*
X84433867Y-79512113D01*
X84432728Y-79553547D01*
X84432589Y-79684282D01*
X85185047Y-79684282D01*
X85169007Y-79752763D01*
X85129637Y-79833755D01*
X85060806Y-79903751D01*
X84978919Y-79948841D01*
X84926737Y-79958204D01*
X84855971Y-79946841D01*
X84771540Y-79918343D01*
X84742858Y-79905231D01*
X84636791Y-79852258D01*
X84546272Y-79921301D01*
X84494039Y-79967997D01*
X84466247Y-80006540D01*
X84464840Y-80017852D01*
X84489668Y-80045268D01*
X84544083Y-80086932D01*
X84593472Y-80119437D01*
X84726748Y-80177868D01*
X84876161Y-80204315D01*
X85024249Y-80197439D01*
X85142295Y-80161496D01*
X85263982Y-80084501D01*
X85350460Y-79983128D01*
X85404559Y-79851970D01*
X85429109Y-79685624D01*
X85431286Y-79609508D01*
X85422573Y-79435085D01*
X85421503Y-79430011D01*
X85172173Y-79430011D01*
X85165306Y-79446368D01*
X85137083Y-79455388D01*
X85078873Y-79459254D01*
X84982042Y-79460149D01*
X84944757Y-79460165D01*
X84831317Y-79458813D01*
X84759378Y-79453905D01*
X84720687Y-79444160D01*
X84706995Y-79428299D01*
X84706510Y-79423205D01*
X84722137Y-79382726D01*
X84761247Y-79326021D01*
X84778061Y-79306166D01*
X84840481Y-79250011D01*
X84905547Y-79227932D01*
X84940603Y-79226086D01*
X85035442Y-79249166D01*
X85114973Y-79311159D01*
X85165423Y-79401202D01*
X85166317Y-79404135D01*
X85172173Y-79430011D01*
X85421503Y-79430011D01*
X85393601Y-79297743D01*
X85341410Y-79187861D01*
X85277579Y-79109861D01*
X85159567Y-79025282D01*
X85020842Y-78980086D01*
X84873290Y-78976000D01*
X84728796Y-79014754D01*
G37*
X84728796Y-79014754D02*
X84703981Y-79026437D01*
X84618094Y-79089351D01*
X84536879Y-79181169D01*
X84476236Y-79282268D01*
X84458988Y-79328749D01*
X84443251Y-79411776D01*
X84433867Y-79512113D01*
X84432728Y-79553547D01*
X84432589Y-79684282D01*
X85185047Y-79684282D01*
X85169007Y-79752763D01*
X85129637Y-79833755D01*
X85060806Y-79903751D01*
X84978919Y-79948841D01*
X84926737Y-79958204D01*
X84855971Y-79946841D01*
X84771540Y-79918343D01*
X84742858Y-79905231D01*
X84636791Y-79852258D01*
X84546272Y-79921301D01*
X84494039Y-79967997D01*
X84466247Y-80006540D01*
X84464840Y-80017852D01*
X84489668Y-80045268D01*
X84544083Y-80086932D01*
X84593472Y-80119437D01*
X84726748Y-80177868D01*
X84876161Y-80204315D01*
X85024249Y-80197439D01*
X85142295Y-80161496D01*
X85263982Y-80084501D01*
X85350460Y-79983128D01*
X85404559Y-79851970D01*
X85429109Y-79685624D01*
X85431286Y-79609508D01*
X85422573Y-79435085D01*
X85421503Y-79430011D01*
X85172173Y-79430011D01*
X85165306Y-79446368D01*
X85137083Y-79455388D01*
X85078873Y-79459254D01*
X84982042Y-79460149D01*
X84944757Y-79460165D01*
X84831317Y-79458813D01*
X84759378Y-79453905D01*
X84720687Y-79444160D01*
X84706995Y-79428299D01*
X84706510Y-79423205D01*
X84722137Y-79382726D01*
X84761247Y-79326021D01*
X84778061Y-79306166D01*
X84840481Y-79250011D01*
X84905547Y-79227932D01*
X84940603Y-79226086D01*
X85035442Y-79249166D01*
X85114973Y-79311159D01*
X85165423Y-79401202D01*
X85166317Y-79404135D01*
X85172173Y-79430011D01*
X85421503Y-79430011D01*
X85393601Y-79297743D01*
X85341410Y-79187861D01*
X85277579Y-79109861D01*
X85159567Y-79025282D01*
X85020842Y-78980086D01*
X84873290Y-78976000D01*
X84728796Y-79014754D01*
G36*
X82014241Y-78982745D02*
G01*
X81919941Y-79000629D01*
X81822110Y-79038033D01*
X81811657Y-79042802D01*
X81737469Y-79081812D01*
X81686090Y-79118064D01*
X81669483Y-79141287D01*
X81685298Y-79179161D01*
X81723712Y-79235044D01*
X81740763Y-79255905D01*
X81811031Y-79338018D01*
X81901621Y-79284568D01*
X81987836Y-79248961D01*
X82087451Y-79229929D01*
X82182981Y-79228726D01*
X82256939Y-79246610D01*
X82274688Y-79257773D01*
X82308488Y-79308953D01*
X82312596Y-79367909D01*
X82287304Y-79413967D01*
X82272344Y-79422899D01*
X82227514Y-79433992D01*
X82148714Y-79447030D01*
X82051574Y-79459488D01*
X82033654Y-79461442D01*
X81877635Y-79488430D01*
X81764477Y-79534273D01*
X81689431Y-79603203D01*
X81647747Y-79699454D01*
X81634762Y-79817017D01*
X81652701Y-79950654D01*
X81710950Y-80055595D01*
X81809745Y-80132030D01*
X81949318Y-80180148D01*
X82104255Y-80199132D01*
X82230602Y-80198904D01*
X82333087Y-80181662D01*
X82403079Y-80157857D01*
X82491517Y-80116378D01*
X82573246Y-80068242D01*
X82602295Y-80047055D01*
X82677000Y-79986076D01*
X82586902Y-79894908D01*
X82496804Y-79803739D01*
X82394368Y-79871528D01*
X82291626Y-79922442D01*
X82181913Y-79949073D01*
X82076449Y-79951883D01*
X81986454Y-79931335D01*
X81923146Y-79887893D01*
X81902704Y-79851238D01*
X81905771Y-79792453D01*
X81956566Y-79747499D01*
X82054952Y-79716457D01*
X82162744Y-79702110D01*
X82328635Y-79674737D01*
X82451876Y-79623093D01*
X82534114Y-79545666D01*
X82576999Y-79440944D01*
X82582940Y-79316787D01*
X82553594Y-79187102D01*
X82486691Y-79089077D01*
X82381629Y-79022266D01*
X82237810Y-78986220D01*
X82131262Y-78979154D01*
X82014241Y-78982745D01*
G37*
X82014241Y-78982745D02*
X81919941Y-79000629D01*
X81822110Y-79038033D01*
X81811657Y-79042802D01*
X81737469Y-79081812D01*
X81686090Y-79118064D01*
X81669483Y-79141287D01*
X81685298Y-79179161D01*
X81723712Y-79235044D01*
X81740763Y-79255905D01*
X81811031Y-79338018D01*
X81901621Y-79284568D01*
X81987836Y-79248961D01*
X82087451Y-79229929D01*
X82182981Y-79228726D01*
X82256939Y-79246610D01*
X82274688Y-79257773D01*
X82308488Y-79308953D01*
X82312596Y-79367909D01*
X82287304Y-79413967D01*
X82272344Y-79422899D01*
X82227514Y-79433992D01*
X82148714Y-79447030D01*
X82051574Y-79459488D01*
X82033654Y-79461442D01*
X81877635Y-79488430D01*
X81764477Y-79534273D01*
X81689431Y-79603203D01*
X81647747Y-79699454D01*
X81634762Y-79817017D01*
X81652701Y-79950654D01*
X81710950Y-80055595D01*
X81809745Y-80132030D01*
X81949318Y-80180148D01*
X82104255Y-80199132D01*
X82230602Y-80198904D01*
X82333087Y-80181662D01*
X82403079Y-80157857D01*
X82491517Y-80116378D01*
X82573246Y-80068242D01*
X82602295Y-80047055D01*
X82677000Y-79986076D01*
X82586902Y-79894908D01*
X82496804Y-79803739D01*
X82394368Y-79871528D01*
X82291626Y-79922442D01*
X82181913Y-79949073D01*
X82076449Y-79951883D01*
X81986454Y-79931335D01*
X81923146Y-79887893D01*
X81902704Y-79851238D01*
X81905771Y-79792453D01*
X81956566Y-79747499D01*
X82054952Y-79716457D01*
X82162744Y-79702110D01*
X82328635Y-79674737D01*
X82451876Y-79623093D01*
X82534114Y-79545666D01*
X82576999Y-79440944D01*
X82582940Y-79316787D01*
X82553594Y-79187102D01*
X82486691Y-79089077D01*
X82381629Y-79022266D01*
X82237810Y-78986220D01*
X82131262Y-78979154D01*
X82014241Y-78982745D01*
G36*
X80832453Y-79001764D02*
G01*
X80706498Y-79070359D01*
X80607953Y-79178645D01*
X80561522Y-79266715D01*
X80541588Y-79344501D01*
X80528672Y-79455393D01*
X80523137Y-79583138D01*
X80525346Y-79711484D01*
X80535663Y-79824179D01*
X80547714Y-79884369D01*
X80588366Y-79966711D01*
X80658770Y-80054170D01*
X80743618Y-80130651D01*
X80827603Y-80180055D01*
X80829651Y-80180839D01*
X80933866Y-80202427D01*
X81057373Y-80202962D01*
X81174739Y-80183308D01*
X81220058Y-80167555D01*
X81336780Y-80101366D01*
X81420376Y-80014646D01*
X81475299Y-79899838D01*
X81506005Y-79749382D01*
X81512953Y-79670573D01*
X81512067Y-79571545D01*
X81245138Y-79571545D01*
X81236146Y-79716045D01*
X81210264Y-79826160D01*
X81169132Y-79896516D01*
X81139828Y-79916635D01*
X81064749Y-79930665D01*
X80975506Y-79926511D01*
X80898350Y-79906322D01*
X80878117Y-79895215D01*
X80824735Y-79830523D01*
X80789500Y-79731519D01*
X80774502Y-79611032D01*
X80781828Y-79481894D01*
X80798201Y-79404175D01*
X80845210Y-79314171D01*
X80919418Y-79257909D01*
X81008791Y-79238457D01*
X81101293Y-79258881D01*
X81172347Y-79308837D01*
X81209688Y-79350055D01*
X81231482Y-79390681D01*
X81241870Y-79445664D01*
X81244994Y-79529949D01*
X81245138Y-79571545D01*
X81512067Y-79571545D01*
X81511070Y-79460274D01*
X81476820Y-79287823D01*
X81410198Y-79153214D01*
X81311201Y-79056440D01*
X81179825Y-78997494D01*
X81151615Y-78990659D01*
X80982074Y-78974613D01*
X80832453Y-79001764D01*
G37*
X80832453Y-79001764D02*
X80706498Y-79070359D01*
X80607953Y-79178645D01*
X80561522Y-79266715D01*
X80541588Y-79344501D01*
X80528672Y-79455393D01*
X80523137Y-79583138D01*
X80525346Y-79711484D01*
X80535663Y-79824179D01*
X80547714Y-79884369D01*
X80588366Y-79966711D01*
X80658770Y-80054170D01*
X80743618Y-80130651D01*
X80827603Y-80180055D01*
X80829651Y-80180839D01*
X80933866Y-80202427D01*
X81057373Y-80202962D01*
X81174739Y-80183308D01*
X81220058Y-80167555D01*
X81336780Y-80101366D01*
X81420376Y-80014646D01*
X81475299Y-79899838D01*
X81506005Y-79749382D01*
X81512953Y-79670573D01*
X81512067Y-79571545D01*
X81245138Y-79571545D01*
X81236146Y-79716045D01*
X81210264Y-79826160D01*
X81169132Y-79896516D01*
X81139828Y-79916635D01*
X81064749Y-79930665D01*
X80975506Y-79926511D01*
X80898350Y-79906322D01*
X80878117Y-79895215D01*
X80824735Y-79830523D01*
X80789500Y-79731519D01*
X80774502Y-79611032D01*
X80781828Y-79481894D01*
X80798201Y-79404175D01*
X80845210Y-79314171D01*
X80919418Y-79257909D01*
X81008791Y-79238457D01*
X81101293Y-79258881D01*
X81172347Y-79308837D01*
X81209688Y-79350055D01*
X81231482Y-79390681D01*
X81241870Y-79445664D01*
X81244994Y-79529949D01*
X81245138Y-79571545D01*
X81512067Y-79571545D01*
X81511070Y-79460274D01*
X81476820Y-79287823D01*
X81410198Y-79153214D01*
X81311201Y-79056440D01*
X81179825Y-78997494D01*
X81151615Y-78990659D01*
X80982074Y-78974613D01*
X80832453Y-79001764D01*
G36*
X80074746Y-79374645D02*
G01*
X80072392Y-79557279D01*
X80063793Y-79696000D01*
X80046640Y-79796547D01*
X80018626Y-79864654D01*
X79977443Y-79906059D01*
X79920783Y-79926497D01*
X79850628Y-79931718D01*
X79777152Y-79925868D01*
X79721343Y-79904493D01*
X79680891Y-79861858D01*
X79653491Y-79792225D01*
X79636833Y-79689860D01*
X79628611Y-79549024D01*
X79626510Y-79374645D01*
X79626510Y-78987028D01*
X79352589Y-78987028D01*
X79352589Y-80182322D01*
X79489549Y-80182322D01*
X79572116Y-80178976D01*
X79614632Y-80167226D01*
X79626510Y-80144920D01*
X79633664Y-80125054D01*
X79662135Y-80129257D01*
X79719524Y-80157371D01*
X79851055Y-80200742D01*
X79990562Y-80197670D01*
X80124235Y-80150574D01*
X80187892Y-80113371D01*
X80236447Y-80073091D01*
X80271919Y-80022691D01*
X80296326Y-79955129D01*
X80311687Y-79863365D01*
X80320018Y-79740355D01*
X80323338Y-79579059D01*
X80323765Y-79454328D01*
X80323765Y-78987028D01*
X80074746Y-78987028D01*
X80074746Y-79374645D01*
G37*
X80074746Y-79374645D02*
X80072392Y-79557279D01*
X80063793Y-79696000D01*
X80046640Y-79796547D01*
X80018626Y-79864654D01*
X79977443Y-79906059D01*
X79920783Y-79926497D01*
X79850628Y-79931718D01*
X79777152Y-79925868D01*
X79721343Y-79904493D01*
X79680891Y-79861858D01*
X79653491Y-79792225D01*
X79636833Y-79689860D01*
X79628611Y-79549024D01*
X79626510Y-79374645D01*
X79626510Y-78987028D01*
X79352589Y-78987028D01*
X79352589Y-80182322D01*
X79489549Y-80182322D01*
X79572116Y-80178976D01*
X79614632Y-80167226D01*
X79626510Y-80144920D01*
X79633664Y-80125054D01*
X79662135Y-80129257D01*
X79719524Y-80157371D01*
X79851055Y-80200742D01*
X79990562Y-80197670D01*
X80124235Y-80150574D01*
X80187892Y-80113371D01*
X80236447Y-80073091D01*
X80271919Y-80022691D01*
X80296326Y-79955129D01*
X80311687Y-79863365D01*
X80320018Y-79740355D01*
X80323338Y-79579059D01*
X80323765Y-79454328D01*
X80323765Y-78987028D01*
X80074746Y-78987028D01*
X80074746Y-79374645D01*
G36*
X77651024Y-78997456D02*
G01*
X77506744Y-79058748D01*
X77461301Y-79088585D01*
X77403221Y-79134436D01*
X77366762Y-79170489D01*
X77360432Y-79182232D01*
X77378307Y-79208289D01*
X77424050Y-79252505D01*
X77460672Y-79283365D01*
X77560912Y-79363920D01*
X77640065Y-79297318D01*
X77701231Y-79254321D01*
X77760871Y-79239479D01*
X77829128Y-79243104D01*
X77937518Y-79270052D01*
X78012128Y-79325987D01*
X78057470Y-79416414D01*
X78078053Y-79546835D01*
X78078058Y-79546917D01*
X78076278Y-79692690D01*
X78048613Y-79799645D01*
X77993429Y-79872464D01*
X77955808Y-79897123D01*
X77855895Y-79927831D01*
X77749178Y-79927849D01*
X77656331Y-79898055D01*
X77634353Y-79883498D01*
X77579235Y-79846314D01*
X77536141Y-79840220D01*
X77489665Y-79867896D01*
X77438284Y-79917605D01*
X77356954Y-80001516D01*
X77447251Y-80075946D01*
X77586764Y-80159949D01*
X77744088Y-80201347D01*
X77908497Y-80198350D01*
X78016469Y-80170900D01*
X78142669Y-80103020D01*
X78243599Y-79996231D01*
X78289452Y-79920851D01*
X78326590Y-79812697D01*
X78345173Y-79675718D01*
X78345316Y-79527264D01*
X78327135Y-79384681D01*
X78290745Y-79265318D01*
X78285013Y-79253080D01*
X78200135Y-79133055D01*
X78085218Y-79045667D01*
X77949341Y-78992729D01*
X77801583Y-78976054D01*
X77651024Y-78997456D01*
G37*
X77651024Y-78997456D02*
X77506744Y-79058748D01*
X77461301Y-79088585D01*
X77403221Y-79134436D01*
X77366762Y-79170489D01*
X77360432Y-79182232D01*
X77378307Y-79208289D01*
X77424050Y-79252505D01*
X77460672Y-79283365D01*
X77560912Y-79363920D01*
X77640065Y-79297318D01*
X77701231Y-79254321D01*
X77760871Y-79239479D01*
X77829128Y-79243104D01*
X77937518Y-79270052D01*
X78012128Y-79325987D01*
X78057470Y-79416414D01*
X78078053Y-79546835D01*
X78078058Y-79546917D01*
X78076278Y-79692690D01*
X78048613Y-79799645D01*
X77993429Y-79872464D01*
X77955808Y-79897123D01*
X77855895Y-79927831D01*
X77749178Y-79927849D01*
X77656331Y-79898055D01*
X77634353Y-79883498D01*
X77579235Y-79846314D01*
X77536141Y-79840220D01*
X77489665Y-79867896D01*
X77438284Y-79917605D01*
X77356954Y-80001516D01*
X77447251Y-80075946D01*
X77586764Y-80159949D01*
X77744088Y-80201347D01*
X77908497Y-80198350D01*
X78016469Y-80170900D01*
X78142669Y-80103020D01*
X78243599Y-79996231D01*
X78289452Y-79920851D01*
X78326590Y-79812697D01*
X78345173Y-79675718D01*
X78345316Y-79527264D01*
X78327135Y-79384681D01*
X78290745Y-79265318D01*
X78285013Y-79253080D01*
X78200135Y-79133055D01*
X78085218Y-79045667D01*
X77949341Y-78992729D01*
X77801583Y-78976054D01*
X77651024Y-78997456D01*
G36*
X76738713Y-78982755D02*
G01*
X76674949Y-78998245D01*
X76552700Y-79054969D01*
X76448166Y-79141602D01*
X76375820Y-79245474D01*
X76365881Y-79268796D01*
X76352246Y-79329884D01*
X76342702Y-79420253D01*
X76339451Y-79511590D01*
X76339451Y-79684282D01*
X76700530Y-79684282D01*
X76849454Y-79684845D01*
X76954368Y-79688264D01*
X77021063Y-79697131D01*
X77055334Y-79714041D01*
X77062972Y-79741589D01*
X77049771Y-79782368D01*
X77026123Y-79830083D01*
X76960157Y-79909714D01*
X76868488Y-79949387D01*
X76756445Y-79948095D01*
X76629528Y-79904914D01*
X76519842Y-79851624D01*
X76428827Y-79923591D01*
X76337812Y-79995557D01*
X76423437Y-80074669D01*
X76537750Y-80149417D01*
X76678334Y-80194484D01*
X76829551Y-80207096D01*
X76975764Y-80184479D01*
X76999353Y-80176805D01*
X77127859Y-80109696D01*
X77223449Y-80009647D01*
X77288139Y-79873671D01*
X77323943Y-79698780D01*
X77324360Y-79695032D01*
X77327566Y-79504432D01*
X77314607Y-79436435D01*
X77061608Y-79436435D01*
X77038373Y-79446891D01*
X76975290Y-79454900D01*
X76882294Y-79459473D01*
X76823362Y-79460165D01*
X76713463Y-79459732D01*
X76644748Y-79456978D01*
X76608595Y-79449721D01*
X76596385Y-79435776D01*
X76599496Y-79412962D01*
X76602106Y-79404135D01*
X76646656Y-79321200D01*
X76716721Y-79254360D01*
X76778554Y-79224989D01*
X76860699Y-79226762D01*
X76943938Y-79263390D01*
X77013762Y-79324034D01*
X77055663Y-79397856D01*
X77061608Y-79436435D01*
X77314607Y-79436435D01*
X77295615Y-79336795D01*
X77232227Y-79196111D01*
X77141122Y-79086374D01*
X77026022Y-79011574D01*
X76890645Y-78975704D01*
X76738713Y-78982755D01*
G37*
X76738713Y-78982755D02*
X76674949Y-78998245D01*
X76552700Y-79054969D01*
X76448166Y-79141602D01*
X76375820Y-79245474D01*
X76365881Y-79268796D01*
X76352246Y-79329884D01*
X76342702Y-79420253D01*
X76339451Y-79511590D01*
X76339451Y-79684282D01*
X76700530Y-79684282D01*
X76849454Y-79684845D01*
X76954368Y-79688264D01*
X77021063Y-79697131D01*
X77055334Y-79714041D01*
X77062972Y-79741589D01*
X77049771Y-79782368D01*
X77026123Y-79830083D01*
X76960157Y-79909714D01*
X76868488Y-79949387D01*
X76756445Y-79948095D01*
X76629528Y-79904914D01*
X76519842Y-79851624D01*
X76428827Y-79923591D01*
X76337812Y-79995557D01*
X76423437Y-80074669D01*
X76537750Y-80149417D01*
X76678334Y-80194484D01*
X76829551Y-80207096D01*
X76975764Y-80184479D01*
X76999353Y-80176805D01*
X77127859Y-80109696D01*
X77223449Y-80009647D01*
X77288139Y-79873671D01*
X77323943Y-79698780D01*
X77324360Y-79695032D01*
X77327566Y-79504432D01*
X77314607Y-79436435D01*
X77061608Y-79436435D01*
X77038373Y-79446891D01*
X76975290Y-79454900D01*
X76882294Y-79459473D01*
X76823362Y-79460165D01*
X76713463Y-79459732D01*
X76644748Y-79456978D01*
X76608595Y-79449721D01*
X76596385Y-79435776D01*
X76599496Y-79412962D01*
X76602106Y-79404135D01*
X76646656Y-79321200D01*
X76716721Y-79254360D01*
X76778554Y-79224989D01*
X76860699Y-79226762D01*
X76943938Y-79263390D01*
X77013762Y-79324034D01*
X77055663Y-79397856D01*
X77061608Y-79436435D01*
X77314607Y-79436435D01*
X77295615Y-79336795D01*
X77232227Y-79196111D01*
X77141122Y-79086374D01*
X77026022Y-79011574D01*
X76890645Y-78975704D01*
X76738713Y-78982755D01*
G36*
X83535240Y-79007599D02*
G01*
X83473264Y-79037202D01*
X83413241Y-79079961D01*
X83367514Y-79129175D01*
X83334207Y-79191944D01*
X83311445Y-79275371D01*
X83297353Y-79386559D01*
X83290058Y-79532609D01*
X83287682Y-79720623D01*
X83287645Y-79740312D01*
X83287098Y-80182322D01*
X83561020Y-80182322D01*
X83561020Y-79774835D01*
X83561215Y-79623871D01*
X83562564Y-79514456D01*
X83566212Y-79438333D01*
X83573304Y-79387248D01*
X83584987Y-79352945D01*
X83602406Y-79327168D01*
X83626671Y-79301698D01*
X83711565Y-79246971D01*
X83804239Y-79236816D01*
X83892527Y-79271417D01*
X83923230Y-79297170D01*
X83945771Y-79321382D01*
X83961954Y-79347312D01*
X83972832Y-79383108D01*
X83979458Y-79436919D01*
X83982885Y-79516893D01*
X83984166Y-79631179D01*
X83984353Y-79770307D01*
X83984353Y-80182322D01*
X84258275Y-80182322D01*
X84258275Y-78987028D01*
X84121314Y-78987028D01*
X84039084Y-78990279D01*
X83996660Y-79001826D01*
X83984359Y-79024352D01*
X83984353Y-79025020D01*
X83978646Y-79047081D01*
X83953473Y-79044577D01*
X83903422Y-79020337D01*
X83789906Y-78984671D01*
X83660055Y-78980705D01*
X83535240Y-79007599D01*
G37*
X83535240Y-79007599D02*
X83473264Y-79037202D01*
X83413241Y-79079961D01*
X83367514Y-79129175D01*
X83334207Y-79191944D01*
X83311445Y-79275371D01*
X83297353Y-79386559D01*
X83290058Y-79532609D01*
X83287682Y-79720623D01*
X83287645Y-79740312D01*
X83287098Y-80182322D01*
X83561020Y-80182322D01*
X83561020Y-79774835D01*
X83561215Y-79623871D01*
X83562564Y-79514456D01*
X83566212Y-79438333D01*
X83573304Y-79387248D01*
X83584987Y-79352945D01*
X83602406Y-79327168D01*
X83626671Y-79301698D01*
X83711565Y-79246971D01*
X83804239Y-79236816D01*
X83892527Y-79271417D01*
X83923230Y-79297170D01*
X83945771Y-79321382D01*
X83961954Y-79347312D01*
X83972832Y-79383108D01*
X83979458Y-79436919D01*
X83982885Y-79516893D01*
X83984166Y-79631179D01*
X83984353Y-79770307D01*
X83984353Y-80182322D01*
X84258275Y-80182322D01*
X84258275Y-78987028D01*
X84121314Y-78987028D01*
X84039084Y-78990279D01*
X83996660Y-79001826D01*
X83984359Y-79024352D01*
X83984353Y-79025020D01*
X83978646Y-79047081D01*
X83953473Y-79044577D01*
X83903422Y-79020337D01*
X83789906Y-78984671D01*
X83660055Y-78980705D01*
X83535240Y-79007599D01*
G36*
X78478363Y-78985872D02*
G01*
X78392710Y-79012041D01*
X78337563Y-79045107D01*
X78319599Y-79071255D01*
X78324543Y-79102252D01*
X78356628Y-79150947D01*
X78383757Y-79185435D01*
X78439683Y-79247783D01*
X78481701Y-79274015D01*
X78517520Y-79272303D01*
X78623776Y-79245263D01*
X78701811Y-79246491D01*
X78765180Y-79277135D01*
X78786454Y-79295070D01*
X78854549Y-79358179D01*
X78854549Y-80182322D01*
X79128471Y-80182322D01*
X79128471Y-78987028D01*
X78991510Y-78987028D01*
X78909281Y-78990279D01*
X78866856Y-79001826D01*
X78854555Y-79024352D01*
X78854549Y-79025020D01*
X78848740Y-79048615D01*
X78822469Y-79045538D01*
X78786069Y-79028515D01*
X78710889Y-78996839D01*
X78649842Y-78977781D01*
X78571292Y-78972896D01*
X78478363Y-78985872D01*
G37*
X78478363Y-78985872D02*
X78392710Y-79012041D01*
X78337563Y-79045107D01*
X78319599Y-79071255D01*
X78324543Y-79102252D01*
X78356628Y-79150947D01*
X78383757Y-79185435D01*
X78439683Y-79247783D01*
X78481701Y-79274015D01*
X78517520Y-79272303D01*
X78623776Y-79245263D01*
X78701811Y-79246491D01*
X78765180Y-79277135D01*
X78786454Y-79295070D01*
X78854549Y-79358179D01*
X78854549Y-80182322D01*
X79128471Y-80182322D01*
X79128471Y-78987028D01*
X78991510Y-78987028D01*
X78909281Y-78990279D01*
X78866856Y-79001826D01*
X78854555Y-79024352D01*
X78854549Y-79025020D01*
X78848740Y-79048615D01*
X78822469Y-79045538D01*
X78786069Y-79028515D01*
X78710889Y-78996839D01*
X78649842Y-78977781D01*
X78571292Y-78972896D01*
X78478363Y-78985872D01*
G36*
X81295465Y-70731572D02*
G01*
X81182883Y-71328763D01*
X80767469Y-71500010D01*
X80352056Y-71671257D01*
X79853698Y-71332378D01*
X79714132Y-71238022D01*
X79587972Y-71153775D01*
X79481105Y-71083483D01*
X79399418Y-71030992D01*
X79348799Y-71000149D01*
X79335014Y-70993498D01*
X79310180Y-71010603D01*
X79257112Y-71057889D01*
X79181760Y-71129317D01*
X79090071Y-71218845D01*
X78987993Y-71320434D01*
X78881474Y-71428043D01*
X78776464Y-71535632D01*
X78678909Y-71637160D01*
X78594758Y-71726586D01*
X78529960Y-71797871D01*
X78490462Y-71844973D01*
X78481020Y-71860737D01*
X78494609Y-71889798D01*
X78532707Y-71953466D01*
X78591306Y-72045512D01*
X78666403Y-72159709D01*
X78753991Y-72289829D01*
X78804746Y-72364046D01*
X78897255Y-72499567D01*
X78979460Y-72621861D01*
X79047370Y-72724840D01*
X79097000Y-72802418D01*
X79124360Y-72848506D01*
X79128471Y-72858192D01*
X79119151Y-72885719D01*
X79093746Y-72949873D01*
X79056089Y-73041635D01*
X79010014Y-73151984D01*
X78959354Y-73271900D01*
X78907941Y-73392364D01*
X78859611Y-73504354D01*
X78818194Y-73598852D01*
X78787526Y-73666837D01*
X78771438Y-73699288D01*
X78770489Y-73700565D01*
X78745228Y-73706762D01*
X78677954Y-73720585D01*
X78575640Y-73740677D01*
X78445259Y-73765679D01*
X78293784Y-73794231D01*
X78205406Y-73810696D01*
X78043548Y-73841514D01*
X77897351Y-73870839D01*
X77774213Y-73897066D01*
X77681531Y-73918591D01*
X77626699Y-73933810D01*
X77615677Y-73938638D01*
X77604881Y-73971319D01*
X77596171Y-74045130D01*
X77589540Y-74151437D01*
X77584982Y-74281612D01*
X77582491Y-74427021D01*
X77582062Y-74579035D01*
X77583689Y-74729022D01*
X77587365Y-74868351D01*
X77593085Y-74988390D01*
X77600842Y-75080510D01*
X77610632Y-75136077D01*
X77616504Y-75147645D01*
X77651601Y-75161510D01*
X77725972Y-75181333D01*
X77829777Y-75204784D01*
X77953181Y-75229536D01*
X77996259Y-75237543D01*
X78203953Y-75275586D01*
X78368016Y-75306224D01*
X78493870Y-75330674D01*
X78586935Y-75350154D01*
X78652633Y-75365881D01*
X78696383Y-75379073D01*
X78723608Y-75390949D01*
X78739728Y-75402725D01*
X78741983Y-75405053D01*
X78764497Y-75442545D01*
X78798842Y-75515510D01*
X78841589Y-75615012D01*
X78889308Y-75732118D01*
X78938570Y-75857893D01*
X78985945Y-75983402D01*
X79028005Y-76099710D01*
X79061320Y-76197884D01*
X79082459Y-76268988D01*
X79087995Y-76304087D01*
X79087534Y-76305317D01*
X79068777Y-76334006D01*
X79026224Y-76397130D01*
X78964347Y-76488118D01*
X78887618Y-76600400D01*
X78800509Y-76727405D01*
X78775701Y-76763498D01*
X78687247Y-76894348D01*
X78609412Y-77013736D01*
X78546434Y-77114807D01*
X78502555Y-77190704D01*
X78482015Y-77234572D01*
X78481020Y-77239962D01*
X78498278Y-77268289D01*
X78545964Y-77324406D01*
X78617950Y-77402282D01*
X78708103Y-77495885D01*
X78810295Y-77599186D01*
X78918394Y-77706151D01*
X79026272Y-77810751D01*
X79127796Y-77906954D01*
X79216838Y-77988729D01*
X79287267Y-78050045D01*
X79332953Y-78084871D01*
X79345591Y-78090557D01*
X79375009Y-78077165D01*
X79435239Y-78041044D01*
X79516470Y-77988281D01*
X79578970Y-77945812D01*
X79692215Y-77867885D01*
X79826326Y-77776129D01*
X79960845Y-77684520D01*
X80033167Y-77635491D01*
X80277962Y-77469915D01*
X80483449Y-77581020D01*
X80577064Y-77629693D01*
X80656670Y-77667526D01*
X80710533Y-77689103D01*
X80724243Y-77692106D01*
X80740730Y-77669938D01*
X80773255Y-77607294D01*
X80819391Y-77509954D01*
X80876710Y-77383694D01*
X80942784Y-77234295D01*
X81015185Y-77067533D01*
X81091484Y-76889187D01*
X81169254Y-76705036D01*
X81246066Y-76520857D01*
X81319494Y-76342430D01*
X81387108Y-76175532D01*
X81446480Y-76025942D01*
X81495184Y-75899438D01*
X81530790Y-75801799D01*
X81550870Y-75738802D01*
X81554100Y-75717166D01*
X81528504Y-75689569D01*
X81472461Y-75644770D01*
X81397689Y-75592079D01*
X81391413Y-75587910D01*
X81198155Y-75433214D01*
X81042326Y-75252736D01*
X80925276Y-75052247D01*
X80848355Y-74837519D01*
X80812914Y-74614322D01*
X80820303Y-74388426D01*
X80871873Y-74165604D01*
X80968974Y-73951624D01*
X80997542Y-73904809D01*
X81146132Y-73715763D01*
X81321673Y-73563957D01*
X81518090Y-73450179D01*
X81729307Y-73375220D01*
X81949247Y-73339867D01*
X82171837Y-73344912D01*
X82390999Y-73391144D01*
X82600658Y-73479351D01*
X82794739Y-73610324D01*
X82854774Y-73663482D01*
X83007565Y-73829884D01*
X83118903Y-74005057D01*
X83195277Y-74201411D01*
X83237813Y-74395862D01*
X83248314Y-74614487D01*
X83213299Y-74834197D01*
X83136327Y-75047565D01*
X83020953Y-75247167D01*
X82870734Y-75425574D01*
X82689227Y-75575362D01*
X82665373Y-75591151D01*
X82589799Y-75642857D01*
X82532349Y-75687657D01*
X82504883Y-75716262D01*
X82504483Y-75717166D01*
X82510380Y-75748109D01*
X82533755Y-75818336D01*
X82572179Y-75922070D01*
X82623223Y-76053535D01*
X82684458Y-76206952D01*
X82753456Y-76376546D01*
X82827786Y-76556538D01*
X82905022Y-76741153D01*
X82982732Y-76924613D01*
X83058489Y-77101141D01*
X83129863Y-77264959D01*
X83194426Y-77410292D01*
X83249748Y-77531362D01*
X83293400Y-77622392D01*
X83322954Y-77677605D01*
X83334856Y-77692106D01*
X83371223Y-77680814D01*
X83439270Y-77650530D01*
X83527263Y-77606665D01*
X83575649Y-77581020D01*
X83781137Y-77469915D01*
X84025932Y-77635491D01*
X84150894Y-77720315D01*
X84287705Y-77813661D01*
X84415911Y-77901553D01*
X84480129Y-77945812D01*
X84570449Y-78006463D01*
X84646929Y-78054526D01*
X84699593Y-78083915D01*
X84716698Y-78090127D01*
X84741595Y-78073368D01*
X84796695Y-78026581D01*
X84876657Y-77954625D01*
X84976139Y-77862357D01*
X85089800Y-77754635D01*
X85161685Y-77685471D01*
X85287449Y-77561902D01*
X85396137Y-77451379D01*
X85483355Y-77358630D01*
X85544711Y-77288382D01*
X85575809Y-77245365D01*
X85578792Y-77236635D01*
X85564947Y-77203429D01*
X85526688Y-77136287D01*
X85468258Y-77042008D01*
X85393903Y-76927390D01*
X85307865Y-76799228D01*
X85283397Y-76763498D01*
X85194245Y-76633634D01*
X85114262Y-76516714D01*
X85047920Y-76419307D01*
X84999689Y-76347984D01*
X84974043Y-76309315D01*
X84971565Y-76305317D01*
X84975271Y-76274500D01*
X84994939Y-76206744D01*
X85027140Y-76110984D01*
X85068445Y-75996154D01*
X85115425Y-75871189D01*
X85164651Y-75745024D01*
X85212692Y-75626593D01*
X85256119Y-75524830D01*
X85291504Y-75448671D01*
X85315416Y-75407049D01*
X85317116Y-75405053D01*
X85331738Y-75393158D01*
X85356435Y-75381395D01*
X85396628Y-75368546D01*
X85457737Y-75353394D01*
X85545183Y-75334721D01*
X85664388Y-75311310D01*
X85820773Y-75281942D01*
X86019757Y-75245400D01*
X86062840Y-75237543D01*
X86190529Y-75212872D01*
X86301847Y-75188738D01*
X86386955Y-75167469D01*
X86436017Y-75151393D01*
X86442595Y-75147645D01*
X86453436Y-75114418D01*
X86462247Y-75040166D01*
X86469024Y-74933521D01*
X86473760Y-74803112D01*
X86476450Y-74657572D01*
X86477087Y-74505531D01*
X86475666Y-74355621D01*
X86472180Y-74216473D01*
X86466624Y-74096717D01*
X86458992Y-74004986D01*
X86449278Y-73949911D01*
X86443422Y-73938638D01*
X86410820Y-73927268D01*
X86336582Y-73908769D01*
X86228104Y-73884747D01*
X86092783Y-73856807D01*
X85938015Y-73826553D01*
X85853692Y-73810696D01*
X85693704Y-73780789D01*
X85551033Y-73753695D01*
X85432652Y-73730776D01*
X85345535Y-73713388D01*
X85296655Y-73702892D01*
X85288610Y-73700565D01*
X85275013Y-73674331D01*
X85246271Y-73611140D01*
X85206215Y-73520022D01*
X85158676Y-73410002D01*
X85107485Y-73290110D01*
X85056474Y-73169372D01*
X85009474Y-73056816D01*
X84970316Y-72961471D01*
X84942831Y-72892362D01*
X84930851Y-72858519D01*
X84930628Y-72857040D01*
X84944209Y-72830342D01*
X84982285Y-72768905D01*
X85040853Y-72678834D01*
X85115912Y-72566235D01*
X85203460Y-72437215D01*
X85254353Y-72363106D01*
X85347091Y-72227222D01*
X85429459Y-72103854D01*
X85497439Y-71999242D01*
X85547012Y-71919628D01*
X85574158Y-71871252D01*
X85578079Y-71860407D01*
X85561225Y-71835165D01*
X85514632Y-71781269D01*
X85444251Y-71704758D01*
X85356035Y-71611668D01*
X85255935Y-71508040D01*
X85149902Y-71399909D01*
X85043889Y-71293315D01*
X84943848Y-71194295D01*
X84855730Y-71108887D01*
X84785487Y-71043130D01*
X84739072Y-71003061D01*
X84723544Y-70993498D01*
X84698261Y-71006945D01*
X84637789Y-71044720D01*
X84548008Y-71102980D01*
X84434797Y-71177879D01*
X84304036Y-71265570D01*
X84205400Y-71332378D01*
X83707043Y-71671257D01*
X83291629Y-71500010D01*
X82876216Y-71328763D01*
X82763634Y-70731572D01*
X82651051Y-70134380D01*
X81408048Y-70134380D01*
X81295465Y-70731572D01*
G37*
X81295465Y-70731572D02*
X81182883Y-71328763D01*
X80767469Y-71500010D01*
X80352056Y-71671257D01*
X79853698Y-71332378D01*
X79714132Y-71238022D01*
X79587972Y-71153775D01*
X79481105Y-71083483D01*
X79399418Y-71030992D01*
X79348799Y-71000149D01*
X79335014Y-70993498D01*
X79310180Y-71010603D01*
X79257112Y-71057889D01*
X79181760Y-71129317D01*
X79090071Y-71218845D01*
X78987993Y-71320434D01*
X78881474Y-71428043D01*
X78776464Y-71535632D01*
X78678909Y-71637160D01*
X78594758Y-71726586D01*
X78529960Y-71797871D01*
X78490462Y-71844973D01*
X78481020Y-71860737D01*
X78494609Y-71889798D01*
X78532707Y-71953466D01*
X78591306Y-72045512D01*
X78666403Y-72159709D01*
X78753991Y-72289829D01*
X78804746Y-72364046D01*
X78897255Y-72499567D01*
X78979460Y-72621861D01*
X79047370Y-72724840D01*
X79097000Y-72802418D01*
X79124360Y-72848506D01*
X79128471Y-72858192D01*
X79119151Y-72885719D01*
X79093746Y-72949873D01*
X79056089Y-73041635D01*
X79010014Y-73151984D01*
X78959354Y-73271900D01*
X78907941Y-73392364D01*
X78859611Y-73504354D01*
X78818194Y-73598852D01*
X78787526Y-73666837D01*
X78771438Y-73699288D01*
X78770489Y-73700565D01*
X78745228Y-73706762D01*
X78677954Y-73720585D01*
X78575640Y-73740677D01*
X78445259Y-73765679D01*
X78293784Y-73794231D01*
X78205406Y-73810696D01*
X78043548Y-73841514D01*
X77897351Y-73870839D01*
X77774213Y-73897066D01*
X77681531Y-73918591D01*
X77626699Y-73933810D01*
X77615677Y-73938638D01*
X77604881Y-73971319D01*
X77596171Y-74045130D01*
X77589540Y-74151437D01*
X77584982Y-74281612D01*
X77582491Y-74427021D01*
X77582062Y-74579035D01*
X77583689Y-74729022D01*
X77587365Y-74868351D01*
X77593085Y-74988390D01*
X77600842Y-75080510D01*
X77610632Y-75136077D01*
X77616504Y-75147645D01*
X77651601Y-75161510D01*
X77725972Y-75181333D01*
X77829777Y-75204784D01*
X77953181Y-75229536D01*
X77996259Y-75237543D01*
X78203953Y-75275586D01*
X78368016Y-75306224D01*
X78493870Y-75330674D01*
X78586935Y-75350154D01*
X78652633Y-75365881D01*
X78696383Y-75379073D01*
X78723608Y-75390949D01*
X78739728Y-75402725D01*
X78741983Y-75405053D01*
X78764497Y-75442545D01*
X78798842Y-75515510D01*
X78841589Y-75615012D01*
X78889308Y-75732118D01*
X78938570Y-75857893D01*
X78985945Y-75983402D01*
X79028005Y-76099710D01*
X79061320Y-76197884D01*
X79082459Y-76268988D01*
X79087995Y-76304087D01*
X79087534Y-76305317D01*
X79068777Y-76334006D01*
X79026224Y-76397130D01*
X78964347Y-76488118D01*
X78887618Y-76600400D01*
X78800509Y-76727405D01*
X78775701Y-76763498D01*
X78687247Y-76894348D01*
X78609412Y-77013736D01*
X78546434Y-77114807D01*
X78502555Y-77190704D01*
X78482015Y-77234572D01*
X78481020Y-77239962D01*
X78498278Y-77268289D01*
X78545964Y-77324406D01*
X78617950Y-77402282D01*
X78708103Y-77495885D01*
X78810295Y-77599186D01*
X78918394Y-77706151D01*
X79026272Y-77810751D01*
X79127796Y-77906954D01*
X79216838Y-77988729D01*
X79287267Y-78050045D01*
X79332953Y-78084871D01*
X79345591Y-78090557D01*
X79375009Y-78077165D01*
X79435239Y-78041044D01*
X79516470Y-77988281D01*
X79578970Y-77945812D01*
X79692215Y-77867885D01*
X79826326Y-77776129D01*
X79960845Y-77684520D01*
X80033167Y-77635491D01*
X80277962Y-77469915D01*
X80483449Y-77581020D01*
X80577064Y-77629693D01*
X80656670Y-77667526D01*
X80710533Y-77689103D01*
X80724243Y-77692106D01*
X80740730Y-77669938D01*
X80773255Y-77607294D01*
X80819391Y-77509954D01*
X80876710Y-77383694D01*
X80942784Y-77234295D01*
X81015185Y-77067533D01*
X81091484Y-76889187D01*
X81169254Y-76705036D01*
X81246066Y-76520857D01*
X81319494Y-76342430D01*
X81387108Y-76175532D01*
X81446480Y-76025942D01*
X81495184Y-75899438D01*
X81530790Y-75801799D01*
X81550870Y-75738802D01*
X81554100Y-75717166D01*
X81528504Y-75689569D01*
X81472461Y-75644770D01*
X81397689Y-75592079D01*
X81391413Y-75587910D01*
X81198155Y-75433214D01*
X81042326Y-75252736D01*
X80925276Y-75052247D01*
X80848355Y-74837519D01*
X80812914Y-74614322D01*
X80820303Y-74388426D01*
X80871873Y-74165604D01*
X80968974Y-73951624D01*
X80997542Y-73904809D01*
X81146132Y-73715763D01*
X81321673Y-73563957D01*
X81518090Y-73450179D01*
X81729307Y-73375220D01*
X81949247Y-73339867D01*
X82171837Y-73344912D01*
X82390999Y-73391144D01*
X82600658Y-73479351D01*
X82794739Y-73610324D01*
X82854774Y-73663482D01*
X83007565Y-73829884D01*
X83118903Y-74005057D01*
X83195277Y-74201411D01*
X83237813Y-74395862D01*
X83248314Y-74614487D01*
X83213299Y-74834197D01*
X83136327Y-75047565D01*
X83020953Y-75247167D01*
X82870734Y-75425574D01*
X82689227Y-75575362D01*
X82665373Y-75591151D01*
X82589799Y-75642857D01*
X82532349Y-75687657D01*
X82504883Y-75716262D01*
X82504483Y-75717166D01*
X82510380Y-75748109D01*
X82533755Y-75818336D01*
X82572179Y-75922070D01*
X82623223Y-76053535D01*
X82684458Y-76206952D01*
X82753456Y-76376546D01*
X82827786Y-76556538D01*
X82905022Y-76741153D01*
X82982732Y-76924613D01*
X83058489Y-77101141D01*
X83129863Y-77264959D01*
X83194426Y-77410292D01*
X83249748Y-77531362D01*
X83293400Y-77622392D01*
X83322954Y-77677605D01*
X83334856Y-77692106D01*
X83371223Y-77680814D01*
X83439270Y-77650530D01*
X83527263Y-77606665D01*
X83575649Y-77581020D01*
X83781137Y-77469915D01*
X84025932Y-77635491D01*
X84150894Y-77720315D01*
X84287705Y-77813661D01*
X84415911Y-77901553D01*
X84480129Y-77945812D01*
X84570449Y-78006463D01*
X84646929Y-78054526D01*
X84699593Y-78083915D01*
X84716698Y-78090127D01*
X84741595Y-78073368D01*
X84796695Y-78026581D01*
X84876657Y-77954625D01*
X84976139Y-77862357D01*
X85089800Y-77754635D01*
X85161685Y-77685471D01*
X85287449Y-77561902D01*
X85396137Y-77451379D01*
X85483355Y-77358630D01*
X85544711Y-77288382D01*
X85575809Y-77245365D01*
X85578792Y-77236635D01*
X85564947Y-77203429D01*
X85526688Y-77136287D01*
X85468258Y-77042008D01*
X85393903Y-76927390D01*
X85307865Y-76799228D01*
X85283397Y-76763498D01*
X85194245Y-76633634D01*
X85114262Y-76516714D01*
X85047920Y-76419307D01*
X84999689Y-76347984D01*
X84974043Y-76309315D01*
X84971565Y-76305317D01*
X84975271Y-76274500D01*
X84994939Y-76206744D01*
X85027140Y-76110984D01*
X85068445Y-75996154D01*
X85115425Y-75871189D01*
X85164651Y-75745024D01*
X85212692Y-75626593D01*
X85256119Y-75524830D01*
X85291504Y-75448671D01*
X85315416Y-75407049D01*
X85317116Y-75405053D01*
X85331738Y-75393158D01*
X85356435Y-75381395D01*
X85396628Y-75368546D01*
X85457737Y-75353394D01*
X85545183Y-75334721D01*
X85664388Y-75311310D01*
X85820773Y-75281942D01*
X86019757Y-75245400D01*
X86062840Y-75237543D01*
X86190529Y-75212872D01*
X86301847Y-75188738D01*
X86386955Y-75167469D01*
X86436017Y-75151393D01*
X86442595Y-75147645D01*
X86453436Y-75114418D01*
X86462247Y-75040166D01*
X86469024Y-74933521D01*
X86473760Y-74803112D01*
X86476450Y-74657572D01*
X86477087Y-74505531D01*
X86475666Y-74355621D01*
X86472180Y-74216473D01*
X86466624Y-74096717D01*
X86458992Y-74004986D01*
X86449278Y-73949911D01*
X86443422Y-73938638D01*
X86410820Y-73927268D01*
X86336582Y-73908769D01*
X86228104Y-73884747D01*
X86092783Y-73856807D01*
X85938015Y-73826553D01*
X85853692Y-73810696D01*
X85693704Y-73780789D01*
X85551033Y-73753695D01*
X85432652Y-73730776D01*
X85345535Y-73713388D01*
X85296655Y-73702892D01*
X85288610Y-73700565D01*
X85275013Y-73674331D01*
X85246271Y-73611140D01*
X85206215Y-73520022D01*
X85158676Y-73410002D01*
X85107485Y-73290110D01*
X85056474Y-73169372D01*
X85009474Y-73056816D01*
X84970316Y-72961471D01*
X84942831Y-72892362D01*
X84930851Y-72858519D01*
X84930628Y-72857040D01*
X84944209Y-72830342D01*
X84982285Y-72768905D01*
X85040853Y-72678834D01*
X85115912Y-72566235D01*
X85203460Y-72437215D01*
X85254353Y-72363106D01*
X85347091Y-72227222D01*
X85429459Y-72103854D01*
X85497439Y-71999242D01*
X85547012Y-71919628D01*
X85574158Y-71871252D01*
X85578079Y-71860407D01*
X85561225Y-71835165D01*
X85514632Y-71781269D01*
X85444251Y-71704758D01*
X85356035Y-71611668D01*
X85255935Y-71508040D01*
X85149902Y-71399909D01*
X85043889Y-71293315D01*
X84943848Y-71194295D01*
X84855730Y-71108887D01*
X84785487Y-71043130D01*
X84739072Y-71003061D01*
X84723544Y-70993498D01*
X84698261Y-71006945D01*
X84637789Y-71044720D01*
X84548008Y-71102980D01*
X84434797Y-71177879D01*
X84304036Y-71265570D01*
X84205400Y-71332378D01*
X83707043Y-71671257D01*
X83291629Y-71500010D01*
X82876216Y-71328763D01*
X82763634Y-70731572D01*
X82651051Y-70134380D01*
X81408048Y-70134380D01*
X81295465Y-70731572D01*
G36*
X50770946Y-135788400D02*
G01*
X50657007Y-135777535D01*
X50549384Y-135745918D01*
X50450385Y-135695015D01*
X50362316Y-135626293D01*
X50287484Y-135541219D01*
X50229616Y-135444232D01*
X50189995Y-135337964D01*
X50171427Y-135230950D01*
X50172566Y-135125300D01*
X50192070Y-135023125D01*
X50228594Y-134926534D01*
X50280795Y-134837638D01*
X50347327Y-134758546D01*
X50426848Y-134691369D01*
X50518013Y-134638217D01*
X50619477Y-134601199D01*
X50729898Y-134582427D01*
X50779794Y-134580489D01*
X50867733Y-134580489D01*
X50867733Y-134528560D01*
X50864889Y-134492253D01*
X50853089Y-134465355D01*
X50829351Y-134438249D01*
X50790969Y-134399867D01*
X48599398Y-134399867D01*
X48337261Y-134399876D01*
X48096759Y-134399908D01*
X47876952Y-134399972D01*
X47676899Y-134400076D01*
X47495656Y-134400227D01*
X47332284Y-134400434D01*
X47185840Y-134400706D01*
X47055383Y-134401050D01*
X46939971Y-134401474D01*
X46838662Y-134401987D01*
X46750516Y-134402597D01*
X46674590Y-134403312D01*
X46609943Y-134404140D01*
X46555633Y-134405089D01*
X46510720Y-134406167D01*
X46474260Y-134407383D01*
X46445313Y-134408745D01*
X46422937Y-134410261D01*
X46406191Y-134411938D01*
X46394132Y-134413786D01*
X46385820Y-134415813D01*
X46380313Y-134418025D01*
X46378463Y-134419108D01*
X46371451Y-134423271D01*
X46365004Y-134426805D01*
X46359100Y-134430635D01*
X46353714Y-134435682D01*
X46348822Y-134442871D01*
X46344402Y-134453123D01*
X46340428Y-134467364D01*
X46336879Y-134486514D01*
X46333730Y-134511499D01*
X46330958Y-134543240D01*
X46328539Y-134582662D01*
X46326449Y-134630686D01*
X46324665Y-134688237D01*
X46323163Y-134756237D01*
X46321920Y-134835610D01*
X46320911Y-134927279D01*
X46320115Y-135032166D01*
X46319506Y-135151196D01*
X46319061Y-135285290D01*
X46318757Y-135435373D01*
X46318570Y-135602367D01*
X46318476Y-135787196D01*
X46318452Y-135990783D01*
X46318475Y-136214050D01*
X46318520Y-136457922D01*
X46318563Y-136723321D01*
X46318568Y-136761704D01*
X46318611Y-137028682D01*
X46318682Y-137274002D01*
X46318787Y-137498583D01*
X46318934Y-137703345D01*
X46319131Y-137889206D01*
X46319384Y-138057088D01*
X46319700Y-138207908D01*
X46320087Y-138342587D01*
X46320553Y-138462044D01*
X46321103Y-138567199D01*
X46321747Y-138658971D01*
X46322489Y-138738279D01*
X46323339Y-138806043D01*
X46324303Y-138863182D01*
X46325389Y-138910617D01*
X46326603Y-138949266D01*
X46327953Y-138980049D01*
X46329445Y-139003885D01*
X46331089Y-139021694D01*
X46332889Y-139034395D01*
X46334855Y-139042908D01*
X46336523Y-139047266D01*
X46340094Y-139055728D01*
X46342730Y-139063497D01*
X46345366Y-139070602D01*
X46348938Y-139077073D01*
X46354379Y-139082939D01*
X46362625Y-139088229D01*
X46374610Y-139092974D01*
X46391269Y-139097202D01*
X46413537Y-139100943D01*
X46442348Y-139104227D01*
X46478637Y-139107083D01*
X46523339Y-139109540D01*
X46577389Y-139111629D01*
X46641721Y-139113378D01*
X46717270Y-139114817D01*
X46804970Y-139115976D01*
X46905757Y-139116883D01*
X47020566Y-139117569D01*
X47150330Y-139118063D01*
X47295985Y-139118395D01*
X47458465Y-139118593D01*
X47638705Y-139118687D01*
X47837640Y-139118708D01*
X48056204Y-139118685D01*
X48295332Y-139118646D01*
X48555960Y-139118622D01*
X48598111Y-139118622D01*
X48861008Y-139118636D01*
X49102268Y-139118661D01*
X49322835Y-139118671D01*
X49523648Y-139118642D01*
X49705651Y-139118548D01*
X49869784Y-139118362D01*
X50016989Y-139118059D01*
X50148208Y-139117614D01*
X50258133Y-139117034D01*
X50258133Y-138814197D01*
X50200289Y-138774407D01*
X50184521Y-138763236D01*
X50170559Y-138753166D01*
X50157216Y-138744138D01*
X50143307Y-138736097D01*
X50127644Y-138728986D01*
X50109042Y-138722747D01*
X50086314Y-138717325D01*
X50058273Y-138712662D01*
X50023733Y-138708701D01*
X49981508Y-138705385D01*
X49930411Y-138702659D01*
X49869256Y-138700464D01*
X49796856Y-138698745D01*
X49712025Y-138697444D01*
X49613578Y-138696505D01*
X49500326Y-138695870D01*
X49371084Y-138695484D01*
X49224666Y-138695288D01*
X49059884Y-138695227D01*
X48875553Y-138695243D01*
X48670487Y-138695280D01*
X48547867Y-138695289D01*
X48330918Y-138695265D01*
X48135358Y-138695231D01*
X47960001Y-138695243D01*
X47803659Y-138695358D01*
X47665143Y-138695630D01*
X47543266Y-138696118D01*
X47436840Y-138696876D01*
X47344678Y-138697962D01*
X47265591Y-138699431D01*
X47198392Y-138701340D01*
X47141893Y-138703744D01*
X47094907Y-138706701D01*
X47056245Y-138710266D01*
X47024720Y-138714495D01*
X46999145Y-138719446D01*
X46978330Y-138725173D01*
X46961089Y-138731733D01*
X46946235Y-138739183D01*
X46932578Y-138747579D01*
X46918931Y-138756976D01*
X46904107Y-138767432D01*
X46895217Y-138773523D01*
X46837600Y-138812296D01*
X46837600Y-138280732D01*
X46837635Y-138157483D01*
X46837785Y-138054987D01*
X46838122Y-137971420D01*
X46838714Y-137904956D01*
X46839633Y-137853771D01*
X46840949Y-137816041D01*
X46842731Y-137789940D01*
X46845049Y-137773644D01*
X46847974Y-137765328D01*
X46851576Y-137763168D01*
X46855925Y-137765339D01*
X46857355Y-137766535D01*
X46894427Y-137791685D01*
X46947228Y-137817583D01*
X47009230Y-137841192D01*
X47035643Y-137849461D01*
X47053584Y-137854078D01*
X47074645Y-137857979D01*
X47100911Y-137861248D01*
X47134468Y-137863966D01*
X47177401Y-137866215D01*
X47231796Y-137868077D01*
X47299738Y-137869636D01*
X47383312Y-137870972D01*
X47484605Y-137872169D01*
X47605700Y-137873308D01*
X47650400Y-137873685D01*
X47775551Y-137874702D01*
X47879918Y-137875460D01*
X47965293Y-137875903D01*
X48033467Y-137875970D01*
X48086235Y-137875605D01*
X48125386Y-137874748D01*
X48152715Y-137873341D01*
X48170014Y-137871325D01*
X48179074Y-137868643D01*
X48181688Y-137865236D01*
X48179649Y-137861044D01*
X48175333Y-137856571D01*
X48162398Y-137846216D01*
X48133324Y-137824158D01*
X48090241Y-137791957D01*
X48035282Y-137751174D01*
X47970577Y-137703370D01*
X47898258Y-137650105D01*
X47820456Y-137592940D01*
X47739302Y-137533437D01*
X47656928Y-137473155D01*
X47575464Y-137413655D01*
X47497043Y-137356498D01*
X47423796Y-137303245D01*
X47357853Y-137255457D01*
X47301346Y-137214693D01*
X47256407Y-137182516D01*
X47225166Y-137160485D01*
X47218534Y-137155917D01*
X47181631Y-137132996D01*
X47133641Y-137106188D01*
X47084103Y-137080789D01*
X47077423Y-137077568D01*
X47029228Y-137055890D01*
X46991666Y-137043304D01*
X46955840Y-137037574D01*
X46913800Y-137036456D01*
X46837600Y-137037090D01*
X46837600Y-135882651D01*
X46931331Y-135973815D01*
X46981225Y-136020612D01*
X47037705Y-136070899D01*
X47091974Y-136116944D01*
X47117327Y-136137369D01*
X47156872Y-136167807D01*
X47210084Y-136207862D01*
X47275333Y-136256361D01*
X47350989Y-136312135D01*
X47435423Y-136374011D01*
X47527006Y-136440819D01*
X47624108Y-136511387D01*
X47725099Y-136584545D01*
X47828350Y-136659121D01*
X47932232Y-136733944D01*
X48035115Y-136807843D01*
X48135369Y-136879646D01*
X48231364Y-136948184D01*
X48321473Y-137012284D01*
X48404064Y-137070775D01*
X48477508Y-137122486D01*
X48540176Y-137166247D01*
X48590439Y-137200885D01*
X48626666Y-137225230D01*
X48647229Y-137238111D01*
X48651332Y-137239869D01*
X48662658Y-137231910D01*
X48689838Y-137211115D01*
X48731171Y-137178847D01*
X48784956Y-137136470D01*
X48849494Y-137085347D01*
X48923082Y-137026841D01*
X49004022Y-136962314D01*
X49090612Y-136893131D01*
X49181152Y-136820653D01*
X49273940Y-136746246D01*
X49348298Y-136686517D01*
X49348298Y-135675511D01*
X49335341Y-135669602D01*
X49313092Y-135655272D01*
X49311609Y-135654225D01*
X49281456Y-135635438D01*
X49244625Y-135615791D01*
X49236489Y-135611892D01*
X49228060Y-135608356D01*
X49217941Y-135605230D01*
X49204740Y-135602486D01*
X49187062Y-135600092D01*
X49163516Y-135598019D01*
X49132707Y-135596235D01*
X49093243Y-135594712D01*
X49043731Y-135593419D01*
X48982777Y-135592326D01*
X48908989Y-135591403D01*
X48820972Y-135590619D01*
X48717335Y-135589945D01*
X48596684Y-135589350D01*
X48457626Y-135588805D01*
X48298768Y-135588279D01*
X48119911Y-135587745D01*
X47934793Y-135587206D01*
X47770855Y-135586772D01*
X47626697Y-135586509D01*
X47500921Y-135586484D01*
X47392129Y-135586765D01*
X47298923Y-135587419D01*
X47219903Y-135588514D01*
X47153672Y-135590118D01*
X47098830Y-135592297D01*
X47053979Y-135595119D01*
X47017722Y-135598651D01*
X46988659Y-135602961D01*
X46965391Y-135608117D01*
X46946521Y-135614185D01*
X46930649Y-135621233D01*
X46916378Y-135629329D01*
X46902309Y-135638540D01*
X46889842Y-135647040D01*
X46863548Y-135664176D01*
X46845963Y-135674322D01*
X46842743Y-135675511D01*
X46841666Y-135664604D01*
X46840665Y-135633411D01*
X46839765Y-135584223D01*
X46838990Y-135519333D01*
X46838363Y-135441030D01*
X46837909Y-135351607D01*
X46837651Y-135253356D01*
X46837600Y-135184445D01*
X46837820Y-135079452D01*
X46838452Y-134982610D01*
X46839451Y-134896107D01*
X46840773Y-134822132D01*
X46842374Y-134762874D01*
X46844209Y-134720520D01*
X46846235Y-134697260D01*
X46847507Y-134693378D01*
X46862409Y-134701076D01*
X46870440Y-134709074D01*
X46887566Y-134722246D01*
X46917817Y-134739485D01*
X46942378Y-134751407D01*
X47001289Y-134778045D01*
X48178155Y-134781120D01*
X49355022Y-134784195D01*
X49355022Y-135229853D01*
X49354858Y-135327670D01*
X49354389Y-135418064D01*
X49353653Y-135498630D01*
X49352684Y-135566962D01*
X49351520Y-135620656D01*
X49350197Y-135657305D01*
X49348751Y-135674504D01*
X49348298Y-135675511D01*
X49348298Y-136686517D01*
X49367278Y-136671270D01*
X49459463Y-136597090D01*
X49548796Y-136525069D01*
X49633576Y-136456569D01*
X49712102Y-136392955D01*
X49782674Y-136335588D01*
X49843591Y-136285833D01*
X49893153Y-136245052D01*
X49913822Y-136227888D01*
X50014484Y-136141596D01*
X50097741Y-136064997D01*
X50165562Y-135996183D01*
X50219911Y-135933248D01*
X50227278Y-135923867D01*
X50257883Y-135884356D01*
X50258133Y-137016116D01*
X50210156Y-137010827D01*
X50152812Y-137014130D01*
X50084537Y-137035661D01*
X50004788Y-137075635D01*
X49932505Y-137120943D01*
X49909860Y-137137161D01*
X49872304Y-137165214D01*
X49821979Y-137203430D01*
X49761027Y-137250137D01*
X49691589Y-137303661D01*
X49615806Y-137362331D01*
X49535820Y-137424475D01*
X49453772Y-137488421D01*
X49371804Y-137552495D01*
X49292057Y-137615027D01*
X49216673Y-137674343D01*
X49147793Y-137728771D01*
X49087558Y-137776639D01*
X49038111Y-137816275D01*
X49001592Y-137846006D01*
X48980142Y-137864161D01*
X48976844Y-137867220D01*
X48984851Y-137870079D01*
X49015145Y-137872293D01*
X49067444Y-137873857D01*
X49141469Y-137874767D01*
X49236937Y-137875020D01*
X49353566Y-137874613D01*
X49473555Y-137873704D01*
X49605667Y-137872382D01*
X49717406Y-137870857D01*
X49810975Y-137868881D01*
X49888581Y-137866206D01*
X49952426Y-137862582D01*
X50004717Y-137857761D01*
X50047656Y-137851494D01*
X50083449Y-137843532D01*
X50114300Y-137833627D01*
X50142414Y-137821531D01*
X50169995Y-137806993D01*
X50195034Y-137792311D01*
X50258133Y-137754314D01*
X50258133Y-138814197D01*
X50258133Y-139117034D01*
X50264383Y-139117001D01*
X50366456Y-139116195D01*
X50455367Y-139115170D01*
X50532059Y-139113900D01*
X50597473Y-139112360D01*
X50652551Y-139110524D01*
X50698235Y-139108367D01*
X50735466Y-139105863D01*
X50765187Y-139102987D01*
X50788338Y-139099713D01*
X50805861Y-139096015D01*
X50818699Y-139091869D01*
X50827792Y-139087247D01*
X50834082Y-139082126D01*
X50838512Y-139076478D01*
X50842022Y-139070279D01*
X50845555Y-139063504D01*
X50849124Y-139057508D01*
X50851700Y-139052275D01*
X50854028Y-139044099D01*
X50856122Y-139031886D01*
X50857993Y-139014541D01*
X50859653Y-138990969D01*
X50861116Y-138960077D01*
X50862392Y-138920768D01*
X50863496Y-138871950D01*
X50864439Y-138812527D01*
X50865233Y-138741404D01*
X50865891Y-138657488D01*
X50866425Y-138559683D01*
X50866847Y-138446894D01*
X50867171Y-138318029D01*
X50867408Y-138171991D01*
X50867570Y-138007686D01*
X50867670Y-137824020D01*
X50867720Y-137619897D01*
X50867733Y-137408753D01*
X50867733Y-135788400D01*
X50770946Y-135788400D01*
G37*
X50770946Y-135788400D02*
X50657007Y-135777535D01*
X50549384Y-135745918D01*
X50450385Y-135695015D01*
X50362316Y-135626293D01*
X50287484Y-135541219D01*
X50229616Y-135444232D01*
X50189995Y-135337964D01*
X50171427Y-135230950D01*
X50172566Y-135125300D01*
X50192070Y-135023125D01*
X50228594Y-134926534D01*
X50280795Y-134837638D01*
X50347327Y-134758546D01*
X50426848Y-134691369D01*
X50518013Y-134638217D01*
X50619477Y-134601199D01*
X50729898Y-134582427D01*
X50779794Y-134580489D01*
X50867733Y-134580489D01*
X50867733Y-134528560D01*
X50864889Y-134492253D01*
X50853089Y-134465355D01*
X50829351Y-134438249D01*
X50790969Y-134399867D01*
X48599398Y-134399867D01*
X48337261Y-134399876D01*
X48096759Y-134399908D01*
X47876952Y-134399972D01*
X47676899Y-134400076D01*
X47495656Y-134400227D01*
X47332284Y-134400434D01*
X47185840Y-134400706D01*
X47055383Y-134401050D01*
X46939971Y-134401474D01*
X46838662Y-134401987D01*
X46750516Y-134402597D01*
X46674590Y-134403312D01*
X46609943Y-134404140D01*
X46555633Y-134405089D01*
X46510720Y-134406167D01*
X46474260Y-134407383D01*
X46445313Y-134408745D01*
X46422937Y-134410261D01*
X46406191Y-134411938D01*
X46394132Y-134413786D01*
X46385820Y-134415813D01*
X46380313Y-134418025D01*
X46378463Y-134419108D01*
X46371451Y-134423271D01*
X46365004Y-134426805D01*
X46359100Y-134430635D01*
X46353714Y-134435682D01*
X46348822Y-134442871D01*
X46344402Y-134453123D01*
X46340428Y-134467364D01*
X46336879Y-134486514D01*
X46333730Y-134511499D01*
X46330958Y-134543240D01*
X46328539Y-134582662D01*
X46326449Y-134630686D01*
X46324665Y-134688237D01*
X46323163Y-134756237D01*
X46321920Y-134835610D01*
X46320911Y-134927279D01*
X46320115Y-135032166D01*
X46319506Y-135151196D01*
X46319061Y-135285290D01*
X46318757Y-135435373D01*
X46318570Y-135602367D01*
X46318476Y-135787196D01*
X46318452Y-135990783D01*
X46318475Y-136214050D01*
X46318520Y-136457922D01*
X46318563Y-136723321D01*
X46318568Y-136761704D01*
X46318611Y-137028682D01*
X46318682Y-137274002D01*
X46318787Y-137498583D01*
X46318934Y-137703345D01*
X46319131Y-137889206D01*
X46319384Y-138057088D01*
X46319700Y-138207908D01*
X46320087Y-138342587D01*
X46320553Y-138462044D01*
X46321103Y-138567199D01*
X46321747Y-138658971D01*
X46322489Y-138738279D01*
X46323339Y-138806043D01*
X46324303Y-138863182D01*
X46325389Y-138910617D01*
X46326603Y-138949266D01*
X46327953Y-138980049D01*
X46329445Y-139003885D01*
X46331089Y-139021694D01*
X46332889Y-139034395D01*
X46334855Y-139042908D01*
X46336523Y-139047266D01*
X46340094Y-139055728D01*
X46342730Y-139063497D01*
X46345366Y-139070602D01*
X46348938Y-139077073D01*
X46354379Y-139082939D01*
X46362625Y-139088229D01*
X46374610Y-139092974D01*
X46391269Y-139097202D01*
X46413537Y-139100943D01*
X46442348Y-139104227D01*
X46478637Y-139107083D01*
X46523339Y-139109540D01*
X46577389Y-139111629D01*
X46641721Y-139113378D01*
X46717270Y-139114817D01*
X46804970Y-139115976D01*
X46905757Y-139116883D01*
X47020566Y-139117569D01*
X47150330Y-139118063D01*
X47295985Y-139118395D01*
X47458465Y-139118593D01*
X47638705Y-139118687D01*
X47837640Y-139118708D01*
X48056204Y-139118685D01*
X48295332Y-139118646D01*
X48555960Y-139118622D01*
X48598111Y-139118622D01*
X48861008Y-139118636D01*
X49102268Y-139118661D01*
X49322835Y-139118671D01*
X49523648Y-139118642D01*
X49705651Y-139118548D01*
X49869784Y-139118362D01*
X50016989Y-139118059D01*
X50148208Y-139117614D01*
X50258133Y-139117034D01*
X50258133Y-138814197D01*
X50200289Y-138774407D01*
X50184521Y-138763236D01*
X50170559Y-138753166D01*
X50157216Y-138744138D01*
X50143307Y-138736097D01*
X50127644Y-138728986D01*
X50109042Y-138722747D01*
X50086314Y-138717325D01*
X50058273Y-138712662D01*
X50023733Y-138708701D01*
X49981508Y-138705385D01*
X49930411Y-138702659D01*
X49869256Y-138700464D01*
X49796856Y-138698745D01*
X49712025Y-138697444D01*
X49613578Y-138696505D01*
X49500326Y-138695870D01*
X49371084Y-138695484D01*
X49224666Y-138695288D01*
X49059884Y-138695227D01*
X48875553Y-138695243D01*
X48670487Y-138695280D01*
X48547867Y-138695289D01*
X48330918Y-138695265D01*
X48135358Y-138695231D01*
X47960001Y-138695243D01*
X47803659Y-138695358D01*
X47665143Y-138695630D01*
X47543266Y-138696118D01*
X47436840Y-138696876D01*
X47344678Y-138697962D01*
X47265591Y-138699431D01*
X47198392Y-138701340D01*
X47141893Y-138703744D01*
X47094907Y-138706701D01*
X47056245Y-138710266D01*
X47024720Y-138714495D01*
X46999145Y-138719446D01*
X46978330Y-138725173D01*
X46961089Y-138731733D01*
X46946235Y-138739183D01*
X46932578Y-138747579D01*
X46918931Y-138756976D01*
X46904107Y-138767432D01*
X46895217Y-138773523D01*
X46837600Y-138812296D01*
X46837600Y-138280732D01*
X46837635Y-138157483D01*
X46837785Y-138054987D01*
X46838122Y-137971420D01*
X46838714Y-137904956D01*
X46839633Y-137853771D01*
X46840949Y-137816041D01*
X46842731Y-137789940D01*
X46845049Y-137773644D01*
X46847974Y-137765328D01*
X46851576Y-137763168D01*
X46855925Y-137765339D01*
X46857355Y-137766535D01*
X46894427Y-137791685D01*
X46947228Y-137817583D01*
X47009230Y-137841192D01*
X47035643Y-137849461D01*
X47053584Y-137854078D01*
X47074645Y-137857979D01*
X47100911Y-137861248D01*
X47134468Y-137863966D01*
X47177401Y-137866215D01*
X47231796Y-137868077D01*
X47299738Y-137869636D01*
X47383312Y-137870972D01*
X47484605Y-137872169D01*
X47605700Y-137873308D01*
X47650400Y-137873685D01*
X47775551Y-137874702D01*
X47879918Y-137875460D01*
X47965293Y-137875903D01*
X48033467Y-137875970D01*
X48086235Y-137875605D01*
X48125386Y-137874748D01*
X48152715Y-137873341D01*
X48170014Y-137871325D01*
X48179074Y-137868643D01*
X48181688Y-137865236D01*
X48179649Y-137861044D01*
X48175333Y-137856571D01*
X48162398Y-137846216D01*
X48133324Y-137824158D01*
X48090241Y-137791957D01*
X48035282Y-137751174D01*
X47970577Y-137703370D01*
X47898258Y-137650105D01*
X47820456Y-137592940D01*
X47739302Y-137533437D01*
X47656928Y-137473155D01*
X47575464Y-137413655D01*
X47497043Y-137356498D01*
X47423796Y-137303245D01*
X47357853Y-137255457D01*
X47301346Y-137214693D01*
X47256407Y-137182516D01*
X47225166Y-137160485D01*
X47218534Y-137155917D01*
X47181631Y-137132996D01*
X47133641Y-137106188D01*
X47084103Y-137080789D01*
X47077423Y-137077568D01*
X47029228Y-137055890D01*
X46991666Y-137043304D01*
X46955840Y-137037574D01*
X46913800Y-137036456D01*
X46837600Y-137037090D01*
X46837600Y-135882651D01*
X46931331Y-135973815D01*
X46981225Y-136020612D01*
X47037705Y-136070899D01*
X47091974Y-136116944D01*
X47117327Y-136137369D01*
X47156872Y-136167807D01*
X47210084Y-136207862D01*
X47275333Y-136256361D01*
X47350989Y-136312135D01*
X47435423Y-136374011D01*
X47527006Y-136440819D01*
X47624108Y-136511387D01*
X47725099Y-136584545D01*
X47828350Y-136659121D01*
X47932232Y-136733944D01*
X48035115Y-136807843D01*
X48135369Y-136879646D01*
X48231364Y-136948184D01*
X48321473Y-137012284D01*
X48404064Y-137070775D01*
X48477508Y-137122486D01*
X48540176Y-137166247D01*
X48590439Y-137200885D01*
X48626666Y-137225230D01*
X48647229Y-137238111D01*
X48651332Y-137239869D01*
X48662658Y-137231910D01*
X48689838Y-137211115D01*
X48731171Y-137178847D01*
X48784956Y-137136470D01*
X48849494Y-137085347D01*
X48923082Y-137026841D01*
X49004022Y-136962314D01*
X49090612Y-136893131D01*
X49181152Y-136820653D01*
X49273940Y-136746246D01*
X49348298Y-136686517D01*
X49348298Y-135675511D01*
X49335341Y-135669602D01*
X49313092Y-135655272D01*
X49311609Y-135654225D01*
X49281456Y-135635438D01*
X49244625Y-135615791D01*
X49236489Y-135611892D01*
X49228060Y-135608356D01*
X49217941Y-135605230D01*
X49204740Y-135602486D01*
X49187062Y-135600092D01*
X49163516Y-135598019D01*
X49132707Y-135596235D01*
X49093243Y-135594712D01*
X49043731Y-135593419D01*
X48982777Y-135592326D01*
X48908989Y-135591403D01*
X48820972Y-135590619D01*
X48717335Y-135589945D01*
X48596684Y-135589350D01*
X48457626Y-135588805D01*
X48298768Y-135588279D01*
X48119911Y-135587745D01*
X47934793Y-135587206D01*
X47770855Y-135586772D01*
X47626697Y-135586509D01*
X47500921Y-135586484D01*
X47392129Y-135586765D01*
X47298923Y-135587419D01*
X47219903Y-135588514D01*
X47153672Y-135590118D01*
X47098830Y-135592297D01*
X47053979Y-135595119D01*
X47017722Y-135598651D01*
X46988659Y-135602961D01*
X46965391Y-135608117D01*
X46946521Y-135614185D01*
X46930649Y-135621233D01*
X46916378Y-135629329D01*
X46902309Y-135638540D01*
X46889842Y-135647040D01*
X46863548Y-135664176D01*
X46845963Y-135674322D01*
X46842743Y-135675511D01*
X46841666Y-135664604D01*
X46840665Y-135633411D01*
X46839765Y-135584223D01*
X46838990Y-135519333D01*
X46838363Y-135441030D01*
X46837909Y-135351607D01*
X46837651Y-135253356D01*
X46837600Y-135184445D01*
X46837820Y-135079452D01*
X46838452Y-134982610D01*
X46839451Y-134896107D01*
X46840773Y-134822132D01*
X46842374Y-134762874D01*
X46844209Y-134720520D01*
X46846235Y-134697260D01*
X46847507Y-134693378D01*
X46862409Y-134701076D01*
X46870440Y-134709074D01*
X46887566Y-134722246D01*
X46917817Y-134739485D01*
X46942378Y-134751407D01*
X47001289Y-134778045D01*
X48178155Y-134781120D01*
X49355022Y-134784195D01*
X49355022Y-135229853D01*
X49354858Y-135327670D01*
X49354389Y-135418064D01*
X49353653Y-135498630D01*
X49352684Y-135566962D01*
X49351520Y-135620656D01*
X49350197Y-135657305D01*
X49348751Y-135674504D01*
X49348298Y-135675511D01*
X49348298Y-136686517D01*
X49367278Y-136671270D01*
X49459463Y-136597090D01*
X49548796Y-136525069D01*
X49633576Y-136456569D01*
X49712102Y-136392955D01*
X49782674Y-136335588D01*
X49843591Y-136285833D01*
X49893153Y-136245052D01*
X49913822Y-136227888D01*
X50014484Y-136141596D01*
X50097741Y-136064997D01*
X50165562Y-135996183D01*
X50219911Y-135933248D01*
X50227278Y-135923867D01*
X50257883Y-135884356D01*
X50258133Y-137016116D01*
X50210156Y-137010827D01*
X50152812Y-137014130D01*
X50084537Y-137035661D01*
X50004788Y-137075635D01*
X49932505Y-137120943D01*
X49909860Y-137137161D01*
X49872304Y-137165214D01*
X49821979Y-137203430D01*
X49761027Y-137250137D01*
X49691589Y-137303661D01*
X49615806Y-137362331D01*
X49535820Y-137424475D01*
X49453772Y-137488421D01*
X49371804Y-137552495D01*
X49292057Y-137615027D01*
X49216673Y-137674343D01*
X49147793Y-137728771D01*
X49087558Y-137776639D01*
X49038111Y-137816275D01*
X49001592Y-137846006D01*
X48980142Y-137864161D01*
X48976844Y-137867220D01*
X48984851Y-137870079D01*
X49015145Y-137872293D01*
X49067444Y-137873857D01*
X49141469Y-137874767D01*
X49236937Y-137875020D01*
X49353566Y-137874613D01*
X49473555Y-137873704D01*
X49605667Y-137872382D01*
X49717406Y-137870857D01*
X49810975Y-137868881D01*
X49888581Y-137866206D01*
X49952426Y-137862582D01*
X50004717Y-137857761D01*
X50047656Y-137851494D01*
X50083449Y-137843532D01*
X50114300Y-137833627D01*
X50142414Y-137821531D01*
X50169995Y-137806993D01*
X50195034Y-137792311D01*
X50258133Y-137754314D01*
X50258133Y-138814197D01*
X50258133Y-139117034D01*
X50264383Y-139117001D01*
X50366456Y-139116195D01*
X50455367Y-139115170D01*
X50532059Y-139113900D01*
X50597473Y-139112360D01*
X50652551Y-139110524D01*
X50698235Y-139108367D01*
X50735466Y-139105863D01*
X50765187Y-139102987D01*
X50788338Y-139099713D01*
X50805861Y-139096015D01*
X50818699Y-139091869D01*
X50827792Y-139087247D01*
X50834082Y-139082126D01*
X50838512Y-139076478D01*
X50842022Y-139070279D01*
X50845555Y-139063504D01*
X50849124Y-139057508D01*
X50851700Y-139052275D01*
X50854028Y-139044099D01*
X50856122Y-139031886D01*
X50857993Y-139014541D01*
X50859653Y-138990969D01*
X50861116Y-138960077D01*
X50862392Y-138920768D01*
X50863496Y-138871950D01*
X50864439Y-138812527D01*
X50865233Y-138741404D01*
X50865891Y-138657488D01*
X50866425Y-138559683D01*
X50866847Y-138446894D01*
X50867171Y-138318029D01*
X50867408Y-138171991D01*
X50867570Y-138007686D01*
X50867670Y-137824020D01*
X50867720Y-137619897D01*
X50867733Y-137408753D01*
X50867733Y-135788400D01*
X50770946Y-135788400D01*
G36*
X50310929Y-132513571D02*
G01*
X50289755Y-132353430D01*
X50249615Y-132189490D01*
X50190111Y-132019687D01*
X50110846Y-131841957D01*
X50105301Y-131830690D01*
X50077275Y-131772995D01*
X50053198Y-131721448D01*
X50034751Y-131679809D01*
X50023614Y-131651838D01*
X50021067Y-131642267D01*
X50016059Y-131623050D01*
X50011853Y-131618439D01*
X50001420Y-131623542D01*
X49975132Y-131639582D01*
X49935743Y-131664712D01*
X49886009Y-131697086D01*
X49828685Y-131734857D01*
X49766524Y-131776178D01*
X49702282Y-131819202D01*
X49638715Y-131862083D01*
X49578575Y-131902974D01*
X49524620Y-131940029D01*
X49479603Y-131971400D01*
X49446279Y-131995241D01*
X49427403Y-132009706D01*
X49425213Y-132011691D01*
X49429862Y-132021809D01*
X49447038Y-132044150D01*
X49473560Y-132074720D01*
X49488036Y-132090464D01*
X49563318Y-132186953D01*
X49618759Y-132293664D01*
X49653859Y-132409168D01*
X49668120Y-132532038D01*
X49666949Y-132601439D01*
X49649788Y-132722577D01*
X49613906Y-132831795D01*
X49559041Y-132929418D01*
X49484930Y-133015772D01*
X49391312Y-133091185D01*
X49277924Y-133155982D01*
X49191333Y-133193399D01*
X49055634Y-133237252D01*
X48908150Y-133269572D01*
X48752686Y-133290443D01*
X48593044Y-133299949D01*
X48433027Y-133298173D01*
X48276439Y-133285197D01*
X48127082Y-133261106D01*
X47988760Y-133225982D01*
X47865276Y-133179908D01*
X47831022Y-133163627D01*
X47716936Y-133095380D01*
X47620443Y-133014921D01*
X47542330Y-132923430D01*
X47483383Y-132822089D01*
X47444388Y-132712080D01*
X47426132Y-132594585D01*
X47424789Y-132553117D01*
X47435710Y-132431559D01*
X47468526Y-132311122D01*
X47522561Y-132193334D01*
X47597135Y-132079723D01*
X47675461Y-131988315D01*
X47719992Y-131941785D01*
X47422729Y-131760517D01*
X47348567Y-131715420D01*
X47280354Y-131674181D01*
X47220541Y-131638265D01*
X47171580Y-131609134D01*
X47135921Y-131588250D01*
X47116016Y-131577076D01*
X47112921Y-131575625D01*
X47103282Y-131583854D01*
X47086001Y-131609433D01*
X47062717Y-131649127D01*
X47035066Y-131699703D01*
X47004685Y-131757926D01*
X46973210Y-131820563D01*
X46942278Y-131884379D01*
X46913527Y-131946140D01*
X46888592Y-132002612D01*
X46869111Y-132050562D01*
X46860682Y-132074014D01*
X46822867Y-132207779D01*
X46797864Y-132345673D01*
X46784860Y-132493378D01*
X46782532Y-132620167D01*
X46783627Y-132688122D01*
X46785725Y-132753723D01*
X46788566Y-132811153D01*
X46791894Y-132854597D01*
X46793578Y-132868702D01*
X46822413Y-133007716D01*
X46867532Y-133149243D01*
X46926250Y-133286725D01*
X46995880Y-133413606D01*
X47048559Y-133491111D01*
X47156761Y-133618519D01*
X47283329Y-133736822D01*
X47425134Y-133843828D01*
X47579049Y-133937348D01*
X47741947Y-134015190D01*
X47859244Y-134059044D01*
X48042872Y-134109292D01*
X48237419Y-134142791D01*
X48438675Y-134159551D01*
X48642432Y-134159584D01*
X48844479Y-134142899D01*
X49040608Y-134109507D01*
X49226609Y-134059420D01*
X49238197Y-134055603D01*
X49400250Y-133992719D01*
X49548168Y-133915972D01*
X49686135Y-133822758D01*
X49818339Y-133710473D01*
X49863601Y-133666608D01*
X49987543Y-133530466D01*
X50090085Y-133390509D01*
X50172344Y-133244589D01*
X50235436Y-133090558D01*
X50280477Y-132926268D01*
X50297967Y-132830711D01*
X50313534Y-132671977D01*
X50310929Y-132513571D01*
G37*
X50310929Y-132513571D02*
X50289755Y-132353430D01*
X50249615Y-132189490D01*
X50190111Y-132019687D01*
X50110846Y-131841957D01*
X50105301Y-131830690D01*
X50077275Y-131772995D01*
X50053198Y-131721448D01*
X50034751Y-131679809D01*
X50023614Y-131651838D01*
X50021067Y-131642267D01*
X50016059Y-131623050D01*
X50011853Y-131618439D01*
X50001420Y-131623542D01*
X49975132Y-131639582D01*
X49935743Y-131664712D01*
X49886009Y-131697086D01*
X49828685Y-131734857D01*
X49766524Y-131776178D01*
X49702282Y-131819202D01*
X49638715Y-131862083D01*
X49578575Y-131902974D01*
X49524620Y-131940029D01*
X49479603Y-131971400D01*
X49446279Y-131995241D01*
X49427403Y-132009706D01*
X49425213Y-132011691D01*
X49429862Y-132021809D01*
X49447038Y-132044150D01*
X49473560Y-132074720D01*
X49488036Y-132090464D01*
X49563318Y-132186953D01*
X49618759Y-132293664D01*
X49653859Y-132409168D01*
X49668120Y-132532038D01*
X49666949Y-132601439D01*
X49649788Y-132722577D01*
X49613906Y-132831795D01*
X49559041Y-132929418D01*
X49484930Y-133015772D01*
X49391312Y-133091185D01*
X49277924Y-133155982D01*
X49191333Y-133193399D01*
X49055634Y-133237252D01*
X48908150Y-133269572D01*
X48752686Y-133290443D01*
X48593044Y-133299949D01*
X48433027Y-133298173D01*
X48276439Y-133285197D01*
X48127082Y-133261106D01*
X47988760Y-133225982D01*
X47865276Y-133179908D01*
X47831022Y-133163627D01*
X47716936Y-133095380D01*
X47620443Y-133014921D01*
X47542330Y-132923430D01*
X47483383Y-132822089D01*
X47444388Y-132712080D01*
X47426132Y-132594585D01*
X47424789Y-132553117D01*
X47435710Y-132431559D01*
X47468526Y-132311122D01*
X47522561Y-132193334D01*
X47597135Y-132079723D01*
X47675461Y-131988315D01*
X47719992Y-131941785D01*
X47422729Y-131760517D01*
X47348567Y-131715420D01*
X47280354Y-131674181D01*
X47220541Y-131638265D01*
X47171580Y-131609134D01*
X47135921Y-131588250D01*
X47116016Y-131577076D01*
X47112921Y-131575625D01*
X47103282Y-131583854D01*
X47086001Y-131609433D01*
X47062717Y-131649127D01*
X47035066Y-131699703D01*
X47004685Y-131757926D01*
X46973210Y-131820563D01*
X46942278Y-131884379D01*
X46913527Y-131946140D01*
X46888592Y-132002612D01*
X46869111Y-132050562D01*
X46860682Y-132074014D01*
X46822867Y-132207779D01*
X46797864Y-132345673D01*
X46784860Y-132493378D01*
X46782532Y-132620167D01*
X46783627Y-132688122D01*
X46785725Y-132753723D01*
X46788566Y-132811153D01*
X46791894Y-132854597D01*
X46793578Y-132868702D01*
X46822413Y-133007716D01*
X46867532Y-133149243D01*
X46926250Y-133286725D01*
X46995880Y-133413606D01*
X47048559Y-133491111D01*
X47156761Y-133618519D01*
X47283329Y-133736822D01*
X47425134Y-133843828D01*
X47579049Y-133937348D01*
X47741947Y-134015190D01*
X47859244Y-134059044D01*
X48042872Y-134109292D01*
X48237419Y-134142791D01*
X48438675Y-134159551D01*
X48642432Y-134159584D01*
X48844479Y-134142899D01*
X49040608Y-134109507D01*
X49226609Y-134059420D01*
X49238197Y-134055603D01*
X49400250Y-133992719D01*
X49548168Y-133915972D01*
X49686135Y-133822758D01*
X49818339Y-133710473D01*
X49863601Y-133666608D01*
X49987543Y-133530466D01*
X50090085Y-133390509D01*
X50172344Y-133244589D01*
X50235436Y-133090558D01*
X50280477Y-132926268D01*
X50297967Y-132830711D01*
X50313534Y-132671977D01*
X50310929Y-132513571D01*
G36*
X49393448Y-130168426D02*
G01*
X49373433Y-130016508D01*
X49339798Y-129881244D01*
X49292275Y-129761761D01*
X49230595Y-129657185D01*
X49167035Y-129579576D01*
X49092901Y-129510735D01*
X49013129Y-129456994D01*
X48920909Y-129414090D01*
X48877839Y-129398616D01*
X48838858Y-129385756D01*
X48802711Y-129374554D01*
X48767566Y-129364880D01*
X48731590Y-129356604D01*
X48692950Y-129349597D01*
X48649815Y-129343728D01*
X48600351Y-129338869D01*
X48542727Y-129334890D01*
X48475109Y-129331660D01*
X48395666Y-129329051D01*
X48302564Y-129326933D01*
X48193973Y-129325176D01*
X48068058Y-129323651D01*
X47922988Y-129322228D01*
X47780222Y-129320975D01*
X47624032Y-129319649D01*
X47488761Y-129318444D01*
X47372754Y-129317234D01*
X47274355Y-129315894D01*
X47191907Y-129314300D01*
X47123754Y-129312325D01*
X47068240Y-129309844D01*
X47023708Y-129306731D01*
X46988502Y-129302862D01*
X46960966Y-129298111D01*
X46939444Y-129292352D01*
X46922278Y-129285461D01*
X46907814Y-129277311D01*
X46894394Y-129267777D01*
X46880362Y-129256734D01*
X46874929Y-129252434D01*
X46852090Y-129236614D01*
X46836537Y-129229578D01*
X46836078Y-129229556D01*
X46833879Y-129240433D01*
X46831853Y-129271418D01*
X46830058Y-129320043D01*
X46828549Y-129383837D01*
X46827384Y-129460331D01*
X46826620Y-129547056D01*
X46826314Y-129641543D01*
X46826311Y-129652450D01*
X46826311Y-130075343D01*
X46922378Y-130078605D01*
X47018444Y-130081867D01*
X46967457Y-130143956D01*
X46899943Y-130241286D01*
X46845251Y-130351187D01*
X46815022Y-130437651D01*
X46800334Y-130506722D01*
X46790341Y-130590075D01*
X46785354Y-130679841D01*
X46785687Y-130768155D01*
X46791649Y-130847149D01*
X46797362Y-130883378D01*
X46835224Y-131023397D01*
X46890068Y-131149822D01*
X46961076Y-131261740D01*
X47047432Y-131358238D01*
X47148321Y-131438400D01*
X47262924Y-131501313D01*
X47389016Y-131545688D01*
X47445599Y-131558022D01*
X47507798Y-131565632D01*
X47582637Y-131569261D01*
X47616533Y-131569755D01*
X47619718Y-131569690D01*
X47619718Y-130809752D01*
X47544667Y-130800459D01*
X47480840Y-130772272D01*
X47425202Y-130723803D01*
X47420789Y-130718746D01*
X47385963Y-130670452D01*
X47363380Y-130618743D01*
X47351460Y-130558011D01*
X47348617Y-130482648D01*
X47349022Y-130464541D01*
X47351675Y-130410722D01*
X47357091Y-130370692D01*
X47367255Y-130335676D01*
X47384150Y-130296897D01*
X47389328Y-130286255D01*
X47425156Y-130225604D01*
X47467788Y-130178785D01*
X47483027Y-130166048D01*
X47539538Y-130121378D01*
X47735414Y-130121378D01*
X47814061Y-130121914D01*
X47872012Y-130123604D01*
X47911125Y-130126572D01*
X47933259Y-130130943D01*
X47939726Y-130135028D01*
X47942889Y-130150953D01*
X47945512Y-130184736D01*
X47947345Y-130231660D01*
X47948143Y-130287007D01*
X47948158Y-130295894D01*
X47942904Y-130416670D01*
X47926737Y-130519340D01*
X47899039Y-130605894D01*
X47859192Y-130678319D01*
X47812242Y-130733249D01*
X47754355Y-130777796D01*
X47691307Y-130802520D01*
X47619718Y-130809752D01*
X47619718Y-131569690D01*
X47710288Y-131567822D01*
X47789188Y-131559478D01*
X47860410Y-131543232D01*
X47931136Y-131517595D01*
X47983507Y-131493599D01*
X48078804Y-131434980D01*
X48166830Y-131356883D01*
X48245983Y-131261685D01*
X48314660Y-131151762D01*
X48371259Y-131029490D01*
X48414179Y-130897245D01*
X48429118Y-130832578D01*
X48451223Y-130696396D01*
X48465806Y-130547951D01*
X48472187Y-130396495D01*
X48470555Y-130269936D01*
X48463776Y-130108050D01*
X48522755Y-130115470D01*
X48621908Y-130134762D01*
X48702628Y-130165896D01*
X48765534Y-130209731D01*
X48811244Y-130267129D01*
X48840378Y-130338952D01*
X48853553Y-130426059D01*
X48851389Y-130529314D01*
X48847388Y-130567289D01*
X48822220Y-130708480D01*
X48781186Y-130845293D01*
X48743185Y-130939822D01*
X48723810Y-130984982D01*
X48708240Y-131023415D01*
X48698595Y-131049766D01*
X48696548Y-131057454D01*
X48705626Y-131067198D01*
X48734595Y-131083917D01*
X48783783Y-131107768D01*
X48853516Y-131138907D01*
X48944121Y-131177493D01*
X48959911Y-131184090D01*
X49032228Y-131214147D01*
X49097575Y-131241126D01*
X49153094Y-131263864D01*
X49195928Y-131281194D01*
X49223219Y-131291952D01*
X49232058Y-131295059D01*
X49236813Y-131285060D01*
X49242090Y-131258783D01*
X49245769Y-131230511D01*
X49250526Y-131200354D01*
X49259972Y-131152567D01*
X49273180Y-131091388D01*
X49289224Y-131021054D01*
X49307180Y-130945806D01*
X49314203Y-130917245D01*
X49339791Y-130812184D01*
X49359853Y-130724520D01*
X49375031Y-130649932D01*
X49385965Y-130584097D01*
X49393296Y-130522693D01*
X49397665Y-130461398D01*
X49399713Y-130395890D01*
X49400111Y-130337872D01*
X49393448Y-130168426D01*
G37*
X49393448Y-130168426D02*
X49373433Y-130016508D01*
X49339798Y-129881244D01*
X49292275Y-129761761D01*
X49230595Y-129657185D01*
X49167035Y-129579576D01*
X49092901Y-129510735D01*
X49013129Y-129456994D01*
X48920909Y-129414090D01*
X48877839Y-129398616D01*
X48838858Y-129385756D01*
X48802711Y-129374554D01*
X48767566Y-129364880D01*
X48731590Y-129356604D01*
X48692950Y-129349597D01*
X48649815Y-129343728D01*
X48600351Y-129338869D01*
X48542727Y-129334890D01*
X48475109Y-129331660D01*
X48395666Y-129329051D01*
X48302564Y-129326933D01*
X48193973Y-129325176D01*
X48068058Y-129323651D01*
X47922988Y-129322228D01*
X47780222Y-129320975D01*
X47624032Y-129319649D01*
X47488761Y-129318444D01*
X47372754Y-129317234D01*
X47274355Y-129315894D01*
X47191907Y-129314300D01*
X47123754Y-129312325D01*
X47068240Y-129309844D01*
X47023708Y-129306731D01*
X46988502Y-129302862D01*
X46960966Y-129298111D01*
X46939444Y-129292352D01*
X46922278Y-129285461D01*
X46907814Y-129277311D01*
X46894394Y-129267777D01*
X46880362Y-129256734D01*
X46874929Y-129252434D01*
X46852090Y-129236614D01*
X46836537Y-129229578D01*
X46836078Y-129229556D01*
X46833879Y-129240433D01*
X46831853Y-129271418D01*
X46830058Y-129320043D01*
X46828549Y-129383837D01*
X46827384Y-129460331D01*
X46826620Y-129547056D01*
X46826314Y-129641543D01*
X46826311Y-129652450D01*
X46826311Y-130075343D01*
X46922378Y-130078605D01*
X47018444Y-130081867D01*
X46967457Y-130143956D01*
X46899943Y-130241286D01*
X46845251Y-130351187D01*
X46815022Y-130437651D01*
X46800334Y-130506722D01*
X46790341Y-130590075D01*
X46785354Y-130679841D01*
X46785687Y-130768155D01*
X46791649Y-130847149D01*
X46797362Y-130883378D01*
X46835224Y-131023397D01*
X46890068Y-131149822D01*
X46961076Y-131261740D01*
X47047432Y-131358238D01*
X47148321Y-131438400D01*
X47262924Y-131501313D01*
X47389016Y-131545688D01*
X47445599Y-131558022D01*
X47507798Y-131565632D01*
X47582637Y-131569261D01*
X47616533Y-131569755D01*
X47619718Y-131569690D01*
X47619718Y-130809752D01*
X47544667Y-130800459D01*
X47480840Y-130772272D01*
X47425202Y-130723803D01*
X47420789Y-130718746D01*
X47385963Y-130670452D01*
X47363380Y-130618743D01*
X47351460Y-130558011D01*
X47348617Y-130482648D01*
X47349022Y-130464541D01*
X47351675Y-130410722D01*
X47357091Y-130370692D01*
X47367255Y-130335676D01*
X47384150Y-130296897D01*
X47389328Y-130286255D01*
X47425156Y-130225604D01*
X47467788Y-130178785D01*
X47483027Y-130166048D01*
X47539538Y-130121378D01*
X47735414Y-130121378D01*
X47814061Y-130121914D01*
X47872012Y-130123604D01*
X47911125Y-130126572D01*
X47933259Y-130130943D01*
X47939726Y-130135028D01*
X47942889Y-130150953D01*
X47945512Y-130184736D01*
X47947345Y-130231660D01*
X47948143Y-130287007D01*
X47948158Y-130295894D01*
X47942904Y-130416670D01*
X47926737Y-130519340D01*
X47899039Y-130605894D01*
X47859192Y-130678319D01*
X47812242Y-130733249D01*
X47754355Y-130777796D01*
X47691307Y-130802520D01*
X47619718Y-130809752D01*
X47619718Y-131569690D01*
X47710288Y-131567822D01*
X47789188Y-131559478D01*
X47860410Y-131543232D01*
X47931136Y-131517595D01*
X47983507Y-131493599D01*
X48078804Y-131434980D01*
X48166830Y-131356883D01*
X48245983Y-131261685D01*
X48314660Y-131151762D01*
X48371259Y-131029490D01*
X48414179Y-130897245D01*
X48429118Y-130832578D01*
X48451223Y-130696396D01*
X48465806Y-130547951D01*
X48472187Y-130396495D01*
X48470555Y-130269936D01*
X48463776Y-130108050D01*
X48522755Y-130115470D01*
X48621908Y-130134762D01*
X48702628Y-130165896D01*
X48765534Y-130209731D01*
X48811244Y-130267129D01*
X48840378Y-130338952D01*
X48853553Y-130426059D01*
X48851389Y-130529314D01*
X48847388Y-130567289D01*
X48822220Y-130708480D01*
X48781186Y-130845293D01*
X48743185Y-130939822D01*
X48723810Y-130984982D01*
X48708240Y-131023415D01*
X48698595Y-131049766D01*
X48696548Y-131057454D01*
X48705626Y-131067198D01*
X48734595Y-131083917D01*
X48783783Y-131107768D01*
X48853516Y-131138907D01*
X48944121Y-131177493D01*
X48959911Y-131184090D01*
X49032228Y-131214147D01*
X49097575Y-131241126D01*
X49153094Y-131263864D01*
X49195928Y-131281194D01*
X49223219Y-131291952D01*
X49232058Y-131295059D01*
X49236813Y-131285060D01*
X49242090Y-131258783D01*
X49245769Y-131230511D01*
X49250526Y-131200354D01*
X49259972Y-131152567D01*
X49273180Y-131091388D01*
X49289224Y-131021054D01*
X49307180Y-130945806D01*
X49314203Y-130917245D01*
X49339791Y-130812184D01*
X49359853Y-130724520D01*
X49375031Y-130649932D01*
X49385965Y-130584097D01*
X49393296Y-130522693D01*
X49397665Y-130461398D01*
X49399713Y-130395890D01*
X49400111Y-130337872D01*
X49393448Y-130168426D01*
G36*
X48787755Y-126655493D02*
G01*
X48553338Y-126655474D01*
X48340397Y-126655448D01*
X48147832Y-126655375D01*
X47974541Y-126655218D01*
X47819424Y-126654936D01*
X47681380Y-126654491D01*
X47559308Y-126653844D01*
X47452106Y-126652955D01*
X47358674Y-126651787D01*
X47277910Y-126650299D01*
X47208714Y-126648454D01*
X47149985Y-126646211D01*
X47100621Y-126643531D01*
X47059522Y-126640377D01*
X47025587Y-126636708D01*
X46997714Y-126632487D01*
X46974802Y-126627673D01*
X46955751Y-126622227D01*
X46939460Y-126616112D01*
X46924827Y-126609288D01*
X46910751Y-126601715D01*
X46896132Y-126593355D01*
X46887026Y-126588161D01*
X46826311Y-126553896D01*
X46826311Y-127412045D01*
X46922267Y-127412045D01*
X46965630Y-127412776D01*
X46998795Y-127414728D01*
X47016576Y-127417537D01*
X47018222Y-127418779D01*
X47011338Y-127430201D01*
X46993495Y-127452916D01*
X46974121Y-127475615D01*
X46933386Y-127530200D01*
X46892383Y-127599679D01*
X46854877Y-127676730D01*
X46824636Y-127754035D01*
X46814988Y-127784887D01*
X46800422Y-127853384D01*
X46790461Y-127936236D01*
X46785417Y-128025629D01*
X46785604Y-128113752D01*
X46791334Y-128192793D01*
X46797142Y-128230489D01*
X46835203Y-128368586D01*
X46892927Y-128495887D01*
X46969789Y-128611708D01*
X47065261Y-128715363D01*
X47178821Y-128806167D01*
X47289619Y-128872969D01*
X47406375Y-128927836D01*
X47525724Y-128969837D01*
X47651717Y-128999833D01*
X47788406Y-129018689D01*
X47939842Y-129027268D01*
X48017289Y-129027994D01*
X48074066Y-129025900D01*
X48074066Y-128196783D01*
X47980998Y-128196576D01*
X47893308Y-128193663D01*
X47816228Y-128188000D01*
X47754991Y-128179545D01*
X47742650Y-128176962D01*
X47635367Y-128145160D01*
X47548342Y-128103502D01*
X47481358Y-128051637D01*
X47434195Y-127989219D01*
X47406635Y-127915900D01*
X47398459Y-127831331D01*
X47409449Y-127735165D01*
X47425171Y-127671689D01*
X47443361Y-127622546D01*
X47469209Y-127568417D01*
X47492911Y-127527756D01*
X47539279Y-127457200D01*
X48689470Y-127457200D01*
X48733038Y-127524608D01*
X48773960Y-127603133D01*
X48800611Y-127687319D01*
X48812535Y-127772443D01*
X48809278Y-127853784D01*
X48790385Y-127926620D01*
X48774816Y-127958574D01*
X48731819Y-128016499D01*
X48675047Y-128065456D01*
X48602425Y-128106610D01*
X48511879Y-128141126D01*
X48401334Y-128170167D01*
X48395467Y-128171448D01*
X48333212Y-128181619D01*
X48255406Y-128189261D01*
X48167280Y-128194330D01*
X48074066Y-128196783D01*
X48074066Y-129025900D01*
X48230105Y-129020143D01*
X48425941Y-128998198D01*
X48604668Y-128962214D01*
X48766155Y-128912241D01*
X48910274Y-128848332D01*
X49036894Y-128770538D01*
X49145885Y-128678911D01*
X49237117Y-128573503D01*
X49268068Y-128528338D01*
X49324215Y-128427389D01*
X49363826Y-128324099D01*
X49387986Y-128214011D01*
X49397781Y-128092670D01*
X49396735Y-128000164D01*
X49385769Y-127870510D01*
X49363954Y-127757916D01*
X49330286Y-127659125D01*
X49283764Y-127570879D01*
X49249552Y-127522014D01*
X49227638Y-127492647D01*
X49212667Y-127470957D01*
X49208267Y-127462747D01*
X49219096Y-127461132D01*
X49249749Y-127459841D01*
X49297474Y-127458862D01*
X49359521Y-127458183D01*
X49433138Y-127457790D01*
X49515573Y-127457670D01*
X49604075Y-127457812D01*
X49695893Y-127458203D01*
X49788276Y-127458829D01*
X49878472Y-127459680D01*
X49963729Y-127460740D01*
X50041297Y-127461999D01*
X50108424Y-127463444D01*
X50162359Y-127465062D01*
X50200350Y-127466839D01*
X50207333Y-127467331D01*
X50277749Y-127474908D01*
X50332898Y-127486469D01*
X50380019Y-127504208D01*
X50426353Y-127530318D01*
X50435933Y-127536585D01*
X50472622Y-127561017D01*
X50472622Y-126655689D01*
X48787755Y-126655493D01*
G37*
X48787755Y-126655493D02*
X48553338Y-126655474D01*
X48340397Y-126655448D01*
X48147832Y-126655375D01*
X47974541Y-126655218D01*
X47819424Y-126654936D01*
X47681380Y-126654491D01*
X47559308Y-126653844D01*
X47452106Y-126652955D01*
X47358674Y-126651787D01*
X47277910Y-126650299D01*
X47208714Y-126648454D01*
X47149985Y-126646211D01*
X47100621Y-126643531D01*
X47059522Y-126640377D01*
X47025587Y-126636708D01*
X46997714Y-126632487D01*
X46974802Y-126627673D01*
X46955751Y-126622227D01*
X46939460Y-126616112D01*
X46924827Y-126609288D01*
X46910751Y-126601715D01*
X46896132Y-126593355D01*
X46887026Y-126588161D01*
X46826311Y-126553896D01*
X46826311Y-127412045D01*
X46922267Y-127412045D01*
X46965630Y-127412776D01*
X46998795Y-127414728D01*
X47016576Y-127417537D01*
X47018222Y-127418779D01*
X47011338Y-127430201D01*
X46993495Y-127452916D01*
X46974121Y-127475615D01*
X46933386Y-127530200D01*
X46892383Y-127599679D01*
X46854877Y-127676730D01*
X46824636Y-127754035D01*
X46814988Y-127784887D01*
X46800422Y-127853384D01*
X46790461Y-127936236D01*
X46785417Y-128025629D01*
X46785604Y-128113752D01*
X46791334Y-128192793D01*
X46797142Y-128230489D01*
X46835203Y-128368586D01*
X46892927Y-128495887D01*
X46969789Y-128611708D01*
X47065261Y-128715363D01*
X47178821Y-128806167D01*
X47289619Y-128872969D01*
X47406375Y-128927836D01*
X47525724Y-128969837D01*
X47651717Y-128999833D01*
X47788406Y-129018689D01*
X47939842Y-129027268D01*
X48017289Y-129027994D01*
X48074066Y-129025900D01*
X48074066Y-128196783D01*
X47980998Y-128196576D01*
X47893308Y-128193663D01*
X47816228Y-128188000D01*
X47754991Y-128179545D01*
X47742650Y-128176962D01*
X47635367Y-128145160D01*
X47548342Y-128103502D01*
X47481358Y-128051637D01*
X47434195Y-127989219D01*
X47406635Y-127915900D01*
X47398459Y-127831331D01*
X47409449Y-127735165D01*
X47425171Y-127671689D01*
X47443361Y-127622546D01*
X47469209Y-127568417D01*
X47492911Y-127527756D01*
X47539279Y-127457200D01*
X48689470Y-127457200D01*
X48733038Y-127524608D01*
X48773960Y-127603133D01*
X48800611Y-127687319D01*
X48812535Y-127772443D01*
X48809278Y-127853784D01*
X48790385Y-127926620D01*
X48774816Y-127958574D01*
X48731819Y-128016499D01*
X48675047Y-128065456D01*
X48602425Y-128106610D01*
X48511879Y-128141126D01*
X48401334Y-128170167D01*
X48395467Y-128171448D01*
X48333212Y-128181619D01*
X48255406Y-128189261D01*
X48167280Y-128194330D01*
X48074066Y-128196783D01*
X48074066Y-129025900D01*
X48230105Y-129020143D01*
X48425941Y-128998198D01*
X48604668Y-128962214D01*
X48766155Y-128912241D01*
X48910274Y-128848332D01*
X49036894Y-128770538D01*
X49145885Y-128678911D01*
X49237117Y-128573503D01*
X49268068Y-128528338D01*
X49324215Y-128427389D01*
X49363826Y-128324099D01*
X49387986Y-128214011D01*
X49397781Y-128092670D01*
X49396735Y-128000164D01*
X49385769Y-127870510D01*
X49363954Y-127757916D01*
X49330286Y-127659125D01*
X49283764Y-127570879D01*
X49249552Y-127522014D01*
X49227638Y-127492647D01*
X49212667Y-127470957D01*
X49208267Y-127462747D01*
X49219096Y-127461132D01*
X49249749Y-127459841D01*
X49297474Y-127458862D01*
X49359521Y-127458183D01*
X49433138Y-127457790D01*
X49515573Y-127457670D01*
X49604075Y-127457812D01*
X49695893Y-127458203D01*
X49788276Y-127458829D01*
X49878472Y-127459680D01*
X49963729Y-127460740D01*
X50041297Y-127461999D01*
X50108424Y-127463444D01*
X50162359Y-127465062D01*
X50200350Y-127466839D01*
X50207333Y-127467331D01*
X50277749Y-127474908D01*
X50332898Y-127486469D01*
X50380019Y-127504208D01*
X50426353Y-127530318D01*
X50435933Y-127536585D01*
X50472622Y-127561017D01*
X50472622Y-126655689D01*
X48787755Y-126655493D01*
G36*
X51233429Y-135115043D02*
G01*
X51209191Y-135018768D01*
X51166359Y-134932184D01*
X51106581Y-134857373D01*
X51031506Y-134796418D01*
X50942780Y-134751399D01*
X50846470Y-134725136D01*
X50749205Y-134719286D01*
X50655346Y-134734140D01*
X50567489Y-134767840D01*
X50488230Y-134818528D01*
X50420164Y-134884345D01*
X50365888Y-134963434D01*
X50327998Y-135053934D01*
X50315574Y-135105200D01*
X50308053Y-135149698D01*
X50305081Y-135183999D01*
X50306906Y-135216960D01*
X50313775Y-135257434D01*
X50320750Y-135290531D01*
X50352259Y-135383947D01*
X50403383Y-135467619D01*
X50472571Y-135539665D01*
X50558272Y-135598200D01*
X50585511Y-135612148D01*
X50621878Y-135628586D01*
X50652418Y-135638894D01*
X50684550Y-135644460D01*
X50725693Y-135646669D01*
X50771778Y-135646948D01*
X50856135Y-135642861D01*
X50925414Y-135629446D01*
X50986039Y-135604256D01*
X51044433Y-135564846D01*
X51088698Y-135526298D01*
X51154516Y-135454406D01*
X51199947Y-135379313D01*
X51227150Y-135296562D01*
X51237424Y-135218928D01*
X51233429Y-135115043D01*
G37*
X51233429Y-135115043D02*
X51209191Y-135018768D01*
X51166359Y-134932184D01*
X51106581Y-134857373D01*
X51031506Y-134796418D01*
X50942780Y-134751399D01*
X50846470Y-134725136D01*
X50749205Y-134719286D01*
X50655346Y-134734140D01*
X50567489Y-134767840D01*
X50488230Y-134818528D01*
X50420164Y-134884345D01*
X50365888Y-134963434D01*
X50327998Y-135053934D01*
X50315574Y-135105200D01*
X50308053Y-135149698D01*
X50305081Y-135183999D01*
X50306906Y-135216960D01*
X50313775Y-135257434D01*
X50320750Y-135290531D01*
X50352259Y-135383947D01*
X50403383Y-135467619D01*
X50472571Y-135539665D01*
X50558272Y-135598200D01*
X50585511Y-135612148D01*
X50621878Y-135628586D01*
X50652418Y-135638894D01*
X50684550Y-135644460D01*
X50725693Y-135646669D01*
X50771778Y-135646948D01*
X50856135Y-135642861D01*
X50925414Y-135629446D01*
X50986039Y-135604256D01*
X51044433Y-135564846D01*
X51088698Y-135526298D01*
X51154516Y-135454406D01*
X51199947Y-135379313D01*
X51227150Y-135296562D01*
X51237424Y-135218928D01*
X51233429Y-135115043D01*
G36*
X45990934Y-138963371D02*
G01*
X45990533Y-138923889D01*
X45987741Y-138808200D01*
X45979450Y-138711311D01*
X45964768Y-138629919D01*
X45942807Y-138560723D01*
X45912678Y-138500420D01*
X45873490Y-138445708D01*
X45856468Y-138426167D01*
X45816637Y-138393750D01*
X45762587Y-138364520D01*
X45702677Y-138341991D01*
X45645261Y-138329679D01*
X45624044Y-138328400D01*
X45565231Y-138336417D01*
X45500987Y-138357899D01*
X45440179Y-138388999D01*
X45391670Y-138425866D01*
X45385818Y-138431854D01*
X45344679Y-138482579D01*
X45312565Y-138538125D01*
X45288635Y-138601696D01*
X45272047Y-138676494D01*
X45261959Y-138765722D01*
X45257531Y-138872582D01*
X45257155Y-138921528D01*
X45257455Y-138983762D01*
X45258708Y-139027528D01*
X45261446Y-139056931D01*
X45266199Y-139076079D01*
X45273499Y-139089077D01*
X45279733Y-139096045D01*
X45287306Y-139102626D01*
X45297076Y-139107788D01*
X45311660Y-139111703D01*
X45333674Y-139114543D01*
X45365736Y-139116480D01*
X45410464Y-139117684D01*
X45470474Y-139118328D01*
X45548383Y-139118583D01*
X45624044Y-139118622D01*
X45724959Y-139118870D01*
X45805573Y-139118817D01*
X45844178Y-139117857D01*
X45844178Y-138971867D01*
X45403911Y-138971867D01*
X45403996Y-138878734D01*
X45405604Y-138822693D01*
X45409744Y-138763999D01*
X45415536Y-138715028D01*
X45415774Y-138713538D01*
X45434910Y-138634392D01*
X45464713Y-138573002D01*
X45507122Y-138526305D01*
X45553039Y-138496635D01*
X45603974Y-138478353D01*
X45651800Y-138479771D01*
X45703067Y-138500988D01*
X45756101Y-138542489D01*
X45795400Y-138599998D01*
X45821669Y-138674750D01*
X45830965Y-138724708D01*
X45837493Y-138781416D01*
X45842218Y-138841519D01*
X45844183Y-138892639D01*
X45844192Y-138895667D01*
X45844178Y-138971867D01*
X45844178Y-139117857D01*
X45868149Y-139117260D01*
X45914945Y-139112998D01*
X45948222Y-139104830D01*
X45970241Y-139091556D01*
X45983261Y-139071974D01*
X45989543Y-139044883D01*
X45991347Y-139009082D01*
X45990934Y-138963371D01*
G37*
X45990934Y-138963371D02*
X45990533Y-138923889D01*
X45987741Y-138808200D01*
X45979450Y-138711311D01*
X45964768Y-138629919D01*
X45942807Y-138560723D01*
X45912678Y-138500420D01*
X45873490Y-138445708D01*
X45856468Y-138426167D01*
X45816637Y-138393750D01*
X45762587Y-138364520D01*
X45702677Y-138341991D01*
X45645261Y-138329679D01*
X45624044Y-138328400D01*
X45565231Y-138336417D01*
X45500987Y-138357899D01*
X45440179Y-138388999D01*
X45391670Y-138425866D01*
X45385818Y-138431854D01*
X45344679Y-138482579D01*
X45312565Y-138538125D01*
X45288635Y-138601696D01*
X45272047Y-138676494D01*
X45261959Y-138765722D01*
X45257531Y-138872582D01*
X45257155Y-138921528D01*
X45257455Y-138983762D01*
X45258708Y-139027528D01*
X45261446Y-139056931D01*
X45266199Y-139076079D01*
X45273499Y-139089077D01*
X45279733Y-139096045D01*
X45287306Y-139102626D01*
X45297076Y-139107788D01*
X45311660Y-139111703D01*
X45333674Y-139114543D01*
X45365736Y-139116480D01*
X45410464Y-139117684D01*
X45470474Y-139118328D01*
X45548383Y-139118583D01*
X45624044Y-139118622D01*
X45724959Y-139118870D01*
X45805573Y-139118817D01*
X45844178Y-139117857D01*
X45844178Y-138971867D01*
X45403911Y-138971867D01*
X45403996Y-138878734D01*
X45405604Y-138822693D01*
X45409744Y-138763999D01*
X45415536Y-138715028D01*
X45415774Y-138713538D01*
X45434910Y-138634392D01*
X45464713Y-138573002D01*
X45507122Y-138526305D01*
X45553039Y-138496635D01*
X45603974Y-138478353D01*
X45651800Y-138479771D01*
X45703067Y-138500988D01*
X45756101Y-138542489D01*
X45795400Y-138599998D01*
X45821669Y-138674750D01*
X45830965Y-138724708D01*
X45837493Y-138781416D01*
X45842218Y-138841519D01*
X45844183Y-138892639D01*
X45844192Y-138895667D01*
X45844178Y-138971867D01*
X45844178Y-139117857D01*
X45868149Y-139117260D01*
X45914945Y-139112998D01*
X45948222Y-139104830D01*
X45970241Y-139091556D01*
X45983261Y-139071974D01*
X45989543Y-139044883D01*
X45991347Y-139009082D01*
X45990934Y-138963371D01*
G36*
X45990854Y-137554794D02*
G01*
X45990482Y-137485386D01*
X45989615Y-137432997D01*
X45988054Y-137394847D01*
X45985597Y-137368159D01*
X45982043Y-137350153D01*
X45977190Y-137338049D01*
X45970839Y-137329069D01*
X45967916Y-137325818D01*
X45936858Y-137306043D01*
X45901172Y-137302482D01*
X45869490Y-137315491D01*
X45863087Y-137321506D01*
X45856879Y-137331235D01*
X45852090Y-137346901D01*
X45848486Y-137371408D01*
X45845836Y-137407661D01*
X45843905Y-137458565D01*
X45842461Y-137527026D01*
X45841582Y-137589617D01*
X45838533Y-137837334D01*
X45773622Y-137840719D01*
X45708711Y-137844105D01*
X45708711Y-137675958D01*
X45708081Y-137602959D01*
X45705447Y-137549517D01*
X45699691Y-137512628D01*
X45689696Y-137489288D01*
X45674344Y-137476494D01*
X45652518Y-137471242D01*
X45632262Y-137470445D01*
X45607408Y-137472923D01*
X45589094Y-137482277D01*
X45576363Y-137501383D01*
X45568259Y-137533118D01*
X45563824Y-137580359D01*
X45562101Y-137645983D01*
X45561955Y-137681801D01*
X45561955Y-137842978D01*
X45403911Y-137842978D01*
X45403911Y-137594622D01*
X45403798Y-137513213D01*
X45403288Y-137451342D01*
X45402130Y-137405968D01*
X45400070Y-137374054D01*
X45396854Y-137352559D01*
X45392228Y-137338443D01*
X45385941Y-137328668D01*
X45381333Y-137323689D01*
X45354440Y-137306610D01*
X45330533Y-137301111D01*
X45301333Y-137308963D01*
X45279733Y-137323689D01*
X45272934Y-137331546D01*
X45267654Y-137341688D01*
X45263702Y-137356844D01*
X45260887Y-137379741D01*
X45259018Y-137413109D01*
X45257902Y-137459675D01*
X45257349Y-137522167D01*
X45257167Y-137603314D01*
X45257155Y-137645422D01*
X45257235Y-137735598D01*
X45257602Y-137805924D01*
X45258448Y-137859129D01*
X45259964Y-137897940D01*
X45262341Y-137925087D01*
X45265771Y-137943298D01*
X45270446Y-137955300D01*
X45276556Y-137963822D01*
X45279733Y-137967156D01*
X45287330Y-137973755D01*
X45297130Y-137978927D01*
X45311761Y-137982846D01*
X45333848Y-137985684D01*
X45366018Y-137987615D01*
X45410897Y-137988812D01*
X45471111Y-137989448D01*
X45549287Y-137989697D01*
X45622077Y-137989734D01*
X45715293Y-137989700D01*
X45788569Y-137989465D01*
X45844542Y-137988830D01*
X45885849Y-137987594D01*
X45915128Y-137985556D01*
X45935016Y-137982517D01*
X45948150Y-137978277D01*
X45957168Y-137972635D01*
X45964707Y-137965391D01*
X45966388Y-137963606D01*
X45973828Y-137954945D01*
X45979591Y-137944882D01*
X45983888Y-137930625D01*
X45986936Y-137909383D01*
X45988949Y-137878364D01*
X45990140Y-137834777D01*
X45990725Y-137775831D01*
X45990917Y-137698734D01*
X45990933Y-137644001D01*
X45990854Y-137554794D01*
G37*
X45990854Y-137554794D02*
X45990482Y-137485386D01*
X45989615Y-137432997D01*
X45988054Y-137394847D01*
X45985597Y-137368159D01*
X45982043Y-137350153D01*
X45977190Y-137338049D01*
X45970839Y-137329069D01*
X45967916Y-137325818D01*
X45936858Y-137306043D01*
X45901172Y-137302482D01*
X45869490Y-137315491D01*
X45863087Y-137321506D01*
X45856879Y-137331235D01*
X45852090Y-137346901D01*
X45848486Y-137371408D01*
X45845836Y-137407661D01*
X45843905Y-137458565D01*
X45842461Y-137527026D01*
X45841582Y-137589617D01*
X45838533Y-137837334D01*
X45773622Y-137840719D01*
X45708711Y-137844105D01*
X45708711Y-137675958D01*
X45708081Y-137602959D01*
X45705447Y-137549517D01*
X45699691Y-137512628D01*
X45689696Y-137489288D01*
X45674344Y-137476494D01*
X45652518Y-137471242D01*
X45632262Y-137470445D01*
X45607408Y-137472923D01*
X45589094Y-137482277D01*
X45576363Y-137501383D01*
X45568259Y-137533118D01*
X45563824Y-137580359D01*
X45562101Y-137645983D01*
X45561955Y-137681801D01*
X45561955Y-137842978D01*
X45403911Y-137842978D01*
X45403911Y-137594622D01*
X45403798Y-137513213D01*
X45403288Y-137451342D01*
X45402130Y-137405968D01*
X45400070Y-137374054D01*
X45396854Y-137352559D01*
X45392228Y-137338443D01*
X45385941Y-137328668D01*
X45381333Y-137323689D01*
X45354440Y-137306610D01*
X45330533Y-137301111D01*
X45301333Y-137308963D01*
X45279733Y-137323689D01*
X45272934Y-137331546D01*
X45267654Y-137341688D01*
X45263702Y-137356844D01*
X45260887Y-137379741D01*
X45259018Y-137413109D01*
X45257902Y-137459675D01*
X45257349Y-137522167D01*
X45257167Y-137603314D01*
X45257155Y-137645422D01*
X45257235Y-137735598D01*
X45257602Y-137805924D01*
X45258448Y-137859129D01*
X45259964Y-137897940D01*
X45262341Y-137925087D01*
X45265771Y-137943298D01*
X45270446Y-137955300D01*
X45276556Y-137963822D01*
X45279733Y-137967156D01*
X45287330Y-137973755D01*
X45297130Y-137978927D01*
X45311761Y-137982846D01*
X45333848Y-137985684D01*
X45366018Y-137987615D01*
X45410897Y-137988812D01*
X45471111Y-137989448D01*
X45549287Y-137989697D01*
X45622077Y-137989734D01*
X45715293Y-137989700D01*
X45788569Y-137989465D01*
X45844542Y-137988830D01*
X45885849Y-137987594D01*
X45915128Y-137985556D01*
X45935016Y-137982517D01*
X45948150Y-137978277D01*
X45957168Y-137972635D01*
X45964707Y-137965391D01*
X45966388Y-137963606D01*
X45973828Y-137954945D01*
X45979591Y-137944882D01*
X45983888Y-137930625D01*
X45986936Y-137909383D01*
X45988949Y-137878364D01*
X45990140Y-137834777D01*
X45990725Y-137775831D01*
X45990917Y-137698734D01*
X45990933Y-137644001D01*
X45990854Y-137554794D01*
G36*
X45989649Y-136533703D02*
G01*
X45984419Y-136458888D01*
X45976250Y-136389306D01*
X45965450Y-136329002D01*
X45952327Y-136282020D01*
X45937187Y-136252406D01*
X45932731Y-136247860D01*
X45898150Y-136232054D01*
X45862649Y-136236847D01*
X45832275Y-136261364D01*
X45831404Y-136262534D01*
X45822046Y-136276954D01*
X45817124Y-136292008D01*
X45816527Y-136313005D01*
X45820139Y-136345257D01*
X45827846Y-136394073D01*
X45828495Y-136398000D01*
X45837431Y-136470739D01*
X45841839Y-136549217D01*
X45841881Y-136627927D01*
X45837721Y-136701361D01*
X45829521Y-136764011D01*
X45817443Y-136810370D01*
X45816229Y-136813416D01*
X45797385Y-136847048D01*
X45778315Y-136858864D01*
X45759561Y-136849614D01*
X45741663Y-136820047D01*
X45725163Y-136770911D01*
X45710604Y-136702957D01*
X45703594Y-136657645D01*
X45690111Y-136563456D01*
X45677786Y-136488544D01*
X45665551Y-136429717D01*
X45652339Y-136383785D01*
X45637083Y-136347555D01*
X45618715Y-136317838D01*
X45596169Y-136291442D01*
X45574029Y-136270230D01*
X45543181Y-136245065D01*
X45516655Y-136232681D01*
X45483974Y-136228808D01*
X45472005Y-136228667D01*
X45432288Y-136231576D01*
X45402741Y-136243202D01*
X45376514Y-136263323D01*
X45336424Y-136304216D01*
X45305851Y-136349817D01*
X45283797Y-136403513D01*
X45269265Y-136468692D01*
X45261259Y-136548744D01*
X45258782Y-136647057D01*
X45258823Y-136663289D01*
X45260182Y-136728849D01*
X45263270Y-136793866D01*
X45267644Y-136851252D01*
X45272860Y-136893922D01*
X45273459Y-136897372D01*
X45283509Y-136939796D01*
X45296204Y-136975780D01*
X45307810Y-136996150D01*
X45338428Y-137015107D01*
X45374082Y-137016427D01*
X45405856Y-137000085D01*
X45409449Y-136996429D01*
X45420124Y-136981315D01*
X45424724Y-136962415D01*
X45423941Y-136933162D01*
X45419873Y-136897651D01*
X45416238Y-136857970D01*
X45413172Y-136802345D01*
X45410947Y-136737406D01*
X45409836Y-136669785D01*
X45409763Y-136652000D01*
X45410036Y-136584128D01*
X45411354Y-136534454D01*
X45414173Y-136498610D01*
X45418950Y-136472224D01*
X45426143Y-136450926D01*
X45432133Y-136438126D01*
X45448767Y-136410000D01*
X45463832Y-136392068D01*
X45468103Y-136389447D01*
X45485737Y-136394976D01*
X45502808Y-136421260D01*
X45518542Y-136466478D01*
X45532162Y-136528808D01*
X45535196Y-136547171D01*
X45550262Y-136643090D01*
X45562854Y-136719641D01*
X45573889Y-136779780D01*
X45584280Y-136826460D01*
X45594944Y-136862637D01*
X45606795Y-136891265D01*
X45620749Y-136915298D01*
X45637719Y-136937692D01*
X45658622Y-136961402D01*
X45665951Y-136969380D01*
X45693301Y-136997353D01*
X45714971Y-137012160D01*
X45739768Y-137017952D01*
X45771017Y-137018889D01*
X45832295Y-137008575D01*
X45884360Y-136977752D01*
X45927042Y-136926595D01*
X45960175Y-136855283D01*
X45975036Y-136804400D01*
X45984634Y-136749100D01*
X45990064Y-136682853D01*
X45991633Y-136609706D01*
X45989649Y-136533703D01*
G37*
X45989649Y-136533703D02*
X45984419Y-136458888D01*
X45976250Y-136389306D01*
X45965450Y-136329002D01*
X45952327Y-136282020D01*
X45937187Y-136252406D01*
X45932731Y-136247860D01*
X45898150Y-136232054D01*
X45862649Y-136236847D01*
X45832275Y-136261364D01*
X45831404Y-136262534D01*
X45822046Y-136276954D01*
X45817124Y-136292008D01*
X45816527Y-136313005D01*
X45820139Y-136345257D01*
X45827846Y-136394073D01*
X45828495Y-136398000D01*
X45837431Y-136470739D01*
X45841839Y-136549217D01*
X45841881Y-136627927D01*
X45837721Y-136701361D01*
X45829521Y-136764011D01*
X45817443Y-136810370D01*
X45816229Y-136813416D01*
X45797385Y-136847048D01*
X45778315Y-136858864D01*
X45759561Y-136849614D01*
X45741663Y-136820047D01*
X45725163Y-136770911D01*
X45710604Y-136702957D01*
X45703594Y-136657645D01*
X45690111Y-136563456D01*
X45677786Y-136488544D01*
X45665551Y-136429717D01*
X45652339Y-136383785D01*
X45637083Y-136347555D01*
X45618715Y-136317838D01*
X45596169Y-136291442D01*
X45574029Y-136270230D01*
X45543181Y-136245065D01*
X45516655Y-136232681D01*
X45483974Y-136228808D01*
X45472005Y-136228667D01*
X45432288Y-136231576D01*
X45402741Y-136243202D01*
X45376514Y-136263323D01*
X45336424Y-136304216D01*
X45305851Y-136349817D01*
X45283797Y-136403513D01*
X45269265Y-136468692D01*
X45261259Y-136548744D01*
X45258782Y-136647057D01*
X45258823Y-136663289D01*
X45260182Y-136728849D01*
X45263270Y-136793866D01*
X45267644Y-136851252D01*
X45272860Y-136893922D01*
X45273459Y-136897372D01*
X45283509Y-136939796D01*
X45296204Y-136975780D01*
X45307810Y-136996150D01*
X45338428Y-137015107D01*
X45374082Y-137016427D01*
X45405856Y-137000085D01*
X45409449Y-136996429D01*
X45420124Y-136981315D01*
X45424724Y-136962415D01*
X45423941Y-136933162D01*
X45419873Y-136897651D01*
X45416238Y-136857970D01*
X45413172Y-136802345D01*
X45410947Y-136737406D01*
X45409836Y-136669785D01*
X45409763Y-136652000D01*
X45410036Y-136584128D01*
X45411354Y-136534454D01*
X45414173Y-136498610D01*
X45418950Y-136472224D01*
X45426143Y-136450926D01*
X45432133Y-136438126D01*
X45448767Y-136410000D01*
X45463832Y-136392068D01*
X45468103Y-136389447D01*
X45485737Y-136394976D01*
X45502808Y-136421260D01*
X45518542Y-136466478D01*
X45532162Y-136528808D01*
X45535196Y-136547171D01*
X45550262Y-136643090D01*
X45562854Y-136719641D01*
X45573889Y-136779780D01*
X45584280Y-136826460D01*
X45594944Y-136862637D01*
X45606795Y-136891265D01*
X45620749Y-136915298D01*
X45637719Y-136937692D01*
X45658622Y-136961402D01*
X45665951Y-136969380D01*
X45693301Y-136997353D01*
X45714971Y-137012160D01*
X45739768Y-137017952D01*
X45771017Y-137018889D01*
X45832295Y-137008575D01*
X45884360Y-136977752D01*
X45927042Y-136926595D01*
X45960175Y-136855283D01*
X45975036Y-136804400D01*
X45984634Y-136749100D01*
X45990064Y-136682853D01*
X45991633Y-136609706D01*
X45989649Y-136533703D01*
G36*
X45968355Y-135765822D02*
G01*
X45960782Y-135759242D01*
X45951013Y-135754079D01*
X45936429Y-135750164D01*
X45914415Y-135747324D01*
X45882352Y-135745387D01*
X45837625Y-135744183D01*
X45777615Y-135743539D01*
X45699706Y-135743284D01*
X45624044Y-135743245D01*
X45530198Y-135743314D01*
X45456311Y-135743638D01*
X45399768Y-135744386D01*
X45357951Y-135745732D01*
X45328243Y-135747846D01*
X45308027Y-135750900D01*
X45294686Y-135755066D01*
X45285602Y-135760516D01*
X45279733Y-135765822D01*
X45260053Y-135798826D01*
X45261819Y-135833991D01*
X45283283Y-135865455D01*
X45291663Y-135872684D01*
X45301386Y-135878334D01*
X45315139Y-135882599D01*
X45335611Y-135885673D01*
X45365488Y-135887752D01*
X45407459Y-135889030D01*
X45464211Y-135889701D01*
X45538433Y-135889959D01*
X45622463Y-135890000D01*
X45935515Y-135890000D01*
X45963224Y-135862291D01*
X45986537Y-135828137D01*
X45987377Y-135795006D01*
X45968355Y-135765822D01*
G37*
X45968355Y-135765822D02*
X45960782Y-135759242D01*
X45951013Y-135754079D01*
X45936429Y-135750164D01*
X45914415Y-135747324D01*
X45882352Y-135745387D01*
X45837625Y-135744183D01*
X45777615Y-135743539D01*
X45699706Y-135743284D01*
X45624044Y-135743245D01*
X45530198Y-135743314D01*
X45456311Y-135743638D01*
X45399768Y-135744386D01*
X45357951Y-135745732D01*
X45328243Y-135747846D01*
X45308027Y-135750900D01*
X45294686Y-135755066D01*
X45285602Y-135760516D01*
X45279733Y-135765822D01*
X45260053Y-135798826D01*
X45261819Y-135833991D01*
X45283283Y-135865455D01*
X45291663Y-135872684D01*
X45301386Y-135878334D01*
X45315139Y-135882599D01*
X45335611Y-135885673D01*
X45365488Y-135887752D01*
X45407459Y-135889030D01*
X45464211Y-135889701D01*
X45538433Y-135889959D01*
X45622463Y-135890000D01*
X45935515Y-135890000D01*
X45963224Y-135862291D01*
X45986537Y-135828137D01*
X45987377Y-135795006D01*
X45968355Y-135765822D01*
G36*
X45985401Y-134792081D02*
G01*
X45973905Y-134723565D01*
X45956033Y-134670943D01*
X45932501Y-134636708D01*
X45919076Y-134627379D01*
X45887852Y-134617893D01*
X45859605Y-134624277D01*
X45832818Y-134644430D01*
X45820287Y-134675745D01*
X45821304Y-134721183D01*
X45828094Y-134756326D01*
X45841029Y-134834419D01*
X45842258Y-134914226D01*
X45831759Y-135003555D01*
X45827310Y-135028229D01*
X45803892Y-135111291D01*
X45769055Y-135176273D01*
X45723396Y-135222461D01*
X45667506Y-135249145D01*
X45638612Y-135254663D01*
X45579988Y-135251051D01*
X45528121Y-135227729D01*
X45484022Y-135186824D01*
X45448701Y-135130459D01*
X45423171Y-135060760D01*
X45408441Y-134979852D01*
X45405522Y-134889860D01*
X45415425Y-134792910D01*
X45416359Y-134787436D01*
X45423541Y-134748875D01*
X45430479Y-134727494D01*
X45440773Y-134718227D01*
X45458024Y-134716006D01*
X45467159Y-134715956D01*
X45505511Y-134715956D01*
X45505511Y-134784431D01*
X45509653Y-134844900D01*
X45522853Y-134886165D01*
X45546270Y-134910175D01*
X45581064Y-134918877D01*
X45585606Y-134918983D01*
X45615346Y-134913892D01*
X45636581Y-134896433D01*
X45650634Y-134863939D01*
X45658827Y-134813743D01*
X45661839Y-134765123D01*
X45663567Y-134694456D01*
X45660930Y-134643198D01*
X45651200Y-134608239D01*
X45631647Y-134586470D01*
X45599544Y-134574780D01*
X45552162Y-134570060D01*
X45489929Y-134569200D01*
X45420465Y-134570609D01*
X45373214Y-134574848D01*
X45347988Y-134581936D01*
X45346012Y-134583311D01*
X45314492Y-134622228D01*
X45289530Y-134679286D01*
X45271660Y-134750869D01*
X45261414Y-134833358D01*
X45259327Y-134923139D01*
X45265932Y-135016592D01*
X45274044Y-135071556D01*
X45298446Y-135157766D01*
X45338338Y-135237892D01*
X45390113Y-135304977D01*
X45400461Y-135315173D01*
X45443965Y-135348302D01*
X45497882Y-135378194D01*
X45554408Y-135401357D01*
X45605741Y-135414298D01*
X45625456Y-135415858D01*
X45666581Y-135409218D01*
X45717748Y-135391568D01*
X45771606Y-135366297D01*
X45820805Y-135336789D01*
X45853666Y-135310719D01*
X45902548Y-135249765D01*
X45941455Y-135170969D01*
X45969506Y-135077157D01*
X45985821Y-134971150D01*
X45989808Y-134874000D01*
X45985401Y-134792081D01*
G37*
X45985401Y-134792081D02*
X45973905Y-134723565D01*
X45956033Y-134670943D01*
X45932501Y-134636708D01*
X45919076Y-134627379D01*
X45887852Y-134617893D01*
X45859605Y-134624277D01*
X45832818Y-134644430D01*
X45820287Y-134675745D01*
X45821304Y-134721183D01*
X45828094Y-134756326D01*
X45841029Y-134834419D01*
X45842258Y-134914226D01*
X45831759Y-135003555D01*
X45827310Y-135028229D01*
X45803892Y-135111291D01*
X45769055Y-135176273D01*
X45723396Y-135222461D01*
X45667506Y-135249145D01*
X45638612Y-135254663D01*
X45579988Y-135251051D01*
X45528121Y-135227729D01*
X45484022Y-135186824D01*
X45448701Y-135130459D01*
X45423171Y-135060760D01*
X45408441Y-134979852D01*
X45405522Y-134889860D01*
X45415425Y-134792910D01*
X45416359Y-134787436D01*
X45423541Y-134748875D01*
X45430479Y-134727494D01*
X45440773Y-134718227D01*
X45458024Y-134716006D01*
X45467159Y-134715956D01*
X45505511Y-134715956D01*
X45505511Y-134784431D01*
X45509653Y-134844900D01*
X45522853Y-134886165D01*
X45546270Y-134910175D01*
X45581064Y-134918877D01*
X45585606Y-134918983D01*
X45615346Y-134913892D01*
X45636581Y-134896433D01*
X45650634Y-134863939D01*
X45658827Y-134813743D01*
X45661839Y-134765123D01*
X45663567Y-134694456D01*
X45660930Y-134643198D01*
X45651200Y-134608239D01*
X45631647Y-134586470D01*
X45599544Y-134574780D01*
X45552162Y-134570060D01*
X45489929Y-134569200D01*
X45420465Y-134570609D01*
X45373214Y-134574848D01*
X45347988Y-134581936D01*
X45346012Y-134583311D01*
X45314492Y-134622228D01*
X45289530Y-134679286D01*
X45271660Y-134750869D01*
X45261414Y-134833358D01*
X45259327Y-134923139D01*
X45265932Y-135016592D01*
X45274044Y-135071556D01*
X45298446Y-135157766D01*
X45338338Y-135237892D01*
X45390113Y-135304977D01*
X45400461Y-135315173D01*
X45443965Y-135348302D01*
X45497882Y-135378194D01*
X45554408Y-135401357D01*
X45605741Y-135414298D01*
X45625456Y-135415858D01*
X45666581Y-135409218D01*
X45717748Y-135391568D01*
X45771606Y-135366297D01*
X45820805Y-135336789D01*
X45853666Y-135310719D01*
X45902548Y-135249765D01*
X45941455Y-135170969D01*
X45969506Y-135077157D01*
X45985821Y-134971150D01*
X45989808Y-134874000D01*
X45985401Y-134792081D01*
G36*
X45986552Y-134142114D02*
G01*
X45972727Y-134118548D01*
X45950119Y-134087735D01*
X45917662Y-134048078D01*
X45874292Y-133997980D01*
X45818942Y-133935843D01*
X45750549Y-133860072D01*
X45671916Y-133773334D01*
X45508122Y-133592711D01*
X45727971Y-133587067D01*
X45803649Y-133585029D01*
X45860006Y-133583063D01*
X45900294Y-133580734D01*
X45927765Y-133577606D01*
X45945671Y-133573245D01*
X45957263Y-133567216D01*
X45965792Y-133559084D01*
X45969377Y-133554772D01*
X45988330Y-133520241D01*
X45985559Y-133487383D01*
X45969367Y-133461318D01*
X45947801Y-133434667D01*
X45632849Y-133431352D01*
X45540221Y-133430435D01*
X45467456Y-133429968D01*
X45411839Y-133430113D01*
X45370658Y-133431032D01*
X45341197Y-133432887D01*
X45320745Y-133435839D01*
X45306587Y-133440050D01*
X45296009Y-133445682D01*
X45287526Y-133451927D01*
X45271793Y-133465439D01*
X45261364Y-133478883D01*
X45257361Y-133494124D01*
X45260906Y-133513026D01*
X45273121Y-133537455D01*
X45295129Y-133569273D01*
X45328051Y-133610348D01*
X45373009Y-133662542D01*
X45431125Y-133727722D01*
X45497901Y-133801556D01*
X45738542Y-134066845D01*
X45519411Y-134072489D01*
X45443872Y-134074531D01*
X45387646Y-134076502D01*
X45347476Y-134078839D01*
X45320104Y-134081981D01*
X45302272Y-134086364D01*
X45290721Y-134092424D01*
X45282193Y-134100600D01*
X45278718Y-134104784D01*
X45259628Y-134141765D01*
X45262507Y-134176708D01*
X45286900Y-134207136D01*
X45296714Y-134214097D01*
X45308174Y-134219523D01*
X45324032Y-134223603D01*
X45347037Y-134226529D01*
X45379938Y-134228492D01*
X45425484Y-134229683D01*
X45486427Y-134230292D01*
X45565514Y-134230511D01*
X45624044Y-134230534D01*
X45715593Y-134230460D01*
X45787313Y-134230113D01*
X45841955Y-134229301D01*
X45882268Y-134227833D01*
X45911002Y-134225519D01*
X45930907Y-134222167D01*
X45944732Y-134217588D01*
X45955228Y-134211589D01*
X45961189Y-134207136D01*
X45975309Y-134195850D01*
X45985971Y-134185301D01*
X45992108Y-134173893D01*
X45992657Y-134160030D01*
X45986552Y-134142114D01*
G37*
X45986552Y-134142114D02*
X45972727Y-134118548D01*
X45950119Y-134087735D01*
X45917662Y-134048078D01*
X45874292Y-133997980D01*
X45818942Y-133935843D01*
X45750549Y-133860072D01*
X45671916Y-133773334D01*
X45508122Y-133592711D01*
X45727971Y-133587067D01*
X45803649Y-133585029D01*
X45860006Y-133583063D01*
X45900294Y-133580734D01*
X45927765Y-133577606D01*
X45945671Y-133573245D01*
X45957263Y-133567216D01*
X45965792Y-133559084D01*
X45969377Y-133554772D01*
X45988330Y-133520241D01*
X45985559Y-133487383D01*
X45969367Y-133461318D01*
X45947801Y-133434667D01*
X45632849Y-133431352D01*
X45540221Y-133430435D01*
X45467456Y-133429968D01*
X45411839Y-133430113D01*
X45370658Y-133431032D01*
X45341197Y-133432887D01*
X45320745Y-133435839D01*
X45306587Y-133440050D01*
X45296009Y-133445682D01*
X45287526Y-133451927D01*
X45271793Y-133465439D01*
X45261364Y-133478883D01*
X45257361Y-133494124D01*
X45260906Y-133513026D01*
X45273121Y-133537455D01*
X45295129Y-133569273D01*
X45328051Y-133610348D01*
X45373009Y-133662542D01*
X45431125Y-133727722D01*
X45497901Y-133801556D01*
X45738542Y-134066845D01*
X45519411Y-134072489D01*
X45443872Y-134074531D01*
X45387646Y-134076502D01*
X45347476Y-134078839D01*
X45320104Y-134081981D01*
X45302272Y-134086364D01*
X45290721Y-134092424D01*
X45282193Y-134100600D01*
X45278718Y-134104784D01*
X45259628Y-134141765D01*
X45262507Y-134176708D01*
X45286900Y-134207136D01*
X45296714Y-134214097D01*
X45308174Y-134219523D01*
X45324032Y-134223603D01*
X45347037Y-134226529D01*
X45379938Y-134228492D01*
X45425484Y-134229683D01*
X45486427Y-134230292D01*
X45565514Y-134230511D01*
X45624044Y-134230534D01*
X45715593Y-134230460D01*
X45787313Y-134230113D01*
X45841955Y-134229301D01*
X45882268Y-134227833D01*
X45911002Y-134225519D01*
X45930907Y-134222167D01*
X45944732Y-134217588D01*
X45955228Y-134211589D01*
X45961189Y-134207136D01*
X45975309Y-134195850D01*
X45985971Y-134185301D01*
X45992108Y-134173893D01*
X45992657Y-134160030D01*
X45986552Y-134142114D01*
G36*
X45990740Y-132611657D02*
G01*
X45989826Y-132535299D01*
X45987689Y-132476783D01*
X45983825Y-132433745D01*
X45977733Y-132403817D01*
X45968910Y-132384632D01*
X45956854Y-132373824D01*
X45941061Y-132369027D01*
X45921030Y-132367873D01*
X45918665Y-132367867D01*
X45896008Y-132368869D01*
X45878497Y-132373604D01*
X45865426Y-132384667D01*
X45856087Y-132404652D01*
X45849773Y-132436154D01*
X45845778Y-132481768D01*
X45843394Y-132544087D01*
X45841914Y-132625707D01*
X45841586Y-132650723D01*
X45838533Y-132892800D01*
X45773622Y-132896186D01*
X45708711Y-132899571D01*
X45708711Y-132731424D01*
X45708469Y-132665734D01*
X45707444Y-132618828D01*
X45705189Y-132586917D01*
X45701258Y-132566209D01*
X45695202Y-132552916D01*
X45686576Y-132543245D01*
X45686507Y-132543183D01*
X45652888Y-132525644D01*
X45616552Y-132526278D01*
X45585577Y-132544686D01*
X45582393Y-132548329D01*
X45574188Y-132561259D01*
X45568479Y-132578976D01*
X45564838Y-132605430D01*
X45562833Y-132644568D01*
X45562036Y-132700338D01*
X45561955Y-132736006D01*
X45561955Y-132898445D01*
X45403911Y-132898445D01*
X45403911Y-132651839D01*
X45403769Y-132570420D01*
X45403186Y-132508590D01*
X45401932Y-132463363D01*
X45399773Y-132431752D01*
X45396477Y-132410769D01*
X45391811Y-132397427D01*
X45385543Y-132388739D01*
X45383267Y-132386550D01*
X45351720Y-132370386D01*
X45315832Y-132369203D01*
X45284715Y-132382464D01*
X45274729Y-132392957D01*
X45269231Y-132403871D01*
X45264978Y-132420783D01*
X45261820Y-132446367D01*
X45259608Y-132483299D01*
X45258194Y-132534254D01*
X45257428Y-132601906D01*
X45257162Y-132688931D01*
X45257155Y-132708606D01*
X45257213Y-132797089D01*
X45257533Y-132865773D01*
X45258333Y-132917436D01*
X45259833Y-132954855D01*
X45262251Y-132980810D01*
X45265806Y-132998078D01*
X45270718Y-133009438D01*
X45277205Y-133017668D01*
X45281862Y-133022183D01*
X45290111Y-133028979D01*
X45300331Y-133034288D01*
X45315200Y-133038294D01*
X45337398Y-133041179D01*
X45369607Y-133043126D01*
X45414504Y-133044319D01*
X45474772Y-133044939D01*
X45553089Y-133045171D01*
X45619006Y-133045200D01*
X45711372Y-133045129D01*
X45783883Y-133044792D01*
X45839263Y-133044002D01*
X45880235Y-133042574D01*
X45909522Y-133040321D01*
X45929847Y-133037057D01*
X45943934Y-133032596D01*
X45954505Y-133026752D01*
X45961189Y-133021803D01*
X45990933Y-132998406D01*
X45990933Y-132708226D01*
X45990740Y-132611657D01*
G37*
X45990740Y-132611657D02*
X45989826Y-132535299D01*
X45987689Y-132476783D01*
X45983825Y-132433745D01*
X45977733Y-132403817D01*
X45968910Y-132384632D01*
X45956854Y-132373824D01*
X45941061Y-132369027D01*
X45921030Y-132367873D01*
X45918665Y-132367867D01*
X45896008Y-132368869D01*
X45878497Y-132373604D01*
X45865426Y-132384667D01*
X45856087Y-132404652D01*
X45849773Y-132436154D01*
X45845778Y-132481768D01*
X45843394Y-132544087D01*
X45841914Y-132625707D01*
X45841586Y-132650723D01*
X45838533Y-132892800D01*
X45773622Y-132896186D01*
X45708711Y-132899571D01*
X45708711Y-132731424D01*
X45708469Y-132665734D01*
X45707444Y-132618828D01*
X45705189Y-132586917D01*
X45701258Y-132566209D01*
X45695202Y-132552916D01*
X45686576Y-132543245D01*
X45686507Y-132543183D01*
X45652888Y-132525644D01*
X45616552Y-132526278D01*
X45585577Y-132544686D01*
X45582393Y-132548329D01*
X45574188Y-132561259D01*
X45568479Y-132578976D01*
X45564838Y-132605430D01*
X45562833Y-132644568D01*
X45562036Y-132700338D01*
X45561955Y-132736006D01*
X45561955Y-132898445D01*
X45403911Y-132898445D01*
X45403911Y-132651839D01*
X45403769Y-132570420D01*
X45403186Y-132508590D01*
X45401932Y-132463363D01*
X45399773Y-132431752D01*
X45396477Y-132410769D01*
X45391811Y-132397427D01*
X45385543Y-132388739D01*
X45383267Y-132386550D01*
X45351720Y-132370386D01*
X45315832Y-132369203D01*
X45284715Y-132382464D01*
X45274729Y-132392957D01*
X45269231Y-132403871D01*
X45264978Y-132420783D01*
X45261820Y-132446367D01*
X45259608Y-132483299D01*
X45258194Y-132534254D01*
X45257428Y-132601906D01*
X45257162Y-132688931D01*
X45257155Y-132708606D01*
X45257213Y-132797089D01*
X45257533Y-132865773D01*
X45258333Y-132917436D01*
X45259833Y-132954855D01*
X45262251Y-132980810D01*
X45265806Y-132998078D01*
X45270718Y-133009438D01*
X45277205Y-133017668D01*
X45281862Y-133022183D01*
X45290111Y-133028979D01*
X45300331Y-133034288D01*
X45315200Y-133038294D01*
X45337398Y-133041179D01*
X45369607Y-133043126D01*
X45414504Y-133044319D01*
X45474772Y-133044939D01*
X45553089Y-133045171D01*
X45619006Y-133045200D01*
X45711372Y-133045129D01*
X45783883Y-133044792D01*
X45839263Y-133044002D01*
X45880235Y-133042574D01*
X45909522Y-133040321D01*
X45929847Y-133037057D01*
X45943934Y-133032596D01*
X45954505Y-133026752D01*
X45961189Y-133021803D01*
X45990933Y-132998406D01*
X45990933Y-132708226D01*
X45990740Y-132611657D01*
G36*
X45990725Y-131823691D02*
G01*
X45986364Y-131694712D01*
X45973139Y-131585009D01*
X45950259Y-131492774D01*
X45916930Y-131416198D01*
X45872362Y-131353473D01*
X45815764Y-131302788D01*
X45746342Y-131262337D01*
X45744649Y-131261541D01*
X45682517Y-131237399D01*
X45627491Y-131228797D01*
X45572113Y-131235769D01*
X45508927Y-131258346D01*
X45499311Y-131262628D01*
X45443034Y-131291828D01*
X45399549Y-131324644D01*
X45362583Y-131366998D01*
X45325865Y-131424810D01*
X45323948Y-131428169D01*
X45299773Y-131478496D01*
X45281718Y-131535379D01*
X45269161Y-131602473D01*
X45261478Y-131683435D01*
X45258047Y-131781918D01*
X45257749Y-131816714D01*
X45257155Y-131982406D01*
X45286900Y-132005803D01*
X45296681Y-132012743D01*
X45308103Y-132018158D01*
X45323905Y-132022235D01*
X45346825Y-132025163D01*
X45379604Y-132027133D01*
X45403911Y-132027775D01*
X45403911Y-131871156D01*
X45403911Y-131777274D01*
X45405517Y-131722336D01*
X45409745Y-131665940D01*
X45415708Y-131619655D01*
X45416210Y-131616861D01*
X45438264Y-131534652D01*
X45471400Y-131470886D01*
X45517153Y-131423548D01*
X45577061Y-131390618D01*
X45592939Y-131384892D01*
X45617667Y-131379279D01*
X45642098Y-131381709D01*
X45674600Y-131393533D01*
X45690566Y-131400660D01*
X45732994Y-131424000D01*
X45762760Y-131452120D01*
X45783489Y-131483060D01*
X45810463Y-131545034D01*
X45830002Y-131624349D01*
X45841254Y-131716747D01*
X45843730Y-131783667D01*
X45844178Y-131871156D01*
X45403911Y-131871156D01*
X45403911Y-132027775D01*
X45424979Y-132028332D01*
X45485689Y-132028950D01*
X45564474Y-132029175D01*
X45626080Y-132029200D01*
X45935515Y-132029200D01*
X45963224Y-132001491D01*
X45974456Y-131989194D01*
X45982147Y-131975897D01*
X45986960Y-131957328D01*
X45989554Y-131929214D01*
X45990590Y-131887283D01*
X45990730Y-131827263D01*
X45990725Y-131823691D01*
G37*
X45990725Y-131823691D02*
X45986364Y-131694712D01*
X45973139Y-131585009D01*
X45950259Y-131492774D01*
X45916930Y-131416198D01*
X45872362Y-131353473D01*
X45815764Y-131302788D01*
X45746342Y-131262337D01*
X45744649Y-131261541D01*
X45682517Y-131237399D01*
X45627491Y-131228797D01*
X45572113Y-131235769D01*
X45508927Y-131258346D01*
X45499311Y-131262628D01*
X45443034Y-131291828D01*
X45399549Y-131324644D01*
X45362583Y-131366998D01*
X45325865Y-131424810D01*
X45323948Y-131428169D01*
X45299773Y-131478496D01*
X45281718Y-131535379D01*
X45269161Y-131602473D01*
X45261478Y-131683435D01*
X45258047Y-131781918D01*
X45257749Y-131816714D01*
X45257155Y-131982406D01*
X45286900Y-132005803D01*
X45296681Y-132012743D01*
X45308103Y-132018158D01*
X45323905Y-132022235D01*
X45346825Y-132025163D01*
X45379604Y-132027133D01*
X45403911Y-132027775D01*
X45403911Y-131871156D01*
X45403911Y-131777274D01*
X45405517Y-131722336D01*
X45409745Y-131665940D01*
X45415708Y-131619655D01*
X45416210Y-131616861D01*
X45438264Y-131534652D01*
X45471400Y-131470886D01*
X45517153Y-131423548D01*
X45577061Y-131390618D01*
X45592939Y-131384892D01*
X45617667Y-131379279D01*
X45642098Y-131381709D01*
X45674600Y-131393533D01*
X45690566Y-131400660D01*
X45732994Y-131424000D01*
X45762760Y-131452120D01*
X45783489Y-131483060D01*
X45810463Y-131545034D01*
X45830002Y-131624349D01*
X45841254Y-131716747D01*
X45843730Y-131783667D01*
X45844178Y-131871156D01*
X45403911Y-131871156D01*
X45403911Y-132027775D01*
X45424979Y-132028332D01*
X45485689Y-132028950D01*
X45564474Y-132029175D01*
X45626080Y-132029200D01*
X45935515Y-132029200D01*
X45963224Y-132001491D01*
X45974456Y-131989194D01*
X45982147Y-131975897D01*
X45986960Y-131957328D01*
X45989554Y-131929214D01*
X45990590Y-131887283D01*
X45990730Y-131827263D01*
X45990725Y-131823691D01*
G36*
X45988966Y-129097335D02*
G01*
X45981965Y-129077745D01*
X45981623Y-129076990D01*
X45961322Y-129050387D01*
X45940439Y-129035730D01*
X45930648Y-129032862D01*
X45917639Y-129033004D01*
X45899105Y-129037039D01*
X45872743Y-129045854D01*
X45836248Y-129060331D01*
X45787313Y-129081355D01*
X45723635Y-129109812D01*
X45642907Y-129146585D01*
X45598784Y-129166825D01*
X45520015Y-129203375D01*
X45447577Y-129237685D01*
X45384120Y-129268448D01*
X45332292Y-129294352D01*
X45294741Y-129314090D01*
X45274116Y-129326350D01*
X45271267Y-129328776D01*
X45258698Y-129359817D01*
X45260381Y-129394879D01*
X45275668Y-129423000D01*
X45276911Y-129424146D01*
X45293846Y-129435332D01*
X45326830Y-129454096D01*
X45371620Y-129478125D01*
X45423968Y-129505103D01*
X45443258Y-129514799D01*
X45589850Y-129587986D01*
X45430607Y-129667760D01*
X45375585Y-129696233D01*
X45327868Y-129722650D01*
X45291107Y-129744852D01*
X45268956Y-129760681D01*
X45264259Y-129766046D01*
X45257898Y-129807743D01*
X45271267Y-129842151D01*
X45285554Y-129852272D01*
X45317308Y-129869786D01*
X45363403Y-129893265D01*
X45420715Y-129921280D01*
X45486120Y-129952401D01*
X45556493Y-129985201D01*
X45628709Y-130018250D01*
X45699645Y-130050119D01*
X45766175Y-130079381D01*
X45825174Y-130104605D01*
X45873519Y-130124364D01*
X45908085Y-130137228D01*
X45925747Y-130141769D01*
X45926387Y-130141723D01*
X45948612Y-130130674D01*
X45971247Y-130108590D01*
X45972232Y-130107290D01*
X45987575Y-130080147D01*
X45987426Y-130055042D01*
X45984534Y-130045632D01*
X45978282Y-130034166D01*
X45965986Y-130021990D01*
X45945092Y-130007643D01*
X45913051Y-129989664D01*
X45867312Y-129966593D01*
X45805323Y-129936970D01*
X45748102Y-129910255D01*
X45681774Y-129879520D01*
X45622126Y-129851979D01*
X45572275Y-129829062D01*
X45535336Y-129812202D01*
X45514427Y-129802827D01*
X45511155Y-129801460D01*
X45516503Y-129795311D01*
X45538891Y-129781178D01*
X45575054Y-129760943D01*
X45621723Y-129736485D01*
X45640978Y-129726752D01*
X45705996Y-129693783D01*
X45753346Y-129668357D01*
X45785781Y-129648388D01*
X45806054Y-129631790D01*
X45816918Y-129616476D01*
X45821125Y-129600360D01*
X45821600Y-129589857D01*
X45819958Y-129571330D01*
X45813169Y-129555096D01*
X45798434Y-129538965D01*
X45772956Y-129520749D01*
X45733939Y-129498261D01*
X45678586Y-129469311D01*
X45647097Y-129453338D01*
X45596913Y-129427430D01*
X45555296Y-129404833D01*
X45525758Y-129387542D01*
X45511811Y-129377550D01*
X45511230Y-129376191D01*
X45522207Y-129369739D01*
X45550710Y-129355292D01*
X45593756Y-129334297D01*
X45648362Y-129308203D01*
X45711546Y-129278454D01*
X45742929Y-129263820D01*
X45823922Y-129225750D01*
X45886244Y-129195095D01*
X45931929Y-129170263D01*
X45963011Y-129149663D01*
X45981522Y-129131702D01*
X45989496Y-129114790D01*
X45988966Y-129097335D01*
G37*
X45988966Y-129097335D02*
X45981965Y-129077745D01*
X45981623Y-129076990D01*
X45961322Y-129050387D01*
X45940439Y-129035730D01*
X45930648Y-129032862D01*
X45917639Y-129033004D01*
X45899105Y-129037039D01*
X45872743Y-129045854D01*
X45836248Y-129060331D01*
X45787313Y-129081355D01*
X45723635Y-129109812D01*
X45642907Y-129146585D01*
X45598784Y-129166825D01*
X45520015Y-129203375D01*
X45447577Y-129237685D01*
X45384120Y-129268448D01*
X45332292Y-129294352D01*
X45294741Y-129314090D01*
X45274116Y-129326350D01*
X45271267Y-129328776D01*
X45258698Y-129359817D01*
X45260381Y-129394879D01*
X45275668Y-129423000D01*
X45276911Y-129424146D01*
X45293846Y-129435332D01*
X45326830Y-129454096D01*
X45371620Y-129478125D01*
X45423968Y-129505103D01*
X45443258Y-129514799D01*
X45589850Y-129587986D01*
X45430607Y-129667760D01*
X45375585Y-129696233D01*
X45327868Y-129722650D01*
X45291107Y-129744852D01*
X45268956Y-129760681D01*
X45264259Y-129766046D01*
X45257898Y-129807743D01*
X45271267Y-129842151D01*
X45285554Y-129852272D01*
X45317308Y-129869786D01*
X45363403Y-129893265D01*
X45420715Y-129921280D01*
X45486120Y-129952401D01*
X45556493Y-129985201D01*
X45628709Y-130018250D01*
X45699645Y-130050119D01*
X45766175Y-130079381D01*
X45825174Y-130104605D01*
X45873519Y-130124364D01*
X45908085Y-130137228D01*
X45925747Y-130141769D01*
X45926387Y-130141723D01*
X45948612Y-130130674D01*
X45971247Y-130108590D01*
X45972232Y-130107290D01*
X45987575Y-130080147D01*
X45987426Y-130055042D01*
X45984534Y-130045632D01*
X45978282Y-130034166D01*
X45965986Y-130021990D01*
X45945092Y-130007643D01*
X45913051Y-129989664D01*
X45867312Y-129966593D01*
X45805323Y-129936970D01*
X45748102Y-129910255D01*
X45681774Y-129879520D01*
X45622126Y-129851979D01*
X45572275Y-129829062D01*
X45535336Y-129812202D01*
X45514427Y-129802827D01*
X45511155Y-129801460D01*
X45516503Y-129795311D01*
X45538891Y-129781178D01*
X45575054Y-129760943D01*
X45621723Y-129736485D01*
X45640978Y-129726752D01*
X45705996Y-129693783D01*
X45753346Y-129668357D01*
X45785781Y-129648388D01*
X45806054Y-129631790D01*
X45816918Y-129616476D01*
X45821125Y-129600360D01*
X45821600Y-129589857D01*
X45819958Y-129571330D01*
X45813169Y-129555096D01*
X45798434Y-129538965D01*
X45772956Y-129520749D01*
X45733939Y-129498261D01*
X45678586Y-129469311D01*
X45647097Y-129453338D01*
X45596913Y-129427430D01*
X45555296Y-129404833D01*
X45525758Y-129387542D01*
X45511811Y-129377550D01*
X45511230Y-129376191D01*
X45522207Y-129369739D01*
X45550710Y-129355292D01*
X45593756Y-129334297D01*
X45648362Y-129308203D01*
X45711546Y-129278454D01*
X45742929Y-129263820D01*
X45823922Y-129225750D01*
X45886244Y-129195095D01*
X45931929Y-129170263D01*
X45963011Y-129149663D01*
X45981522Y-129131702D01*
X45989496Y-129114790D01*
X45988966Y-129097335D01*
G36*
X45984123Y-128653386D02*
G01*
X45969353Y-128629673D01*
X45947773Y-128603022D01*
X45626227Y-128603022D01*
X45532170Y-128603107D01*
X45458068Y-128603471D01*
X45401296Y-128604276D01*
X45359232Y-128605687D01*
X45329252Y-128607867D01*
X45308733Y-128610979D01*
X45295051Y-128615186D01*
X45285584Y-128620652D01*
X45280918Y-128624528D01*
X45260425Y-128655966D01*
X45261261Y-128691767D01*
X45278736Y-128723127D01*
X45300316Y-128749778D01*
X45947773Y-128749778D01*
X45969353Y-128723127D01*
X45985051Y-128697406D01*
X45990933Y-128676400D01*
X45984123Y-128653386D01*
G37*
X45984123Y-128653386D02*
X45969353Y-128629673D01*
X45947773Y-128603022D01*
X45626227Y-128603022D01*
X45532170Y-128603107D01*
X45458068Y-128603471D01*
X45401296Y-128604276D01*
X45359232Y-128605687D01*
X45329252Y-128607867D01*
X45308733Y-128610979D01*
X45295051Y-128615186D01*
X45285584Y-128620652D01*
X45280918Y-128624528D01*
X45260425Y-128655966D01*
X45261261Y-128691767D01*
X45278736Y-128723127D01*
X45300316Y-128749778D01*
X45947773Y-128749778D01*
X45969353Y-128723127D01*
X45985051Y-128697406D01*
X45990933Y-128676400D01*
X45984123Y-128653386D01*
G36*
X45990837Y-127878935D02*
G01*
X45990458Y-127800228D01*
X45989667Y-127739137D01*
X45988330Y-127693183D01*
X45986317Y-127659886D01*
X45983494Y-127636764D01*
X45979731Y-127621338D01*
X45974895Y-127611129D01*
X45971178Y-127606187D01*
X45938642Y-127580543D01*
X45904862Y-127577441D01*
X45874174Y-127593289D01*
X45861911Y-127603652D01*
X45853550Y-127614804D01*
X45848343Y-127630965D01*
X45845543Y-127656358D01*
X45844404Y-127695202D01*
X45844179Y-127751720D01*
X45844178Y-127762820D01*
X45844178Y-127908756D01*
X45573244Y-127908756D01*
X45487846Y-127908852D01*
X45422136Y-127909289D01*
X45373226Y-127910288D01*
X45338227Y-127912072D01*
X45314251Y-127914863D01*
X45298407Y-127918883D01*
X45287809Y-127924355D01*
X45279733Y-127931334D01*
X45259888Y-127964266D01*
X45261452Y-127998646D01*
X45284094Y-128029824D01*
X45286900Y-128032114D01*
X45297508Y-128039571D01*
X45309919Y-128045253D01*
X45327150Y-128049399D01*
X45352216Y-128052250D01*
X45388133Y-128054046D01*
X45437917Y-128055028D01*
X45504583Y-128055436D01*
X45580411Y-128055511D01*
X45844178Y-128055511D01*
X45844178Y-128194873D01*
X45844582Y-128254678D01*
X45846160Y-128296082D01*
X45849453Y-128323252D01*
X45855008Y-128340354D01*
X45863369Y-128351557D01*
X45864822Y-128352917D01*
X45898061Y-128369275D01*
X45935638Y-128367828D01*
X45968355Y-128349022D01*
X45974702Y-128341750D01*
X45979734Y-128332373D01*
X45983604Y-128318391D01*
X45986463Y-128297304D01*
X45988465Y-128266611D01*
X45989761Y-128223811D01*
X45990502Y-128166405D01*
X45990842Y-128091890D01*
X45990932Y-127997767D01*
X45990933Y-127977740D01*
X45990837Y-127878935D01*
G37*
X45990837Y-127878935D02*
X45990458Y-127800228D01*
X45989667Y-127739137D01*
X45988330Y-127693183D01*
X45986317Y-127659886D01*
X45983494Y-127636764D01*
X45979731Y-127621338D01*
X45974895Y-127611129D01*
X45971178Y-127606187D01*
X45938642Y-127580543D01*
X45904862Y-127577441D01*
X45874174Y-127593289D01*
X45861911Y-127603652D01*
X45853550Y-127614804D01*
X45848343Y-127630965D01*
X45845543Y-127656358D01*
X45844404Y-127695202D01*
X45844179Y-127751720D01*
X45844178Y-127762820D01*
X45844178Y-127908756D01*
X45573244Y-127908756D01*
X45487846Y-127908852D01*
X45422136Y-127909289D01*
X45373226Y-127910288D01*
X45338227Y-127912072D01*
X45314251Y-127914863D01*
X45298407Y-127918883D01*
X45287809Y-127924355D01*
X45279733Y-127931334D01*
X45259888Y-127964266D01*
X45261452Y-127998646D01*
X45284094Y-128029824D01*
X45286900Y-128032114D01*
X45297508Y-128039571D01*
X45309919Y-128045253D01*
X45327150Y-128049399D01*
X45352216Y-128052250D01*
X45388133Y-128054046D01*
X45437917Y-128055028D01*
X45504583Y-128055436D01*
X45580411Y-128055511D01*
X45844178Y-128055511D01*
X45844178Y-128194873D01*
X45844582Y-128254678D01*
X45846160Y-128296082D01*
X45849453Y-128323252D01*
X45855008Y-128340354D01*
X45863369Y-128351557D01*
X45864822Y-128352917D01*
X45898061Y-128369275D01*
X45935638Y-128367828D01*
X45968355Y-128349022D01*
X45974702Y-128341750D01*
X45979734Y-128332373D01*
X45983604Y-128318391D01*
X45986463Y-128297304D01*
X45988465Y-128266611D01*
X45989761Y-128223811D01*
X45990502Y-128166405D01*
X45990842Y-128091890D01*
X45990932Y-127997767D01*
X45990933Y-127977740D01*
X45990837Y-127878935D01*
G36*
X45985467Y-126613177D02*
G01*
X45963224Y-126581798D01*
X45935515Y-126554089D01*
X45626080Y-126554089D01*
X45534201Y-126554162D01*
X45462160Y-126554505D01*
X45407220Y-126555308D01*
X45366640Y-126556759D01*
X45337683Y-126559048D01*
X45317609Y-126562364D01*
X45303679Y-126566895D01*
X45293155Y-126572831D01*
X45286900Y-126577486D01*
X45262327Y-126608217D01*
X45259659Y-126643504D01*
X45274729Y-126675755D01*
X45283626Y-126686412D01*
X45295443Y-126693536D01*
X45314474Y-126697833D01*
X45345008Y-126700009D01*
X45391338Y-126700772D01*
X45427129Y-126700845D01*
X45561955Y-126700845D01*
X45561955Y-127197556D01*
X45439300Y-127197556D01*
X45383213Y-127198069D01*
X45344667Y-127200124D01*
X45318639Y-127204492D01*
X45300103Y-127211944D01*
X45286900Y-127220953D01*
X45262396Y-127251856D01*
X45259494Y-127286804D01*
X45276911Y-127320262D01*
X45286041Y-127329396D01*
X45298145Y-127335848D01*
X45316999Y-127340103D01*
X45346380Y-127342648D01*
X45390063Y-127343971D01*
X45451825Y-127344557D01*
X45466000Y-127344625D01*
X45582369Y-127345109D01*
X45678273Y-127345359D01*
X45755823Y-127345277D01*
X45817131Y-127344769D01*
X45864310Y-127343738D01*
X45899470Y-127342087D01*
X45924724Y-127339721D01*
X45942183Y-127336543D01*
X45953959Y-127332456D01*
X45962165Y-127327366D01*
X45968355Y-127321734D01*
X45988156Y-127289872D01*
X45985467Y-127256643D01*
X45963224Y-127225265D01*
X45948874Y-127212567D01*
X45933022Y-127204474D01*
X45910446Y-127199958D01*
X45875922Y-127197994D01*
X45824224Y-127197556D01*
X45708711Y-127197556D01*
X45708711Y-126700845D01*
X45827244Y-126700845D01*
X45881852Y-126700338D01*
X45918725Y-126698302D01*
X45942693Y-126693965D01*
X45958585Y-126686553D01*
X45968355Y-126678267D01*
X45988156Y-126646406D01*
X45985467Y-126613177D01*
G37*
X45985467Y-126613177D02*
X45963224Y-126581798D01*
X45935515Y-126554089D01*
X45626080Y-126554089D01*
X45534201Y-126554162D01*
X45462160Y-126554505D01*
X45407220Y-126555308D01*
X45366640Y-126556759D01*
X45337683Y-126559048D01*
X45317609Y-126562364D01*
X45303679Y-126566895D01*
X45293155Y-126572831D01*
X45286900Y-126577486D01*
X45262327Y-126608217D01*
X45259659Y-126643504D01*
X45274729Y-126675755D01*
X45283626Y-126686412D01*
X45295443Y-126693536D01*
X45314474Y-126697833D01*
X45345008Y-126700009D01*
X45391338Y-126700772D01*
X45427129Y-126700845D01*
X45561955Y-126700845D01*
X45561955Y-127197556D01*
X45439300Y-127197556D01*
X45383213Y-127198069D01*
X45344667Y-127200124D01*
X45318639Y-127204492D01*
X45300103Y-127211944D01*
X45286900Y-127220953D01*
X45262396Y-127251856D01*
X45259494Y-127286804D01*
X45276911Y-127320262D01*
X45286041Y-127329396D01*
X45298145Y-127335848D01*
X45316999Y-127340103D01*
X45346380Y-127342648D01*
X45390063Y-127343971D01*
X45451825Y-127344557D01*
X45466000Y-127344625D01*
X45582369Y-127345109D01*
X45678273Y-127345359D01*
X45755823Y-127345277D01*
X45817131Y-127344769D01*
X45864310Y-127343738D01*
X45899470Y-127342087D01*
X45924724Y-127339721D01*
X45942183Y-127336543D01*
X45953959Y-127332456D01*
X45962165Y-127327366D01*
X45968355Y-127321734D01*
X45988156Y-127289872D01*
X45985467Y-127256643D01*
X45963224Y-127225265D01*
X45948874Y-127212567D01*
X45933022Y-127204474D01*
X45910446Y-127199958D01*
X45875922Y-127197994D01*
X45824224Y-127197556D01*
X45708711Y-127197556D01*
X45708711Y-126700845D01*
X45827244Y-126700845D01*
X45881852Y-126700338D01*
X45918725Y-126698302D01*
X45942693Y-126693965D01*
X45958585Y-126686553D01*
X45968355Y-126678267D01*
X45988156Y-126646406D01*
X45985467Y-126613177D01*
D13*
%TO.C,J1*%
X89919000Y-90160600D02*
X87119000Y-90160600D01*
X86469000Y-90860600D02*
X86469000Y-91460600D01*
X87119000Y-92160600D02*
X89919000Y-92160600D01*
X90569000Y-91460600D02*
X90569000Y-90860600D01*
X87169000Y-90160600D02*
G75*
G03*
X86469000Y-90860600I0J-700000D01*
G01*
X86469000Y-91460600D02*
G75*
G03*
X87169000Y-92160600I700000J0D01*
G01*
X89869000Y-92160600D02*
G75*
G03*
X90569000Y-91460600I0J700000D01*
G01*
X90569000Y-90860600D02*
G75*
G03*
X89869000Y-90160600I-700000J0D01*
G01*
%TO.C,J2*%
X96106200Y-91460600D02*
X96106200Y-90860600D01*
X92656200Y-92160600D02*
X95456200Y-92160600D01*
X92006200Y-90860600D02*
X92006200Y-91460600D01*
X95456200Y-90160600D02*
X92656200Y-90160600D01*
X96106200Y-90860600D02*
G75*
G03*
X95406200Y-90160600I-700000J0D01*
G01*
X95406200Y-92160600D02*
G75*
G03*
X96106200Y-91460600I0J700000D01*
G01*
X92006200Y-91460600D02*
G75*
G03*
X92706200Y-92160600I700000J0D01*
G01*
X92706200Y-90160600D02*
G75*
G03*
X92006200Y-90860600I0J-700000D01*
G01*
%TO.C,J1*%
D11*
X88852333Y-88812980D02*
X88852333Y-89527266D01*
X88899952Y-89670123D01*
X88995190Y-89765361D01*
X89138047Y-89812980D01*
X89233285Y-89812980D01*
X87852333Y-89812980D02*
X88423761Y-89812980D01*
X88138047Y-89812980D02*
X88138047Y-88812980D01*
X88233285Y-88955838D01*
X88328523Y-89051076D01*
X88423761Y-89098695D01*
X86642533Y-92327480D02*
X86023485Y-92327480D01*
X86356819Y-92708433D01*
X86213961Y-92708433D01*
X86118723Y-92756052D01*
X86071104Y-92803671D01*
X86023485Y-92898909D01*
X86023485Y-93137004D01*
X86071104Y-93232242D01*
X86118723Y-93279861D01*
X86213961Y-93327480D01*
X86499676Y-93327480D01*
X86594914Y-93279861D01*
X86642533Y-93232242D01*
X90252585Y-93327480D02*
X90824014Y-93327480D01*
X90538300Y-93327480D02*
X90538300Y-92327480D01*
X90633538Y-92470338D01*
X90728776Y-92565576D01*
X90824014Y-92613195D01*
%TO.C,J2*%
X94389533Y-88812980D02*
X94389533Y-89527266D01*
X94437152Y-89670123D01*
X94532390Y-89765361D01*
X94675247Y-89812980D01*
X94770485Y-89812980D01*
X93960961Y-88908219D02*
X93913342Y-88860600D01*
X93818104Y-88812980D01*
X93580009Y-88812980D01*
X93484771Y-88860600D01*
X93437152Y-88908219D01*
X93389533Y-89003457D01*
X93389533Y-89098695D01*
X93437152Y-89241552D01*
X94008580Y-89812980D01*
X93389533Y-89812980D01*
X95751685Y-93327480D02*
X96323114Y-93327480D01*
X96037400Y-93327480D02*
X96037400Y-92327480D01*
X96132638Y-92470338D01*
X96227876Y-92565576D01*
X96323114Y-92613195D01*
X92306733Y-92327480D02*
X91687685Y-92327480D01*
X92021019Y-92708433D01*
X91878161Y-92708433D01*
X91782923Y-92756052D01*
X91735304Y-92803671D01*
X91687685Y-92898909D01*
X91687685Y-93137004D01*
X91735304Y-93232242D01*
X91782923Y-93279861D01*
X91878161Y-93327480D01*
X92163876Y-93327480D01*
X92259114Y-93279861D01*
X92306733Y-93232242D01*
%TD*%
M02*
