M48
; DRILL file {KiCad 5.1.6-c6e7f7d~87~ubuntu19.10.1} date Mon Jan 18 21:02:25 2021
; FORMAT={-:-/ absolute / inch / decimal}
; #@! TF.CreationDate,2021-01-18T21:02:25-03:00
; #@! TF.GenerationSoftware,Kicad,Pcbnew,5.1.6-c6e7f7d~87~ubuntu19.10.1
FMAT,2
INCH
T1C0.0157
T2C0.0236
T3C0.0276
T4C0.0315
T5C0.0354
T6C0.0394
T7C0.0400
T8C0.0433
T9C0.0512
T10C0.1693
%
G90
G05
T1
X2.729Y-4.221
X2.788Y-4.022
X2.802Y-4.48
X3.195Y-4.062
X3.85Y-4.591
X3.904Y-4.668
X3.942Y-3.409
X4.027Y-4.586
X4.029Y-4.0825
X4.076Y-4.497
X4.12Y-3.848
X4.136Y-4.133
X4.206Y-3.983
X4.209Y-4.132
T2
X1.909Y-5.694
X1.9462Y-5.6042
X1.9462Y-5.7838
X2.036Y-5.567
X2.036Y-5.821
X2.1258Y-5.6042
X2.1258Y-5.7838
X2.163Y-5.694
X5.169Y-2.348
X5.2062Y-2.2582
X5.2062Y-2.4378
X5.296Y-2.221
X5.296Y-2.475
X5.3858Y-2.2582
X5.3858Y-2.4378
X5.423Y-2.348
X1.909Y-2.348
X1.9462Y-2.2582
X1.9462Y-2.4378
X2.036Y-2.221
X2.036Y-2.475
X2.1258Y-2.2582
X2.1258Y-2.4378
X2.163Y-2.348
X5.169Y-5.694
X5.2062Y-5.6042
X5.2062Y-5.7838
X5.296Y-5.567
X5.296Y-5.821
X5.3858Y-5.6042
X5.3858Y-5.7838
X5.423Y-5.694
T3
X3.6226Y-4.443
X3.6226Y-4.743
X3.5077Y-4.443
X3.5077Y-4.743
X3.278Y-3.939
X3.278Y-4.239
X3.7374Y-3.939
X3.7374Y-4.239
X3.8523Y-3.939
X3.8523Y-4.239
X3.3929Y-4.443
X3.3929Y-4.743
X3.7374Y-4.443
X3.7374Y-4.743
X3.8523Y-4.443
X3.8523Y-4.743
X4.654Y-4.738
X4.954Y-4.738
X3.5077Y-3.939
X3.5077Y-4.239
X4.04Y-3.466
X4.04Y-3.766
X3.3929Y-3.939
X3.3929Y-4.239
X3.278Y-4.443
X3.278Y-4.743
X4.152Y-3.4669
X4.152Y-3.7669
X4.654Y-4.613
X4.954Y-4.613
X3.8671Y-2.689
X4.1671Y-2.689
X3.9671Y-4.443
X3.9671Y-4.743
X3.6226Y-3.939
X3.6226Y-4.239
X3.9671Y-3.939
X3.9671Y-4.239
T4
X2.628Y-3.772
X2.628Y-3.872
X2.628Y-3.972
X2.628Y-4.072
X2.628Y-4.172
X2.628Y-4.272
X2.628Y-4.372
X2.628Y-4.472
X2.928Y-3.772
X2.928Y-3.872
X2.928Y-3.972
X2.928Y-4.072
X2.928Y-4.172
X2.928Y-4.272
X2.928Y-4.372
X2.928Y-4.472
X4.4343Y-3.736
X4.4343Y-3.836
X4.4343Y-3.936
X4.4343Y-4.036
X4.4343Y-4.136
X4.4343Y-4.236
X4.4343Y-4.336
X4.4343Y-4.436
X4.7343Y-3.736
X4.7343Y-3.836
X4.7343Y-3.936
X4.7343Y-4.036
X4.7343Y-4.136
X4.7343Y-4.236
X4.7343Y-4.336
X4.7343Y-4.436
X2.686Y-3.64
X2.8829Y-3.64
X4.476Y-3.598
X4.6729Y-3.598
X4.314Y-2.5631
X4.314Y-2.76
T5
X4.303Y-5.294
X4.403Y-5.294
X2.5571Y-4.7579
X2.6571Y-4.7579
X2.922Y-5.295
X3.022Y-5.295
X3.649Y-5.294
X3.749Y-5.294
X2.922Y-4.758
X3.022Y-4.758
X4.7437Y-4.9768
X4.8437Y-4.9768
X3.967Y-5.026
X4.067Y-5.026
X2.5571Y-5.0236
X2.6571Y-5.0236
X4.7437Y-5.3535
X4.8437Y-5.3535
X3.967Y-5.294
X4.067Y-5.294
X3.302Y-5.025
X3.402Y-5.025
X2.922Y-5.024
X3.022Y-5.024
X3.301Y-5.294
X3.401Y-5.294
X2.5571Y-5.2953
X2.6571Y-5.2953
X4.304Y-5.027
X4.404Y-5.027
X3.6492Y-5.026
X3.7492Y-5.026
T6
X4.172Y-2.31
X4.4673Y-2.31
X2.4419Y-2.2116
X2.4419Y-2.3116
X2.4419Y-2.4116
X2.4419Y-2.5116
X3.9872Y-3.0266
X4.2864Y-3.0266
X3.5197Y-3.7746
X3.6197Y-3.7746
X3.7197Y-3.7746
X3.8197Y-3.7746
T7
X2.7911Y-2.5152
X2.7911Y-2.6152
X2.7911Y-2.7152
X2.7911Y-2.8152
X2.7911Y-2.9152
X2.7911Y-3.0152
X2.7911Y-3.1152
X2.7911Y-3.2152
X3.6911Y-2.5152
X3.6911Y-2.6152
X3.6911Y-2.7152
X3.6911Y-2.8152
X3.6911Y-2.9152
X3.6911Y-3.0152
X3.6911Y-3.1152
X3.6911Y-3.2152
T8
X3.3941Y-5.6228
X3.3941Y-5.8
X3.65Y-5.6228
X3.65Y-5.8
X2.3541Y-5.6228
X2.3541Y-5.8
X2.61Y-5.6228
X2.61Y-5.8
X2.8741Y-5.6228
X2.8741Y-5.8
X3.13Y-5.6228
X3.13Y-5.8
T9
X5.311Y-2.6713
X5.311Y-2.8681
X5.311Y-3.065
X2.087Y-4.603
X2.087Y-4.7999
X2.087Y-4.9967
X5.31Y-3.4563
X5.31Y-3.6531
X5.31Y-3.85
X5.31Y-4.9683
X5.31Y-5.1651
X5.31Y-5.362
X2.0846Y-3.5925
X2.0846Y-3.7894
X2.0846Y-3.9862
X2.0846Y-4.1831
X5.31Y-4.2382
X5.31Y-4.435
X5.31Y-4.6319
X2.079Y-2.681
X2.079Y-2.8779
X2.079Y-3.0747
X2.079Y-3.2716
T10
X2.036Y-5.694
X5.296Y-2.348
X2.036Y-2.348
X5.296Y-5.694
T6
G00X4.5787Y-2.5197
M15
G01X4.5787Y-2.5984
M16
G05
G00X4.8031Y-2.4409
M15
G01X4.7244Y-2.4409
M16
G05
G00X4.8031Y-2.6772
M15
G01X4.7244Y-2.6772
M16
G05
T0
M30
