%TF.GenerationSoftware,KiCad,Pcbnew,5.1.6-c6e7f7d~87~ubuntu19.10.1*%
%TF.CreationDate,2021-01-18T21:02:38-03:00*%
%TF.ProjectId,VLTUnivesp,564c5455-6e69-4766-9573-702e6b696361,rev?*%
%TF.SameCoordinates,Original*%
%TF.FileFunction,Soldermask,Bot*%
%TF.FilePolarity,Negative*%
%FSLAX46Y46*%
G04 Gerber Fmt 4.6, Leading zero omitted, Abs format (unit mm)*
G04 Created by KiCad (PCBNEW 5.1.6-c6e7f7d~87~ubuntu19.10.1) date 2021-01-18 21:02:38*
%MOMM*%
%LPD*%
G01*
G04 APERTURE LIST*
%ADD10O,1.400000X1.400000*%
%ADD11C,1.400000*%
%ADD12O,1.600000X1.600000*%
%ADD13R,1.600000X1.600000*%
%ADD14C,8.600000*%
%ADD15C,0.900000*%
%ADD16R,2.000000X2.000000*%
%ADD17C,2.000000*%
%ADD18R,1.700000X1.700000*%
%ADD19O,1.700000X1.700000*%
%ADD20C,0.100000*%
%ADD21R,1.000000X1.500000*%
%ADD22R,3.500000X3.500000*%
%ADD23C,2.600000*%
%ADD24R,2.600000X2.600000*%
%ADD25C,1.800000*%
%ADD26C,1.600000*%
%ADD27R,1.800000X1.800000*%
G04 APERTURE END LIST*
D10*
%TO.C,R19*%
X105845000Y-68300000D03*
D11*
X98225000Y-68300000D03*
%TD*%
D10*
%TO.C,R18*%
X105460000Y-95680000D03*
D11*
X105460000Y-88060000D03*
%TD*%
D10*
%TO.C,R17*%
X102616000Y-95656400D03*
D11*
X102616000Y-88036400D03*
%TD*%
D10*
%TO.C,R16*%
X125831600Y-120345200D03*
D11*
X118211600Y-120345200D03*
%TD*%
%TO.C,R15*%
X118211600Y-117170200D03*
D10*
X125831600Y-117170200D03*
%TD*%
%TO.C,R14*%
X100765426Y-107670600D03*
D11*
X100765426Y-100050600D03*
%TD*%
%TO.C,R13*%
X97848055Y-100050600D03*
D10*
X97848055Y-107670600D03*
%TD*%
%TO.C,R12*%
X100765426Y-120472200D03*
D11*
X100765426Y-112852200D03*
%TD*%
%TO.C,R11*%
X97848055Y-112852200D03*
D10*
X97848055Y-120472200D03*
%TD*%
%TO.C,R10*%
X94930684Y-120472200D03*
D11*
X94930684Y-112852200D03*
%TD*%
%TO.C,R9*%
X92013313Y-112852200D03*
D10*
X92013313Y-120472200D03*
%TD*%
%TO.C,R8*%
X94930684Y-107670600D03*
D11*
X94930684Y-100050600D03*
%TD*%
%TO.C,R7*%
X89095942Y-112852200D03*
D10*
X89095942Y-120472200D03*
%TD*%
%TO.C,R6*%
X86178571Y-120472200D03*
D11*
X86178571Y-112852200D03*
%TD*%
%TO.C,R5*%
X83261200Y-112852200D03*
D10*
X83261200Y-120472200D03*
%TD*%
D11*
%TO.C,R4*%
X92013313Y-100050600D03*
D10*
X92013313Y-107670600D03*
%TD*%
D11*
%TO.C,R3*%
X89095942Y-100050600D03*
D10*
X89095942Y-107670600D03*
%TD*%
D11*
%TO.C,R2*%
X86178571Y-100050600D03*
D10*
X86178571Y-107670600D03*
%TD*%
D11*
%TO.C,R1*%
X83261200Y-100050600D03*
D10*
X83261200Y-107670600D03*
%TD*%
D12*
%TO.C,U1*%
X74371200Y-95808800D03*
X66751200Y-113588800D03*
X74371200Y-98348800D03*
X66751200Y-111048800D03*
X74371200Y-100888800D03*
X66751200Y-108508800D03*
X74371200Y-103428800D03*
X66751200Y-105968800D03*
X74371200Y-105968800D03*
X66751200Y-103428800D03*
X74371200Y-108508800D03*
X66751200Y-100888800D03*
X74371200Y-111048800D03*
X66751200Y-98348800D03*
X74371200Y-113588800D03*
D13*
X66751200Y-95808800D03*
%TD*%
D12*
%TO.C,U2*%
X112630000Y-112675000D03*
X120250000Y-94895000D03*
X112630000Y-110135000D03*
X120250000Y-97435000D03*
X112630000Y-107595000D03*
X120250000Y-99975000D03*
X112630000Y-105055000D03*
X120250000Y-102515000D03*
X112630000Y-102515000D03*
X120250000Y-105055000D03*
X112630000Y-99975000D03*
X120250000Y-107595000D03*
X112630000Y-97435000D03*
X120250000Y-110135000D03*
X112630000Y-94895000D03*
D13*
X120250000Y-112675000D03*
%TD*%
D14*
%TO.C,REF\u002A\u002A*%
X134518400Y-59639200D03*
D15*
X137743400Y-59639200D03*
X136798819Y-61919619D03*
X134518400Y-62864200D03*
X132237981Y-61919619D03*
X131293400Y-59639200D03*
X132237981Y-57358781D03*
X134518400Y-56414200D03*
X136798819Y-57358781D03*
%TD*%
D14*
%TO.C,REF\u002A\u002A*%
X134518400Y-144627600D03*
D15*
X137743400Y-144627600D03*
X136798819Y-146908019D03*
X134518400Y-147852600D03*
X132237981Y-146908019D03*
X131293400Y-144627600D03*
X132237981Y-142347181D03*
X134518400Y-141402600D03*
X136798819Y-142347181D03*
%TD*%
D14*
%TO.C,REF\u002A\u002A*%
X51714400Y-144627600D03*
D15*
X54939400Y-144627600D03*
X53994819Y-146908019D03*
X51714400Y-147852600D03*
X49433981Y-146908019D03*
X48489400Y-144627600D03*
X49433981Y-142347181D03*
X51714400Y-141402600D03*
X53994819Y-142347181D03*
%TD*%
%TO.C,REF\u002A\u002A*%
X53994819Y-57358781D03*
X51714400Y-56414200D03*
X49433981Y-57358781D03*
X48489400Y-59639200D03*
X49433981Y-61919619D03*
X51714400Y-62864200D03*
X53994819Y-61919619D03*
X54939400Y-59639200D03*
D14*
X51714400Y-59639200D03*
%TD*%
D16*
%TO.C,BZ1*%
X101275000Y-76875000D03*
D17*
X108875000Y-76875000D03*
%TD*%
D16*
%TO.C,C3*%
X105968800Y-58674000D03*
D17*
X113468800Y-58674000D03*
%TD*%
D18*
%TO.C,I2C1*%
X62025000Y-56175000D03*
D19*
X62025000Y-58715000D03*
X62025000Y-61255000D03*
X62025000Y-63795000D03*
%TD*%
D20*
%TO.C,J1*%
G36*
X89269000Y-90410600D02*
G01*
X89819000Y-90410600D01*
X89819000Y-90411202D01*
X89843534Y-90411202D01*
X89892365Y-90416012D01*
X89940490Y-90425584D01*
X89987445Y-90439828D01*
X90032778Y-90458605D01*
X90076051Y-90481736D01*
X90116850Y-90508996D01*
X90154779Y-90540124D01*
X90189476Y-90574821D01*
X90220604Y-90612750D01*
X90247864Y-90653549D01*
X90270995Y-90696822D01*
X90289772Y-90742155D01*
X90304016Y-90789110D01*
X90313588Y-90837235D01*
X90318398Y-90886066D01*
X90318398Y-90910600D01*
X90319000Y-90910600D01*
X90319000Y-91410600D01*
X90318398Y-91410600D01*
X90318398Y-91435134D01*
X90313588Y-91483965D01*
X90304016Y-91532090D01*
X90289772Y-91579045D01*
X90270995Y-91624378D01*
X90247864Y-91667651D01*
X90220604Y-91708450D01*
X90189476Y-91746379D01*
X90154779Y-91781076D01*
X90116850Y-91812204D01*
X90076051Y-91839464D01*
X90032778Y-91862595D01*
X89987445Y-91881372D01*
X89940490Y-91895616D01*
X89892365Y-91905188D01*
X89843534Y-91909998D01*
X89819000Y-91909998D01*
X89819000Y-91910600D01*
X89269000Y-91910600D01*
X89269000Y-90410600D01*
G37*
G36*
X87219000Y-91909998D02*
G01*
X87194466Y-91909998D01*
X87145635Y-91905188D01*
X87097510Y-91895616D01*
X87050555Y-91881372D01*
X87005222Y-91862595D01*
X86961949Y-91839464D01*
X86921150Y-91812204D01*
X86883221Y-91781076D01*
X86848524Y-91746379D01*
X86817396Y-91708450D01*
X86790136Y-91667651D01*
X86767005Y-91624378D01*
X86748228Y-91579045D01*
X86733984Y-91532090D01*
X86724412Y-91483965D01*
X86719602Y-91435134D01*
X86719602Y-91410600D01*
X86719000Y-91410600D01*
X86719000Y-90910600D01*
X86719602Y-90910600D01*
X86719602Y-90886066D01*
X86724412Y-90837235D01*
X86733984Y-90789110D01*
X86748228Y-90742155D01*
X86767005Y-90696822D01*
X86790136Y-90653549D01*
X86817396Y-90612750D01*
X86848524Y-90574821D01*
X86883221Y-90540124D01*
X86921150Y-90508996D01*
X86961949Y-90481736D01*
X87005222Y-90458605D01*
X87050555Y-90439828D01*
X87097510Y-90425584D01*
X87145635Y-90416012D01*
X87194466Y-90411202D01*
X87219000Y-90411202D01*
X87219000Y-90410600D01*
X87769000Y-90410600D01*
X87769000Y-91910600D01*
X87219000Y-91910600D01*
X87219000Y-91909998D01*
G37*
D21*
X88519000Y-91160600D03*
%TD*%
%TO.C,J2*%
X94056200Y-91160600D03*
D20*
G36*
X92756200Y-91909998D02*
G01*
X92731666Y-91909998D01*
X92682835Y-91905188D01*
X92634710Y-91895616D01*
X92587755Y-91881372D01*
X92542422Y-91862595D01*
X92499149Y-91839464D01*
X92458350Y-91812204D01*
X92420421Y-91781076D01*
X92385724Y-91746379D01*
X92354596Y-91708450D01*
X92327336Y-91667651D01*
X92304205Y-91624378D01*
X92285428Y-91579045D01*
X92271184Y-91532090D01*
X92261612Y-91483965D01*
X92256802Y-91435134D01*
X92256802Y-91410600D01*
X92256200Y-91410600D01*
X92256200Y-90910600D01*
X92256802Y-90910600D01*
X92256802Y-90886066D01*
X92261612Y-90837235D01*
X92271184Y-90789110D01*
X92285428Y-90742155D01*
X92304205Y-90696822D01*
X92327336Y-90653549D01*
X92354596Y-90612750D01*
X92385724Y-90574821D01*
X92420421Y-90540124D01*
X92458350Y-90508996D01*
X92499149Y-90481736D01*
X92542422Y-90458605D01*
X92587755Y-90439828D01*
X92634710Y-90425584D01*
X92682835Y-90416012D01*
X92731666Y-90411202D01*
X92756200Y-90411202D01*
X92756200Y-90410600D01*
X93306200Y-90410600D01*
X93306200Y-91910600D01*
X92756200Y-91910600D01*
X92756200Y-91909998D01*
G37*
G36*
X94806200Y-90410600D02*
G01*
X95356200Y-90410600D01*
X95356200Y-90411202D01*
X95380734Y-90411202D01*
X95429565Y-90416012D01*
X95477690Y-90425584D01*
X95524645Y-90439828D01*
X95569978Y-90458605D01*
X95613251Y-90481736D01*
X95654050Y-90508996D01*
X95691979Y-90540124D01*
X95726676Y-90574821D01*
X95757804Y-90612750D01*
X95785064Y-90653549D01*
X95808195Y-90696822D01*
X95826972Y-90742155D01*
X95841216Y-90789110D01*
X95850788Y-90837235D01*
X95855598Y-90886066D01*
X95855598Y-90910600D01*
X95856200Y-90910600D01*
X95856200Y-91410600D01*
X95855598Y-91410600D01*
X95855598Y-91435134D01*
X95850788Y-91483965D01*
X95841216Y-91532090D01*
X95826972Y-91579045D01*
X95808195Y-91624378D01*
X95785064Y-91667651D01*
X95757804Y-91708450D01*
X95726676Y-91746379D01*
X95691979Y-91781076D01*
X95654050Y-91812204D01*
X95613251Y-91839464D01*
X95569978Y-91862595D01*
X95524645Y-91881372D01*
X95477690Y-91895616D01*
X95429565Y-91905188D01*
X95380734Y-91909998D01*
X95356200Y-91909998D01*
X95356200Y-91910600D01*
X94806200Y-91910600D01*
X94806200Y-90410600D01*
G37*
%TD*%
D19*
%TO.C,OLED1*%
X97020000Y-95875000D03*
X94480000Y-95875000D03*
X91940000Y-95875000D03*
D18*
X89400000Y-95875000D03*
%TD*%
D22*
%TO.C,P3*%
X121000000Y-68000000D03*
G36*
G01*
X120000000Y-60500000D02*
X122000000Y-60500000D01*
G75*
G02*
X122750000Y-61250000I0J-750000D01*
G01*
X122750000Y-62750000D01*
G75*
G02*
X122000000Y-63500000I-750000J0D01*
G01*
X120000000Y-63500000D01*
G75*
G02*
X119250000Y-62750000I0J750000D01*
G01*
X119250000Y-61250000D01*
G75*
G02*
X120000000Y-60500000I750000J0D01*
G01*
G37*
G36*
G01*
X115425000Y-63250000D02*
X117175000Y-63250000D01*
G75*
G02*
X118050000Y-64125000I0J-875000D01*
G01*
X118050000Y-65875000D01*
G75*
G02*
X117175000Y-66750000I-875000J0D01*
G01*
X115425000Y-66750000D01*
G75*
G02*
X114550000Y-65875000I0J875000D01*
G01*
X114550000Y-64125000D01*
G75*
G02*
X115425000Y-63250000I875000J0D01*
G01*
G37*
%TD*%
D23*
%TO.C,S1*%
X52806600Y-83097400D03*
X52806600Y-78097400D03*
X52806600Y-73097400D03*
D24*
X52806600Y-68097400D03*
%TD*%
%TO.C,S2*%
X52950000Y-91250000D03*
D23*
X52950000Y-96250000D03*
X52950000Y-101250000D03*
X52950000Y-106250000D03*
%TD*%
D24*
%TO.C,S3*%
X53009800Y-116916200D03*
D23*
X53009800Y-121916200D03*
X53009800Y-126916200D03*
%TD*%
%TO.C,S4*%
X134874000Y-126194800D03*
X134874000Y-131194800D03*
D24*
X134874000Y-136194800D03*
%TD*%
%TO.C,S5*%
X134874000Y-117650000D03*
D23*
X134874000Y-112650000D03*
X134874000Y-107650000D03*
%TD*%
%TO.C,S6*%
X134874000Y-87790000D03*
X134874000Y-92790000D03*
D24*
X134874000Y-97790000D03*
%TD*%
D17*
%TO.C,SW1*%
X66294000Y-142820000D03*
X66294000Y-147320000D03*
X59794000Y-142820000D03*
X59794000Y-147320000D03*
%TD*%
%TO.C,SW2*%
X79502000Y-142820000D03*
X79502000Y-147320000D03*
X73002000Y-142820000D03*
X73002000Y-147320000D03*
%TD*%
%TO.C,SW3*%
X86210000Y-147320000D03*
X86210000Y-142820000D03*
X92710000Y-147320000D03*
X92710000Y-142820000D03*
%TD*%
D24*
%TO.C,VLT1*%
X134900000Y-77850000D03*
D23*
X134900000Y-72850000D03*
X134900000Y-67850000D03*
%TD*%
D25*
%TO.C,WEMOS-D1*%
X93755000Y-63885000D03*
X70895000Y-63885000D03*
X93755000Y-66425000D03*
X70895000Y-66425000D03*
X93755000Y-68965000D03*
X70895000Y-68965000D03*
X93755000Y-71505000D03*
X70895000Y-71505000D03*
X93755000Y-74045000D03*
X70895000Y-74045000D03*
X93755000Y-76585000D03*
X70895000Y-76585000D03*
X93755000Y-79125000D03*
X70895000Y-79125000D03*
X93755000Y-81665000D03*
X70895000Y-81665000D03*
%TD*%
D26*
%TO.C,C1*%
X109575600Y-70104000D03*
X109575600Y-65104000D03*
%TD*%
%TO.C,C2*%
X73224400Y-92456000D03*
X68224400Y-92456000D03*
%TD*%
%TO.C,C4*%
X113690400Y-91389200D03*
X118690400Y-91389200D03*
%TD*%
D27*
%TO.C,D1*%
X64950000Y-120850000D03*
D25*
X67490000Y-120850000D03*
%TD*%
D27*
%TO.C,D2*%
X64950000Y-127600000D03*
D25*
X67490000Y-127600000D03*
%TD*%
%TO.C,D3*%
X67490000Y-134500000D03*
D27*
X64950000Y-134500000D03*
%TD*%
D25*
%TO.C,D4*%
X76758800Y-120853200D03*
D27*
X74218800Y-120853200D03*
%TD*%
D25*
%TO.C,D5*%
X76758800Y-127609600D03*
D27*
X74218800Y-127609600D03*
%TD*%
%TO.C,D6*%
X74218800Y-134493000D03*
D25*
X76758800Y-134493000D03*
%TD*%
D27*
%TO.C,D7*%
X83870800Y-127635000D03*
D25*
X86410800Y-127635000D03*
%TD*%
%TO.C,D8*%
X86385400Y-134467600D03*
D27*
X83845400Y-134467600D03*
%TD*%
D25*
%TO.C,D9*%
X95230000Y-127660400D03*
D27*
X92690000Y-127660400D03*
%TD*%
%TO.C,D10*%
X92684600Y-134467600D03*
D25*
X95224600Y-134467600D03*
%TD*%
%TO.C,D11*%
X103301800Y-127660400D03*
D27*
X100761800Y-127660400D03*
%TD*%
D25*
%TO.C,D12*%
X103301800Y-134467600D03*
D27*
X100761800Y-134467600D03*
%TD*%
%TO.C,D13*%
X109321600Y-127685800D03*
D25*
X111861600Y-127685800D03*
%TD*%
D27*
%TO.C,D14*%
X109296200Y-134467600D03*
D25*
X111836200Y-134467600D03*
%TD*%
D27*
%TO.C,D15*%
X120490000Y-126410000D03*
D25*
X123030000Y-126410000D03*
%TD*%
D27*
%TO.C,D16*%
X120490000Y-135980000D03*
D25*
X123030000Y-135980000D03*
%TD*%
M02*
