%TF.GenerationSoftware,KiCad,Pcbnew,5.1.6-c6e7f7d~87~ubuntu19.10.1*%
%TF.CreationDate,2021-01-18T21:02:38-03:00*%
%TF.ProjectId,VLTUnivesp,564c5455-6e69-4766-9573-702e6b696361,rev?*%
%TF.SameCoordinates,Original*%
%TF.FileFunction,Copper,L2,Bot*%
%TF.FilePolarity,Positive*%
%FSLAX46Y46*%
G04 Gerber Fmt 4.6, Leading zero omitted, Abs format (unit mm)*
G04 Created by KiCad (PCBNEW 5.1.6-c6e7f7d~87~ubuntu19.10.1) date 2021-01-18 21:02:38*
%MOMM*%
%LPD*%
G01*
G04 APERTURE LIST*
%TA.AperFunction,NonConductor*%
%ADD10C,0.300000*%
%TD*%
%TA.AperFunction,NonConductor*%
%ADD11C,0.150000*%
%TD*%
%TA.AperFunction,ComponentPad*%
%ADD12O,1.400000X1.400000*%
%TD*%
%TA.AperFunction,ComponentPad*%
%ADD13C,1.400000*%
%TD*%
%TA.AperFunction,ComponentPad*%
%ADD14O,1.600000X1.600000*%
%TD*%
%TA.AperFunction,ComponentPad*%
%ADD15R,1.600000X1.600000*%
%TD*%
%TA.AperFunction,ComponentPad*%
%ADD16C,8.600000*%
%TD*%
%TA.AperFunction,ComponentPad*%
%ADD17C,0.900000*%
%TD*%
%TA.AperFunction,ComponentPad*%
%ADD18R,2.000000X2.000000*%
%TD*%
%TA.AperFunction,ComponentPad*%
%ADD19C,2.000000*%
%TD*%
%TA.AperFunction,ComponentPad*%
%ADD20R,1.700000X1.700000*%
%TD*%
%TA.AperFunction,ComponentPad*%
%ADD21O,1.700000X1.700000*%
%TD*%
%TA.AperFunction,SMDPad,CuDef*%
%ADD22C,0.100000*%
%TD*%
%TA.AperFunction,SMDPad,CuDef*%
%ADD23R,1.000000X1.500000*%
%TD*%
%TA.AperFunction,ComponentPad*%
%ADD24R,3.500000X3.500000*%
%TD*%
%TA.AperFunction,ComponentPad*%
%ADD25C,2.600000*%
%TD*%
%TA.AperFunction,ComponentPad*%
%ADD26R,2.600000X2.600000*%
%TD*%
%TA.AperFunction,ComponentPad*%
%ADD27C,1.800000*%
%TD*%
%TA.AperFunction,ComponentPad*%
%ADD28C,1.600000*%
%TD*%
%TA.AperFunction,ComponentPad*%
%ADD29R,1.800000X1.800000*%
%TD*%
%TA.AperFunction,ViaPad*%
%ADD30C,0.800000*%
%TD*%
%TA.AperFunction,Conductor*%
%ADD31C,1.000000*%
%TD*%
%TA.AperFunction,Conductor*%
%ADD32C,0.250000*%
%TD*%
%TA.AperFunction,Conductor*%
%ADD33C,0.500000*%
%TD*%
G04 APERTURE END LIST*
D10*
X88388057Y-61587771D02*
X89245200Y-61587771D01*
X88816628Y-61587771D02*
X88816628Y-60087771D01*
X88959485Y-60302057D01*
X89102342Y-60444914D01*
X89245200Y-60516342D01*
X87102342Y-60587771D02*
X87102342Y-61587771D01*
X87459485Y-60016342D02*
X87816628Y-61087771D01*
X86888057Y-61087771D01*
X85245200Y-60016342D02*
X86530914Y-61944914D01*
X83959485Y-61587771D02*
X84816628Y-61587771D01*
X84388057Y-61587771D02*
X84388057Y-60087771D01*
X84530914Y-60302057D01*
X84673771Y-60444914D01*
X84816628Y-60516342D01*
X83388057Y-60230628D02*
X83316628Y-60159200D01*
X83173771Y-60087771D01*
X82816628Y-60087771D01*
X82673771Y-60159200D01*
X82602342Y-60230628D01*
X82530914Y-60373485D01*
X82530914Y-60516342D01*
X82602342Y-60730628D01*
X83459485Y-61587771D01*
X82530914Y-61587771D01*
X80816628Y-60016342D02*
X82102342Y-61944914D01*
X80388057Y-60230628D02*
X80316628Y-60159200D01*
X80173771Y-60087771D01*
X79816628Y-60087771D01*
X79673771Y-60159200D01*
X79602342Y-60230628D01*
X79530914Y-60373485D01*
X79530914Y-60516342D01*
X79602342Y-60730628D01*
X80459485Y-61587771D01*
X79530914Y-61587771D01*
X78602342Y-60087771D02*
X78459485Y-60087771D01*
X78316628Y-60159200D01*
X78245200Y-60230628D01*
X78173771Y-60373485D01*
X78102342Y-60659200D01*
X78102342Y-61016342D01*
X78173771Y-61302057D01*
X78245200Y-61444914D01*
X78316628Y-61516342D01*
X78459485Y-61587771D01*
X78602342Y-61587771D01*
X78745200Y-61516342D01*
X78816628Y-61444914D01*
X78888057Y-61302057D01*
X78959485Y-61016342D01*
X78959485Y-60659200D01*
X78888057Y-60373485D01*
X78816628Y-60230628D01*
X78745200Y-60159200D01*
X78602342Y-60087771D01*
X77530914Y-60230628D02*
X77459485Y-60159200D01*
X77316628Y-60087771D01*
X76959485Y-60087771D01*
X76816628Y-60159200D01*
X76745200Y-60230628D01*
X76673771Y-60373485D01*
X76673771Y-60516342D01*
X76745200Y-60730628D01*
X77602342Y-61587771D01*
X76673771Y-61587771D01*
X75745200Y-60087771D02*
X75602342Y-60087771D01*
X75459485Y-60159200D01*
X75388057Y-60230628D01*
X75316628Y-60373485D01*
X75245200Y-60659200D01*
X75245200Y-61016342D01*
X75316628Y-61302057D01*
X75388057Y-61444914D01*
X75459485Y-61516342D01*
X75602342Y-61587771D01*
X75745200Y-61587771D01*
X75888057Y-61516342D01*
X75959485Y-61444914D01*
X76030914Y-61302057D01*
X76102342Y-61016342D01*
X76102342Y-60659200D01*
X76030914Y-60373485D01*
X75959485Y-60230628D01*
X75888057Y-60159200D01*
X75745200Y-60087771D01*
D11*
X46715419Y-89964923D02*
X47191609Y-90298257D01*
X46715419Y-90536352D02*
X47715419Y-90536352D01*
X47715419Y-90155400D01*
X47667800Y-90060161D01*
X47620180Y-90012542D01*
X47524942Y-89964923D01*
X47382085Y-89964923D01*
X47286847Y-90012542D01*
X47239228Y-90060161D01*
X47191609Y-90155400D01*
X47191609Y-90536352D01*
X46763038Y-89155400D02*
X46715419Y-89250638D01*
X46715419Y-89441114D01*
X46763038Y-89536352D01*
X46858276Y-89583971D01*
X47239228Y-89583971D01*
X47334466Y-89536352D01*
X47382085Y-89441114D01*
X47382085Y-89250638D01*
X47334466Y-89155400D01*
X47239228Y-89107780D01*
X47143990Y-89107780D01*
X47048752Y-89583971D01*
X47382085Y-88774447D02*
X46715419Y-88536352D01*
X47382085Y-88298257D01*
X46810657Y-87917304D02*
X46763038Y-87869685D01*
X46715419Y-87917304D01*
X46763038Y-87964923D01*
X46810657Y-87917304D01*
X46715419Y-87917304D01*
X46715419Y-86155400D02*
X46715419Y-86726828D01*
X46715419Y-86441114D02*
X47715419Y-86441114D01*
X47572561Y-86536352D01*
X47477323Y-86631590D01*
X47429704Y-86726828D01*
X46810657Y-85726828D02*
X46763038Y-85679209D01*
X46715419Y-85726828D01*
X46763038Y-85774447D01*
X46810657Y-85726828D01*
X46715419Y-85726828D01*
X46715419Y-84726828D02*
X46715419Y-85298257D01*
X46715419Y-85012542D02*
X47715419Y-85012542D01*
X47572561Y-85107780D01*
X47477323Y-85203019D01*
X47429704Y-85298257D01*
X47239228Y-79744176D02*
X47191609Y-79601319D01*
X47143990Y-79553700D01*
X47048752Y-79506080D01*
X46905895Y-79506080D01*
X46810657Y-79553700D01*
X46763038Y-79601319D01*
X46715419Y-79696557D01*
X46715419Y-80077509D01*
X47715419Y-80077509D01*
X47715419Y-79744176D01*
X47667800Y-79648938D01*
X47620180Y-79601319D01*
X47524942Y-79553700D01*
X47429704Y-79553700D01*
X47334466Y-79601319D01*
X47286847Y-79648938D01*
X47239228Y-79744176D01*
X47239228Y-80077509D01*
X47382085Y-79172747D02*
X46715419Y-78934652D01*
X47382085Y-78696557D02*
X46715419Y-78934652D01*
X46477323Y-79029890D01*
X46429704Y-79077509D01*
X46382085Y-79172747D01*
X47001133Y-77601319D02*
X47001133Y-77125128D01*
X46715419Y-77696557D02*
X47715419Y-77363223D01*
X46715419Y-77029890D01*
X46715419Y-76553700D02*
X46763038Y-76648938D01*
X46858276Y-76696557D01*
X47715419Y-76696557D01*
X46715419Y-76029890D02*
X46763038Y-76125128D01*
X46858276Y-76172747D01*
X47715419Y-76172747D01*
X46715419Y-75220366D02*
X47239228Y-75220366D01*
X47334466Y-75267985D01*
X47382085Y-75363223D01*
X47382085Y-75553700D01*
X47334466Y-75648938D01*
X46763038Y-75220366D02*
X46715419Y-75315604D01*
X46715419Y-75553700D01*
X46763038Y-75648938D01*
X46858276Y-75696557D01*
X46953514Y-75696557D01*
X47048752Y-75648938D01*
X47096371Y-75553700D01*
X47096371Y-75315604D01*
X47143990Y-75220366D01*
X47382085Y-74744176D02*
X46715419Y-74744176D01*
X47286847Y-74744176D02*
X47334466Y-74696557D01*
X47382085Y-74601319D01*
X47382085Y-74458461D01*
X47334466Y-74363223D01*
X47239228Y-74315604D01*
X46715419Y-74315604D01*
X46715419Y-73077509D02*
X47715419Y-73077509D01*
X47001133Y-72744176D01*
X47715419Y-72410842D01*
X46715419Y-72410842D01*
X46715419Y-71791795D02*
X46763038Y-71887033D01*
X46810657Y-71934652D01*
X46905895Y-71982271D01*
X47191609Y-71982271D01*
X47286847Y-71934652D01*
X47334466Y-71887033D01*
X47382085Y-71791795D01*
X47382085Y-71648938D01*
X47334466Y-71553700D01*
X47286847Y-71506080D01*
X47191609Y-71458461D01*
X46905895Y-71458461D01*
X46810657Y-71506080D01*
X46763038Y-71553700D01*
X46715419Y-71648938D01*
X46715419Y-71791795D01*
X46715419Y-71029890D02*
X47382085Y-71029890D01*
X47191609Y-71029890D02*
X47286847Y-70982271D01*
X47334466Y-70934652D01*
X47382085Y-70839414D01*
X47382085Y-70744176D01*
X46763038Y-70029890D02*
X46715419Y-70125128D01*
X46715419Y-70315604D01*
X46763038Y-70410842D01*
X46858276Y-70458461D01*
X47239228Y-70458461D01*
X47334466Y-70410842D01*
X47382085Y-70315604D01*
X47382085Y-70125128D01*
X47334466Y-70029890D01*
X47239228Y-69982271D01*
X47143990Y-69982271D01*
X47048752Y-70458461D01*
X46715419Y-69553700D02*
X47382085Y-69553700D01*
X47715419Y-69553700D02*
X47667800Y-69601319D01*
X47620180Y-69553700D01*
X47667800Y-69506080D01*
X47715419Y-69553700D01*
X47620180Y-69553700D01*
X46715419Y-69077509D02*
X47382085Y-69077509D01*
X47191609Y-69077509D02*
X47286847Y-69029890D01*
X47334466Y-68982271D01*
X47382085Y-68887033D01*
X47382085Y-68791795D01*
X46715419Y-68029890D02*
X47239228Y-68029890D01*
X47334466Y-68077509D01*
X47382085Y-68172747D01*
X47382085Y-68363223D01*
X47334466Y-68458461D01*
X46763038Y-68029890D02*
X46715419Y-68125128D01*
X46715419Y-68363223D01*
X46763038Y-68458461D01*
X46858276Y-68506080D01*
X46953514Y-68506080D01*
X47048752Y-68458461D01*
X47096371Y-68363223D01*
X47096371Y-68125128D01*
X47143990Y-68029890D01*
X121266928Y-142874980D02*
X121076452Y-142874980D01*
X120981214Y-142922600D01*
X120885976Y-143017838D01*
X120838357Y-143208314D01*
X120838357Y-143541647D01*
X120885976Y-143732123D01*
X120981214Y-143827361D01*
X121076452Y-143874980D01*
X121266928Y-143874980D01*
X121362166Y-143827361D01*
X121457404Y-143732123D01*
X121505023Y-143541647D01*
X121505023Y-143208314D01*
X121457404Y-143017838D01*
X121362166Y-142922600D01*
X121266928Y-142874980D01*
X120409785Y-143874980D02*
X120409785Y-143208314D01*
X120409785Y-143398790D02*
X120362166Y-143303552D01*
X120314547Y-143255933D01*
X120219309Y-143208314D01*
X120124071Y-143208314D01*
X119790738Y-143874980D02*
X119790738Y-143208314D01*
X119790738Y-142874980D02*
X119838357Y-142922600D01*
X119790738Y-142970219D01*
X119743119Y-142922600D01*
X119790738Y-142874980D01*
X119790738Y-142970219D01*
X118933595Y-143827361D02*
X119028833Y-143874980D01*
X119219309Y-143874980D01*
X119314547Y-143827361D01*
X119362166Y-143732123D01*
X119362166Y-143351171D01*
X119314547Y-143255933D01*
X119219309Y-143208314D01*
X119028833Y-143208314D01*
X118933595Y-143255933D01*
X118885976Y-143351171D01*
X118885976Y-143446409D01*
X119362166Y-143541647D01*
X118457404Y-143208314D02*
X118457404Y-143874980D01*
X118457404Y-143303552D02*
X118409785Y-143255933D01*
X118314547Y-143208314D01*
X118171690Y-143208314D01*
X118076452Y-143255933D01*
X118028833Y-143351171D01*
X118028833Y-143874980D01*
X117695500Y-143208314D02*
X117314547Y-143208314D01*
X117552642Y-142874980D02*
X117552642Y-143732123D01*
X117505023Y-143827361D01*
X117409785Y-143874980D01*
X117314547Y-143874980D01*
X116552642Y-143874980D02*
X116552642Y-143351171D01*
X116600261Y-143255933D01*
X116695500Y-143208314D01*
X116885976Y-143208314D01*
X116981214Y-143255933D01*
X116552642Y-143827361D02*
X116647880Y-143874980D01*
X116885976Y-143874980D01*
X116981214Y-143827361D01*
X117028833Y-143732123D01*
X117028833Y-143636885D01*
X116981214Y-143541647D01*
X116885976Y-143494028D01*
X116647880Y-143494028D01*
X116552642Y-143446409D01*
X116076452Y-143208314D02*
X116076452Y-143874980D01*
X116076452Y-143303552D02*
X116028833Y-143255933D01*
X115933595Y-143208314D01*
X115790738Y-143208314D01*
X115695500Y-143255933D01*
X115647880Y-143351171D01*
X115647880Y-143874980D01*
X114743119Y-143874980D02*
X114743119Y-142874980D01*
X114743119Y-143827361D02*
X114838357Y-143874980D01*
X115028833Y-143874980D01*
X115124071Y-143827361D01*
X115171690Y-143779742D01*
X115219309Y-143684504D01*
X115219309Y-143398790D01*
X115171690Y-143303552D01*
X115124071Y-143255933D01*
X115028833Y-143208314D01*
X114838357Y-143208314D01*
X114743119Y-143255933D01*
X114124071Y-143874980D02*
X114219309Y-143827361D01*
X114266928Y-143779742D01*
X114314547Y-143684504D01*
X114314547Y-143398790D01*
X114266928Y-143303552D01*
X114219309Y-143255933D01*
X114124071Y-143208314D01*
X113981214Y-143208314D01*
X113885976Y-143255933D01*
X113838357Y-143303552D01*
X113790738Y-143398790D01*
X113790738Y-143684504D01*
X113838357Y-143779742D01*
X113885976Y-143827361D01*
X113981214Y-143874980D01*
X114124071Y-143874980D01*
X113409785Y-143827361D02*
X113314547Y-143874980D01*
X113124071Y-143874980D01*
X113028833Y-143827361D01*
X112981214Y-143732123D01*
X112981214Y-143684504D01*
X113028833Y-143589266D01*
X113124071Y-143541647D01*
X113266928Y-143541647D01*
X113362166Y-143494028D01*
X113409785Y-143398790D01*
X113409785Y-143351171D01*
X113362166Y-143255933D01*
X113266928Y-143208314D01*
X113124071Y-143208314D01*
X113028833Y-143255933D01*
X112552642Y-143779742D02*
X112505023Y-143827361D01*
X112552642Y-143874980D01*
X112600261Y-143827361D01*
X112552642Y-143779742D01*
X112552642Y-143874980D01*
X112552642Y-143255933D02*
X112505023Y-143303552D01*
X112552642Y-143351171D01*
X112600261Y-143303552D01*
X112552642Y-143255933D01*
X112552642Y-143351171D01*
X121505023Y-145239266D02*
X121028833Y-145239266D01*
X121600261Y-145524980D02*
X121266928Y-144524980D01*
X120933595Y-145524980D01*
X120457404Y-145524980D02*
X120552642Y-145477361D01*
X120600261Y-145382123D01*
X120600261Y-144524980D01*
X119933595Y-145524980D02*
X120028833Y-145477361D01*
X120076452Y-145382123D01*
X120076452Y-144524980D01*
X119124071Y-145524980D02*
X119124071Y-145001171D01*
X119171690Y-144905933D01*
X119266928Y-144858314D01*
X119457404Y-144858314D01*
X119552642Y-144905933D01*
X119124071Y-145477361D02*
X119219309Y-145524980D01*
X119457404Y-145524980D01*
X119552642Y-145477361D01*
X119600261Y-145382123D01*
X119600261Y-145286885D01*
X119552642Y-145191647D01*
X119457404Y-145144028D01*
X119219309Y-145144028D01*
X119124071Y-145096409D01*
X118647880Y-144858314D02*
X118647880Y-145524980D01*
X118647880Y-144953552D02*
X118600261Y-144905933D01*
X118505023Y-144858314D01*
X118362166Y-144858314D01*
X118266928Y-144905933D01*
X118219309Y-145001171D01*
X118219309Y-145524980D01*
X116314547Y-145620219D02*
X116409785Y-145572600D01*
X116505023Y-145477361D01*
X116647880Y-145334504D01*
X116743119Y-145286885D01*
X116838357Y-145286885D01*
X116790738Y-145524980D02*
X116885976Y-145477361D01*
X116981214Y-145382123D01*
X117028833Y-145191647D01*
X117028833Y-144858314D01*
X116981214Y-144667838D01*
X116885976Y-144572600D01*
X116790738Y-144524980D01*
X116600261Y-144524980D01*
X116505023Y-144572600D01*
X116409785Y-144667838D01*
X116362166Y-144858314D01*
X116362166Y-145191647D01*
X116409785Y-145382123D01*
X116505023Y-145477361D01*
X116600261Y-145524980D01*
X116790738Y-145524980D01*
X115505023Y-144858314D02*
X115505023Y-145524980D01*
X115933595Y-144858314D02*
X115933595Y-145382123D01*
X115885976Y-145477361D01*
X115790738Y-145524980D01*
X115647880Y-145524980D01*
X115552642Y-145477361D01*
X115505023Y-145429742D01*
X114647880Y-145477361D02*
X114743119Y-145524980D01*
X114933595Y-145524980D01*
X115028833Y-145477361D01*
X115076452Y-145382123D01*
X115076452Y-145001171D01*
X115028833Y-144905933D01*
X114933595Y-144858314D01*
X114743119Y-144858314D01*
X114647880Y-144905933D01*
X114600261Y-145001171D01*
X114600261Y-145096409D01*
X115076452Y-145191647D01*
X114171690Y-145524980D02*
X114171690Y-144858314D01*
X114171690Y-144524980D02*
X114219309Y-144572600D01*
X114171690Y-144620219D01*
X114124071Y-144572600D01*
X114171690Y-144524980D01*
X114171690Y-144620219D01*
X113695500Y-145524980D02*
X113695500Y-144858314D01*
X113695500Y-145048790D02*
X113647880Y-144953552D01*
X113600261Y-144905933D01*
X113505023Y-144858314D01*
X113409785Y-144858314D01*
X112933595Y-145524980D02*
X113028833Y-145477361D01*
X113076452Y-145429742D01*
X113124071Y-145334504D01*
X113124071Y-145048790D01*
X113076452Y-144953552D01*
X113028833Y-144905933D01*
X112933595Y-144858314D01*
X112790738Y-144858314D01*
X112695500Y-144905933D01*
X112647880Y-144953552D01*
X112600261Y-145048790D01*
X112600261Y-145334504D01*
X112647880Y-145429742D01*
X112695500Y-145477361D01*
X112790738Y-145524980D01*
X112933595Y-145524980D01*
X112266928Y-144858314D02*
X111743119Y-144858314D01*
X112266928Y-145524980D01*
X111743119Y-145524980D01*
X110600261Y-145524980D02*
X110600261Y-144524980D01*
X110266928Y-145239266D01*
X109933595Y-144524980D01*
X109933595Y-145524980D01*
X109314547Y-145524980D02*
X109409785Y-145477361D01*
X109457404Y-145429742D01*
X109505023Y-145334504D01*
X109505023Y-145048790D01*
X109457404Y-144953552D01*
X109409785Y-144905933D01*
X109314547Y-144858314D01*
X109171690Y-144858314D01*
X109076452Y-144905933D01*
X109028833Y-144953552D01*
X108981214Y-145048790D01*
X108981214Y-145334504D01*
X109028833Y-145429742D01*
X109076452Y-145477361D01*
X109171690Y-145524980D01*
X109314547Y-145524980D01*
X108552642Y-145524980D02*
X108552642Y-144858314D01*
X108552642Y-145048790D02*
X108505023Y-144953552D01*
X108457404Y-144905933D01*
X108362166Y-144858314D01*
X108266928Y-144858314D01*
X107552642Y-145477361D02*
X107647880Y-145524980D01*
X107838357Y-145524980D01*
X107933595Y-145477361D01*
X107981214Y-145382123D01*
X107981214Y-145001171D01*
X107933595Y-144905933D01*
X107838357Y-144858314D01*
X107647880Y-144858314D01*
X107552642Y-144905933D01*
X107505023Y-145001171D01*
X107505023Y-145096409D01*
X107981214Y-145191647D01*
X107076452Y-145524980D02*
X107076452Y-144858314D01*
X107076452Y-144524980D02*
X107124071Y-144572600D01*
X107076452Y-144620219D01*
X107028833Y-144572600D01*
X107076452Y-144524980D01*
X107076452Y-144620219D01*
X106600261Y-145524980D02*
X106600261Y-144858314D01*
X106600261Y-145048790D02*
X106552642Y-144953552D01*
X106505023Y-144905933D01*
X106409785Y-144858314D01*
X106314547Y-144858314D01*
X105552642Y-145524980D02*
X105552642Y-145001171D01*
X105600261Y-144905933D01*
X105695500Y-144858314D01*
X105885976Y-144858314D01*
X105981214Y-144905933D01*
X105552642Y-145477361D02*
X105647880Y-145524980D01*
X105885976Y-145524980D01*
X105981214Y-145477361D01*
X106028833Y-145382123D01*
X106028833Y-145286885D01*
X105981214Y-145191647D01*
X105885976Y-145144028D01*
X105647880Y-145144028D01*
X105552642Y-145096409D01*
X121505023Y-146889266D02*
X121028833Y-146889266D01*
X121600261Y-147174980D02*
X121266928Y-146174980D01*
X120933595Y-147174980D01*
X120600261Y-146508314D02*
X120600261Y-147174980D01*
X120600261Y-146603552D02*
X120552642Y-146555933D01*
X120457404Y-146508314D01*
X120314547Y-146508314D01*
X120219309Y-146555933D01*
X120171690Y-146651171D01*
X120171690Y-147174980D01*
X119266928Y-147174980D02*
X119266928Y-146174980D01*
X119266928Y-147127361D02*
X119362166Y-147174980D01*
X119552642Y-147174980D01*
X119647880Y-147127361D01*
X119695500Y-147079742D01*
X119743119Y-146984504D01*
X119743119Y-146698790D01*
X119695500Y-146603552D01*
X119647880Y-146555933D01*
X119552642Y-146508314D01*
X119362166Y-146508314D01*
X119266928Y-146555933D01*
X118409785Y-147127361D02*
X118505023Y-147174980D01*
X118695500Y-147174980D01*
X118790738Y-147127361D01*
X118838357Y-147032123D01*
X118838357Y-146651171D01*
X118790738Y-146555933D01*
X118695500Y-146508314D01*
X118505023Y-146508314D01*
X118409785Y-146555933D01*
X118362166Y-146651171D01*
X118362166Y-146746409D01*
X118838357Y-146841647D01*
X117933595Y-147174980D02*
X117933595Y-146508314D01*
X117933595Y-146698790D02*
X117885976Y-146603552D01*
X117838357Y-146555933D01*
X117743119Y-146508314D01*
X117647880Y-146508314D01*
X117362166Y-147127361D02*
X117266928Y-147174980D01*
X117076452Y-147174980D01*
X116981214Y-147127361D01*
X116933595Y-147032123D01*
X116933595Y-146984504D01*
X116981214Y-146889266D01*
X117076452Y-146841647D01*
X117219309Y-146841647D01*
X117314547Y-146794028D01*
X117362166Y-146698790D01*
X117362166Y-146651171D01*
X117314547Y-146555933D01*
X117219309Y-146508314D01*
X117076452Y-146508314D01*
X116981214Y-146555933D01*
X116362166Y-147174980D02*
X116457404Y-147127361D01*
X116505023Y-147079742D01*
X116552642Y-146984504D01*
X116552642Y-146698790D01*
X116505023Y-146603552D01*
X116457404Y-146555933D01*
X116362166Y-146508314D01*
X116219309Y-146508314D01*
X116124071Y-146555933D01*
X116076452Y-146603552D01*
X116028833Y-146698790D01*
X116028833Y-146984504D01*
X116076452Y-147079742D01*
X116124071Y-147127361D01*
X116219309Y-147174980D01*
X116362166Y-147174980D01*
X115600261Y-146508314D02*
X115600261Y-147174980D01*
X115600261Y-146603552D02*
X115552642Y-146555933D01*
X115457404Y-146508314D01*
X115314547Y-146508314D01*
X115219309Y-146555933D01*
X115171690Y-146651171D01*
X115171690Y-147174980D01*
X113505023Y-147174980D02*
X113505023Y-146174980D01*
X113505023Y-147127361D02*
X113600261Y-147174980D01*
X113790738Y-147174980D01*
X113885976Y-147127361D01*
X113933595Y-147079742D01*
X113981214Y-146984504D01*
X113981214Y-146698790D01*
X113933595Y-146603552D01*
X113885976Y-146555933D01*
X113790738Y-146508314D01*
X113600261Y-146508314D01*
X113505023Y-146555933D01*
X112647880Y-147127361D02*
X112743119Y-147174980D01*
X112933595Y-147174980D01*
X113028833Y-147127361D01*
X113076452Y-147032123D01*
X113076452Y-146651171D01*
X113028833Y-146555933D01*
X112933595Y-146508314D01*
X112743119Y-146508314D01*
X112647880Y-146555933D01*
X112600261Y-146651171D01*
X112600261Y-146746409D01*
X113076452Y-146841647D01*
X110838357Y-147079742D02*
X110885976Y-147127361D01*
X111028833Y-147174980D01*
X111124071Y-147174980D01*
X111266928Y-147127361D01*
X111362166Y-147032123D01*
X111409785Y-146936885D01*
X111457404Y-146746409D01*
X111457404Y-146603552D01*
X111409785Y-146413076D01*
X111362166Y-146317838D01*
X111266928Y-146222600D01*
X111124071Y-146174980D01*
X111028833Y-146174980D01*
X110885976Y-146222600D01*
X110838357Y-146270219D01*
X109981214Y-147174980D02*
X109981214Y-146651171D01*
X110028833Y-146555933D01*
X110124071Y-146508314D01*
X110314547Y-146508314D01*
X110409785Y-146555933D01*
X109981214Y-147127361D02*
X110076452Y-147174980D01*
X110314547Y-147174980D01*
X110409785Y-147127361D01*
X110457404Y-147032123D01*
X110457404Y-146936885D01*
X110409785Y-146841647D01*
X110314547Y-146794028D01*
X110076452Y-146794028D01*
X109981214Y-146746409D01*
X109505023Y-147174980D02*
X109505023Y-146508314D01*
X109505023Y-146698790D02*
X109457404Y-146603552D01*
X109409785Y-146555933D01*
X109314547Y-146508314D01*
X109219309Y-146508314D01*
X108981214Y-146508314D02*
X108743119Y-147174980D01*
X108505023Y-146508314D01*
X107695500Y-147174980D02*
X107695500Y-146651171D01*
X107743119Y-146555933D01*
X107838357Y-146508314D01*
X108028833Y-146508314D01*
X108124071Y-146555933D01*
X107695500Y-147127361D02*
X107790738Y-147174980D01*
X108028833Y-147174980D01*
X108124071Y-147127361D01*
X108171690Y-147032123D01*
X108171690Y-146936885D01*
X108124071Y-146841647D01*
X108028833Y-146794028D01*
X107790738Y-146794028D01*
X107695500Y-146746409D01*
X107076452Y-147174980D02*
X107171690Y-147127361D01*
X107219309Y-147032123D01*
X107219309Y-146174980D01*
X106695500Y-147174980D02*
X106695500Y-146174980D01*
X106266928Y-147174980D02*
X106266928Y-146651171D01*
X106314547Y-146555933D01*
X106409785Y-146508314D01*
X106552642Y-146508314D01*
X106647880Y-146555933D01*
X106695500Y-146603552D01*
X105647880Y-147174980D02*
X105743119Y-147127361D01*
X105790738Y-147079742D01*
X105838357Y-146984504D01*
X105838357Y-146698790D01*
X105790738Y-146603552D01*
X105743119Y-146555933D01*
X105647880Y-146508314D01*
X105505023Y-146508314D01*
X105409785Y-146555933D01*
X105362166Y-146603552D01*
X105314547Y-146698790D01*
X105314547Y-146984504D01*
X105362166Y-147079742D01*
X105409785Y-147127361D01*
X105505023Y-147174980D01*
X105647880Y-147174980D01*
X121457404Y-148301171D02*
X121124071Y-148301171D01*
X120981214Y-148824980D02*
X121457404Y-148824980D01*
X121457404Y-147824980D01*
X120981214Y-147824980D01*
X120124071Y-148824980D02*
X120124071Y-147824980D01*
X120124071Y-148777361D02*
X120219309Y-148824980D01*
X120409785Y-148824980D01*
X120505023Y-148777361D01*
X120552642Y-148729742D01*
X120600261Y-148634504D01*
X120600261Y-148348790D01*
X120552642Y-148253552D01*
X120505023Y-148205933D01*
X120409785Y-148158314D01*
X120219309Y-148158314D01*
X120124071Y-148205933D01*
X119219309Y-148158314D02*
X119219309Y-148824980D01*
X119647880Y-148158314D02*
X119647880Y-148682123D01*
X119600261Y-148777361D01*
X119505023Y-148824980D01*
X119362166Y-148824980D01*
X119266928Y-148777361D01*
X119219309Y-148729742D01*
X118314547Y-148824980D02*
X118314547Y-148301171D01*
X118362166Y-148205933D01*
X118457404Y-148158314D01*
X118647880Y-148158314D01*
X118743119Y-148205933D01*
X118314547Y-148777361D02*
X118409785Y-148824980D01*
X118647880Y-148824980D01*
X118743119Y-148777361D01*
X118790738Y-148682123D01*
X118790738Y-148586885D01*
X118743119Y-148491647D01*
X118647880Y-148444028D01*
X118409785Y-148444028D01*
X118314547Y-148396409D01*
X117838357Y-148824980D02*
X117838357Y-148158314D01*
X117838357Y-148348790D02*
X117790738Y-148253552D01*
X117743119Y-148205933D01*
X117647880Y-148158314D01*
X117552642Y-148158314D01*
X116790738Y-148824980D02*
X116790738Y-147824980D01*
X116790738Y-148777361D02*
X116885976Y-148824980D01*
X117076452Y-148824980D01*
X117171690Y-148777361D01*
X117219309Y-148729742D01*
X117266928Y-148634504D01*
X117266928Y-148348790D01*
X117219309Y-148253552D01*
X117171690Y-148205933D01*
X117076452Y-148158314D01*
X116885976Y-148158314D01*
X116790738Y-148205933D01*
X116171690Y-148824980D02*
X116266928Y-148777361D01*
X116314547Y-148729742D01*
X116362166Y-148634504D01*
X116362166Y-148348790D01*
X116314547Y-148253552D01*
X116266928Y-148205933D01*
X116171690Y-148158314D01*
X116028833Y-148158314D01*
X115933595Y-148205933D01*
X115885976Y-148253552D01*
X115838357Y-148348790D01*
X115838357Y-148634504D01*
X115885976Y-148729742D01*
X115933595Y-148777361D01*
X116028833Y-148824980D01*
X116171690Y-148824980D01*
X114695500Y-148539266D02*
X114219309Y-148539266D01*
X114790738Y-148824980D02*
X114457404Y-147824980D01*
X114124071Y-148824980D01*
X113362166Y-148158314D02*
X113362166Y-148824980D01*
X113790738Y-148158314D02*
X113790738Y-148682123D01*
X113743119Y-148777361D01*
X113647880Y-148824980D01*
X113505023Y-148824980D01*
X113409785Y-148777361D01*
X113362166Y-148729742D01*
X112457404Y-148158314D02*
X112457404Y-148967838D01*
X112505023Y-149063076D01*
X112552642Y-149110695D01*
X112647880Y-149158314D01*
X112790738Y-149158314D01*
X112885976Y-149110695D01*
X112457404Y-148777361D02*
X112552642Y-148824980D01*
X112743119Y-148824980D01*
X112838357Y-148777361D01*
X112885976Y-148729742D01*
X112933595Y-148634504D01*
X112933595Y-148348790D01*
X112885976Y-148253552D01*
X112838357Y-148205933D01*
X112743119Y-148158314D01*
X112552642Y-148158314D01*
X112457404Y-148205933D01*
X111552642Y-148158314D02*
X111552642Y-148824980D01*
X111981214Y-148158314D02*
X111981214Y-148682123D01*
X111933595Y-148777361D01*
X111838357Y-148824980D01*
X111695500Y-148824980D01*
X111600261Y-148777361D01*
X111552642Y-148729742D01*
X111124071Y-148777361D02*
X111028833Y-148824980D01*
X110838357Y-148824980D01*
X110743119Y-148777361D01*
X110695500Y-148682123D01*
X110695500Y-148634504D01*
X110743119Y-148539266D01*
X110838357Y-148491647D01*
X110981214Y-148491647D01*
X111076452Y-148444028D01*
X111124071Y-148348790D01*
X111124071Y-148301171D01*
X111076452Y-148205933D01*
X110981214Y-148158314D01*
X110838357Y-148158314D01*
X110743119Y-148205933D01*
X110409785Y-148158314D02*
X110028833Y-148158314D01*
X110266928Y-147824980D02*
X110266928Y-148682123D01*
X110219309Y-148777361D01*
X110124071Y-148824980D01*
X110028833Y-148824980D01*
X109552642Y-148824980D02*
X109647880Y-148777361D01*
X109695500Y-148729742D01*
X109743119Y-148634504D01*
X109743119Y-148348790D01*
X109695500Y-148253552D01*
X109647880Y-148205933D01*
X109552642Y-148158314D01*
X109409785Y-148158314D01*
X109314547Y-148205933D01*
X109266928Y-148253552D01*
X109219309Y-148348790D01*
X109219309Y-148634504D01*
X109266928Y-148729742D01*
X109314547Y-148777361D01*
X109409785Y-148824980D01*
X109552642Y-148824980D01*
X108028833Y-148824980D02*
X108028833Y-147824980D01*
X108028833Y-148301171D02*
X107457404Y-148301171D01*
X107457404Y-148824980D02*
X107457404Y-147824980D01*
X106552642Y-148824980D02*
X106552642Y-148301171D01*
X106600261Y-148205933D01*
X106695500Y-148158314D01*
X106885976Y-148158314D01*
X106981214Y-148205933D01*
X106552642Y-148777361D02*
X106647880Y-148824980D01*
X106885976Y-148824980D01*
X106981214Y-148777361D01*
X107028833Y-148682123D01*
X107028833Y-148586885D01*
X106981214Y-148491647D01*
X106885976Y-148444028D01*
X106647880Y-148444028D01*
X106552642Y-148396409D01*
X105933595Y-148824980D02*
X106028833Y-148777361D01*
X106076452Y-148682123D01*
X106076452Y-147824980D01*
X105695500Y-148158314D02*
X105314547Y-148158314D01*
X105552642Y-147824980D02*
X105552642Y-148682123D01*
X105505023Y-148777361D01*
X105409785Y-148824980D01*
X105314547Y-148824980D01*
X104600261Y-148777361D02*
X104695500Y-148824980D01*
X104885976Y-148824980D01*
X104981214Y-148777361D01*
X105028833Y-148682123D01*
X105028833Y-148301171D01*
X104981214Y-148205933D01*
X104885976Y-148158314D01*
X104695500Y-148158314D01*
X104600261Y-148205933D01*
X104552642Y-148301171D01*
X104552642Y-148396409D01*
X105028833Y-148491647D01*
X104124071Y-148824980D02*
X104124071Y-148158314D01*
X104124071Y-148348790D02*
X104076452Y-148253552D01*
X104028833Y-148205933D01*
X103933595Y-148158314D01*
X103838357Y-148158314D01*
X102409785Y-148301171D02*
X102266928Y-148348790D01*
X102219309Y-148396409D01*
X102171690Y-148491647D01*
X102171690Y-148634504D01*
X102219309Y-148729742D01*
X102266928Y-148777361D01*
X102362166Y-148824980D01*
X102743119Y-148824980D01*
X102743119Y-147824980D01*
X102409785Y-147824980D01*
X102314547Y-147872600D01*
X102266928Y-147920219D01*
X102219309Y-148015457D01*
X102219309Y-148110695D01*
X102266928Y-148205933D01*
X102314547Y-148253552D01*
X102409785Y-148301171D01*
X102743119Y-148301171D01*
X101314547Y-148158314D02*
X101314547Y-148824980D01*
X101743119Y-148158314D02*
X101743119Y-148682123D01*
X101695500Y-148777361D01*
X101600261Y-148824980D01*
X101457404Y-148824980D01*
X101362166Y-148777361D01*
X101314547Y-148729742D01*
X100457404Y-148777361D02*
X100552642Y-148824980D01*
X100743119Y-148824980D01*
X100838357Y-148777361D01*
X100885976Y-148682123D01*
X100885976Y-148301171D01*
X100838357Y-148205933D01*
X100743119Y-148158314D01*
X100552642Y-148158314D01*
X100457404Y-148205933D01*
X100409785Y-148301171D01*
X100409785Y-148396409D01*
X100885976Y-148491647D01*
X99838357Y-148824980D02*
X99933595Y-148777361D01*
X99981214Y-148682123D01*
X99981214Y-147824980D01*
X99457404Y-148824980D02*
X99457404Y-148158314D01*
X99457404Y-148253552D02*
X99409785Y-148205933D01*
X99314547Y-148158314D01*
X99171690Y-148158314D01*
X99076452Y-148205933D01*
X99028833Y-148301171D01*
X99028833Y-148824980D01*
X99028833Y-148301171D02*
X98981214Y-148205933D01*
X98885976Y-148158314D01*
X98743119Y-148158314D01*
X98647880Y-148205933D01*
X98600261Y-148301171D01*
X98600261Y-148824980D01*
X97981214Y-148824980D02*
X98076452Y-148777361D01*
X98124071Y-148729742D01*
X98171690Y-148634504D01*
X98171690Y-148348790D01*
X98124071Y-148253552D01*
X98076452Y-148205933D01*
X97981214Y-148158314D01*
X97838357Y-148158314D01*
X97743119Y-148205933D01*
X97695500Y-148253552D01*
X97647880Y-148348790D01*
X97647880Y-148634504D01*
X97695500Y-148729742D01*
X97743119Y-148777361D01*
X97838357Y-148824980D01*
X97981214Y-148824980D01*
X121534223Y-141082780D02*
X121343747Y-141082780D01*
X121248509Y-141130400D01*
X121153271Y-141225638D01*
X121105652Y-141416114D01*
X121105652Y-141749447D01*
X121153271Y-141939923D01*
X121248509Y-142035161D01*
X121343747Y-142082780D01*
X121534223Y-142082780D01*
X121629461Y-142035161D01*
X121724700Y-141939923D01*
X121772319Y-141749447D01*
X121772319Y-141416114D01*
X121724700Y-141225638D01*
X121629461Y-141130400D01*
X121534223Y-141082780D01*
X120677080Y-142082780D02*
X120677080Y-141416114D01*
X120677080Y-141606590D02*
X120629461Y-141511352D01*
X120581842Y-141463733D01*
X120486604Y-141416114D01*
X120391366Y-141416114D01*
X120058033Y-142082780D02*
X120058033Y-141416114D01*
X120058033Y-141082780D02*
X120105652Y-141130400D01*
X120058033Y-141178019D01*
X120010414Y-141130400D01*
X120058033Y-141082780D01*
X120058033Y-141178019D01*
X119200890Y-142035161D02*
X119296128Y-142082780D01*
X119486604Y-142082780D01*
X119581842Y-142035161D01*
X119629461Y-141939923D01*
X119629461Y-141558971D01*
X119581842Y-141463733D01*
X119486604Y-141416114D01*
X119296128Y-141416114D01*
X119200890Y-141463733D01*
X119153271Y-141558971D01*
X119153271Y-141654209D01*
X119629461Y-141749447D01*
X118724700Y-141416114D02*
X118724700Y-142082780D01*
X118724700Y-141511352D02*
X118677080Y-141463733D01*
X118581842Y-141416114D01*
X118438985Y-141416114D01*
X118343747Y-141463733D01*
X118296128Y-141558971D01*
X118296128Y-142082780D01*
X117962795Y-141416114D02*
X117581842Y-141416114D01*
X117819938Y-141082780D02*
X117819938Y-141939923D01*
X117772319Y-142035161D01*
X117677080Y-142082780D01*
X117581842Y-142082780D01*
X116819938Y-142082780D02*
X116819938Y-141558971D01*
X116867557Y-141463733D01*
X116962795Y-141416114D01*
X117153271Y-141416114D01*
X117248509Y-141463733D01*
X116819938Y-142035161D02*
X116915176Y-142082780D01*
X117153271Y-142082780D01*
X117248509Y-142035161D01*
X117296128Y-141939923D01*
X117296128Y-141844685D01*
X117248509Y-141749447D01*
X117153271Y-141701828D01*
X116915176Y-141701828D01*
X116819938Y-141654209D01*
X115915176Y-142082780D02*
X115915176Y-141082780D01*
X115915176Y-142035161D02*
X116010414Y-142082780D01*
X116200890Y-142082780D01*
X116296128Y-142035161D01*
X116343747Y-141987542D01*
X116391366Y-141892304D01*
X116391366Y-141606590D01*
X116343747Y-141511352D01*
X116296128Y-141463733D01*
X116200890Y-141416114D01*
X116010414Y-141416114D01*
X115915176Y-141463733D01*
X115296128Y-142082780D02*
X115391366Y-142035161D01*
X115438985Y-141987542D01*
X115486604Y-141892304D01*
X115486604Y-141606590D01*
X115438985Y-141511352D01*
X115391366Y-141463733D01*
X115296128Y-141416114D01*
X115153271Y-141416114D01*
X115058033Y-141463733D01*
X115010414Y-141511352D01*
X114962795Y-141606590D01*
X114962795Y-141892304D01*
X115010414Y-141987542D01*
X115058033Y-142035161D01*
X115153271Y-142082780D01*
X115296128Y-142082780D01*
X114534223Y-142082780D02*
X114534223Y-141416114D01*
X114534223Y-141606590D02*
X114486604Y-141511352D01*
X114438985Y-141463733D01*
X114343747Y-141416114D01*
X114248509Y-141416114D01*
X113915176Y-141987542D02*
X113867557Y-142035161D01*
X113915176Y-142082780D01*
X113962795Y-142035161D01*
X113915176Y-141987542D01*
X113915176Y-142082780D01*
X113915176Y-141463733D02*
X113867557Y-141511352D01*
X113915176Y-141558971D01*
X113962795Y-141511352D01*
X113915176Y-141463733D01*
X113915176Y-141558971D01*
X112200890Y-142082780D02*
X112677080Y-142082780D01*
X112677080Y-141082780D01*
X111438985Y-141416114D02*
X111438985Y-142082780D01*
X111867557Y-141416114D02*
X111867557Y-141939923D01*
X111819938Y-142035161D01*
X111724700Y-142082780D01*
X111581842Y-142082780D01*
X111486604Y-142035161D01*
X111438985Y-141987542D01*
X110534223Y-142035161D02*
X110629461Y-142082780D01*
X110819938Y-142082780D01*
X110915176Y-142035161D01*
X110962795Y-141987542D01*
X111010414Y-141892304D01*
X111010414Y-141606590D01*
X110962795Y-141511352D01*
X110915176Y-141463733D01*
X110819938Y-141416114D01*
X110629461Y-141416114D01*
X110534223Y-141463733D01*
X109677080Y-142082780D02*
X109677080Y-141558971D01*
X109724700Y-141463733D01*
X109819938Y-141416114D01*
X110010414Y-141416114D01*
X110105652Y-141463733D01*
X109677080Y-142035161D02*
X109772319Y-142082780D01*
X110010414Y-142082780D01*
X110105652Y-142035161D01*
X110153271Y-141939923D01*
X110153271Y-141844685D01*
X110105652Y-141749447D01*
X110010414Y-141701828D01*
X109772319Y-141701828D01*
X109677080Y-141654209D01*
X109248509Y-142035161D02*
X109153271Y-142082780D01*
X108962795Y-142082780D01*
X108867557Y-142035161D01*
X108819938Y-141939923D01*
X108819938Y-141892304D01*
X108867557Y-141797066D01*
X108962795Y-141749447D01*
X109105652Y-141749447D01*
X109200890Y-141701828D01*
X109248509Y-141606590D01*
X109248509Y-141558971D01*
X109200890Y-141463733D01*
X109105652Y-141416114D01*
X108962795Y-141416114D01*
X108867557Y-141463733D01*
X107629461Y-141558971D02*
X107296128Y-141558971D01*
X107153271Y-142082780D02*
X107629461Y-142082780D01*
X107629461Y-141082780D01*
X107153271Y-141082780D01*
X106819938Y-142082780D02*
X106296128Y-141416114D01*
X106819938Y-141416114D02*
X106296128Y-142082780D01*
X105915176Y-141416114D02*
X105915176Y-142416114D01*
X105915176Y-141463733D02*
X105819938Y-141416114D01*
X105629461Y-141416114D01*
X105534223Y-141463733D01*
X105486604Y-141511352D01*
X105438985Y-141606590D01*
X105438985Y-141892304D01*
X105486604Y-141987542D01*
X105534223Y-142035161D01*
X105629461Y-142082780D01*
X105819938Y-142082780D01*
X105915176Y-142035161D01*
X104867557Y-142082780D02*
X104962795Y-142035161D01*
X105010414Y-141987542D01*
X105058033Y-141892304D01*
X105058033Y-141606590D01*
X105010414Y-141511352D01*
X104962795Y-141463733D01*
X104867557Y-141416114D01*
X104724700Y-141416114D01*
X104629461Y-141463733D01*
X104581842Y-141511352D01*
X104534223Y-141606590D01*
X104534223Y-141892304D01*
X104581842Y-141987542D01*
X104629461Y-142035161D01*
X104724700Y-142082780D01*
X104867557Y-142082780D01*
X104153271Y-142035161D02*
X104058033Y-142082780D01*
X103867557Y-142082780D01*
X103772319Y-142035161D01*
X103724700Y-141939923D01*
X103724700Y-141892304D01*
X103772319Y-141797066D01*
X103867557Y-141749447D01*
X104010414Y-141749447D01*
X104105652Y-141701828D01*
X104153271Y-141606590D01*
X104153271Y-141558971D01*
X104105652Y-141463733D01*
X104010414Y-141416114D01*
X103867557Y-141416114D01*
X103772319Y-141463733D01*
X103438985Y-141416114D02*
X103058033Y-141416114D01*
X103296128Y-141082780D02*
X103296128Y-141939923D01*
X103248509Y-142035161D01*
X103153271Y-142082780D01*
X103058033Y-142082780D01*
X102581842Y-142082780D02*
X102677080Y-142035161D01*
X102724700Y-141987542D01*
X102772319Y-141892304D01*
X102772319Y-141606590D01*
X102724700Y-141511352D01*
X102677080Y-141463733D01*
X102581842Y-141416114D01*
X102438985Y-141416114D01*
X102343747Y-141463733D01*
X102296128Y-141511352D01*
X102248509Y-141606590D01*
X102248509Y-141892304D01*
X102296128Y-141987542D01*
X102343747Y-142035161D01*
X102438985Y-142082780D01*
X102581842Y-142082780D01*
X101105652Y-142035161D02*
X100962795Y-142082780D01*
X100724700Y-142082780D01*
X100629461Y-142035161D01*
X100581842Y-141987542D01*
X100534223Y-141892304D01*
X100534223Y-141797066D01*
X100581842Y-141701828D01*
X100629461Y-141654209D01*
X100724700Y-141606590D01*
X100915176Y-141558971D01*
X101010414Y-141511352D01*
X101058033Y-141463733D01*
X101105652Y-141368495D01*
X101105652Y-141273257D01*
X101058033Y-141178019D01*
X101010414Y-141130400D01*
X100915176Y-141082780D01*
X100677080Y-141082780D01*
X100534223Y-141130400D01*
X99962795Y-142082780D02*
X100058033Y-142035161D01*
X100105652Y-141987542D01*
X100153271Y-141892304D01*
X100153271Y-141606590D01*
X100105652Y-141511352D01*
X100058033Y-141463733D01*
X99962795Y-141416114D01*
X99819938Y-141416114D01*
X99724700Y-141463733D01*
X99677080Y-141511352D01*
X99629461Y-141606590D01*
X99629461Y-141892304D01*
X99677080Y-141987542D01*
X99724700Y-142035161D01*
X99819938Y-142082780D01*
X99962795Y-142082780D01*
X98772319Y-142082780D02*
X98772319Y-141558971D01*
X98819938Y-141463733D01*
X98915176Y-141416114D01*
X99105652Y-141416114D01*
X99200890Y-141463733D01*
X98772319Y-142035161D02*
X98867557Y-142082780D01*
X99105652Y-142082780D01*
X99200890Y-142035161D01*
X99248509Y-141939923D01*
X99248509Y-141844685D01*
X99200890Y-141749447D01*
X99105652Y-141701828D01*
X98867557Y-141701828D01*
X98772319Y-141654209D01*
X98296128Y-142082780D02*
X98296128Y-141416114D01*
X98296128Y-141606590D02*
X98248509Y-141511352D01*
X98200890Y-141463733D01*
X98105652Y-141416114D01*
X98010414Y-141416114D01*
X97296128Y-142035161D02*
X97391366Y-142082780D01*
X97581842Y-142082780D01*
X97677080Y-142035161D01*
X97724700Y-141939923D01*
X97724700Y-141558971D01*
X97677080Y-141463733D01*
X97581842Y-141416114D01*
X97391366Y-141416114D01*
X97296128Y-141463733D01*
X97248509Y-141558971D01*
X97248509Y-141654209D01*
X97724700Y-141749447D01*
X96867557Y-142035161D02*
X96772319Y-142082780D01*
X96581842Y-142082780D01*
X96486604Y-142035161D01*
X96438985Y-141939923D01*
X96438985Y-141892304D01*
X96486604Y-141797066D01*
X96581842Y-141749447D01*
X96724700Y-141749447D01*
X96819938Y-141701828D01*
X96867557Y-141606590D01*
X96867557Y-141558971D01*
X96819938Y-141463733D01*
X96724700Y-141416114D01*
X96581842Y-141416114D01*
X96486604Y-141463733D01*
D12*
%TO.P,R19,2*%
%TO.N,Net-(BZ1-Pad1)*%
X105845000Y-68300000D03*
D13*
%TO.P,R19,1*%
%TO.N,Buzzer*%
X98225000Y-68300000D03*
%TD*%
D12*
%TO.P,R18,2*%
%TO.N,CH02*%
X105460000Y-95680000D03*
D13*
%TO.P,R18,1*%
%TO.N,3V3*%
X105460000Y-88060000D03*
%TD*%
D12*
%TO.P,R17,2*%
%TO.N,CH01*%
X102616000Y-95656400D03*
D13*
%TO.P,R17,1*%
%TO.N,3V3*%
X102616000Y-88036400D03*
%TD*%
D12*
%TO.P,R16,2*%
%TO.N,Net-(D16-Pad2)*%
X125831600Y-120345200D03*
D13*
%TO.P,R16,1*%
%TO.N,VLT2*%
X118211600Y-120345200D03*
%TD*%
%TO.P,R15,1*%
%TO.N,VLT1*%
X118211600Y-117170200D03*
D12*
%TO.P,R15,2*%
%TO.N,Net-(D15-Pad2)*%
X125831600Y-117170200D03*
%TD*%
%TO.P,R14,2*%
%TO.N,Net-(D14-Pad2)*%
X100765426Y-107670600D03*
D13*
%TO.P,R14,1*%
%TO.N,S6VD*%
X100765426Y-100050600D03*
%TD*%
%TO.P,R13,1*%
%TO.N,S6VM*%
X97848055Y-100050600D03*
D12*
%TO.P,R13,2*%
%TO.N,Net-(D13-Pad2)*%
X97848055Y-107670600D03*
%TD*%
%TO.P,R12,2*%
%TO.N,Net-(D12-Pad2)*%
X100765426Y-120472200D03*
D13*
%TO.P,R12,1*%
%TO.N,S5VD*%
X100765426Y-112852200D03*
%TD*%
%TO.P,R11,1*%
%TO.N,S5VM*%
X97848055Y-112852200D03*
D12*
%TO.P,R11,2*%
%TO.N,Net-(D11-Pad2)*%
X97848055Y-120472200D03*
%TD*%
%TO.P,R10,2*%
%TO.N,Net-(D10-Pad2)*%
X94930684Y-120472200D03*
D13*
%TO.P,R10,1*%
%TO.N,S4VD*%
X94930684Y-112852200D03*
%TD*%
%TO.P,R9,1*%
%TO.N,S4VM*%
X92013313Y-112852200D03*
D12*
%TO.P,R9,2*%
%TO.N,Net-(D9-Pad2)*%
X92013313Y-120472200D03*
%TD*%
%TO.P,R8,2*%
%TO.N,Net-(D8-Pad2)*%
X94930684Y-107670600D03*
D13*
%TO.P,R8,1*%
%TO.N,S3VD*%
X94930684Y-100050600D03*
%TD*%
%TO.P,R7,1*%
%TO.N,S3VM*%
X89095942Y-112852200D03*
D12*
%TO.P,R7,2*%
%TO.N,Net-(D7-Pad2)*%
X89095942Y-120472200D03*
%TD*%
%TO.P,R6,2*%
%TO.N,Net-(D6-Pad2)*%
X86178571Y-120472200D03*
D13*
%TO.P,R6,1*%
%TO.N,S2VD*%
X86178571Y-112852200D03*
%TD*%
%TO.P,R5,1*%
%TO.N,S2AM*%
X83261200Y-112852200D03*
D12*
%TO.P,R5,2*%
%TO.N,Net-(D5-Pad2)*%
X83261200Y-120472200D03*
%TD*%
D13*
%TO.P,R4,1*%
%TO.N,S2VM*%
X92013313Y-100050600D03*
D12*
%TO.P,R4,2*%
%TO.N,Net-(D4-Pad2)*%
X92013313Y-107670600D03*
%TD*%
D13*
%TO.P,R3,1*%
%TO.N,S1VD*%
X89095942Y-100050600D03*
D12*
%TO.P,R3,2*%
%TO.N,Net-(D3-Pad2)*%
X89095942Y-107670600D03*
%TD*%
D13*
%TO.P,R2,1*%
%TO.N,S1AM*%
X86178571Y-100050600D03*
D12*
%TO.P,R2,2*%
%TO.N,Net-(D2-Pad2)*%
X86178571Y-107670600D03*
%TD*%
D13*
%TO.P,R1,1*%
%TO.N,S1VM*%
X83261200Y-100050600D03*
D12*
%TO.P,R1,2*%
%TO.N,Net-(D1-Pad2)*%
X83261200Y-107670600D03*
%TD*%
D14*
%TO.P,U1,16*%
%TO.N,3V3*%
X74371200Y-95808800D03*
%TO.P,U1,8*%
%TO.N,GND*%
X66751200Y-113588800D03*
%TO.P,U1,15*%
%TO.N,S1VD*%
X74371200Y-98348800D03*
%TO.P,U1,7*%
%TO.N,S3VM*%
X66751200Y-111048800D03*
%TO.P,U1,14*%
%TO.N,DATA*%
X74371200Y-100888800D03*
%TO.P,U1,6*%
%TO.N,S3VD*%
X66751200Y-108508800D03*
%TO.P,U1,13*%
%TO.N,GND*%
X74371200Y-103428800D03*
%TO.P,U1,5*%
%TO.N,S2VM*%
X66751200Y-105968800D03*
%TO.P,U1,12*%
%TO.N,CS*%
X74371200Y-105968800D03*
%TO.P,U1,4*%
%TO.N,S2AM*%
X66751200Y-103428800D03*
%TO.P,U1,11*%
%TO.N,CLK*%
X74371200Y-108508800D03*
%TO.P,U1,3*%
%TO.N,S2VD*%
X66751200Y-100888800D03*
%TO.P,U1,10*%
%TO.N,3V3*%
X74371200Y-111048800D03*
%TO.P,U1,2*%
%TO.N,S1VM*%
X66751200Y-98348800D03*
%TO.P,U1,9*%
%TO.N,DATA1*%
X74371200Y-113588800D03*
D15*
%TO.P,U1,1*%
%TO.N,S1AM*%
X66751200Y-95808800D03*
%TD*%
D14*
%TO.P,U2,16*%
%TO.N,3V3*%
X112630000Y-112675000D03*
%TO.P,U2,8*%
%TO.N,GND*%
X120250000Y-94895000D03*
%TO.P,U2,15*%
%TO.N,S4VD*%
X112630000Y-110135000D03*
%TO.P,U2,7*%
%TO.N,VLT2*%
X120250000Y-97435000D03*
%TO.P,U2,14*%
%TO.N,DATA1*%
X112630000Y-107595000D03*
%TO.P,U2,6*%
%TO.N,VLT1*%
X120250000Y-99975000D03*
%TO.P,U2,13*%
%TO.N,GND*%
X112630000Y-105055000D03*
%TO.P,U2,5*%
%TO.N,S6VM*%
X120250000Y-102515000D03*
%TO.P,U2,12*%
%TO.N,CS*%
X112630000Y-102515000D03*
%TO.P,U2,4*%
%TO.N,S6VD*%
X120250000Y-105055000D03*
%TO.P,U2,11*%
%TO.N,CLK*%
X112630000Y-99975000D03*
%TO.P,U2,3*%
%TO.N,S5VM*%
X120250000Y-107595000D03*
%TO.P,U2,10*%
%TO.N,3V3*%
X112630000Y-97435000D03*
%TO.P,U2,2*%
%TO.N,S5VD*%
X120250000Y-110135000D03*
%TO.P,U2,9*%
%TO.N,N/C*%
X112630000Y-94895000D03*
D15*
%TO.P,U2,1*%
%TO.N,S4VM*%
X120250000Y-112675000D03*
%TD*%
D16*
%TO.P,REF\u002A\u002A,1*%
%TO.N,N/C*%
X134518400Y-59639200D03*
D17*
X137743400Y-59639200D03*
X136798819Y-61919619D03*
X134518400Y-62864200D03*
X132237981Y-61919619D03*
X131293400Y-59639200D03*
X132237981Y-57358781D03*
X134518400Y-56414200D03*
X136798819Y-57358781D03*
%TD*%
D16*
%TO.P,REF\u002A\u002A,1*%
%TO.N,N/C*%
X134518400Y-144627600D03*
D17*
X137743400Y-144627600D03*
X136798819Y-146908019D03*
X134518400Y-147852600D03*
X132237981Y-146908019D03*
X131293400Y-144627600D03*
X132237981Y-142347181D03*
X134518400Y-141402600D03*
X136798819Y-142347181D03*
%TD*%
D16*
%TO.P,REF\u002A\u002A,1*%
%TO.N,N/C*%
X51714400Y-144627600D03*
D17*
X54939400Y-144627600D03*
X53994819Y-146908019D03*
X51714400Y-147852600D03*
X49433981Y-146908019D03*
X48489400Y-144627600D03*
X49433981Y-142347181D03*
X51714400Y-141402600D03*
X53994819Y-142347181D03*
%TD*%
%TO.P,REF\u002A\u002A,1*%
%TO.N,N/C*%
X53994819Y-57358781D03*
X51714400Y-56414200D03*
X49433981Y-57358781D03*
X48489400Y-59639200D03*
X49433981Y-61919619D03*
X51714400Y-62864200D03*
X53994819Y-61919619D03*
X54939400Y-59639200D03*
D16*
X51714400Y-59639200D03*
%TD*%
D18*
%TO.P,BZ1,1*%
%TO.N,Net-(BZ1-Pad1)*%
X101275000Y-76875000D03*
D19*
%TO.P,BZ1,2*%
%TO.N,GND*%
X108875000Y-76875000D03*
%TD*%
D18*
%TO.P,C3,1*%
%TO.N,5V*%
X105968800Y-58674000D03*
D19*
%TO.P,C3,2*%
%TO.N,GND*%
X113468800Y-58674000D03*
%TD*%
D20*
%TO.P,I2C1,1*%
%TO.N,3V3*%
X62025000Y-56175000D03*
D21*
%TO.P,I2C1,2*%
%TO.N,GND*%
X62025000Y-58715000D03*
%TO.P,I2C1,3*%
%TO.N,SCL*%
X62025000Y-61255000D03*
%TO.P,I2C1,4*%
%TO.N,SDA*%
X62025000Y-63795000D03*
%TD*%
%TA.AperFunction,SMDPad,CuDef*%
D22*
%TO.P,J1,1*%
%TO.N,GND*%
G36*
X89269000Y-90410600D02*
G01*
X89819000Y-90410600D01*
X89819000Y-90411202D01*
X89843534Y-90411202D01*
X89892365Y-90416012D01*
X89940490Y-90425584D01*
X89987445Y-90439828D01*
X90032778Y-90458605D01*
X90076051Y-90481736D01*
X90116850Y-90508996D01*
X90154779Y-90540124D01*
X90189476Y-90574821D01*
X90220604Y-90612750D01*
X90247864Y-90653549D01*
X90270995Y-90696822D01*
X90289772Y-90742155D01*
X90304016Y-90789110D01*
X90313588Y-90837235D01*
X90318398Y-90886066D01*
X90318398Y-90910600D01*
X90319000Y-90910600D01*
X90319000Y-91410600D01*
X90318398Y-91410600D01*
X90318398Y-91435134D01*
X90313588Y-91483965D01*
X90304016Y-91532090D01*
X90289772Y-91579045D01*
X90270995Y-91624378D01*
X90247864Y-91667651D01*
X90220604Y-91708450D01*
X90189476Y-91746379D01*
X90154779Y-91781076D01*
X90116850Y-91812204D01*
X90076051Y-91839464D01*
X90032778Y-91862595D01*
X89987445Y-91881372D01*
X89940490Y-91895616D01*
X89892365Y-91905188D01*
X89843534Y-91909998D01*
X89819000Y-91909998D01*
X89819000Y-91910600D01*
X89269000Y-91910600D01*
X89269000Y-90410600D01*
G37*
%TD.AperFunction*%
%TA.AperFunction,SMDPad,CuDef*%
%TO.P,J1,3*%
%TO.N,3V3*%
G36*
X87219000Y-91909998D02*
G01*
X87194466Y-91909998D01*
X87145635Y-91905188D01*
X87097510Y-91895616D01*
X87050555Y-91881372D01*
X87005222Y-91862595D01*
X86961949Y-91839464D01*
X86921150Y-91812204D01*
X86883221Y-91781076D01*
X86848524Y-91746379D01*
X86817396Y-91708450D01*
X86790136Y-91667651D01*
X86767005Y-91624378D01*
X86748228Y-91579045D01*
X86733984Y-91532090D01*
X86724412Y-91483965D01*
X86719602Y-91435134D01*
X86719602Y-91410600D01*
X86719000Y-91410600D01*
X86719000Y-90910600D01*
X86719602Y-90910600D01*
X86719602Y-90886066D01*
X86724412Y-90837235D01*
X86733984Y-90789110D01*
X86748228Y-90742155D01*
X86767005Y-90696822D01*
X86790136Y-90653549D01*
X86817396Y-90612750D01*
X86848524Y-90574821D01*
X86883221Y-90540124D01*
X86921150Y-90508996D01*
X86961949Y-90481736D01*
X87005222Y-90458605D01*
X87050555Y-90439828D01*
X87097510Y-90425584D01*
X87145635Y-90416012D01*
X87194466Y-90411202D01*
X87219000Y-90411202D01*
X87219000Y-90410600D01*
X87769000Y-90410600D01*
X87769000Y-91910600D01*
X87219000Y-91910600D01*
X87219000Y-91909998D01*
G37*
%TD.AperFunction*%
D23*
%TO.P,J1,2*%
%TO.N,Net-(J1-Pad2)*%
X88519000Y-91160600D03*
%TD*%
%TO.P,J2,2*%
%TO.N,Net-(J2-Pad2)*%
X94056200Y-91160600D03*
%TA.AperFunction,SMDPad,CuDef*%
D22*
%TO.P,J2,3*%
%TO.N,3V3*%
G36*
X92756200Y-91909998D02*
G01*
X92731666Y-91909998D01*
X92682835Y-91905188D01*
X92634710Y-91895616D01*
X92587755Y-91881372D01*
X92542422Y-91862595D01*
X92499149Y-91839464D01*
X92458350Y-91812204D01*
X92420421Y-91781076D01*
X92385724Y-91746379D01*
X92354596Y-91708450D01*
X92327336Y-91667651D01*
X92304205Y-91624378D01*
X92285428Y-91579045D01*
X92271184Y-91532090D01*
X92261612Y-91483965D01*
X92256802Y-91435134D01*
X92256802Y-91410600D01*
X92256200Y-91410600D01*
X92256200Y-90910600D01*
X92256802Y-90910600D01*
X92256802Y-90886066D01*
X92261612Y-90837235D01*
X92271184Y-90789110D01*
X92285428Y-90742155D01*
X92304205Y-90696822D01*
X92327336Y-90653549D01*
X92354596Y-90612750D01*
X92385724Y-90574821D01*
X92420421Y-90540124D01*
X92458350Y-90508996D01*
X92499149Y-90481736D01*
X92542422Y-90458605D01*
X92587755Y-90439828D01*
X92634710Y-90425584D01*
X92682835Y-90416012D01*
X92731666Y-90411202D01*
X92756200Y-90411202D01*
X92756200Y-90410600D01*
X93306200Y-90410600D01*
X93306200Y-91910600D01*
X92756200Y-91910600D01*
X92756200Y-91909998D01*
G37*
%TD.AperFunction*%
%TA.AperFunction,SMDPad,CuDef*%
%TO.P,J2,1*%
%TO.N,GND*%
G36*
X94806200Y-90410600D02*
G01*
X95356200Y-90410600D01*
X95356200Y-90411202D01*
X95380734Y-90411202D01*
X95429565Y-90416012D01*
X95477690Y-90425584D01*
X95524645Y-90439828D01*
X95569978Y-90458605D01*
X95613251Y-90481736D01*
X95654050Y-90508996D01*
X95691979Y-90540124D01*
X95726676Y-90574821D01*
X95757804Y-90612750D01*
X95785064Y-90653549D01*
X95808195Y-90696822D01*
X95826972Y-90742155D01*
X95841216Y-90789110D01*
X95850788Y-90837235D01*
X95855598Y-90886066D01*
X95855598Y-90910600D01*
X95856200Y-90910600D01*
X95856200Y-91410600D01*
X95855598Y-91410600D01*
X95855598Y-91435134D01*
X95850788Y-91483965D01*
X95841216Y-91532090D01*
X95826972Y-91579045D01*
X95808195Y-91624378D01*
X95785064Y-91667651D01*
X95757804Y-91708450D01*
X95726676Y-91746379D01*
X95691979Y-91781076D01*
X95654050Y-91812204D01*
X95613251Y-91839464D01*
X95569978Y-91862595D01*
X95524645Y-91881372D01*
X95477690Y-91895616D01*
X95429565Y-91905188D01*
X95380734Y-91909998D01*
X95356200Y-91909998D01*
X95356200Y-91910600D01*
X94806200Y-91910600D01*
X94806200Y-90410600D01*
G37*
%TD.AperFunction*%
%TD*%
D21*
%TO.P,OLED1,4*%
%TO.N,SDA*%
X97020000Y-95875000D03*
%TO.P,OLED1,3*%
%TO.N,SCL*%
X94480000Y-95875000D03*
%TO.P,OLED1,2*%
%TO.N,Net-(J2-Pad2)*%
X91940000Y-95875000D03*
D20*
%TO.P,OLED1,1*%
%TO.N,Net-(J1-Pad2)*%
X89400000Y-95875000D03*
%TD*%
D24*
%TO.P,P3,1*%
%TO.N,5V*%
X121000000Y-68000000D03*
%TO.P,P3,2*%
%TO.N,GND*%
%TA.AperFunction,ComponentPad*%
G36*
G01*
X120000000Y-60500000D02*
X122000000Y-60500000D01*
G75*
G02*
X122750000Y-61250000I0J-750000D01*
G01*
X122750000Y-62750000D01*
G75*
G02*
X122000000Y-63500000I-750000J0D01*
G01*
X120000000Y-63500000D01*
G75*
G02*
X119250000Y-62750000I0J750000D01*
G01*
X119250000Y-61250000D01*
G75*
G02*
X120000000Y-60500000I750000J0D01*
G01*
G37*
%TD.AperFunction*%
%TO.P,P3,3*%
%TA.AperFunction,ComponentPad*%
G36*
G01*
X115425000Y-63250000D02*
X117175000Y-63250000D01*
G75*
G02*
X118050000Y-64125000I0J-875000D01*
G01*
X118050000Y-65875000D01*
G75*
G02*
X117175000Y-66750000I-875000J0D01*
G01*
X115425000Y-66750000D01*
G75*
G02*
X114550000Y-65875000I0J875000D01*
G01*
X114550000Y-64125000D01*
G75*
G02*
X115425000Y-63250000I875000J0D01*
G01*
G37*
%TD.AperFunction*%
%TD*%
D25*
%TO.P,S1,4*%
%TO.N,GND*%
X52806600Y-83097400D03*
%TO.P,S1,3*%
%TO.N,S1VM*%
X52806600Y-78097400D03*
%TO.P,S1,2*%
%TO.N,S1AM*%
X52806600Y-73097400D03*
D26*
%TO.P,S1,1*%
%TO.N,S1VD*%
X52806600Y-68097400D03*
%TD*%
%TO.P,S2,1*%
%TO.N,S2VD*%
X52950000Y-91250000D03*
D25*
%TO.P,S2,2*%
%TO.N,S2AM*%
X52950000Y-96250000D03*
%TO.P,S2,3*%
%TO.N,S2VM*%
X52950000Y-101250000D03*
%TO.P,S2,4*%
%TO.N,GND*%
X52950000Y-106250000D03*
%TD*%
D26*
%TO.P,S3,1*%
%TO.N,S3VD*%
X53009800Y-116916200D03*
D25*
%TO.P,S3,2*%
%TO.N,S3VM*%
X53009800Y-121916200D03*
%TO.P,S3,3*%
%TO.N,GND*%
X53009800Y-126916200D03*
%TD*%
%TO.P,S4,3*%
%TO.N,GND*%
X134874000Y-126194800D03*
%TO.P,S4,2*%
%TO.N,S4VM*%
X134874000Y-131194800D03*
D26*
%TO.P,S4,1*%
%TO.N,S4VD*%
X134874000Y-136194800D03*
%TD*%
%TO.P,S5,1*%
%TO.N,S5VD*%
X134874000Y-117650000D03*
D25*
%TO.P,S5,2*%
%TO.N,S5VM*%
X134874000Y-112650000D03*
%TO.P,S5,3*%
%TO.N,GND*%
X134874000Y-107650000D03*
%TD*%
%TO.P,S6,3*%
%TO.N,GND*%
X134874000Y-87790000D03*
%TO.P,S6,2*%
%TO.N,S6VM*%
X134874000Y-92790000D03*
D26*
%TO.P,S6,1*%
%TO.N,S6VD*%
X134874000Y-97790000D03*
%TD*%
D19*
%TO.P,SW1,2*%
%TO.N,CH01*%
X66294000Y-142820000D03*
%TO.P,SW1,1*%
%TO.N,GND*%
X66294000Y-147320000D03*
%TO.P,SW1,2*%
%TO.N,CH01*%
X59794000Y-142820000D03*
%TO.P,SW1,1*%
%TO.N,GND*%
X59794000Y-147320000D03*
%TD*%
%TO.P,SW2,2*%
%TO.N,CH02*%
X79502000Y-142820000D03*
%TO.P,SW2,1*%
%TO.N,GND*%
X79502000Y-147320000D03*
%TO.P,SW2,2*%
%TO.N,CH02*%
X73002000Y-142820000D03*
%TO.P,SW2,1*%
%TO.N,GND*%
X73002000Y-147320000D03*
%TD*%
%TO.P,SW3,1*%
%TO.N,GND*%
X86210000Y-147320000D03*
%TO.P,SW3,2*%
%TO.N,CH03*%
X86210000Y-142820000D03*
%TO.P,SW3,1*%
%TO.N,GND*%
X92710000Y-147320000D03*
%TO.P,SW3,2*%
%TO.N,CH03*%
X92710000Y-142820000D03*
%TD*%
D26*
%TO.P,VLT1,1*%
%TO.N,VLT1*%
X134900000Y-77850000D03*
D25*
%TO.P,VLT1,2*%
%TO.N,VLT2*%
X134900000Y-72850000D03*
%TO.P,VLT1,3*%
%TO.N,GND*%
X134900000Y-67850000D03*
%TD*%
D27*
%TO.P,WEMOS-D1,16*%
%TO.N,N/C*%
X93755000Y-63885000D03*
%TO.P,WEMOS-D1,1*%
%TO.N,5V*%
X70895000Y-63885000D03*
%TO.P,WEMOS-D1,15*%
%TO.N,CS*%
X93755000Y-66425000D03*
%TO.P,WEMOS-D1,2*%
%TO.N,GND*%
X70895000Y-66425000D03*
%TO.P,WEMOS-D1,14*%
%TO.N,DATA*%
X93755000Y-68965000D03*
%TO.P,WEMOS-D1,3*%
%TO.N,CH03*%
X70895000Y-68965000D03*
%TO.P,WEMOS-D1,13*%
%TO.N,Buzzer*%
X93755000Y-71505000D03*
%TO.P,WEMOS-D1,4*%
%TO.N,CH02*%
X70895000Y-71505000D03*
%TO.P,WEMOS-D1,12*%
%TO.N,CLK*%
X93755000Y-74045000D03*
%TO.P,WEMOS-D1,5*%
%TO.N,SDA*%
X70895000Y-74045000D03*
%TO.P,WEMOS-D1,11*%
%TO.N,CH01*%
X93755000Y-76585000D03*
%TO.P,WEMOS-D1,6*%
%TO.N,SCL*%
X70895000Y-76585000D03*
%TO.P,WEMOS-D1,10*%
%TO.N,N/C*%
X93755000Y-79125000D03*
%TO.P,WEMOS-D1,7*%
X70895000Y-79125000D03*
%TO.P,WEMOS-D1,9*%
X93755000Y-81665000D03*
%TO.P,WEMOS-D1,8*%
X70895000Y-81665000D03*
%TD*%
D28*
%TO.P,C1,1*%
%TO.N,3V3*%
X109575600Y-70104000D03*
%TO.P,C1,2*%
%TO.N,GND*%
X109575600Y-65104000D03*
%TD*%
%TO.P,C2,2*%
%TO.N,GND*%
X73224400Y-92456000D03*
%TO.P,C2,1*%
%TO.N,3V3*%
X68224400Y-92456000D03*
%TD*%
%TO.P,C4,1*%
%TO.N,3V3*%
X113690400Y-91389200D03*
%TO.P,C4,2*%
%TO.N,GND*%
X118690400Y-91389200D03*
%TD*%
D29*
%TO.P,D1,1*%
%TO.N,GND*%
X64950000Y-120850000D03*
D27*
%TO.P,D1,2*%
%TO.N,Net-(D1-Pad2)*%
X67490000Y-120850000D03*
%TD*%
D29*
%TO.P,D2,1*%
%TO.N,GND*%
X64950000Y-127600000D03*
D27*
%TO.P,D2,2*%
%TO.N,Net-(D2-Pad2)*%
X67490000Y-127600000D03*
%TD*%
%TO.P,D3,2*%
%TO.N,Net-(D3-Pad2)*%
X67490000Y-134500000D03*
D29*
%TO.P,D3,1*%
%TO.N,GND*%
X64950000Y-134500000D03*
%TD*%
D27*
%TO.P,D4,2*%
%TO.N,Net-(D4-Pad2)*%
X76758800Y-120853200D03*
D29*
%TO.P,D4,1*%
%TO.N,GND*%
X74218800Y-120853200D03*
%TD*%
D27*
%TO.P,D5,2*%
%TO.N,Net-(D5-Pad2)*%
X76758800Y-127609600D03*
D29*
%TO.P,D5,1*%
%TO.N,GND*%
X74218800Y-127609600D03*
%TD*%
%TO.P,D6,1*%
%TO.N,GND*%
X74218800Y-134493000D03*
D27*
%TO.P,D6,2*%
%TO.N,Net-(D6-Pad2)*%
X76758800Y-134493000D03*
%TD*%
D29*
%TO.P,D7,1*%
%TO.N,GND*%
X83870800Y-127635000D03*
D27*
%TO.P,D7,2*%
%TO.N,Net-(D7-Pad2)*%
X86410800Y-127635000D03*
%TD*%
%TO.P,D8,2*%
%TO.N,Net-(D8-Pad2)*%
X86385400Y-134467600D03*
D29*
%TO.P,D8,1*%
%TO.N,GND*%
X83845400Y-134467600D03*
%TD*%
D27*
%TO.P,D9,2*%
%TO.N,Net-(D9-Pad2)*%
X95230000Y-127660400D03*
D29*
%TO.P,D9,1*%
%TO.N,GND*%
X92690000Y-127660400D03*
%TD*%
%TO.P,D10,1*%
%TO.N,GND*%
X92684600Y-134467600D03*
D27*
%TO.P,D10,2*%
%TO.N,Net-(D10-Pad2)*%
X95224600Y-134467600D03*
%TD*%
%TO.P,D11,2*%
%TO.N,Net-(D11-Pad2)*%
X103301800Y-127660400D03*
D29*
%TO.P,D11,1*%
%TO.N,GND*%
X100761800Y-127660400D03*
%TD*%
D27*
%TO.P,D12,2*%
%TO.N,Net-(D12-Pad2)*%
X103301800Y-134467600D03*
D29*
%TO.P,D12,1*%
%TO.N,GND*%
X100761800Y-134467600D03*
%TD*%
%TO.P,D13,1*%
%TO.N,GND*%
X109321600Y-127685800D03*
D27*
%TO.P,D13,2*%
%TO.N,Net-(D13-Pad2)*%
X111861600Y-127685800D03*
%TD*%
D29*
%TO.P,D14,1*%
%TO.N,GND*%
X109296200Y-134467600D03*
D27*
%TO.P,D14,2*%
%TO.N,Net-(D14-Pad2)*%
X111836200Y-134467600D03*
%TD*%
D29*
%TO.P,D15,1*%
%TO.N,GND*%
X120490000Y-126410000D03*
D27*
%TO.P,D15,2*%
%TO.N,Net-(D15-Pad2)*%
X123030000Y-126410000D03*
%TD*%
D29*
%TO.P,D16,1*%
%TO.N,GND*%
X120490000Y-135980000D03*
D27*
%TO.P,D16,2*%
%TO.N,Net-(D16-Pad2)*%
X123030000Y-135980000D03*
%TD*%
D30*
%TO.N,GND*%
X106908600Y-104952800D03*
X106832400Y-101168200D03*
X104648000Y-97739200D03*
%TO.N,S2VD*%
X69316600Y-107213400D03*
%TO.N,S3VD*%
X81153000Y-103174800D03*
X70815200Y-102158800D03*
%TO.N,S4VM*%
X99161600Y-118567200D03*
%TO.N,S4VD*%
X97790000Y-116611400D03*
X102285800Y-116484400D03*
%TO.N,S5VM*%
X103530400Y-114223800D03*
%TO.N,S6VD*%
X102336600Y-103694600D03*
%TO.N,CH02*%
X100126800Y-86588600D03*
%TO.N,3V3*%
X71170800Y-113792000D03*
%TO.N,CLK*%
X105054400Y-104978200D03*
%TD*%
D31*
%TO.N,Net-(BZ1-Pad1)*%
X101275000Y-76875000D02*
X101275000Y-74747000D01*
X101275000Y-74747000D02*
X103886000Y-72136000D01*
X103886000Y-72136000D02*
X104952800Y-72136000D01*
X105845000Y-71243800D02*
X105845000Y-68300000D01*
X104952800Y-72136000D02*
X105845000Y-71243800D01*
%TO.N,GND*%
X59794000Y-147320000D02*
X66294000Y-147320000D01*
X66294000Y-147320000D02*
X73002000Y-147320000D01*
X79502000Y-147320000D02*
X86210000Y-147320000D01*
X73002000Y-147320000D02*
X79502000Y-147320000D01*
X86210000Y-147320000D02*
X92710000Y-147320000D01*
X55880000Y-136830000D02*
X53000000Y-133950000D01*
X53000000Y-133950000D02*
X47950000Y-133950000D01*
X47950000Y-133950000D02*
X45000000Y-131000000D01*
X45000000Y-131000000D02*
X45000000Y-109000000D01*
X47750000Y-106250000D02*
X52950000Y-106250000D01*
X45000000Y-109000000D02*
X47750000Y-106250000D01*
D32*
X52950000Y-106250000D02*
X47250000Y-106250000D01*
D31*
X47250000Y-106250000D02*
X45000000Y-104000000D01*
X116300000Y-65000000D02*
X116000000Y-65000000D01*
X134874000Y-87790000D02*
X139210000Y-87790000D01*
X139210000Y-87790000D02*
X141000000Y-86000000D01*
X141000000Y-86000000D02*
X141000000Y-71000000D01*
X137850000Y-67850000D02*
X134900000Y-67850000D01*
X141000000Y-71000000D02*
X137850000Y-67850000D01*
X134874000Y-107650000D02*
X138350000Y-107650000D01*
X141000000Y-105000000D02*
X141000000Y-86000000D01*
X138350000Y-107650000D02*
X141000000Y-105000000D01*
X141000000Y-125000000D02*
X141000000Y-105000000D01*
X116300000Y-68510400D02*
X116300000Y-65000000D01*
X112166400Y-71120000D02*
X113690400Y-71120000D01*
X108875000Y-76875000D02*
X108875000Y-74411400D01*
X108875000Y-74411400D02*
X112166400Y-71120000D01*
X115468400Y-69342000D02*
X115468400Y-69850000D01*
X115468400Y-69342000D02*
X116300000Y-68510400D01*
X113690400Y-71120000D02*
X115468400Y-69342000D01*
X115468400Y-69850000D02*
X117348000Y-71729600D01*
X117348000Y-71729600D02*
X126187200Y-71729600D01*
X126187200Y-71729600D02*
X129641600Y-68275200D01*
X134474800Y-68275200D02*
X134900000Y-67850000D01*
X129641600Y-68275200D02*
X134474800Y-68275200D01*
X70895000Y-66425000D02*
X69473000Y-66425000D01*
X69473000Y-66425000D02*
X68630800Y-65582800D01*
X68630800Y-65582800D02*
X68630800Y-59283600D01*
X68062200Y-58715000D02*
X62025000Y-58715000D01*
X68630800Y-59283600D02*
X68062200Y-58715000D01*
X64950000Y-134592800D02*
X62712800Y-136830000D01*
X64950000Y-134500000D02*
X64950000Y-134592800D01*
X62712800Y-136830000D02*
X55880000Y-136830000D01*
X62687200Y-136830000D02*
X62712800Y-136830000D01*
X64950000Y-134500000D02*
X64950000Y-136120800D01*
X64950000Y-136120800D02*
X67411600Y-138582400D01*
X109225000Y-134850000D02*
X109225000Y-138282600D01*
X109225000Y-138282600D02*
X109524800Y-138582400D01*
X109524800Y-138582400D02*
X117887600Y-138582400D01*
X100740000Y-138382800D02*
X100939600Y-138582400D01*
X100740000Y-134730000D02*
X100740000Y-138382800D01*
X100939600Y-138582400D02*
X109524800Y-138582400D01*
X92680000Y-134710000D02*
X92680000Y-138561600D01*
X92680000Y-138561600D02*
X92659200Y-138582400D01*
X92659200Y-138582400D02*
X100939600Y-138582400D01*
X83900000Y-138560800D02*
X83921600Y-138582400D01*
X83900000Y-134675000D02*
X83900000Y-138560800D01*
X83921600Y-138582400D02*
X92659200Y-138582400D01*
X67411600Y-138582400D02*
X74523600Y-138582400D01*
X74150000Y-138208800D02*
X74523600Y-138582400D01*
X74150000Y-134600000D02*
X74150000Y-138208800D01*
X74523600Y-138582400D02*
X83921600Y-138582400D01*
X64950000Y-120900000D02*
X64900000Y-120850000D01*
X64950000Y-134500000D02*
X64950000Y-120900000D01*
X74150000Y-120925000D02*
X74300000Y-120775000D01*
X74150000Y-134600000D02*
X74150000Y-120925000D01*
X83845400Y-127660400D02*
X83870800Y-127635000D01*
X83845400Y-134467600D02*
X83845400Y-127660400D01*
X92684600Y-127665800D02*
X92690000Y-127660400D01*
X92684600Y-134467600D02*
X92684600Y-127665800D01*
X100761800Y-134467600D02*
X100761800Y-127660400D01*
X120490000Y-135980000D02*
X120490000Y-126410000D01*
X118684600Y-137785400D02*
X120490000Y-135980000D01*
X117887600Y-138582400D02*
X118684600Y-137785400D01*
X141000000Y-125000000D02*
X141000000Y-138222200D01*
X109296200Y-127711200D02*
X109321600Y-127685800D01*
X109296200Y-134467600D02*
X109296200Y-127711200D01*
X64900000Y-120850000D02*
X64900000Y-117370400D01*
X66852800Y-115417600D02*
X66852800Y-113639600D01*
X64900000Y-117370400D02*
X66852800Y-115417600D01*
X53000000Y-126926000D02*
X53009800Y-126916200D01*
X53000000Y-133950000D02*
X53000000Y-126926000D01*
X45078800Y-83097400D02*
X45000000Y-83176200D01*
X52806600Y-83097400D02*
X45078800Y-83097400D01*
X45000000Y-104000000D02*
X45000000Y-83176200D01*
X74514400Y-92770000D02*
X74460000Y-92770000D01*
X74460000Y-92770000D02*
X78045000Y-92770000D01*
X78045000Y-92770000D02*
X81610200Y-89204800D01*
X89819000Y-89950598D02*
X89819000Y-91160600D01*
X89073202Y-89204800D02*
X89819000Y-89950598D01*
X81610200Y-89204800D02*
X89073202Y-89204800D01*
X99415600Y-95976598D02*
X99390200Y-95951198D01*
X99415600Y-96926400D02*
X99415600Y-95976598D01*
X99390200Y-95951198D02*
X99390200Y-93548200D01*
X45000000Y-83176200D02*
X45000000Y-67496600D01*
X46837600Y-65659000D02*
X45000000Y-67496600D01*
X62025000Y-58715000D02*
X57566200Y-58715000D01*
X53771800Y-65659000D02*
X46837600Y-65659000D01*
X106908600Y-104952800D02*
X106908600Y-101244400D01*
X106908600Y-101244400D02*
X106832400Y-101168200D01*
X100228400Y-97739200D02*
X99415600Y-96926400D01*
X104648000Y-97739200D02*
X100228400Y-97739200D01*
X97002600Y-91160600D02*
X99390200Y-93548200D01*
X95356200Y-91160600D02*
X97002600Y-91160600D01*
X68681600Y-86309200D02*
X63246000Y-80873600D01*
X63246000Y-80873600D02*
X63246000Y-71323200D01*
X59794000Y-147320000D02*
X56997600Y-144523600D01*
X56997600Y-137947600D02*
X55880000Y-136830000D01*
X56997600Y-144523600D02*
X56997600Y-137947600D01*
X140335000Y-138887200D02*
X141000000Y-138222200D01*
X131876800Y-138887200D02*
X140335000Y-138887200D01*
X118684600Y-137785400D02*
X119497400Y-137785400D01*
X123342400Y-141630400D02*
X129133600Y-141630400D01*
X119497400Y-137785400D02*
X123342400Y-141630400D01*
X129133600Y-141630400D02*
X131876800Y-138887200D01*
X57566200Y-58715000D02*
X57566200Y-61864600D01*
X63246000Y-71323200D02*
X55676800Y-63754000D01*
X57566200Y-61864600D02*
X55676800Y-63754000D01*
X53771800Y-65659000D02*
X55676800Y-63754000D01*
X113468800Y-62168800D02*
X116300000Y-65000000D01*
X113468800Y-58674000D02*
X113468800Y-62168800D01*
X117674000Y-58674000D02*
X121000000Y-62000000D01*
X119300000Y-62000000D02*
X116300000Y-65000000D01*
X121000000Y-62000000D02*
X119300000Y-62000000D01*
X116300000Y-58807600D02*
X116433600Y-58674000D01*
X116300000Y-65000000D02*
X116300000Y-58807600D01*
X113468800Y-58674000D02*
X116433600Y-58674000D01*
X116433600Y-58674000D02*
X117674000Y-58674000D01*
X139805200Y-126194800D02*
X141000000Y-125000000D01*
X134874000Y-126194800D02*
X139805200Y-126194800D01*
X78435200Y-103479600D02*
X74422000Y-103479600D01*
X98602800Y-97739200D02*
X80899000Y-97739200D01*
X80162400Y-101752400D02*
X78435200Y-103479600D01*
X74422000Y-103479600D02*
X74371200Y-103428800D01*
X99415600Y-96926400D02*
X98602800Y-97739200D01*
X80899000Y-97739200D02*
X80162400Y-98475800D01*
X80162400Y-98475800D02*
X80162400Y-101752400D01*
X74320400Y-92456000D02*
X74460000Y-92316400D01*
X73224400Y-92456000D02*
X74320400Y-92456000D01*
X74460000Y-92770000D02*
X74460000Y-92316400D01*
X74460000Y-92316400D02*
X74460000Y-87287000D01*
X73224400Y-86737200D02*
X72796400Y-86309200D01*
X73224400Y-92456000D02*
X73224400Y-86737200D01*
X73482200Y-86309200D02*
X72796400Y-86309200D01*
X72796400Y-86309200D02*
X68681600Y-86309200D01*
X74079100Y-86906100D02*
X73482200Y-86309200D01*
X74460000Y-87287000D02*
X74079100Y-86906100D01*
X73224400Y-92456000D02*
X73224400Y-92129600D01*
X73863200Y-87122000D02*
X74079100Y-86906100D01*
X73224400Y-92129600D02*
X73863200Y-91490800D01*
X73863200Y-91490800D02*
X73863200Y-87122000D01*
X118364000Y-95859600D02*
X119328600Y-94895000D01*
X119328600Y-94895000D02*
X120250000Y-94895000D01*
X118364000Y-102006400D02*
X118364000Y-95859600D01*
X115315400Y-105055000D02*
X118364000Y-102006400D01*
X112630000Y-105055000D02*
X115315400Y-105055000D01*
X120250000Y-92948800D02*
X118690400Y-91389200D01*
X120250000Y-94895000D02*
X120250000Y-92948800D01*
%TO.N,5V*%
X102616000Y-54102000D02*
X73050400Y-54102000D01*
X70895000Y-56257400D02*
X70895000Y-63885000D01*
X73050400Y-54102000D02*
X70895000Y-56257400D01*
X105968800Y-56946800D02*
X105968800Y-58674000D01*
X103124000Y-54102000D02*
X105968800Y-56946800D01*
X123617600Y-68000000D02*
X121000000Y-68000000D01*
X102616000Y-54102000D02*
X103124000Y-54102000D01*
X126238000Y-56438800D02*
X126238000Y-65379600D01*
X102616000Y-54102000D02*
X123901200Y-54102000D01*
X126238000Y-65379600D02*
X123617600Y-68000000D01*
X123901200Y-54102000D02*
X126238000Y-56438800D01*
D33*
%TO.N,Net-(D1-Pad2)*%
X83261200Y-107924600D02*
X81305400Y-107924600D01*
X81305400Y-107924600D02*
X79705200Y-109524800D01*
X79705200Y-109524800D02*
X79705200Y-114223800D01*
X79705200Y-114223800D02*
X77114400Y-116814600D01*
X77114400Y-116814600D02*
X69189600Y-116814600D01*
X67490000Y-118514200D02*
X67490000Y-120850000D01*
X69189600Y-116814600D02*
X67490000Y-118514200D01*
%TO.N,Net-(D2-Pad2)*%
X70078600Y-125011400D02*
X67490000Y-127600000D01*
X86178571Y-108715629D02*
X85819599Y-109074601D01*
X85039200Y-109524800D02*
X81813400Y-109524800D01*
X81813400Y-109524800D02*
X80924400Y-110413800D01*
X80924400Y-110413800D02*
X80924400Y-114757200D01*
X85819599Y-109074601D02*
X85489399Y-109074601D01*
X86178571Y-107899200D02*
X86178571Y-108715629D01*
X85489399Y-109074601D02*
X85039200Y-109524800D01*
X77571600Y-118110000D02*
X72212200Y-118110000D01*
X72212200Y-118110000D02*
X70078600Y-120243600D01*
X80924400Y-114757200D02*
X77571600Y-118110000D01*
X70078600Y-120243600D02*
X70078600Y-125011400D01*
%TO.N,Net-(D3-Pad2)*%
X67490000Y-134500000D02*
X67490000Y-132382600D01*
X67490000Y-132382600D02*
X69240400Y-130632200D01*
X69240400Y-130632200D02*
X69240400Y-129540000D01*
X69240400Y-129540000D02*
X71475600Y-127304800D01*
X71475600Y-127304800D02*
X71475600Y-120472200D01*
X71475600Y-120472200D02*
X72948800Y-118999000D01*
X72948800Y-118999000D02*
X78079600Y-118999000D01*
X78079600Y-118999000D02*
X81788000Y-115290600D01*
X81788000Y-115290600D02*
X81788000Y-111709200D01*
X81788000Y-111709200D02*
X82753200Y-110744000D01*
X82753200Y-110744000D02*
X87325200Y-110744000D01*
X89095942Y-108973258D02*
X89095942Y-107823000D01*
X87325200Y-110744000D02*
X89095942Y-108973258D01*
%TO.N,Net-(D4-Pad2)*%
X76758800Y-120853200D02*
X77393800Y-120853200D01*
X77393800Y-120853200D02*
X77419200Y-120878600D01*
X77419200Y-120878600D02*
X77647800Y-120878600D01*
X77647800Y-120878600D02*
X83642200Y-114884200D01*
X83642200Y-114884200D02*
X83997800Y-114884200D01*
X83997800Y-114884200D02*
X84785200Y-114096800D01*
X84785200Y-114096800D02*
X84785200Y-112064800D01*
X84785200Y-112064800D02*
X85217000Y-111633000D01*
X85217000Y-111633000D02*
X88290400Y-111633000D01*
X88290400Y-111633000D02*
X90398600Y-109524800D01*
X90398600Y-109524800D02*
X91567000Y-109524800D01*
X92013313Y-109078487D02*
X92013313Y-107823000D01*
X91567000Y-109524800D02*
X92013313Y-109078487D01*
%TO.N,Net-(D5-Pad2)*%
X76758800Y-127609600D02*
X76758800Y-124637800D01*
X80801600Y-120595000D02*
X83261200Y-120595000D01*
X76758800Y-124637800D02*
X80801600Y-120595000D01*
%TO.N,Net-(D6-Pad2)*%
X76758800Y-134493000D02*
X76758800Y-131216400D01*
X76758800Y-131216400D02*
X79629000Y-128346200D01*
X79629000Y-128346200D02*
X79629000Y-124790200D01*
X79629000Y-124790200D02*
X81584800Y-122834400D01*
X81584800Y-122834400D02*
X84937600Y-122834400D01*
X86178571Y-121593429D02*
X86178571Y-120690000D01*
X84937600Y-122834400D02*
X86178571Y-121593429D01*
%TO.N,Net-(D7-Pad2)*%
X89077800Y-122174000D02*
X89095942Y-122155858D01*
X89095942Y-122155858D02*
X89095942Y-120660000D01*
X88442800Y-122174000D02*
X89077800Y-122174000D01*
X86410800Y-127635000D02*
X86410800Y-124206000D01*
X86410800Y-124206000D02*
X88442800Y-122174000D01*
%TO.N,Net-(D8-Pad2)*%
X93167200Y-110464600D02*
X94930684Y-108701116D01*
X94930684Y-108701116D02*
X94930684Y-107670600D01*
X91592400Y-110464600D02*
X93167200Y-110464600D01*
X90601800Y-121259600D02*
X90601800Y-111455200D01*
X89801700Y-122059700D02*
X90601800Y-121259600D01*
X86385400Y-132943600D02*
X88823800Y-130505200D01*
X86385400Y-134467600D02*
X86385400Y-132943600D01*
X89801700Y-123456700D02*
X89801700Y-122059700D01*
X88823800Y-130505200D02*
X88823800Y-124434600D01*
X90601800Y-111455200D02*
X91592400Y-110464600D01*
X88823800Y-124434600D02*
X89801700Y-123456700D01*
%TO.N,Net-(D9-Pad2)*%
X95230000Y-127660400D02*
X95230000Y-126014800D01*
X95230000Y-126014800D02*
X93649800Y-124434600D01*
X93649800Y-124434600D02*
X92938600Y-124434600D01*
X92013313Y-123509313D02*
X92013313Y-120599200D01*
X92938600Y-124434600D02*
X92013313Y-123509313D01*
%TO.N,Net-(D10-Pad2)*%
X95224600Y-134467600D02*
X95224600Y-131699000D01*
X95224600Y-131699000D02*
X97104200Y-129819400D01*
X97104200Y-129819400D02*
X97104200Y-125222000D01*
X94930684Y-123048484D02*
X94930684Y-120599200D01*
X97104200Y-125222000D02*
X94930684Y-123048484D01*
%TO.N,Net-(D11-Pad2)*%
X103301800Y-127660400D02*
X103301800Y-126034800D01*
X103301800Y-126034800D02*
X102362000Y-125095000D01*
X102362000Y-125095000D02*
X99796600Y-125095000D01*
X97848055Y-123146455D02*
X97848055Y-120472200D01*
X99796600Y-125095000D02*
X97848055Y-123146455D01*
%TO.N,Net-(D12-Pad2)*%
X103301800Y-134467600D02*
X103301800Y-132003800D01*
X103301800Y-132003800D02*
X105587800Y-129717800D01*
X105587800Y-129717800D02*
X105587800Y-125450600D01*
X105587800Y-125450600D02*
X103428800Y-123291600D01*
X103428800Y-123291600D02*
X101473000Y-123291600D01*
X100765426Y-122584026D02*
X100765426Y-120472200D01*
X101473000Y-123291600D02*
X100765426Y-122584026D01*
%TO.N,Net-(D13-Pad2)*%
X111861600Y-127685800D02*
X111861600Y-126339600D01*
X111861600Y-126339600D02*
X110820200Y-125298200D01*
X110820200Y-125298200D02*
X107213400Y-125298200D01*
X107213400Y-125298200D02*
X104190800Y-122275600D01*
X104190800Y-122275600D02*
X102743000Y-122275600D01*
X102743000Y-122275600D02*
X102158800Y-121691400D01*
X102158800Y-121691400D02*
X102158800Y-118973600D01*
X102158800Y-118973600D02*
X101193600Y-118008400D01*
X101193600Y-118008400D02*
X101041200Y-118008400D01*
X101041200Y-118008400D02*
X99364800Y-116332000D01*
X99364800Y-116332000D02*
X99364800Y-110896400D01*
X99364800Y-110896400D02*
X98653600Y-110185200D01*
X98653600Y-110185200D02*
X98272600Y-110185200D01*
X97848055Y-109760655D02*
X97848055Y-107670600D01*
X98272600Y-110185200D02*
X97848055Y-109760655D01*
%TO.N,Net-(D14-Pad2)*%
X100765426Y-107670600D02*
X100765426Y-110087226D01*
X101915427Y-111237227D02*
X101915427Y-114492573D01*
X100765426Y-110087226D02*
X101915427Y-111237227D01*
X101915427Y-114492573D02*
X100990400Y-115417600D01*
X100990400Y-115417600D02*
X100990400Y-116662200D01*
X100990400Y-116662200D02*
X103098600Y-118770400D01*
X103098600Y-118770400D02*
X103098600Y-120675400D01*
X103098600Y-120675400D02*
X104495600Y-120675400D01*
X104495600Y-120675400D02*
X107848400Y-124028200D01*
X107848400Y-124028200D02*
X111836200Y-124028200D01*
X111836200Y-124028200D02*
X114300000Y-126492000D01*
X114300000Y-132003800D02*
X111836200Y-134467600D01*
X114300000Y-126492000D02*
X114300000Y-132003800D01*
%TO.N,Net-(D15-Pad2)*%
X123030000Y-126410000D02*
X123030000Y-119844800D01*
X125704600Y-117170200D02*
X125831600Y-117170200D01*
X123030000Y-119844800D02*
X125704600Y-117170200D01*
%TO.N,Net-(D16-Pad2)*%
X123030000Y-135980000D02*
X125208200Y-135980000D01*
X125208200Y-135980000D02*
X127254000Y-133934200D01*
X127254000Y-133934200D02*
X127254000Y-122428000D01*
X125831600Y-121005600D02*
X125831600Y-120345200D01*
X127254000Y-122428000D02*
X125831600Y-121005600D01*
D31*
%TO.N,SCL*%
X70895000Y-76585000D02*
X69320600Y-76585000D01*
X69320600Y-76585000D02*
X67411600Y-74676000D01*
X67411600Y-74676000D02*
X67411600Y-67208400D01*
X67411600Y-67208400D02*
X66040000Y-65836800D01*
X66040000Y-65836800D02*
X66040000Y-62026800D01*
X65268200Y-61255000D02*
X62025000Y-61255000D01*
X66040000Y-62026800D02*
X65268200Y-61255000D01*
D33*
%TO.N,Net-(J1-Pad2)*%
X89400000Y-95875000D02*
X89400000Y-94835600D01*
X88519000Y-93954600D02*
X88519000Y-91160600D01*
X89400000Y-94835600D02*
X88519000Y-93954600D01*
%TO.N,Net-(J2-Pad2)*%
X91940000Y-95875000D02*
X91940000Y-94750000D01*
X94056200Y-92633800D02*
X94056200Y-91160600D01*
X91940000Y-94750000D02*
X94056200Y-92633800D01*
%TO.N,S1VM*%
X66852800Y-98399600D02*
X65049400Y-98399600D01*
X65049400Y-98399600D02*
X64414400Y-97764600D01*
X64414400Y-97764600D02*
X64414400Y-92938600D01*
X64414400Y-92938600D02*
X57150000Y-85674200D01*
X57150000Y-85674200D02*
X57150000Y-80467200D01*
X54780200Y-78097400D02*
X52806600Y-78097400D01*
X57150000Y-80467200D02*
X54780200Y-78097400D01*
%TO.N,S1AM*%
X66852800Y-95859600D02*
X66852800Y-91948000D01*
X66852800Y-91948000D02*
X59486800Y-84582000D01*
X59486800Y-84582000D02*
X59486800Y-74295000D01*
X58289200Y-73097400D02*
X52806600Y-73097400D01*
X59486800Y-74295000D02*
X58289200Y-73097400D01*
%TO.N,S1VD*%
X70980300Y-96075500D02*
X73253600Y-98348800D01*
X70154800Y-89890600D02*
X70980300Y-90716100D01*
X67818000Y-89890600D02*
X70154800Y-89890600D01*
X70980300Y-90716100D02*
X70980300Y-96075500D01*
X61214000Y-73990200D02*
X61214000Y-83286600D01*
X61214000Y-83286600D02*
X67818000Y-89890600D01*
X58089800Y-69926200D02*
X58089800Y-70866000D01*
X56261000Y-68097400D02*
X58089800Y-69926200D01*
X73253600Y-98348800D02*
X74371200Y-98348800D01*
X58089800Y-70866000D02*
X61214000Y-73990200D01*
X52806600Y-68097400D02*
X56261000Y-68097400D01*
D32*
%TO.N,S2VM*%
X66920000Y-106250000D02*
X66965000Y-106205000D01*
D33*
X66852800Y-106019600D02*
X63246000Y-106019600D01*
X63246000Y-106019600D02*
X60502800Y-103276400D01*
X60502800Y-103276400D02*
X59029600Y-103276400D01*
X57003200Y-101250000D02*
X52950000Y-101250000D01*
X59029600Y-103276400D02*
X57003200Y-101250000D01*
%TO.N,S2AM*%
X66852800Y-103479600D02*
X65074800Y-103479600D01*
X65074800Y-103479600D02*
X64998600Y-103403400D01*
X64998600Y-103403400D02*
X63550800Y-103403400D01*
X63550800Y-103403400D02*
X60934600Y-100787200D01*
X60934600Y-100787200D02*
X60934600Y-98298000D01*
X58886600Y-96250000D02*
X52950000Y-96250000D01*
X60934600Y-98298000D02*
X58886600Y-96250000D01*
%TO.N,S2VD*%
X66052801Y-100139601D02*
X63843001Y-100139601D01*
X66852800Y-100939600D02*
X66052801Y-100139601D01*
X63843001Y-100139601D02*
X62509400Y-98806000D01*
X62509400Y-98806000D02*
X62509400Y-94081600D01*
X59677800Y-91250000D02*
X52950000Y-91250000D01*
X62509400Y-94081600D02*
X59677800Y-91250000D01*
X66852800Y-100939600D02*
X68656200Y-100939600D01*
X68656200Y-100939600D02*
X69316600Y-101600000D01*
X69316600Y-101600000D02*
X69316600Y-107213400D01*
X69342000Y-107188000D02*
X69316600Y-107213400D01*
%TO.N,S3VM*%
X53009800Y-121916200D02*
X55020200Y-121916200D01*
X55020200Y-121916200D02*
X57302400Y-119634000D01*
X57302400Y-119634000D02*
X57302400Y-114376200D01*
X57302400Y-114376200D02*
X59258200Y-112420400D01*
X59258200Y-112420400D02*
X63017400Y-112420400D01*
X64338200Y-111099600D02*
X66852800Y-111099600D01*
X63017400Y-112420400D02*
X64338200Y-111099600D01*
%TO.N,S3VD*%
X53009800Y-116916200D02*
X53009800Y-114858800D01*
X53009800Y-114858800D02*
X57505600Y-110363000D01*
X57505600Y-110363000D02*
X61950600Y-110363000D01*
X63754000Y-108559600D02*
X66852800Y-108559600D01*
X61950600Y-110363000D02*
X63754000Y-108559600D01*
X94930684Y-100050600D02*
X94930684Y-102173316D01*
X94930684Y-102173316D02*
X93903800Y-103200200D01*
X93903800Y-103200200D02*
X81178400Y-103200200D01*
X81178400Y-103200200D02*
X81153000Y-103174800D01*
X69279202Y-108508800D02*
X66751200Y-108508800D01*
X70815200Y-108102400D02*
X70408800Y-108508800D01*
X70408800Y-108508800D02*
X69279202Y-108508800D01*
X70815200Y-102158800D02*
X70815200Y-108102400D01*
%TO.N,S4VM*%
X92013313Y-112852200D02*
X92013313Y-117972113D01*
X92013313Y-117972113D02*
X92608400Y-118567200D01*
X92608400Y-118567200D02*
X99161600Y-118567200D01*
X129438400Y-116967000D02*
X129438400Y-129184400D01*
X127279400Y-114808000D02*
X129438400Y-116967000D01*
X123825000Y-114808000D02*
X127279400Y-114808000D01*
X120250000Y-112675000D02*
X121692000Y-112675000D01*
X121692000Y-112675000D02*
X123825000Y-114808000D01*
X131448800Y-131194800D02*
X129438400Y-129184400D01*
X134874000Y-131194800D02*
X131448800Y-131194800D01*
%TO.N,S4VD*%
X94930684Y-112852200D02*
X94930684Y-115987284D01*
X94930684Y-115987284D02*
X95554800Y-116611400D01*
X95554800Y-116611400D02*
X97790000Y-116611400D01*
X102285800Y-116484400D02*
X102971600Y-115798600D01*
X102971600Y-115798600D02*
X105257600Y-115798600D01*
X105257600Y-115798600D02*
X107340400Y-113715800D01*
X107340400Y-113715800D02*
X107340400Y-111125000D01*
X108330400Y-110135000D02*
X110090000Y-110135000D01*
X107340400Y-111125000D02*
X108330400Y-110135000D01*
X134874000Y-136194800D02*
X131267200Y-136194800D01*
X131267200Y-136194800D02*
X128473200Y-133400800D01*
X128473200Y-125933200D02*
X128422400Y-125882400D01*
X128473200Y-133400800D02*
X128473200Y-125933200D01*
X128422400Y-125882400D02*
X128422400Y-117144800D01*
X128422400Y-117144800D02*
X126949200Y-115671600D01*
X126949200Y-115671600D02*
X117856000Y-115671600D01*
X112319400Y-110135000D02*
X110090000Y-110135000D01*
X117856000Y-115671600D02*
X112319400Y-110135000D01*
%TO.N,S5VM*%
X120250000Y-107595000D02*
X121565000Y-107595000D01*
X121565000Y-107595000D02*
X124460000Y-110490000D01*
X124460000Y-110490000D02*
X129971800Y-110490000D01*
X132131800Y-112650000D02*
X134874000Y-112650000D01*
X129971800Y-110490000D02*
X132131800Y-112650000D01*
X116737800Y-107595000D02*
X120250000Y-107595000D01*
X115447801Y-108884999D02*
X116737800Y-107595000D01*
X103530400Y-114223800D02*
X103530400Y-112242600D01*
X103530400Y-112242600D02*
X104394000Y-111379000D01*
X104394000Y-111379000D02*
X105664000Y-111379000D01*
X105664000Y-111379000D02*
X108158001Y-108884999D01*
X108158001Y-108884999D02*
X115447801Y-108884999D01*
%TO.N,S5VD*%
X120250000Y-110135000D02*
X121742800Y-110135000D01*
X121742800Y-110135000D02*
X124104400Y-112496600D01*
X124104400Y-112496600D02*
X128600200Y-112496600D01*
X133753600Y-117650000D02*
X134874000Y-117650000D01*
X128600200Y-112496600D02*
X133753600Y-117650000D01*
%TO.N,S6VM*%
X120250000Y-102515000D02*
X122757600Y-102515000D01*
X122757600Y-102515000D02*
X125806200Y-99466400D01*
X125806200Y-99466400D02*
X128092200Y-99466400D01*
X128092200Y-99466400D02*
X130124200Y-97434400D01*
X130124200Y-97434400D02*
X130124200Y-94589600D01*
X131923800Y-92790000D02*
X134874000Y-92790000D01*
X130124200Y-94589600D02*
X131923800Y-92790000D01*
X115538599Y-106305001D02*
X119328600Y-102515000D01*
X97848055Y-103994855D02*
X98704400Y-104851200D01*
X119328600Y-102515000D02*
X120250000Y-102515000D01*
X98704400Y-104851200D02*
X101600000Y-104851200D01*
X101600000Y-104851200D02*
X103053801Y-106305001D01*
X97848055Y-100050600D02*
X97848055Y-103994855D01*
X103053801Y-106305001D02*
X115538599Y-106305001D01*
%TO.N,S6VD*%
X120250000Y-105055000D02*
X123952600Y-105055000D01*
X123952600Y-105055000D02*
X127177800Y-101829800D01*
X130834200Y-101829800D02*
X134874000Y-97790000D01*
X127177800Y-101829800D02*
X130834200Y-101829800D01*
X102336600Y-101621774D02*
X100765426Y-100050600D01*
X102336600Y-103694600D02*
X102336600Y-101621774D01*
%TO.N,VLT1*%
X120250000Y-99975000D02*
X121386000Y-99975000D01*
X121386000Y-99975000D02*
X126441200Y-94919800D01*
X126441200Y-94919800D02*
X126441200Y-89712800D01*
X134900000Y-81254000D02*
X134900000Y-77850000D01*
X126441200Y-89712800D02*
X134900000Y-81254000D01*
%TO.N,VLT2*%
X132305800Y-72850000D02*
X134900000Y-72850000D01*
X130022600Y-75133200D02*
X132305800Y-72850000D01*
X130022600Y-81457800D02*
X130022600Y-75133200D01*
X121640000Y-97435000D02*
X123418600Y-95656400D01*
X120250000Y-97435000D02*
X121640000Y-97435000D01*
X123418600Y-95656400D02*
X123418600Y-86588600D01*
X127635000Y-83845400D02*
X130022600Y-81457800D01*
X126161800Y-83845400D02*
X127635000Y-83845400D01*
X123418600Y-86588600D02*
X126161800Y-83845400D01*
D31*
%TO.N,CH01*%
X66294000Y-142820000D02*
X59794000Y-142820000D01*
%TO.N,CH02*%
X79502000Y-142820000D02*
X73002000Y-142820000D01*
D33*
X83189000Y-71505000D02*
X70895000Y-71505000D01*
X85344000Y-73660000D02*
X83189000Y-71505000D01*
X86563200Y-86588600D02*
X85344000Y-85369400D01*
X100126800Y-86588600D02*
X86563200Y-86588600D01*
X85344000Y-85369400D02*
X85344000Y-73660000D01*
D31*
%TO.N,Buzzer*%
X93755000Y-71505000D02*
X95830200Y-71505000D01*
X98225000Y-69110200D02*
X98225000Y-68300000D01*
X95830200Y-71505000D02*
X98225000Y-69110200D01*
%TO.N,CH03*%
X92710000Y-142820000D02*
X86210000Y-142820000D01*
%TO.N,3V3*%
X105436400Y-88036400D02*
X105460000Y-88060000D01*
X102616000Y-88036400D02*
X105436400Y-88036400D01*
X111072400Y-88060000D02*
X105460000Y-88060000D01*
X92756200Y-91160600D02*
X92756200Y-89361800D01*
X92756200Y-89361800D02*
X93624400Y-88493600D01*
X102158800Y-88493600D02*
X102616000Y-88036400D01*
X93624400Y-88493600D02*
X102158800Y-88493600D01*
X83185000Y-91160600D02*
X87219000Y-91160600D01*
X74472800Y-95859600D02*
X78486000Y-95859600D01*
X78486000Y-95859600D02*
X83185000Y-91160600D01*
X74371200Y-111048800D02*
X72339200Y-111048800D01*
X72339200Y-111048800D02*
X71170800Y-112217200D01*
X71170800Y-112217200D02*
X71170800Y-113792000D01*
X111072400Y-88060000D02*
X111783600Y-88060000D01*
X113690400Y-89966800D02*
X113690400Y-91389200D01*
X111783600Y-88060000D02*
X113690400Y-89966800D01*
X114503200Y-92202000D02*
X113690400Y-91389200D01*
X112630000Y-97435000D02*
X113943800Y-97435000D01*
X114503200Y-96875600D02*
X114503200Y-92202000D01*
X113943800Y-97435000D02*
X114503200Y-96875600D01*
D33*
%TO.N,CLK*%
X105054400Y-104978200D02*
X105054400Y-100558600D01*
X105638000Y-99975000D02*
X112630000Y-99975000D01*
X105054400Y-100558600D02*
X105638000Y-99975000D01*
%TO.N,DATA*%
X90140600Y-68965000D02*
X93755000Y-68965000D01*
X86791800Y-72313800D02*
X90140600Y-68965000D01*
X95334398Y-85242400D02*
X95004198Y-84912200D01*
X111506000Y-85242400D02*
X95334398Y-85242400D01*
X86791800Y-81991200D02*
X86791800Y-72313800D01*
X116078000Y-97434400D02*
X116078000Y-89814400D01*
X72420801Y-104678801D02*
X94355599Y-104678801D01*
X71831200Y-104089200D02*
X72420801Y-104678801D01*
X96678685Y-98900599D02*
X109274401Y-98900599D01*
X71831200Y-102006400D02*
X71831200Y-104089200D01*
X74371200Y-100888800D02*
X72948800Y-100888800D01*
X72948800Y-100888800D02*
X71831200Y-102006400D01*
X94355599Y-104678801D02*
X96080685Y-102953715D01*
X95004198Y-84912200D02*
X89712800Y-84912200D01*
X116078000Y-89814400D02*
X111506000Y-85242400D01*
X109274401Y-98900599D02*
X109489999Y-98685001D01*
X114878199Y-98634201D02*
X116078000Y-97434400D01*
X114878199Y-98685001D02*
X114878199Y-98634201D01*
X96080685Y-99498599D02*
X96678685Y-98900599D01*
X89712800Y-84912200D02*
X86791800Y-81991200D01*
X96080685Y-102953715D02*
X96080685Y-99498599D01*
X109489999Y-98685001D02*
X114878199Y-98685001D01*
%TD*%
M02*
